<?xml version="1.0" encoding="UTF-8" standalone="no"?>
<svg width="14px" height="17px" viewBox="0 0 14 17" version="1.1" xmlns="http://www.w3.org/2000/svg" xmlns:xlink="http://www.w3.org/1999/xlink" xmlns:sketch="http://www.bohemiancoding.com/sketch/ns">
    <!-- Generator: Sketch 3.1 (8751) - http://www.bohemiancoding.com/sketch -->
    <title>password</title>
    <desc>Created with Sketch.</desc>
    <defs></defs>
    <g id="UI-Kit-/-Article" stroke="none" stroke-width="1" fill="none" fill-rule="evenodd" sketch:type="MSPage">
        <g id="Article---Desktop-HD" sketch:type="MSArtboardGroup" transform="translate(-756.000000, -1136.000000)" fill="#85BA15">
            <g id="content" sketch:type="MSLayerGroup" transform="translate(79.000000, 127.000000)">
                <g id="form" transform="translate(84.000000, 907.000000)" sketch:type="MSShapeGroup">
                    <g id="input" transform="translate(485.000000, 2.000000)">
                        <g id="success" transform="translate(0.000000, 100.000000)">
                            <path d="M120.833,16 L109,16 L109,7.166 L120.833,7.166 L120.833,16 Z M117.333,6.166 L112.503,6.166 L112.503,5.65 C112.503,4.315 113.584,3.23 114.914,3.23 C115.553,3.23 116.174,3.489 116.623,3.947 C117.075,4.391 117.333,5.011 117.333,5.65 L117.333,6.166 Z M110.793,5.491 C110.793,3.219 112.642,1.371 114.914,1.371 C116.015,1.371 117.055,1.799 117.838,2.571 C118.615,3.359 119.043,4.396 119.043,5.491 L119.043,6.166 L118.333,6.166 L118.333,5.65 C118.333,4.744 117.965,3.864 117.33,3.24 C116.701,2.598 115.82,2.23 114.914,2.23 C113.033,2.23 111.503,3.764 111.503,5.65 L111.503,6.166 L110.793,6.166 L110.793,5.491 Z M120.043,5.491 C120.043,4.131 119.513,2.845 118.545,1.864 C117.569,0.901 116.28,0.371 114.914,0.371 C112.09,0.371 109.793,2.667 109.793,5.491 L109.793,6.166 L108,6.166 L108,17 L121.833,17 L121.833,6.166 L120.043,6.166 L120.043,5.491 Z M115.0327,9.3433 C115.6827,9.3433 116.2127,9.8723 116.2127,10.5233 C116.2127,10.8013 116.1137,11.0683 115.9337,11.2763 L115.8127,11.4183 L115.8207,13.8223 L114.2427,13.8223 L114.2427,11.4173 L114.1217,11.2763 C113.9417,11.0683 113.8427,10.8003 113.8427,10.5233 C113.8427,9.8723 114.3767,9.3433 115.0327,9.3433 L115.0327,9.3433 Z M113.2427,14.8223 L116.8247,14.8223 L116.8137,11.7743 C117.0717,11.4113 117.2127,10.9743 117.2127,10.5233 C117.2127,9.3213 116.2347,8.3433 115.0327,8.3433 C113.8247,8.3433 112.8427,9.3213 112.8427,10.5233 C112.8427,10.9733 112.9837,11.4113 113.2427,11.7753 L113.2427,14.8223 Z" id="password"></path>
                        </g>
                    </g>
                </g>
            </g>
        </g>
    </g>
</svg>