<?xml version="1.0" encoding="UTF-8" standalone="no"?>
<svg width="36px" height="36px" viewBox="0 0 36 36" version="1.1" xmlns="http://www.w3.org/2000/svg" xmlns:xlink="http://www.w3.org/1999/xlink" xmlns:sketch="http://www.bohemiancoding.com/sketch/ns">
    <!-- Generator: Sketch 3.1 (8751) - http://www.bohemiancoding.com/sketch -->
    <title>twitter</title>
    <desc>Created with Sketch.</desc>
    <defs>
        <circle id="path-1" cx="15" cy="15" r="15"></circle>
    </defs>
    <g id="O-nás" stroke="none" stroke-width="1" fill="none" fill-rule="evenodd" sketch:type="MSPage">
        <g id="O-nás---Desktop-HD" sketch:type="MSArtboardGroup" transform="translate(-674.000000, -2314.000000)">
            <g id="footer" sketch:type="MSLayerGroup" transform="translate(0.000000, 1907.000000)">
                <g id="social" transform="translate(538.000000, 318.000000)">
                    <g id="icons" transform="translate(5.000000, 92.000000)">
                        <g id="twitter" transform="translate(134.000000, 0.000000)">
                            <g id="Oval-9">
                                <use stroke="#00ACED" stroke-width="3" fill="#00ACED" fill-rule="evenodd" sketch:type="MSShapeGroup" xlink:href="#path-1"></use>
                                <use stroke="#FFFFFF" stroke-width="2" fill="none" xlink:href="#path-1"></use>
                            </g>
                            <path d="M13.3,20.6493516 C11.5,20.7493516 10.2,20.1493516 9,19.4493516 C10.3,19.6493516 12,19.1493516 12.9,18.3493516 C11.6,18.2493516 10.8,17.5493516 10.4,16.4493516 C10.8,16.5493516 11.2,16.4493516 11.5,16.4493516 C10.3,16.0493516 9.5,15.3493516 9.4,13.7493516 C9.7,13.9493516 10.1,14.0493516 10.5,14.0493516 C9.6,13.5493516 9,11.6493516 9.7,10.4493516 C11,11.8493516 12.6,13.0493516 15.2,13.2493516 C14.5,10.4493516 18.3,8.94935155 19.8,10.8493516 C20.5,10.7493516 21,10.4493516 21.5,10.2493516 C21.3,10.9493516 20.9,11.3493516 20.4,11.7493516 C20.9,11.6493516 21.4,11.5493516 21.8,11.3493516 C21.7,11.8493516 21.2,12.2493516 20.7,12.6493516 C20.6,17.2493516 17.7,20.4493516 13.3,20.6493516 Z" id="Path" fill="#FFFFFF" sketch:type="MSShapeGroup"></path>
                        </g>
                    </g>
                </g>
            </g>
        </g>
    </g>
</svg>