<?xml version="1.0" encoding="UTF-8" standalone="no"?>
<svg width="36px" height="36px" viewBox="0 0 36 36" version="1.1" xmlns="http://www.w3.org/2000/svg" xmlns:xlink="http://www.w3.org/1999/xlink" xmlns:sketch="http://www.bohemiancoding.com/sketch/ns">
    <!-- Generator: Sketch 3.1 (8751) - http://www.bohemiancoding.com/sketch -->
    <title>youtube</title>
    <desc>Created with Sketch.</desc>
    <defs>
        <circle id="path-1" cx="15" cy="15" r="15"></circle>
    </defs>
    <g id="O-nás" stroke="none" stroke-width="1" fill="none" fill-rule="evenodd" sketch:type="MSPage">
        <g id="O-nás---Desktop-HD" sketch:type="MSArtboardGroup" transform="translate(-540.000000, -2314.000000)">
            <g id="footer" sketch:type="MSLayerGroup" transform="translate(0.000000, 1907.000000)">
                <g id="social" transform="translate(538.000000, 318.000000)">
                    <g id="icons" transform="translate(5.000000, 92.000000)">
                        <g id="youtube">
                            <g id="Oval-9">
                                <use stroke="#BB0000" stroke-width="3" fill="#BB0000" fill-rule="evenodd" sketch:type="MSShapeGroup" xlink:href="#path-1"></use>
                                <use stroke="#FFFFFF" stroke-width="2" fill="none" xlink:href="#path-1"></use>
                            </g>
                            <path d="M19.8,10.25 C19.44,10.125 17.22,10 15,10 C12.78,10 10.56,10.125 10.2,10.25 C9.24,10.5625 9,12.75 9,15 C9,17.25 9.24,19.4375 10.2,19.75 C10.56,19.875 12.78,20 15,20 C17.22,20 19.44,19.875 19.8,19.75 C20.76,19.4375 21,17.25 21,15 C21,12.75 20.76,10.5625 19.8,10.25 L19.8,10.25 Z M13.8,17.8125 L13.8,12.1875 L17.4,15 L13.8,17.8125 L13.8,17.8125 Z" id="Shape" fill="#FFFFFF" sketch:type="MSShapeGroup"></path>
                        </g>
                    </g>
                </g>
            </g>
        </g>
    </g>
</svg>