<?xml version="1.0" standalone="no"?>
<!DOCTYPE svg PUBLIC "-//W3C//DTD SVG 1.1//EN" "http://www.w3.org/Graphics/SVG/1.1/DTD/svg11.dtd" >
<svg xmlns="http://www.w3.org/2000/svg">
<metadata></metadata>
<defs>
<font id="frente_h1regular" horiz-adv-x="593" >
<font-face units-per-em="2048" ascent="1638" descent="-410" />
<missing-glyph horiz-adv-x="471" />
<glyph horiz-adv-x="0" />
<glyph horiz-adv-x="682" />
<glyph unicode=" "  horiz-adv-x="471" />
<glyph unicode="&#x09;" horiz-adv-x="471" />
<glyph unicode="&#xa0;" horiz-adv-x="471" />
<glyph unicode="!" horiz-adv-x="372" d="M125 1683q20 -61 20 -170q6 -356 5 -389q-1 -42 1 -115.5t1 -134.5t-7 -116q-3 -19 2 -90q2 -30 8 -117t8.5 -130.5t4 -112.5t0.5 -126q0 -2 0.5 -4l1.5 -6l2 -8q36 -4 47 2t14 31q3 33 0 67q-4 70 -13 209.5t-13 208.5q-2 23 -2 68q4 294 4 440q3 208 -2 375 q0 41 -17 141q-3 18 -20.5 23t-32.5 -7q-20 -17 -12 -39zM164 -80q0 -10 2 -14q4 -20 20.5 -32.5t38.5 -12.5q13 -1 25.5 11.5t17.5 31.5q1 4 1 10t1 8q-3 31 -17 45t-40 13q-52 0 -49 -60z" />
<glyph unicode="&#x22;" horiz-adv-x="403" d="M92 1726q1 -22 2 -66.5t2 -66.5q-2 -39 -2 -118q0 -9 6.5 -16.5t16.5 -8.5q27 -3 39 18q2 6 2 23q0 4 -1.5 25t-1.5 26.5t-1 24.5t-0.5 26.5t0.5 24t0.5 26.5t1.5 24.5t3 27t5 24.5q1 5 -0.5 10t-5.5 13.5t-6 13.5q-6 0 -15 0.5t-16 0.5t-12 -1q-17 -6 -17 -31zM252 1726 q1 -22 2 -66.5t2 -66.5q-2 -39 -2 -118q0 -22 22 -25q27 -3 39 18q2 6 2 23q-8 157 7 229q1 4 -1 9.5t-6 14t-6 13.5h-43q-16 -5 -16 -31z" />
<glyph unicode="#" horiz-adv-x="983" d="M23 979q8 -31 32 -33q89 -10 217 8q4 0 17.5 3.5t23.5 3t19 -6.5q15 -102 4 -245q-12 -4 -14 -4q-39 -1 -118 -4.5t-118 -4.5q-14 -2 -27 -12t-14 -20q0 -15 11 -27.5t26 -13.5h16q107 15 183 22q38 5 45.5 -2.5t7.5 -50.5q0 -56 6 -109q2 -8 9 -17t13 -9q19 0 33 18 q8 16 0 35q-8 22 -10 46t-0.5 54.5t0.5 44.5q50 -4 137.5 5.5t122.5 9.5q9 -75 10 -97q0 -4 1.5 -18.5t1.5 -20t1 -18.5t1 -19.5v-18t-1 -19.5t-2.5 -18t-3.5 -19q-2 -12 17 -41q5 -10 16 -10.5t21 2.5q1 5 5.5 15.5t6.5 19t0 14.5q-4 13 -5.5 29.5t-0.5 29.5t0 29 q-1 12 -13 154q35 17 118.5 8t119.5 -31q4 3 18 10.5t20.5 15.5t6.5 23q-15 27 -25 39q-5 -2 -16.5 -7t-17.5 -5q-2 0 -62 6q-18 1 -55 5t-57 5h-45q-19 190 4 230q21 1 64 4t65 4l33 1q33 2 34 -1q43 -6 62 26q-10 34 -18 39t-42 0q-126 -23 -205 -12q6 80 15 154 q3 31 -3 43.5t-32 25.5q-33 -16 -33 -37q-1 -30 -2 -90.5t-2 -91.5q-44 -2 -131 -5t-131 -5q-4 36 -4 55q-2 37 -2 115q-1 17 -12 28t-25 9q-30 -3 -27 -43q1 -11 2 -32.5t2 -31.5q1 -17 4.5 -53t4.5 -55q-10 0 -27 -1t-23 -1q-121 0 -180 2q-37 0 -55 -2q-10 -1 -15.5 -9.5 t-2.5 -19.5zM383 958q22 12 122.5 15.5t139.5 -8.5v-238q-18 -1 -77.5 -6.5t-100 -7.5t-80.5 0q13 109 -4 245z" />
<glyph unicode="$" horiz-adv-x="634" d="M92 252q-2 29 2 90q17 14 21 14q15 6 28.5 0.5t14.5 -20.5q2 -18 -2 -53q0 -93 10 -129q7 -24 28 -42t48 -24q0 103 8 152q0 5 1 13.5t1 12.5q-4 89 7.5 253t8.5 235q0 22 -0.5 56.5t-0.5 60t1 47.5q-6 17 -28 69q-53 134 -74 191q-17 44 -47 141q-14 66 20 162 q24 62 97 69l20 4q-2 3 -2 5q-4 12 -4 45q0 40 26 43q27 3 37 -31q4 -12 4 -27l2 -35q3 0 8.5 -1t8.5 -1q71 -8 113 -90q34 -61 22 -139q-5 -27 -25 -27q-12 -2 -22.5 4.5t-13.5 18.5q-4 18 -4 53q0 77 -64 113l-18 8q8 -123 4 -186q-1 -31 0.5 -90.5t1.5 -77.5 q0 -25 -2 -72t-2 -70v-49q1 -5 4 -14t4 -14q30 -89 41 -127q3 -10 7 -30.5t7 -29.5q9 -22 18 -48.5t13.5 -45t12 -49.5t11.5 -45q38 -158 29 -314q-6 -95 -80 -149q-8 -7 -25.5 -17.5t-25.5 -17.5q-14 -12 -39 -20q0 -70 -2 -105q0 -32 -25 -35q-12 -1 -22.5 8.5t-13.5 24.5 v19q2 29 2 84q-18 4 -54 20q-5 1 -14.5 6.5t-15.5 7.5q-48 19 -58 78q-8 52 -8 117zM188 1423q-18 -61 2 -120q9 -29 30.5 -84t23.5 -62q18 -41 30 -78q1 53 0 112.5t-3 132.5t-3 114l-2 57q-27 -6 -48 -25.5t-30 -46.5zM303 94l12 8q36 23 68 60q11 15 18 35q18 89 11 147 q-12 153 -56 295l-34 119q-10 -228 -11 -266q-4 -134 -8 -398z" />
<glyph unicode="%" horiz-adv-x="1187" d="M125 174q6 -28 35 -31q12 0 17.5 1t11 6t6.5 16q0 4 8 12q105 167 112 178q44 70 103 160q17 27 59.5 83t61.5 87q23 40 72 109.5t65 95.5q35 52 213 321q35 50 90 140q20 31 10 55q-29 14 -38.5 12t-24.5 -28q-3 -5 -16.5 -30t-20.5 -40l-78 -129q-13 -20 -38 -54 t-34 -46l-108 -172q-16 -23 -47.5 -69.5t-46.5 -70.5q-10 -16 -30 -47t-30 -47q-17 -24 -52.5 -71.5t-53.5 -71.5q-22 -30 -88 -133l-93 -136q-22 -36 -49 -63q-21 -21 -16 -37zM201 1081q13 -134 131 -172q6 -1 24.5 -7t28.5 -7q79 -12 111 29q2 3 14.5 20.5t17 24.5 t11 21.5t8.5 27.5l14 41q31 70 23 127q-15 84 -86 139q-18 13 -45.5 35.5t-34.5 27t-27.5 10.5t-40.5 2.5t-57 -11.5q-51 -11 -73.5 -83t-18.5 -225zM259 1136q1 40 4 89.5t3 50.5q2 25 12.5 38t34.5 17q28 7 51 7.5t51 -17t68 -59.5q34 -34 43 -79.5t-8 -88.5l-29 -76 q-25 -54 -76 -63t-96.5 24t-56.5 90q-2 27 -1 67zM612 471q15 -85 84 -139q18 -13 39.5 -31t30 -24t23 -14t28 -7.5t33.5 2.5t51 8q51 11 74 82.5t20 224.5q-10 134 -129 172q-9 2 -26.5 8.5t-26.5 8.5q-79 12 -111 -29q-2 -3 -14.5 -20.5t-17 -24.5t-11 -21.5t-8.5 -27.5 l-16 -41q-31 -70 -23 -127zM670 474.5q-9 45.5 8 88.5l31 76q25 54 76.5 62.5t96 -25t54.5 -90.5q4 -23 -0.5 -108.5t-7.5 -98.5q-2 -25 -12.5 -38t-34.5 -17q-39 -15 -75.5 -2t-92.5 73q-34 34 -43 79.5z" />
<glyph unicode="&#x26;" horiz-adv-x="901" d="M98 449q-13 -96 2 -134q10 -28 35 -77t27 -54q7 -17 19.5 -30t29 -26t25.5 -22q85 -100 202 -28q107 70 162 131q16 17 74 59q45 -103 45 -104q12 -27 47 -90q10 -18 24 -21.5t23 8.5q28 39 4 70q-27 32 -58.5 107t-33.5 79l68 125q45 83 38 148q-3 44 -12 84 q-18 80 -84 139q-17 17 -33 5t-16 -40v-41q12 -10 39 -28q22 -19 37 -68.5t8 -81.5q-6 -32 -22.5 -66.5t-26 -48.5t-35.5 -51q-52 115 -68 148q-9 17 -27 46.5t-24 41.5q-3 3 -8 13t-8 13q-52 70 -115 211q66 97 72 105q28 34 55 114q43 116 49 224q8 75 4 112 q-2 17 -10.5 47t-11.5 45q-7 30 -33 56q-26 29 -57 38t-76 11q-8 0 -16 -4q-53 -20 -105 -66q-61 -55 -69 -141q-14 -119 8 -188q20 -66 26 -101q7 -38 18.5 -73.5t34.5 -91.5t29 -72q-124 -167 -161 -222q-31 -46 -43 -65t-29.5 -61.5t-22.5 -83.5zM164 457q17 81 84 170 q19 26 143 186q76 -149 84 -164q10 -18 49 -83.5t58 -100.5q11 -21 57 -125q-57 -57 -86 -82q-21 -19 -60.5 -50t-52.5 -42q-42 -33 -92.5 -27t-91.5 45q-43 41 -84 131q-26 52 -8 142zM287 1330q0 18 2 36q13 86 63 123q35 27 63.5 37t61.5 0q36 -8 53 -53q36 -86 17 -181 q-9 -56 -43 -186q-7 -32 -39 -83t-64 -83q-3 9 -21.5 49t-23.5 66q-4 23 -20 64t-21 61q-28 102 -28 150z" />
<glyph unicode="'" horiz-adv-x="223" d="M113 1726q1 -22 2 -66.5t2 -66.5q-2 -39 -2 -118q0 -22 22 -25q27 -3 39 18q2 6 2 23q0 4 -1.5 25t-1.5 26.5t-1 24.5t-0.5 26.5t0.5 24t0.5 26.5t1.5 24.5t3 27t5 24.5q1 5 -0.5 10t-5.5 13.5t-6 13.5h-43q-16 -5 -16 -31z" />
<glyph unicode="(" horiz-adv-x="495" d="M135 842q-3 -211 15 -373q16 -138 55 -242q73 -208 102 -280q13 -32 27.5 -39t48.5 2q22 43 -4 76q-31 39 -64 139q-31 92 -45 123q-18 39 -30.5 90t-17 83.5t-11.5 94.5q-6 60 -10 172q-4 94 0 141q3 40 12 120t12 120q5 85 54 293q12 59 34 117q47 154 101 229 q0 8 -2 10q-15 33 -37 33q-7 0 -12.5 -3.5t-8 -7t-6 -10.5t-4.5 -8q-53 -92 -68 -147q-7 -27 -24.5 -76.5t-22.5 -64.5q-3 -11 -14 -53t-16 -66q-27 -138 -45 -279q-17 -136 -19 -194z" />
<glyph unicode=")" horiz-adv-x="516" d="M102 -43q0 -6 2 -8q16 -35 37 -35q5 0 9 2t7.5 6t5 6.5t4 8.5t3.5 8q53 89 66 143q5 21 13 44.5t17.5 50.5t14.5 42q3 11 14 53t16 66q28 151 43 270q17 130 19 191q3 205 -15 366q-16 131 -53 238q-61 177 -100 272q-12 32 -26 39t-46 -2q-21 -41 4 -73q30 -39 62 -138 q20 -69 43 -121q37 -82 57 -262q6 -56 10 -168q4 -94 0 -137q-3 -41 -12 -119t-12 -116q-6 -94 -52 -287q-9 -44 -32 -115q-45 -146 -99 -225z" />
<glyph unicode="*" horiz-adv-x="512" d="M20 1491q19 -34 64 -31h55l4 -8q-30 -27 -57 -57q-10 -12 -10.5 -26t8.5 -23q22 -19 49 8q29 33 62 61q1 -2 2 -4.5t1.5 -3.5t0.5 -2v-55q1 -3 1.5 -10.5t2 -14t4.5 -10.5q7 -18 21.5 -18.5t27.5 14.5q6 7 7.5 15.5t0.5 14t-4 16t-4 13.5q-4 12 -5 24t0 33t1 27l20 -12 q10 -8 30 -25.5t30 -25.5q25 -21 43 -11q15 3 20 23q0 30 -24 41q-13 6 -23 14q2 0 2 4q26 -4 74 -8q15 35 5.5 50.5t-44.5 15.5q-5 0 -16 -1t-17 -1l-43 6q21 14 27 20q14 14 15 30t-11 28q-26 23 -53 -11q-5 -9 -15.5 -19t-25.5 -11v22q3 42 -10 88q-10 30 -37 23 q-23 -7 -17 -35q4 -29 2 -47q-10 3 -24 13t-23 16t-23 5.5t-28 -12.5q5 -28 9 -37t14 -12q15 -4 29 -14.5t29.5 -25.5t27.5 -23q-88 -8 -125 0q-28 6 -34.5 2t-15.5 -33z" />
<glyph unicode="+" horiz-adv-x="675" d="M123 709q0 23 18 30q8 4 52 9l153 4q-1 14 -4 38.5t-4 36.5q-1 22 -11 61.5t-12 51.5q-3 19 10 34.5t31 14.5q25 0 31 -16q3 -8 6 -27t4 -24l11 -168q16 1 45 2t45 2q12 0 25.5 1t29.5 2.5t25 2.5q21 2 39 -10.5t24 -32.5q1 -3 -0.5 -12.5t-1.5 -14.5q-3 -1 -9.5 -3 t-12.5 -3t-11 0q-87 13 -194 6l4 -78q2 -23 10 -79q2 -20 -10.5 -39.5t-32.5 -26.5q-3 -1 -6 -0.5t-9.5 1.5t-11.5 1q-1 3 -3 9.5t-3 12.5t0 11q9 74 2 184l-67 -4q-22 0 -61 -8.5t-52 -9.5q-20 -3 -35 9.5t-14 31.5z" />
<glyph unicode="," horiz-adv-x="249" d="M2 -233q-6 -12 4 -27q3 -2 12.5 -1t12.5 5q101 122 133 256q3 7 3.5 15.5t-0.5 20t-1 15.5q-2 1 -9.5 5t-10 5t-9 3t-10.5 1.5t-9.5 -3t-11.5 -7.5q-1 -7 -2 -23t-2 -24q-11 -65 -63 -168q-4 -8 -17.5 -33.5t-19.5 -39.5z" />
<glyph unicode="-" horiz-adv-x="415" d="M82 698q2 8 10 29q86 4 113 4q78 4 119 4q19 0 51 -8q10 -3 15.5 -17.5t2.5 -27.5q-3 -11 -14 -17.5t-21 -2.5q-74 24 -215 0q-17 -3 -34 0q-15 2 -22.5 11.5t-4.5 24.5z" />
<glyph unicode="." horiz-adv-x="294" d="M102 59q2 -19 22 -39t38 -20q22 0 38 22t13 48q-3 39 -55 36q-23 0 -39.5 -14t-16.5 -33z" />
<glyph unicode="/" horiz-adv-x="577" d="M82 -82q2 -2 11.5 -14.5t15.5 -14.5q15 -12 30 -6t21 27q3 7 7.5 24.5t6.5 24.5q8 41 21.5 118.5t19.5 108.5q35 149 39 162q16 68 51.5 193t44.5 159q23 97 60.5 274.5t52.5 246.5q36 176 80 378q12 63 14 91q4 29 -8 53q-9 17 -25.5 17.5t-31.5 -13.5q0 -1 -2.5 -10 t-0.5 -13q-5 -57 -16 -115.5t-27.5 -131t-23.5 -109.5q-4 -18 -34.5 -158.5t-41.5 -214.5q-46 -243 -121 -479q-6 -22 -26 -91t-32 -115.5t-20 -90.5q-10 -42 -30.5 -143.5t-34.5 -157.5z" />
<glyph unicode="0" horiz-adv-x="698" d="M143 1157q13 131 29 232q14 78 76 178q23 39 78 65q4 2 10 2t10 1t6 5q5 6 10 10.5t11 7t10.5 4.5t11.5 2h10.5t11.5 -2t10.5 -2.5t12 -3t11.5 -3.5q70 -21 116 -49q102 -66 105 -205q4 -156 4 -463q4 -332 0 -496q-7 -173 -39 -299q-19 -73 -77.5 -120t-125.5 -41 q-118 13 -186 79q-64 61 -64 142v209q-2 46 -8 187.5t-10 221.5q-1 31 -3 66t-5 77t-4 66q0 17 -4 45q0 6 -4 37t-3 47zM207.5 1158q-3.5 -69 9.5 -116q1 -7 1 -22.5t1 -22.5q2 -52 17 -295q1 -33 4.5 -92.5t5.5 -108.5t2 -93v-125l20 96q18 99 64 229q70 246 88 375 q9 52 30 149t29 140q5 28 16.5 83.5t18.5 101.5t8 89v4q-12 7 -69 37q-9 5 -27 0q-11 -3 -31 -11t-28 -11q-42 -9 -70 -47q-44 -55 -57 -132q-15 -68 -22 -113.5t-10.5 -114.5zM279 127q25 -31 65 -49t96 -25q48 -7 72 19q73 76 80 151q3 29 11 86.5t11.5 103t-0.5 87.5 q-2 6 -2 22q0 30 2.5 85.5t2.5 100.5t-5 85v208q4 132 2 201q0 20 -3 64t-3 67q0 13 -1 38t-1 38q0 43 -18 78l-6 -33q-25 -120 -60 -295q-8 -38 -37 -180.5t-47 -218.5q-13 -52 -41 -147.5t-37 -129.5q-12 -51 -26 -127q-21 -99 -31 -174q-1 -6 -12 -39q-3 -13 -12 -16z " />
<glyph unicode="1" horiz-adv-x="522" d="M82 1382q19 -34 51 -32q42 40 63.5 60t62.5 50t81 49q1 -7 3.5 -15.5t2.5 -12.5q1 -80 4 -242.5t4 -245.5q0 -35 1 -124t0.5 -153.5t-3.5 -125.5q-2 -44 -1.5 -149.5t-2.5 -149.5q-2 -18 -2 -53q4 -76 -18 -199q0 -1 4 -19q12 -6 47 -20q31 56 31 84l6 397v90 q-1 66 -1.5 272t-2.5 320q-4 323 8 459q-5 1 -13.5 5t-15.5 6t-12 1q-22 -3 -43 -24q-11 -9 -37 -38t-43 -40q-27 -17 -53 -37t-62 -50.5t-49 -41.5q-3 -3 -5.5 -11t-4.5 -10z" />
<glyph unicode="2" horiz-adv-x="655" d="M102 35q-1 -12 10 -23.5t23 -11.5q7 0 23 4q143 21 207 21q39 0 172 14q34 8 55 18q6 5 10.5 15.5t3.5 17.5q-2 7 -9 16t-13 9q-32 3 -66 -4q-15 -2 -52.5 -8t-59.5 -7q-46 -4 -142 -8h-11h-12t-10.5 0.5t-11 2.5t-10 5.5t-10.5 9.5q4 10 11 31.5t11 30.5l62 143 q1 2 18.5 46t24.5 67q30 76 49 141q4 13 34.5 116t51.5 155q31 75 77.5 220t55.5 169q38 103 41 213q0 62 -25 123q-26 62 -83.5 91t-125.5 15q-99 -20 -165 -104q-3 -5 -12.5 -17.5t-15 -21.5t-7.5 -17q-16 -67 -31 -178v-14q1 -13 12 -22t25 -9q12 0 21 7.5t10 19.5 q3 20 7 59.5t7 59.5q10 72 57.5 115.5t116.5 56.5q59 12 100 -35q46 -57 43 -140q-3 -113 -47 -219q-36 -104 -45 -143q-6 -27 -37 -104q-46 -113 -69 -199q-41 -149 -84 -270q-13 -36 -80 -211q-5 -12 -17 -33.5t-14 -26.5q-11 -27 -33 -75.5t-30 -67.5q-11 -26 -11 -43z " />
<glyph unicode="3" horiz-adv-x="636" d="M125 1409q-10 -43 16 -72q12 -12 27 -8q6 0 12 6t8 11q5 15 5 36q7 71 51 107q90 75 209 57q30 -3 41 -28q3 -6 8 -16.5t8 -17.5t6 -16.5t4 -17.5q9 -56 6 -113q-1 -20 -7.5 -106t-6.5 -133q0 -78 -72 -121q-9 -6 -29 -16.5t-24 -12.5q-26 -9 -35 -14q-14 -9 -13.5 -29.5 t15.5 -27.5q18 -9 37 -9q9 -1 29.5 1t30.5 1q25 -5 32 -14q33 -50 33 -90q-2 -106 -2 -322q0 -168 -2 -202q-7 -108 -92 -154q-69 -34 -160 -10q-35 11 -41 43q-12 90 -12 96q0 107 -19 154q-45 6 -56.5 -3t-4.5 -44q15 -75 10 -119q0 -17 -0.5 -23t3 -22.5t4.5 -21.5t6 -22 t6 -22q14 -51 69 -74q57 -26 111 -18q88 21 100 25q19 3 35 16q116 100 113 225q-1 15 0 47.5t0 49.5q-1 28 1 86t0.5 103.5t-10.5 86.5q-2 8 3 53q0 13 2 40t2 42q0 78 -54 135l-24 27q9 14 10 14q58 34 61 113q3 114 15 231q14 101 -8 179q-22 87 -54.5 114.5t-119.5 30.5 q-9 1 -54 -4q-16 -3 -33.5 -9.5t-38.5 -16.5t-32 -15q-94 -43 -125 -166z" />
<glyph unicode="4" horiz-adv-x="647" d="M124.5 385q6.5 -20 31.5 -29q66 -19 110 -12q81 16 209 -2q8 -1 22 -7t19 -7v-72l-6 -223q0 -23 27 -31q13 -4 23 0.5t13 15.5q15 47 15 74q0 31 -1 89t-1 105t2 89v22q-4 17 -4.5 35.5t1 42.5t1.5 35q0 14 2.5 75.5t2 74.5t-2.5 75q-9 131 10 269q4 34 8 90q0 32 -28 36 q-29 0 -35 -32v-17q-29 -235 -15 -387q11 -103 -16 -280h-307q70 234 74 245q55 181 57 293q0 1 6 37l55 318q5 28 13 81.5t13.5 86.5t17.5 78.5t28 82.5q8 12 -2 27q-10 16 -29 20q-9 3 -24 -12q-10 -10 -13 -26q-28 -106 -34 -138q-8 -49 -22.5 -148.5t-22.5 -148.5 q-5 -35 -17.5 -100.5t-17.5 -97.5q-1 -7 -8 -73t-15 -99q-31 -129 -86 -310q-4 -17 -11.5 -33.5t-19.5 -38t-16 -30.5q-13 -23 -6.5 -43z" />
<glyph unicode="5" horiz-adv-x="653" d="M124.5 1610q-6.5 -16 4.5 -27q17 -24 21 -76q0 -45 6 -88q8 -71 12 -110.5t7.5 -101t2 -115t-7.5 -105.5q-3 -20 8 -39q4 -17 20.5 -22t26.5 6q21 21 45 57q28 48 80 60q44 16 51 18q39 8 69 -12t36 -58q4 -32 12 -93.5t13.5 -109.5t9.5 -92q4 -33 4.5 -68.5t-1 -81.5 t-1.5 -67q-1 -22 0 -63t0 -74.5t-6 -62.5q-5 -46 -5 -113q3 -66 -39.5 -109.5t-109.5 -56.5q-51 -10 -78 39q-31 52 -31 88t-6 66q-6 58 -69 16q1 -8 3.5 -44t6.5 -54q10 -63 31 -103q19 -44 62.5 -67t90.5 -13q97 19 154.5 88.5t50.5 161.5q-1 16 0 33t3 38t3 32q1 25 4 73 t4 72q1 34 1 73t-0.5 87t-0.5 74q-1 13 -2 38.5t-2 38.5q-24 191 -26 234q-8 81 -82 149q-36 25 -66 17q-101 -16 -141 -37q-6 -3 -22 -10.5t-27 -14.5v95q-7 91 -21 217q-8 109 2 163q179 60 310 -18q31 20 42.5 39.5t0.5 50.5q-16 2 -49 7t-50 7q-89 16 -170 7 q-59 -7 -141 -11q-1 0 -9 -2t-12 -4q-16 -6 -22.5 -22z" />
<glyph unicode="6" horiz-adv-x="712" d="M143 977q1 -30 5.5 -135.5t3.5 -163.5q0 -26 6 -53q12 -64 8 -193q0 -88 8 -264q0 -44 25 -76q52 -64 168 -110q17 -6 59 -2q106 7 162 79q2 3 16 18.5t18.5 21.5t11.5 19.5t9 26.5q31 164 41 365q0 5 -1.5 23.5t-0.5 27.5q22 137 -4 260q-2 8 -12.5 45t-12.5 58 q-5 81 -88 118q-7 3 -21 10t-25.5 11.5t-22.5 7.5q-66 20 -101 -8q-16 -14 -82.5 -59t-97.5 -84q-4 62 -4 75q1 55 2 165t2 165q3 58 16 133q10 59 60 82q46 29 51 31q54 25 111.5 -0.5t76.5 -81.5q0 -1 13 -45q10 -24 37 -21q22 3 22 35q1 51 -32.5 102t-80.5 70 q-122 47 -241 -33q-70 -46 -80 -112q-15 -89 -16 -103q-10 -337 -9 -405zM215 711q0 55 25 82q17 18 34 73q21 57 70 86q9 5 33.5 20.5t38.5 22.5q43 22 99 1t71 -66q44 -141 35 -228q0 -20 2 -30q3 -30 2.5 -66.5t-1.5 -60t-5 -69.5t-5 -62q-7 -96 -41 -252 q-21 -101 -147 -119q-10 -1 -22 1.5t-28 7.5t-22 7q-10 3 -29.5 13.5t-25.5 13.5q-48 20 -57 80q-18 120 -11 285q3 107 -10 192q0 1 -6 68z" />
<glyph unicode="7" horiz-adv-x="626" d="M104 1645q-10 -35 27 -48q12 -6 29 -6h82q6 0 33.5 2.5t33.5 -0.5q54 -11 187 -2q9 0 28 -2.5t25 -3.5q-1 -7 -1 -18t-1 -15q-31 -122 -53 -325q-3 -25 -21 -94q-25 -110 -65 -263q-13 -48 -35 -137t-41.5 -161t-40.5 -136q-18 -62 -21 -80q-17 -117 -84 -284 q-14 -44 9 -64q16 -16 51 4q25 86 71 254q4 17 9.5 51.5t9.5 51.5q2 8 70 268l67 254q7 27 29.5 113t32.5 133q5 18 20 118q0 2 2 22t4 30q35 178 64 307q6 32 -7 45.5t-45 9.5q-143 -17 -200 -14q-45 3 -125.5 6t-106.5 4q-30 0 -37 -20z" />
<glyph unicode="8" horiz-adv-x="645" d="M123 1462q0 -27 0.5 -42.5t3.5 -50t4 -44.5q0 -3 10 -18q63 -140 150 -213q9 -8 31 -37q-46 -57 -64 -84q-33 -52 -43 -78q-36 -95 -51 -256q-17 -216 2 -457q6 -61 35 -112q47 -92 149 -95q20 0 60 4.5t59 4.5q47 -2 82 31t39 87q1 17 2 52t2 53q0 1 -1.5 61t1.5 60 q24 242 -6 485q-17 140 -113 211q-23 16 -39 29q39 56 49 69q42 54 88 181q5 25 5 28q-1 17 -5 63.5t-4 71.5q-1 62 -49.5 120t-109.5 77q-65 18 -137 -6.5t-109 -71.5q-6 -6 -21 -31q-9 -21 -14.5 -43t-5.5 -49zM193 1425v56q10 81 75 102q11 3 32 11t32 10 q53 12 113.5 -36t60.5 -104q0 -16 1.5 -68.5t0.5 -80.5q-3 -26 -21 -55q-54 -97 -79 -136q-11 -15 -25.5 -17.5t-26.5 9.5q-9 11 -48 53.5t-60 72.5t-35 65q-26 70 -20 118zM219 465q-3 8 0 44t2 43.5t3.5 43.5t5 43.5t6.5 43.5t7 43.5t7.5 43.5t7.5 43q11 56 49 117 q7 13 18.5 25t28 27.5t25.5 25.5q115 -53 133 -168q27 -155 27 -275q1 -74 -7.5 -210t-9.5 -193q0 -77 -20.5 -98t-100.5 -27q-5 0 -19.5 -0.5t-21.5 0t-19 2.5t-22 6q-65 26 -83 115q-6 46 -9 96q-4 138 -8 209z" />
<glyph unicode="9" horiz-adv-x="651" d="M127 311q-17 -132 29 -227q49 -102 143 -119q42 -7 104 0q64 9 91 37t38 86q23 100 29 215q11 232 6 387q-1 41 1.5 162t-1.5 160q-1 22 -3.5 85t-4 91t-5.5 83t-8 90.5t-11.5 82.5t-16.5 88q-12 46 -35 82q-29 44 -75 41q-95 -6 -97 -6q-66 -9 -102 -70 q-64 -112 -64 -219q0 -39 1 -117t1 -117q0 -38 31 -129q20 -50 90 -73q12 -4 27 -6.5t23.5 -3.5t29 -2t25.5 -1q74 -3 116 39q1 1 5.5 0.5t9.5 -2.5q5 -55 4 -65q-1 -29 -5 -144.5t-3 -177.5q2 -28 0.5 -82.5t-3 -82.5t-5 -82.5t-5.5 -82.5q-8 -121 -38 -180 q-154 -75 -234 58q-18 36 -18 55q-4 41 -4 127q0 5 1 15t1.5 16.5t-2.5 15.5t-9 16q-32 -5 -44 -13.5t-13 -29.5zM206 1131.5q0 15.5 1.5 35.5t1.5 31q0 49 -2 59q-10 71 18 207q8 34 33 76q32 46 96 49q54 5 75 -11.5t28 -70.5l18 -96q0 -14 2 -20q10 -93 10 -113 q0 -130 -8 -193q-5 -55 -38 -86.5t-91 -25.5q-4 0 -11.5 1t-10.5 1q-65 7 -85 30t-34 97q-3 14 -3 29.5z" />
<glyph unicode=":" horiz-adv-x="282" d="M74 948q2 -21 24 -43t43 -22q25 0 43 23.5t15 51.5q-3 44 -62 41q-26 0 -44.5 -15.5t-18.5 -35.5zM76 252q2 -22 24 -44t43 -22q25 0 43 24t15 54q-2 19 -18.5 29.5t-43.5 9.5q-26 0 -44.5 -15.5t-18.5 -35.5z" />
<glyph unicode=";" horiz-adv-x="323" d="M20 -219q9 2 24 3t19 3q22 15 37 37q14 25 40.5 69t47 80.5t35.5 71.5q10 25 8 35q-4 22 -18 29q-15 3 -35 -9q-7 -5 -12 -24q-26 -73 -100 -217q-6 -11 -21.5 -36t-24.5 -42zM164 391q-5 -24 4 -33q5 -6 12.5 -11.5t19 -12t15.5 -8.5q21 20 25 26t0 15q-19 47 -54 41 q-6 0 -13.5 -5.5t-8.5 -11.5z" />
<glyph unicode="&#x3c;" horiz-adv-x="1454" d="M84 815q2 -25 35 -41l22 -6q204 -48 230 -53q48 -7 144 -20.5t144 -20.5q57 -8 169 -26.5t169 -26.5q15 -2 47 -4.5t48 -4.5q51 -4 153 -16q14 -3 49.5 -12.5t55.5 -12.5q0 22 -3 37t-6.5 23t-15.5 13t-19.5 6.5t-29 4t-33.5 4.5l-38.5 7t-49 7.5t-41.5 2.5 q-73 2 -184 20q-338 53 -346 54q-10 2 -52 10.5t-65 9.5q-84 3 -180 41q34 17 100 25q74 4 127 14q57 11 280.5 47t342.5 64q94 21 137 54q28 22 -7 25q-17 2 -50 -2q-42 -6 -118.5 -23t-103.5 -22q-75 -11 -213 -31.5t-188 -27.5q-8 -2 -29 -6.5t-36 -7t-29 -2.5 q-50 -2 -104 -9.5t-123.5 -19.5t-102.5 -17q-27 -3 -53 -16q-14 -5 -23.5 -16.5t-9.5 -24.5z" />
<glyph unicode="=" horiz-adv-x="757" d="M184 709q-1 -19 14 -31.5t35 -9.5q13 1 52 9.5t61 8.5q17 1 76 5t86.5 5t74 -0.5t85.5 -7.5q5 -1 10.5 0t12 3t9.5 3q0 5 1.5 14.5t0.5 12.5q-6 20 -24 32.5t-39 10.5q-1 0 -32.5 -3t-47.5 -3q-51 -2 -153 -5t-152 -5q-42 -5 -51 -9q-19 -8 -19 -30zM188 428 q-3 -19 11 -32.5t34 -10.5q15 1 54 7t61 5q22 0 77 1t85 1t75.5 -4t84.5 -12q9 -1 11.5 -1t10.5 2.5t10 2.5q0 6 2 15t1 12q-4 20 -22 33.5t-38 11.5q-14 0 -41 -1t-39 -1l-307 6q-5 -1 -16 -1t-20 -1t-15 -4q-7 -1 -13 -10.5t-6 -18.5z" />
<glyph unicode="&#x3e;" horiz-adv-x="1433" d="M74 997q0 -22 3 -37t6.5 -23t15 -13t19 -6.5t29 -4t33.5 -4.5q109 -16 129 -16q66 -2 185 -21q55 -8 170 -25.5t176 -25.5q9 -1 52 -10t66 -10q85 -3 181 -41q-34 -17 -101 -25q-74 -4 -127 -14q-46 -9 -274 -46.5t-348 -66.5q-90 -20 -135 -53q-30 -23 3 -27q18 -2 52 2 q42 6 118 23t103 22q105 18 401 62q7 1 29 6t37 7.5t29 2.5q39 1 85 6.5t78.5 11t85.5 15.5t80 14q26 3 54 17q32 11 32 41q-3 25 -34 41l-23 6q-31 6 -109.5 24.5t-121.5 26.5q-48 7 -144.5 20.5t-144.5 20.5q-57 8 -169 25.5t-169 25.5q-15 2 -46.5 4t-47.5 4 q-28 2 -154 17q-13 3 -48.5 12t-55.5 12z" />
<glyph unicode="?" horiz-adv-x="581" d="M63 1421q3 -23 37 -37q26 26 30.5 35t4.5 37q2 71 34 113t99 61q55 15 111.5 -12.5t71.5 -79.5q46 -157 -5 -278q-84 -202 -143 -338q-82 -181 -88 -369q-2 -34 -2 -203l-1 -52q0 -52 1 -52q0 -49 4 -74q3 -17 15 -27t26 -8q27 0 27 39q0 18 -2 53t-2 52q0 178 2 268 q0 28 8 82q1 10 5 29.5t5 29.5q0 49 23 103q26 63 86 203.5t90 215.5q36 105 39 144q8 98 -35 221q-21 64 -68 86q-97 53 -188 31q-99 -27 -146 -100t-39 -173zM201 -92q30 -31 37.5 -36.5t27.5 -8.5q31 -6 51.5 6.5t26.5 40.5q4 19 -4 33t-25 20q-26 10 -71 -4 q-36 -12 -43 -51z" />
<glyph unicode="@" horiz-adv-x="962" d="M80 823q-25 -147 16 -235q21 -45 74 -88q4 -3 18.5 -15.5t21 -17.5t19 -13.5t23 -14t22.5 -9.5q11 -3 32.5 -11t33.5 -11q119 -43 192 -50q98 -10 193 74q30 28 47 54.5t16 48.5t-26 30q-10 3 -22.5 -7.5t-14.5 -22.5q-4 -25 -18.5 -41t-42.5 -35q-81 -55 -166 -35 q-33 7 -88 22q-136 34 -197 95q-47 50 -66 110q-25 83 1 191.5t100.5 205.5t175.5 134q73 19 150 -6.5t112 -81.5q35 -49 48 -73.5t20 -71t6 -132.5q0 -44 -11.5 -69.5t-52.5 -45.5q-49 -20 -84 15q-30 26 -12 78q6 15 6 34q8 83 -61 156q-55 62 -119 37q-28 -10 -61 -39 q-68 -55 -62 -133q3 -43 23 -92q20 -47 62 -68.5t91 0.5q2 2 8 4t9 4q27 15 49 -10q37 -43 86 -49q65 -4 92 6q67 30 87.5 105.5t0.5 244.5q-12 59 -84 156q-48 63 -127 78q-18 4 -29 8q-58 23 -125 10q-72 -12 -131.5 -46t-98 -76t-67.5 -97.5t-44 -103.5t-25 -101z M381 909q22 33 49 52q47 28 82 -21q32 -47 27 -100t-35 -72q-48 -30 -88 -20q-18 4 -27 16q-46 80 -8 145z" />
<glyph unicode="A" d="M82 55q-1 -5 -1 -9q0 -28 30 -36q35 -6 43 29q13 86 20 119l12 51h11q45 1 149 13q58 7 99 7q42 0 65 -8q1 -15 4.5 -36t3.5 -23q7 -84 14 -133q2 -12 13 -21.5t24 -9.5h4l20 8q12 10 13 23q0 25 -2 37q-4 25 -29 153q-16 78 -22 117l-49 348q-46 356 -53 416 q-3 24 -12.5 117t-16.5 143q-14 105 -14 154v16q0 17 -19 72q-3 12 -19 16q-5 1 -10 1q-9 0 -16 -5q-50 -29 -53 -92q-19 -225 -27 -291q-8 -68 -26.5 -194.5t-24.5 -176.5q-8 -60 -28 -188.5t-29 -196.5l-27 -162q-5 -26 -14.5 -80t-14.5 -81zM198 352q2 17 8.5 52t8.5 51 q6 48 20 137t19 121q30 235 37 282q4 26 14 77.5t14 76.5q6 41 27 227q16 -43 16 -47q4 -37 19 -217q5 -46 16.5 -131t14.5 -107q7 -49 22.5 -155t22.5 -162q5 -37 16 -110.5t16 -110.5v-35l-178 -18q-30 -3 -50 -2h-17q-11 1 -45 16q-2 25 -2 41q1 8 1 14z" />
<glyph unicode="B" horiz-adv-x="573" d="M86 52q6 -18 51 -60q1 -1 19 -8l11 2q11 2 17 6q107 47 193 90q6 4 37 35q26 29 30 94l7 299q1 13 1 27.5t-0.5 32.5t-0.5 28q0 32 -21 59q-13 17 -17.5 22t-15.5 17t-21 18.5t-22 10.5q-7 3 -15.5 8t-18.5 12.5t-15 10.5q0 4 1 6q1 1 1 2l17 16q97 72 120 215q5 34 7 69 q2 28 1 65v19v29q0 26 1 40q0 129 -13 188q-27 122 -137 180q-2 1 -70 39q-4 2 -59 35q-53 -45 -62.5 -61.5t-9.5 -71.5q0 -95 4 -279q0 -32 6 -122q5 -76 5 -124v-16q-1 -48 -1 -91.5t1 -81.5q1 -34 1 -73q0 -49 -2 -101q-2 -96 -12 -171q-2 -18 -2 -45q-4 -191 -16 -285 q-4 -35 -4 -56q1 -21 4 -29zM147 125q13 103 22 295.5t17 273.5l7 11q36 6 45 2q32 -13 104 -54q43 -25 43 -84q-2 -53 -2 -155v-154q0 -36 -6 -63q-10 -50 -51 -70q-69 -37 -158 -61q-22 14 -22 48q0 5 1 11zM174 1497q0 47 19 76q85 -42 126 -76q58 -51 62 -170 q2 -74 1.5 -146.5t-1.5 -144.5q-3 -60 -33 -129q-25 -47 -61 -69q-12 -7 -42.5 -25t-47.5 -29q-19 24 -19 57q0 10 2 21q5 56 5 81.5t-4 80.5t-5 80q-2 131 -2 393z" />
<glyph unicode="C" d="M123 352q4 -108 4 -143v-12q0 -83 53 -136q82 -85 172 -85q10 0 21 1q110 13 137 125q3 12 6 34t6 34q5 21 10 84.5t19 95.5q3 6 3 13q0 11 -8 21q-12 16 -32 19q-14 3 -25 -6.5t-14 -29.5q-11 -136 -12 -146q-4 -63 -10 -94q-19 -67 -76 -78q-6 -1 -14 -1q-23 0 -58 9 q-107 39 -115 154q-6 37 -6 82q0 29 2 88t2 88q0 45 -3 128.5t-3 152t6 129.5q6 113 9 223l3.5 66.5t2.5 66.5t-2 65q-1 18 -1 37q0 64 13 138q6 35 31 57q33 28 37 31q28 19 57 19l59 -21q55 -49 58 -123q0 -49 2 -78q1 -15 12 -24t25 -7q31 3 28 35q0 86 -6 131 q-1 12 -5 24t-7 19.5t-11 21t-10.5 17t-13.5 18.5t-12 17q-24 31 -62 41q-23 5 -45 5q-63 0 -117 -38q-41 -31 -64 -64t-26 -81q-1 -15 -5 -42t-5 -40q-1 -17 1 -67q1 -30 1 -50v-23q-1 -26 -1.5 -106t-2.5 -125q-3 -36 -4 -77t-1 -92t-1 -79q-2 -100 -2 -307q0 -37 4 -115 h-4z" />
<glyph unicode="D" horiz-adv-x="634" d="M131 1415q11 -61 11 -150q0 -45 -3 -96q-2 -106 -2.5 -176.5t2.5 -105.5q14 -158 14 -242q0 -20 -1 -35q-1 -19 0.5 -52t1.5 -44v-129q-2 -20 -8 -68.5t-7 -74.5q-2 -30 -3 -63.5t-1.5 -73.5t-1.5 -62q0 -2 1.5 -4.5t4 -7t4.5 -8.5q31 -6 33 -7q3 -2 11.5 -8.5t15.5 -9.5 q13 -4 21 -4h5q165 24 258 125q66 65 66 144v7q-4 157 -4 287q0 201 10 340v27q0 59 -2 172.5t-2 169.5q0 65 -33 155q-32 77 -123 140q-35 22 -108 50t-105 46q-3 2 -8 2q-3 0 -7 -1q-10 -2 -13 -7q-3 -6 -11 -17t-12.5 -18t-8.5 -18q-3 -9 -3 -17q0 -92 8 -166zM190 1446 q0 98 3 119q6 -2 22.5 -7t22.5 -8q34 -11 88 -37q152 -68 161 -247q6 -113 9 -226q0 -15 1 -44t1 -42q0 -12 2 -42q1 -18 0 -31v-15q-2 -33 -8 -119.5t-7 -134.5q-1 -31 -1 -73q0 -84 3 -209v-66q0 -59 -38 -94q-90 -87 -216 -100h-1q-5 0 -29 8q-5 71 -5 132q0 73 7 132 q4 40 5 78v44v56q-1 62 -1 76v80q0 128 -8 174q-7 34 -7 79q0 18 1 38q6 95 6 196q0 136 -11 283z" />
<glyph unicode="E" d="M111 55v11q0 1 1 3t1 3q9 71 9 181q0 36 -1 77q0 19 4 59l4 41v51q3 115 12 226q2 24 2 50q0 37 -4 79q-5 93 -5 248q0 78 1 171v48q0 95 -6 180q-1 12 -2 36.5t-2 36.5q0 11 -2 17q0 6 -1 18t-1 17q2 10 11.5 22t17.5 12h2q15 0 43 7q8 0 24.5 1t24.5 1h20q56 -6 115 -6 q24 -3 53 -3h10q6 -1 17 -2t16 -2q14 -2 25 -20q10 -13 6 -29q-9 -37 -37 -37h-10q-47 15 -105 15h-49q-28 -3 -59 0q-4 0 -8 1t-5 1q-19 0 -32 -10v-232q0 -42 -2 -67v-152q0 -69 2 -104v-39q29 0 41 2q83 8 120 10q9 0 15 2q4 0 11.5 1t10.5 1q27 0 45 -18l5 -5v-4 q-5 -37 -14.5 -54t-33.5 -17q-2 0 -26 4q-24 6 -62 6q-44 0 -112 -19v-6q8 -51 7.5 -120t-7.5 -156q-6 -80 -6 -168v-338h26q44 3 76 8q12 0 18 2h72q45 0 72 8q25 5 30 7h11q14 0 23.5 -9t11.5 -20q1 -7 1 -13q0 -20 -10 -34q-11 -27 -34 -27q-3 0 -15 4q-6 4 -18 4 q-11 0 -31 -4l-2 -2q-4 0 -6 -2q-12 -4 -19 -4q-4 0 -4 2q-12 2 -41 2q-19 0 -65 -4t-64 -4h-10q-31 0 -74 6q-12 1 -22 17.5t-10 31.5z" />
<glyph unicode="F" horiz-adv-x="573" d="M102 1597q9 -89 9 -160q0 -35 -2 -65q0 -49 2 -74q12 -129 12 -389q-1 -12 -2.5 -33t-2.5 -38t-1 -33v-541q0 -1 -6 -37q-1 -33 -2.5 -97.5t-2.5 -96.5q0 -24 25 -31h5l19 5q12 7 13 20q8 46 8 73q2 131 2 398q2 78 2 130t-2 79q-4 36 -4 70q0 55 10 104q156 8 211 10 q1 4 5.5 12t6 12.5t3 14.5t-3.5 16q-10 25 -48 21l-79 -13q-12 -2 -24 -2q-37 0 -73 21q-11 214 -11 386q0 114 5 210q33 10 75 10q27 0 58 -4q83 -14 152 -14h24q8 0 24 -3t21 -4q9 -2 17 -2q34 0 43 41q1 4 1 7q0 9 -6 18q-8 12 -20 12q-15 0 -47 -4q-32 -3 -63 -3l-105 9 q-61 12 -127 15h-15q-67 0 -102 -33z" />
<glyph unicode="G" horiz-adv-x="675" d="M123 1067q0 -59 4 -76q8 -46 8 -172q0 -25 -1 -77t-1 -76q1 -38 1.5 -107t1.5 -126t3 -107q8 -116 27 -174q38 -138 160 -166q28 -7 70 -8t59 -3q28 4 45.5 10.5t31 24t19 27.5t20.5 43q4 8 7 17t3.5 14.5t2 17.5t2.5 18q8 61 8 181q-1 52 -1 99q0 79 3 146q2 43 2 122 v87q-1 40 -1 73q0 90 3 138v8q0 29 -18 43q-163 10 -201 11q-19 0 -29 -2q-33 -10 -33 -35q2 -13 13 -26t24 -13q5 0 11 1t13 2.5t11 2.5q20 2 41 2q46 0 94 -12q5 -28 4 -31q4 -155 4 -290q0 -188 -8 -337q-1 -37 0 -57.5t-0.5 -46t-5.5 -55.5q0 -34 -10 -56 q-5 -11 -11.5 -23.5t-18 -25.5t-19.5 -10q-50 0 -125 16q-19 4 -37 19q-82 59 -88 172q-2 26 -3 56t-1.5 66t-1.5 56v121q-10 210 -10 252q-1 15 -1 43v32q1 10 1 20q0 40 -2 70q-2 38 -7 72q-3 12 0 25q1 32 2 96.5t2 97.5q7 81 25 201q3 34 21 63.5t49 43.5q46 18 87 18 q53 0 99 -29q53 -31 53 -90q-3 -28 0 -53q1 -12 16 -22.5t27 -8.5q12 0 21.5 10t9.5 25q0 69 -6 88q-20 74 -82 114q-58 38 -135 38h-8q-20 -4 -29 -4q-58 -3 -97 -27t-65 -74q-18 -32 -29 -82l-16 -120q-8 -50 -8 -72v-209z" />
<glyph unicode="H" horiz-adv-x="714" d="M143 72v-8q0 -19 7 -52q2 -5 8 -10.5t10 -5.5q21 0 27 12q5 7 10 43q1 25 2 75t2 75q0 45 18 104q101 10 174 10q103 0 150 -20q4 -32 3.5 -72.5t-3.5 -89.5q-4 -86 -4 -127q-3 -26 20 -33q3 -1 6 -1q10 0 19 7q12 9 14 23t2 45q1 65 2 194.5t2 194.5q0 4 6 127 q2 68 2.5 236t6.5 260q4 45 5 97q1 34 1 73q0 20 -0.5 40.5t-0.5 38.5q0 35 1 58q0 145 -2 217q0 26 -8 66q-5 26 -28 26h-7q-28 -4 -25 -45q0 -8 3 -25t3 -26q6 -127 9 -260q3 -92 3 -143q0 -30 -1 -46q-6 -90 -8.5 -190.5t-3 -226t-1.5 -189.5l-6 -123q-27 -30 -56 -30h-5 q-25 4 -55 5.5t-50.5 1.5t-56 -2.5t-51.5 -2.5q-13 -4 -32 -1t-34 19q1 19 1 45q0 44 -3 108t-3 109q0 27 1 47q3 62 5 140q1 46 1 87v53q0 31 -0.5 66t0.5 74v344q0 46 -4 144q0 15 -8 43q-5 12 -15 17t-22 1q-26 -6 -20 -37q2 -19 8.5 -67t7.5 -74v-18q0 -25 -2 -65 q-2 -54 -2 -75v-96q0 -29 1 -61.5t2.5 -72t2.5 -61.5q0 -170 -2 -256q0 -36 -4 -110q-6 -44 -6 -89t6 -91q5 -49 5 -98q0 -74 -11 -148q-10 -73 -17 -178z" />
<glyph unicode="I" horiz-adv-x="374" d="M188 297q5 -190 5 -281q3 -1 12.5 -6t15.5 -6q7 -2 13 -2q10 0 16 4q12 8 12 25q2 12 2 39q-1 18 -3 66t-3.5 89t-1.5 66v155q1 34 8 137.5t8 155.5v69q0 128 -4 404l-6 318q0 44 -4 67q-4 24 -20 37q-9 7 -19 7l-29 -17q-3 -9 -3 -15q0 -3 1 -5q7 -40 10 -91t3.5 -114.5 t1.5 -89.5q2 -41 2.5 -175.5t3.5 -185.5t3 -113q0 -118 -11 -276q-13 -175 -13 -252v-10z" />
<glyph unicode="J" horiz-adv-x="655" d="M61 301q0 -14 0.5 -42t2 -46.5t4 -42.5t6.5 -45q11 -55 43.5 -91.5t81.5 -45.5q21 -4 42 -4q93 0 183 84q17 17 25 53q4 37 8 119q2 45 3 136t3 136q3 78 11 235t11 238q2 0 2 51q0 34 -1 90l-1 140q0 16 -2 45t-2 43q-4 66 -8 186q0 7 2.5 22.5t3.5 20.5q38 -6 60 -6 q32 -3 32 35q-3 41 -35 41h-4q-27 -1 -213 -17q-10 0 -26 -8q-8 -3 -11 -11.5t1 -19.5q6 -15 18 -30h105q1 -10 3.5 -38t2.5 -42q1 -34 10 -177q4 -83 4 -144q0 -44 -2 -76q-2 -22 0.5 -62t1.5 -57q0 -6 -18 -371q-1 -36 -6.5 -181t-6.5 -222l-6 -47q-3 -30 -27 -48 q-7 -5 -17.5 -15t-14.5 -13l-12 -6l-13 -6.5t-12 -5t-13.5 -5t-12.5 -3.5t-13.5 -2.5t-12.5 0t-14 1.5q-81 15 -94 105q-11 58 -11 130q0 16 1 33q4 35 4 62t-4 45q-9 6 -14 6q-29 6 -38.5 -2t-9.5 -37v-42v-46z" />
<glyph unicode="K" horiz-adv-x="696" d="M184 41q0 -23 11 -41q8 -13 28 -16h2q6 0 11 5q6 6 8 17q6 24 6 51q-2 67 -2 95t2.5 95.5l3.5 94.5q1 13 1 27.5t-0.5 32.5t-0.5 28q-1 12 -4 38.5t-3 37.5t3 35q3 23 8 221l59 92q6 12 20 50t28 57q10 -20 10 -25q17 -128 47 -225q26 -86 33 -203q4 -35 28 -168 q55 -260 60 -285l6 -20q12 -28 37 -25q11 3 18 14.5t6 24.5q0 5 -6 35q-4 18 -14.5 51.5t-14.5 48.5l-55 230q-4 14 -4 45q-15 171 -41 270q-27 89 -45 234q-4 62 -31 92l9 24q20 38 68 141.5t79 157.5q3 7 8.5 19.5t9.5 23t7 19.5q5 28 38 92q22 36 31 65q6 14 15 50 q0 28 -23 32q-3 1 -6 1q-12 0 -21 -13q-10 -10 -18 -39q-5 -11 -37.5 -88.5t-52.5 -116.5q-11 -26 -33 -74t-27 -59l-129 -301l-49 -98q-2 -3 -9 -12t-9 -15q-2 1 -7 2t-7 2q0 64 8 196q8 119 8 187v15q-1 30 -1 76q0 23 0.5 50.5t0.5 52.5q0 51 -1 95q-1 66 -5 125 q-40 7 -52 -4q-10 -9 -11 -35q0 -6 1 -14q9 -128 9 -170q3 -131 3 -220q0 -45 -1 -79q0 -41 -4 -115.5t-5 -101.5q-1 -8 -1 -19q0 -22 3 -55q17 -104 17 -189q0 -59 -8 -108q-5 -35 -5 -82q0 -24 1 -51q3 -29 3.5 -63t-1 -58.5t-4 -64.5t-3.5 -60q0 -22 -2 -67.5t-2 -67.5z " />
<glyph unicode="L" horiz-adv-x="491" d="M143 39q-1 -4 -1 -8q0 -15 12 -29q13 -14 28 -14h6l115 24q51 9 91 9q44 0 75 -11q18 -9 31 -6q19 0 35 8q18 10 18 31q0 18 -14 29q-20 10 -27 10q-19 4 -61 8h-29q-71 0 -123 -12q-3 -1 -12.5 -3.5t-14 -3.5t-12.5 -2t-14 0t-13.5 3.5t-13.5 7.5v74q1 30 1 70 q0 80 -3 200q0 24 -0.5 42t0.5 31q1 25 1 129.5t-3 243.5q-1 29 -1 60q0 73 5 157q1 21 1 55v37v37q0 34 1 54q3 48 3 116q0 91 -5 220q-3 34 -15 42q-7 4 -20 4q-12 0 -30 -3q0 -4 -1 -14t-1 -15q1 -28 2 -84t2 -84l6 -385q0 -32 -4 -102q-2 -42 -2 -306t-2 -329v-8v-19 q0 -27 2 -69q1 -30 1 -57q1 -27 -1 -50q-2 -46 -13 -88z" />
<glyph unicode="M" horiz-adv-x="778" d="M125 1620q1 -5 12 -55t13 -76q5 -63 20 -348q3 -32 3 -63.5t-3 -61.5q-4 -64 -6 -142q-2 -62 -2 -110v-24q0 -56 1 -145t1 -136q0 -36 3 -108t3 -107q0 -38 -3.5 -104t-4.5 -89q0 -25 26 -31q11 -5 23.5 2t15.5 19q4 24 4 37q-1 51 -2 155t-2 156q-1 20 -4.5 81t-3.5 95 q0 77 10 439v35q0 29 1 35q1 3 1 13q-1 18 -3 57q-3 54 -3 67l1 5q0 12 -4 66q-4 62 -4.5 70t-5 69.5t-5.5 69.5q0 1 -0.5 6t0 7.5t3.5 6.5t9 7q5 -9 17.5 -27t15.5 -23q98 -176 139 -268q14 -34 35 -36.5t41 28.5q39 59 63 106q3 6 13 25.5t14 27.5t13 25t15 27t15 24 t18 25.5t19 22.5q-4 -50 -4 -80v-105q-1 -18 1 -78q1 -36 1 -61v-31q-4 -192 -8 -280q-1 -43 -2 -126.5t-2 -125.5v-53q4 -60 4 -138q0 -142 -13 -344q0 -6 -1 -18.5t-1 -18.5q1 -13 11.5 -22.5t21.5 -9.5q12 1 22.5 11t12.5 21q1 5 1 12t-0.5 15t-0.5 12q1 22 1.5 91.5 t2.5 107.5q5 82 5 154.5t-5 134.5q-4 30 -4 55q0 18 2 35q8 63 8 161v12q0 35 -1 66q0 62 1 107q1 71 1 212.5t1 211.5q0 18 0.5 60t1.5 66t3.5 59.5t7.5 64.5q-32 7 -40.5 7.5t-23.5 -5.5q-24 -14 -29 -37q-5 -24 -16 -49l-123 -252q-8 -14 -37 -53q-14 11 -16 14 q-123 222 -193 354q-15 32 -48 32q-5 0 -11 -1h-18q-27 -5 -27 -29q0 -6 2 -14z" />
<glyph unicode="N" horiz-adv-x="714" d="M143 1612l7 -168q2 -34 10 -186q7 -123 6 -200v-34q-3 -106 -6 -191.5t-4.5 -127t-1.5 -70.5q-2 -131 -2 -239q0 -237 8 -361q0 -23 10 -41q16 -9 37 8q18 8 18 45q0 6 -2 18.5t-2 18.5q0 28 -4 276q-2 99 -2 165q0 98 4 120q4 95 8 297q3 65 2 119q0 86 -6 149 q-3 24 -4 50t-1 59t-1 51q6 -7 16 -37q20 -81 39 -178q24 -108 69.5 -323t68.5 -322q4 -18 17 -63t17 -70q14 -62 40 -181t38 -173q8 -32 24 -40q13 -6 45 -6h17q11 24 11 58q0 8 -1 16q21 420 21 451v190q8 160 8 264q0 73 -4 119q-2 13 -2 57q-1 36 1 94q2 128 3 154v207 q0 27 -6 37q-3 6 -11.5 12t-15.5 6q-31 -10 -37 -22q-2 -5 -2 -37q6 -100 6 -212q0 -42 -1 -87v-22q0 -44 2 -110q4 -86 4 -122q0 -94 -4 -282q0 -14 -2.5 -45t-2.5 -48q-1 -24 -1.5 -66.5t-1.5 -78.5t-3 -68q-2 -65 -10 -190q0 -1 0.5 -7t0 -10t-1 -8.5t-3 -7t-6.5 -2.5 l-8 57l-138 571v-1q-42 155 -75 342q-20 119 -111 430q0 4 -2 8.5t-6 10.5t-6 10l-37 -7q-23 -7 -23 -26z" />
<glyph unicode="O" horiz-adv-x="681" d="M82 1131q1 -14 3 -31t3 -27q4 -28 4 -45q1 -24 4 -66t5 -77t3 -66q5 -82 11 -225.5t8 -183.5v-209q0 -82 63 -142q68 -65 187 -79q8 -1 15 -1q59 0 110 42q58 47 77 120q32 126 39 299q2 82 2 206t-2 290q0 307 -4 463q-3 139 -104 205q-45 28 -117 49q-1 0 -12.5 3.5 t-13.5 4t-12 2.5q-8 2 -12 2l-1 -1q-3 0 -11 -1t-13 -4t-11 -7.5t-12 -11.5q-2 -4 -6.5 -5t-10.5 -1t-10 -2q-55 -26 -78 -65q-61 -98 -75 -178q-16 -101 -29 -232v-12.5v-13.5zM146 1158q3 68 10 114.5t22 113.5q13 75 58 132q28 38 69 47q7 2 28 10.5t32 11.5q8 2 14.5 2 t11.5 -2q72 -37 92 -53q62 -49 62 -125q0 -8 0.5 -23.5t0.5 -28.5t-1 -24q1 -17 4.5 -62.5t3.5 -68.5q1 -23 1 -53q0 -60 -3 -148v-208q5 -40 5 -85t-2.5 -100.5t-2.5 -85.5q0 -16 2 -22q2 -21 2 -43t-2 -45q-4 -46 -12 -102.5t-11 -86.5q-7 -76 -79 -151q-19 -20 -53 -21 q-9 0 -19 2q-56 7 -96 25q-97 46 -97 147l1 91v51q0 41 -1 41q0 44 -2 93t-5.5 108.5t-4.5 92.5q-12 194 -16 295q-1 7 -1 22.5t-1 22.5q-11 39 -10 91q-1 12 0 25z" />
<glyph unicode="P" d="M143 1612q0 -18 7 -39q14 -53 14 -162v-250q0 -252 -2 -303q0 -26 -7 -86q-5 -47 -5 -76v-16q7 -81 7 -177q0 -80 -5 -171q-1 -21 -7 -273v-53q0 -10 6 -18t15 -8q22 0 35 10q16 24 16 41q2 74 2 217v201l49 38q2 2 133 127q4 4 14 13.5t16 15.5t13.5 15t12.5 18 q65 97 65 162v85q0 236 -14 412q-9 77 -57 150q-11 17 -23.5 31.5t-30.5 29.5t-28 22.5t-35 24.5t-31 21q-53 30 -131 33q-14 0 -22 -10t-7 -25zM221 590q-8 74 -8 133t8 104q4 23 6 47.5t2.5 53.5t0.5 46.5t-1.5 53t-1.5 47.5q-2 90 -2.5 150t2.5 90q2 37 2 80q0 59 -4 129 q-2 11 2 41q107 -29 158 -101q58 -86 61 -204q1 -24 1.5 -74t1.5 -74q0 -53 4 -78q5 -24 7 -54q1 -18 0 -32v-16q-1 -18 -3.5 -56t-3.5 -49q-3 -48 -37 -94q-57 -76 -176 -176q-7 1 -11 5t-5 7.5t-2 11.5t-1 9z" />
<glyph unicode="Q" horiz-adv-x="757" d="M145 1283.5q0 -17.5 1 -44t4 -49.5v-41q0 -354 -3 -711q0 -118 27 -229q49 -165 168 -217q6 -3 18.5 -11.5t18.5 -11.5q-4 -54 -4 -71q0 -34 4 -48q0 -24 27 -28h5q21 0 27 24q6 21 6 48q0 7 -1 25t-0.5 31.5t3.5 26.5q5 2 16.5 8.5t16.5 8.5q57 15 88 78q40 72 54 143 q34 171 34 267v10q0 26 2 38q2 57 17 367v115q0 16 0.5 46.5t0.5 55.5t-1 47q-1 31 -5.5 111t-4.5 123q0 103 -62 190q-16 22 -43 37q-39 27 -123 31q-36 3 -67 3q-39 0 -68 -5q-31 -7 -47 -23q-38 -39 -59.5 -73t-26.5 -80q-1 -6 -7 -46t-7.5 -51t-5 -44t-3.5 -50.5z M207 1241q-1 13 -1 26q0 94 32 218q23 99 124 102q20 1 37 1q42 0 74 -5q48 -8 83.5 -50t41.5 -106q3 -42 7 -128t7 -128q4 -21 4 -72q0 -36 -2 -87q-4 -103 -4 -144v-14v-52q0 -131 -12 -261q-4 -28 -2 -47v-17q0 -99 -41 -272q-12 -44 -45 -96q-18 -39 -62 -39h-6 q-1 9 -2 29.5t-2 29.5q-2 12 -4 35t-4 35q-8 26 -21 29.5t-42 -13.5q1 -20 4 -61.5t4 -63.5q2 -5 -6 -20h-3q-43 0 -83 57q-34 59 -47 111q-13 45 -18.5 103.5t-6 86.5t-0.5 104q0 21 1 62.5t1 60.5q0 30 -2 100q-1 47 -1 85v37q1 52 7 100v22q-8 168 -10 242z" />
<glyph unicode="R" horiz-adv-x="675" d="M184 8q42 -25 49 -18q16 20 19 37q4 8 4 30v16q0 35 3 89q5 76 5 109q0 37 -8 100q-4 18 0 59q10 97 10 169q0 34 -2 63v9q0 32 25 48q28 -66 43 -98q87 -185 123 -312q33 -120 102 -286q18 -44 61 -50q16 26 18 32q1 3 1 7q0 5 -2 11q-14 32 -19 40q-65 124 -94 248 q-11 40 -20 64q-33 77 -119 289q-12 29 -17 44.5t-10.5 47t0.5 51.5q65 57 107 90q60 45 80 119q20 72 21 159q0 72 -15 154q-34 186 -162 268q-6 3 -32 19.5t-42 23.5q-43 15 -67 15q-51 -5 -51 -43q0 -10 4 -23q15 -56 15 -159q0 -23 -1 -48q0 -14 1 -42t1 -42v-358 q-2 -124 -14 -383l-3 -69q-4 -47 -4 -70v-18q0 -21 1 -52q3 -32 3 -78q0 -61 -5 -147q-1 -20 -4.5 -58.5t-4.5 -56.5zM266 1581q110 -15 164 -111q44 -77 55 -151q10 -67 10.5 -134t-10.5 -134q-13 -67 -55 -101q-23 -19 -66 -55.5t-65 -54.5q-3 -2 -12 -5t-13 -4 q1 34 4 168t3 207q-1 88 -15 375z" />
<glyph unicode="S" horiz-adv-x="552" d="M82 219q2 -39 10 -127q10 -64 66 -86q4 -2 14.5 -8t17.5 -8q45 -24 85 -24q44 0 81 30q5 4 26.5 16.5t31.5 20.5q82 61 88 166q2 32 2 64q0 141 -33 276q-3 12 -10 41.5t-11 45t-10.5 39t-14 44t-15.5 39.5l-17 65q-35 117 -43 141q-8 22 -25.5 66.5t-25.5 66.5 q-45 121 -47 127q-6 16 -29 72.5t-33 87.5q-10 32 -10.5 65.5t10.5 67.5q15 52 67 72q23 9 45 9q29 0 56 -15q70 -39 70 -123q0 -39 4 -57q3 -13 15 -21t26 -6q23 3 27 31q3 20 3 40q0 60 -28 113q-45 88 -125 99q-21 4 -45 4q-30 0 -65 -6q-82 -14 -105 -78 q-26 -72 -26 -127q0 -26 6 -49q17 -73 49 -156q36 -100 84 -209q24 -55 44.5 -117t44.5 -145t36 -121q43 -134 63 -323q1 -20 1 -39q0 -64 -15 -123q-7 -25 -21 -39q-41 -45 -73 -66q-24 -17 -53 -17q-20 0 -42 8q-55 20 -69 67q-11 33 -11 85q0 26 3 56q0 6 0.5 18t0.5 22 t-1 19q-3 15 -15.5 22t-29.5 1q-8 -2 -23 -17q0 -5 -3 -42.5t-3 -57.5z" />
<glyph unicode="T" horiz-adv-x="573" d="M84 1636q-2 -4 -2 -8q0 -11 10 -29q3 -4 10 -10.5t9 -9.5q19 1 59.5 6t57.5 5t57 -9q0 -2 3 -9.5t3 -12.5q8 -185 10 -285q1 -29 1 -86v-92t3.5 -84t9.5 -90t6 -78q0 -29 -4 -56q-3 -25 -5 -51t-1.5 -56.5t1 -48.5t2.5 -56t3 -50q2 -37 2 -112q0 -86 -2 -127l-6 -172 q-1 -20 -4 -57.5t-4 -55.5q0 -33 29 -39q4 -1 8 -1q9 0 17 6q11 8 12 22q12 70 12 104q0 46 -1 139t-1 140q0 16 1.5 44.5t1.5 52t-3 44.5q-8 70 -8 147q0 55 4 115q2 38 1.5 75t-1.5 75q-1 21 -7.5 80.5t-7.5 91.5q-2 83 -2 167t2 169q0 23 1 70.5t1 72.5q17 3 36 3.5 t32 -0.5t36 -5.5t31 -6.5t33 -9l23 26q7 13 7 23q0 7 -4 13q-8 14 -32 17q-58 4 -88 4q-33 1 -106 7q-72 7 -104 7h-7q-33 0 -98 -5q-31 -3 -37 -15z" />
<glyph unicode="U" horiz-adv-x="655" d="M123 1522q1 -58 1 -164t1 -191t4 -161q9 -260 9 -463q0 -55 -1 -107q-1 -37 -1 -108t-1 -107q0 -68 37 -123q0 -1 10.5 -17.5t16.5 -23.5q70 -86 150 -86h9q26 3 52 0h6q68 -1 120 61q54 64 54 163v26q0 56 6 141q18 193 18 345v43v48v99q2 96 2 127q0 86 -1 258.5 t-1 257.5q0 25 -2 37q-3 26 -26 29q-11 2 -22.5 -5.5t-12.5 -17.5q-5 -24 -2 -53q8 -311 10 -471v-21q0 -67 -4 -268q0 -12 1 -35t1 -35q4 -36 4 -55q-9 -148 -14 -205q-2 -26 -9 -82q-6 -56 -10 -98q-2 -27 -3 -53q0 -15 1 -29v-11q0 -58 -39 -89q-53 -42 -108 -42 q-28 0 -57 11q-74 24 -109 111q-23 56 -23 127q0 122 5 207q1 33 2 77q0 59 -3 139q-4 140 -4 183q-1 73 -5.5 216t-5.5 215v22q0 71 5 194v66q-2 20 -9.5 28.5t-27.5 9.5q-4 0 -24 -10v-110z" />
<glyph unicode="V" horiz-adv-x="778" d="M41 1630q1 -7 6 -21t6 -18q31 -69 39 -104q8 -29 26.5 -95.5t28 -103.5t22 -93t19.5 -103q6 -42 23 -118.5t22 -103.5q32 -185 64 -401q2 -8 6.5 -29t7 -36t2.5 -29q2 -50 9 -102.5t21.5 -126.5t18.5 -101q3 -24 17 -53q5 -14 16.5 -23.5t24.5 -9.5q25 2 41 35l6 22 q5 23 23 105t26 127q7 48 20.5 144.5t20.5 144.5l49 337q2 15 4 47t4 48q2 25 17 153q22 100 22 103q6 59 32.5 162t33.5 141l3 12q4 12 5 19q3 7 12.5 26.5t12.5 30.5q3 8 3 16q0 10 -4 18q-7 16 -22 21q-10 4 -19 4q-8 0 -16 -3q-16 -7 -22 -27q-7 -28 -20.5 -85.5 t-20.5 -86.5q-4 -20 -10.5 -57t-10.5 -56q-2 -13 -7 -39.5t-7 -40.5q-24 -129 -29 -160q-16 -109 -16 -129q-2 -65 -21 -184l-49 -346q-1 -9 -10 -52.5t-10 -66.5q-3 -80 -39 -180q-19 34 -27 100q-4 74 -14 127q-6 32 -46 267t-69 356q-9 43 -31.5 170t-41.5 196 q-5 16 -13.5 50.5t-13.5 50.5q-17 60 -49 145q-7 26 -29 37q-11 8 -37 -2q-10 -7 -10 -29z" />
<glyph unicode="W" horiz-adv-x="962" d="M66 1595q42 -146 49 -213q5 -62 30 -215q1 -18 15 -94q52 -301 59 -350q6 -39 27 -154.5t30 -179.5q11 -56 27.5 -164t20.5 -129q2 -11 4 -33t4 -32q11 -42 42 -42q13 0 29 7q7 2 21 16q9 45 17 91.5t14.5 103t10 91t10.5 104.5t9 94q6 111 15 227q1 10 6 35.5t8 46.5 q4 -22 19.5 -100.5t17.5 -116.5q9 -102 47 -336q4 -24 11.5 -72t11.5 -71q11 -69 43 -101q20 -17 36 -17q6 1 10 3q18 8 23 45q2 12 2 39q2 17 9.5 84t13.5 102q54 380 61 537q0 43 8 121q24 136 37 305q9 130 23 184q20 73 33 156q1 6 1 12q0 13 -6 25q-9 16 -24 18 q-11 2 -23.5 -9.5t-15.5 -27.5q-2 -2 -2 -6q-28 -198 -33 -256q-6 -51 -37 -346q-2 -17 -7 -50t-8 -60.5t-3 -51.5q0 -85 -31 -311q-6 -51 -21 -144t-20 -129q0 -1 -1 -4.5t-1 -4.5t-2 -4.5t-3.5 -3.5t-5 -1.5t-7.5 0.5q-40 216 -41 225q-9 55 -21 156t-18 141 q-13 98 -33 183q-3 20 -18 51q-9 12 -26 13.5t-26 -9.5q-26 -39 -24 -64q0 -15 -3.5 -43t-4.5 -37q-17 -109 -17 -114q-3 -41 -7 -125t-7 -125q-3 -30 -15 -133t-18 -164q-12 22 -19.5 47.5t-10.5 43t-7 45t-6 40.5q-8 41 -19.5 123t-19.5 123q-13 73 -41.5 221t-42.5 221 q-21 118 -43 303q-8 107 -37 221q-5 29 -22 68q-7 16 -21 22q-7 3 -12 3q-7 0 -14 -4q-14 -8 -14 -27q0 -10 4 -23z" />
<glyph unicode="X" horiz-adv-x="716" d="M82 -12q-1 3 -1 6q0 14 11 31q15 35 25 81q2 6 14 54q2 5 4 12t2 8q4 16 4 23q6 18 21.5 63t23.5 70q52 142 62 176q26 70 45 131q4 13 8.5 26.5t11 30.5t9.5 27q3 9 8.5 26.5t7.5 22.5q0 3 2.5 12t3.5 13l-6 26q-3 10 -13 36.5t-14 41.5l-4 10q-18 61 -20 68 q-14 60 -34.5 130t-34 112.5t-39 118t-32.5 96.5q-18 47 -38 116l-13 41q-2 8 -2 23q0 28 17 35h12q12 0 18 -6q12 -12 19 -37q17 -77 69 -230q23 -69 47 -147l56 -188q5 -27 26 -101q0 -6 2 -8q8 -30 19 -35q6 6 6 15q11 26 16 43q28 94 29 96q4 17 23 76q23 74 64 210.5 t54 178.5l2 2l7 22q17 57 26 78q6 21 29 29q4 2 6 2q10 0 21 -15q8 -11 4 -28q-3 -15 -9 -27q0 -2 -1 -4.5t-1 -3.5l-18 -57q-58 -182 -188 -590q-19 -55 -27 -84q-1 -4 -6.5 -17.5t-7.5 -21.5q4 -8 4 -12q3 -6 7 -18.5t7 -18.5q41 -135 47 -166q11 -47 41 -119l12 -35 q9 -23 32.5 -85t37.5 -95q13 -35 80 -215q6 -9 6 -20q0 -9 -4 -19q-7 -27 -25 -27q-15 0 -24 15q-10 24 -15 33q-3 12 -30 90q-59 144 -86 229q-33 85 -62 186l-24 78q-3 13 -23 70q-2 5 -4 12.5t-4 11.5h-2q-9 0 -12 -10l-2 -4q-14 -41 -38.5 -116t-35.5 -107l-19 -57 q-29 -87 -59 -187q-22 -69 -39 -145q-15 -84 -51 -129l-2 -4l-4 4q-35 24 -35 41z" />
<glyph unicode="Y" horiz-adv-x="696" d="M82 1604q13 -64 24 -88q69 -172 97 -236q43 -92 129 -268l41 -72q-3 -14 -12 -58.5t-15 -66.5q-10 -73 -31 -168q-4 -20 -12.5 -63t-14 -76.5t-9.5 -63.5q-7 -58 -41 -186q-7 -24 -29.5 -96.5t-32.5 -112.5q-5 -19 -2 -43q0 -26 23 -29h5q17 0 29 21l7 29l61 211 q4 11 8 41q44 276 80 428q9 39 10 51q5 54 16 108.5t29.5 131.5t24.5 106q16 65 86 326q44 172 49 190q2 7 2 13q0 17 -14 24q-9 5 -17 5q-14 0 -24 -15q-8 -20 -8 -31q-18 -59 -21 -84q-13 -52 -71 -293q-49 -181 -54 -199q-21 11 -39 52q-99 193 -125 262q-10 29 -31 80.5 t-37 95t-26 84.5q-5 28 -32 28q-8 0 -17 -2q-1 -4 -3 -11.5t-3 -13.5v-6v-5z" />
<glyph unicode="Z" horiz-adv-x="655" d="M106 29q7 -17 13 -45q28 -21 53 -21h6q10 0 31 1t31 1q6 1 56 -3q20 -1 34 -2q19 0 24 3q68 11 125 11q38 0 72 -5q18 -3 27 19q12 29 0 41q-16 21 -27 16q-17 -5 -35.5 -6t-40 0t-33.5 0q-104 -8 -233 -8q-35 -2 -42.5 13.5t7.5 61.5q1 3 7 20.5t7 25.5q33 128 56 231 q52 231 104 410q16 47 42.5 146t43.5 148q18 45 47 156q13 40 35 117.5t31 107.5q6 26 20.5 81.5t20.5 82.5q-14 24 -34 24q-3 0 -7 -1q-37 -12 -78 -15q-20 -3 -57.5 -6t-49.5 -4q-52 -6 -94 -6q-55 0 -96 10q-10 2 -22 0q-11 0 -16.5 -16t1.5 -29q12 -28 43 -28 q19 1 54.5 1h57.5t53 3.5t58 9.5q50 8 70 8q8 0 23.5 -3.5t19.5 -4.5q-8 -52 -12 -62q-3 -16 -13.5 -52.5t-13.5 -55.5q-4 -14 -31 -114.5t-43 -153.5q-7 -23 -24 -72t-23 -72q-11 -37 -33.5 -119.5t-35.5 -125.5q-26 -80 -61.5 -228.5t-45.5 -185.5q-33 -168 -65 -240 q-10 -25 -10 -45q0 -11 3 -20z" />
<glyph unicode="[" horiz-adv-x="522" d="M135 -2q-18 -97 64 -94q14 0 39.5 3t37.5 3q7 0 23 1.5t29 1t26 -4.5q13 -10 31.5 -8t28.5 18q4 5 5.5 11t0.5 14t-2 12.5t-4 14.5t-4 12q0 4 -2 4q-12 8 -21 8q-22 -1 -46 -3t-53 -5t-46 -4q-17 0 -29 2q-4 24 -4 34l6 162q1 24 4 78.5t4 83.5q1 22 6.5 98.5t6.5 118.5 q1 21 -1 59.5t-2 49.5q0 30 1.5 92t1.5 94q-5 106 -7 127q-4 34 -5 76t-0.5 67.5t2 79t1.5 70.5q1 21 3.5 60.5t3 59.5t-0.5 58q-1 33 13 154q3 29 30 26q15 -2 45.5 -4t45.5 -4q21 -3 30 23q1 4 2 13t2 13q3 18 -1 25.5t-19 7.5q-33 2 -96 2q-36 0 -78 -10 q-25 -5 -35.5 -24t0.5 -42q6 -12 6 -43q0 -11 -5 -77.5t-3 -102.5t-1.5 -103.5t-2.5 -97.5q0 -48 3 -144t3 -142q1 -34 0 -101t0 -100q9 -179 -10 -371q-3 -30 -6 -85t-4 -72q-9 -146 -17 -195z" />
<glyph unicode="\" horiz-adv-x="665" d="M0 1698q0 -1 1.5 -7t3 -9.5t5.5 -4.5q23 -52 42.5 -109t40.5 -127t34 -108q11 -33 52 -162.5t67 -197.5q75 -216 133 -477q6 -24 18 -72.5t19.5 -78.5t19 -71t23.5 -75q17 -56 49.5 -158.5t42.5 -134.5q4 -1 11.5 -5t14 -6t11.5 -1q19 -3 29 9t6 34q-1 7 -6 24t-7 27 q-5 13 -34 93t-44 124q-2 6 -20.5 66.5t-24.5 93.5q-21 67 -53 197.5t-39 156.5q-28 95 -83 267.5t-76 240.5q-47 143 -119 368q-10 38 -31 84q-12 28 -35 43q-15 9 -30 2.5t-21 -26.5z" />
<glyph unicode="]" horiz-adv-x="671" d="M169.5 1677q-0.5 -9 1 -16t5 -17.5t4.5 -15.5l2 -2q16 -12 23 -12q107 13 149 16q3 0 13 -1t18 -1q0 -9 1 -20t1 -15q-1 -18 -1.5 -51t-1.5 -60t-3 -50q-2 -29 -5 -86t-5 -86l-13 -218q0 -20 2 -55.5t2 -52.5q0 -33 -1 -96.5t-1 -94.5q0 -77 7 -129q4 -34 5 -76.5 t0.5 -68t-2 -80t-1.5 -70.5q-1 -18 -5.5 -83.5t-3.5 -100.5q1 -15 -10 -151q-3 -30 -31 -27q-86 5 -92 6q-26 3 -32 -22l-7 -27q-3 -19 1.5 -25.5t23.5 -7.5q15 0 48 -1t50 -1q52 4 80 8q26 6 36.5 26.5t-1.5 43.5q-9 16 -6 45q0 26 5.5 86t4.5 92q-2 41 1 113t3 94 q0 56 -3.5 158t-4.5 133q0 22 1 62.5t1 74.5t-2 64q-9 139 10 376q2 27 5 79t5 79q9 146 17 199q18 96 -66 96l-80 -6q-8 0 -24 -2t-28 -1t-25 7t-33.5 3t-30.5 -17q-6 -6 -6.5 -15z" />
<glyph unicode="_" horiz-adv-x="942" d="M43 -45q-6 -38 16 -41q8 -2 23 -2q18 1 52 4t52 4q1 0 39 1t39 -1q21 -2 78.5 -8.5t89.5 -7.5q40 -1 240 4l176 6q5 1 19.5 1.5t21.5 2.5q15 4 22 21q10 27 -6 49h-12q-24 -7 -50.5 -10t-61 -3.5t-50.5 -1.5q-20 -1 -55.5 -1t-64.5 -1t-54 -4q-93 -10 -225 8 q-112 14 -142 13q-90 -4 -139 -4q-4 -11 -8 -29z" />
<glyph unicode="`" horiz-adv-x="1228" d="M463 1754.5q-2 18.5 6 31.5q13 24 37 12q73 -38 92 -45q29 -14 83.5 -35t76.5 -30q24 -10 37 -23q11 -11 2 -35q-1 -4 -4 -7t-8 -6t-7 -5q-16 4 -22 8q-129 71 -260 100q-3 1 -9.5 4.5t-9.5 4.5q-12 7 -14 25.5z" />
<glyph unicode="a" d="M82 55q-1 -5 -1 -9q0 -28 30 -36q35 -6 43 29q13 86 20 119l12 51h11q45 1 149 13q58 7 99 7q42 0 65 -8q1 -15 4.5 -36t3.5 -23q7 -84 14 -133q2 -12 13 -21.5t24 -9.5h4l20 8q12 10 13 23q0 25 -2 37q-4 25 -29 153q-16 78 -22 117l-49 348q-46 356 -53 416 q-3 24 -12.5 117t-16.5 143q-14 105 -14 154v16q0 17 -19 72q-3 12 -19 16q-5 1 -10 1q-9 0 -16 -5q-50 -29 -53 -92q-19 -225 -27 -291q-8 -68 -26.5 -194.5t-24.5 -176.5q-8 -60 -28 -188.5t-29 -196.5l-27 -162q-5 -26 -14.5 -80t-14.5 -81zM198 352q2 17 8.5 52t8.5 51 q6 48 20 137t19 121q30 235 37 282q4 26 14 77.5t14 76.5q6 41 27 227q16 -43 16 -47q4 -37 19 -217q5 -46 16.5 -131t14.5 -107q7 -49 22.5 -155t22.5 -162q5 -37 16 -110.5t16 -110.5v-35l-178 -18q-30 -3 -50 -2h-17q-11 1 -45 16q-2 25 -2 41q1 8 1 14z" />
<glyph unicode="b" horiz-adv-x="573" d="M86 52q6 -18 51 -60q1 -1 19 -8l11 2q11 2 17 6q107 47 193 90q6 4 37 35q26 29 30 94l7 299q1 13 1 27.5t-0.5 32.5t-0.5 28q0 32 -21 59q-13 17 -17.5 22t-15.5 17t-21 18.5t-22 10.5q-7 3 -15.5 8t-18.5 12.5t-15 10.5q0 4 1 6q1 1 1 2l17 16q97 72 120 215q5 34 7 69 q2 28 1 65v19v29q0 26 1 40q0 129 -13 188q-27 122 -137 180q-2 1 -70 39q-4 2 -59 35q-53 -45 -62.5 -61.5t-9.5 -71.5q0 -95 4 -279q0 -32 6 -122q5 -76 5 -124v-16q-1 -48 -1 -91.5t1 -81.5q1 -34 1 -73q0 -49 -2 -101q-2 -96 -12 -171q-2 -18 -2 -45q-4 -191 -16 -285 q-4 -35 -4 -56q1 -21 4 -29zM147 125q13 103 22 295.5t17 273.5l7 11q36 6 45 2q32 -13 104 -54q43 -25 43 -84q-2 -53 -2 -155v-154q0 -36 -6 -63q-10 -50 -51 -70q-69 -37 -158 -61q-22 14 -22 48q0 5 1 11zM174 1497q0 47 19 76q85 -42 126 -76q58 -51 62 -170 q2 -74 1.5 -146.5t-1.5 -144.5q-3 -60 -33 -129q-25 -47 -61 -69q-12 -7 -42.5 -25t-47.5 -29q-19 24 -19 57q0 10 2 21q5 56 5 81.5t-4 80.5t-5 80q-2 131 -2 393z" />
<glyph unicode="c" d="M123 352q4 -108 4 -143v-12q0 -83 53 -136q82 -85 172 -85q10 0 21 1q110 13 137 125q3 12 6 34t6 34q5 21 10 84.5t19 95.5q3 6 3 13q0 11 -8 21q-12 16 -32 19q-14 3 -25 -6.5t-14 -29.5q-11 -136 -12 -146q-4 -63 -10 -94q-19 -67 -76 -78q-6 -1 -14 -1q-23 0 -58 9 q-107 39 -115 154q-6 37 -6 82q0 29 2 88t2 88q0 45 -3 128.5t-3 152t6 129.5q6 113 9 223l3.5 66.5t2.5 66.5t-2 65q-1 18 -1 37q0 64 13 138q6 35 31 57q33 28 37 31q28 19 57 19l59 -21q55 -49 58 -123q0 -49 2 -78q1 -15 12 -24t25 -7q31 3 28 35q0 86 -6 131 q-1 12 -5 24t-7 19.5t-11 21t-10.5 17t-13.5 18.5t-12 17q-24 31 -62 41q-23 5 -45 5q-63 0 -117 -38q-41 -31 -64 -64t-26 -81q-1 -15 -5 -42t-5 -40q-1 -17 1 -67q1 -30 1 -50v-23q-1 -26 -1.5 -106t-2.5 -125q-3 -36 -4 -77t-1 -92t-1 -79q-2 -100 -2 -307q0 -37 4 -115 h-4z" />
<glyph unicode="d" horiz-adv-x="634" d="M131 1415q11 -61 11 -150q0 -45 -3 -96q-2 -106 -2.5 -176.5t2.5 -105.5q14 -158 14 -242q0 -20 -1 -35q-1 -19 0.5 -52t1.5 -44v-129q-2 -20 -8 -68.5t-7 -74.5q-2 -30 -3 -63.5t-1.5 -73.5t-1.5 -62q0 -2 1.5 -4.5t4 -7t4.5 -8.5q31 -6 33 -7q3 -2 11.5 -8.5t15.5 -9.5 q13 -4 21 -4h5q165 24 258 125q66 65 66 144v7q-4 157 -4 287q0 201 10 340v27q0 59 -2 172.5t-2 169.5q0 65 -33 155q-32 77 -123 140q-35 22 -108 50t-105 46q-3 2 -8 2q-3 0 -7 -1q-10 -2 -13 -7q-3 -6 -11 -17t-12.5 -18t-8.5 -18q-3 -9 -3 -17q0 -92 8 -166zM190 1446 q0 98 3 119q6 -2 22.5 -7t22.5 -8q34 -11 88 -37q152 -68 161 -247q6 -113 9 -226q0 -15 1 -44t1 -42q0 -12 2 -42q1 -18 0 -31v-15q-2 -33 -8 -119.5t-7 -134.5q-1 -31 -1 -73q0 -84 3 -209v-66q0 -59 -38 -94q-90 -87 -216 -100h-1q-5 0 -29 8q-5 71 -5 132q0 73 7 132 q4 40 5 78v44v56q-1 62 -1 76v80q0 128 -8 174q-7 34 -7 79q0 18 1 38q6 95 6 196q0 136 -11 283z" />
<glyph unicode="e" d="M111 55v11q0 1 1 3t1 3q9 71 9 181q0 36 -1 77q0 19 4 59l4 41v51q3 115 12 226q2 24 2 50q0 37 -4 79q-5 93 -5 248q0 78 1 171v48q0 95 -6 180q-1 12 -2 36.5t-2 36.5q0 11 -2 17q0 6 -1 18t-1 17q2 10 11.5 22t17.5 12h2q15 0 43 7q8 0 24.5 1t24.5 1h20q56 -6 115 -6 q24 -3 53 -3h10q6 -1 17 -2t16 -2q14 -2 25 -20q10 -13 6 -29q-9 -37 -37 -37h-10q-47 15 -105 15h-49q-28 -3 -59 0q-4 0 -8 1t-5 1q-19 0 -32 -10v-232q0 -42 -2 -67v-152q0 -69 2 -104v-39q29 0 41 2q83 8 120 10q9 0 15 2q4 0 11.5 1t10.5 1q27 0 45 -18l5 -5v-4 q-5 -37 -14.5 -54t-33.5 -17q-2 0 -26 4q-24 6 -62 6q-44 0 -112 -19v-6q8 -51 7.5 -120t-7.5 -156q-6 -80 -6 -168v-338h26q44 3 76 8q12 0 18 2h72q45 0 72 8q25 5 30 7h11q14 0 23.5 -9t11.5 -20q1 -7 1 -13q0 -20 -10 -34q-11 -27 -34 -27q-3 0 -15 4q-6 4 -18 4 q-11 0 -31 -4l-2 -2q-4 0 -6 -2q-12 -4 -19 -4q-4 0 -4 2q-12 2 -41 2q-19 0 -65 -4t-64 -4h-10q-31 0 -74 6q-12 1 -22 17.5t-10 31.5z" />
<glyph unicode="f" horiz-adv-x="573" d="M102 1597q9 -89 9 -160q0 -35 -2 -65q0 -49 2 -74q12 -129 12 -389q-1 -12 -2.5 -33t-2.5 -38t-1 -33v-541q0 -1 -6 -37q-1 -33 -2.5 -97.5t-2.5 -96.5q0 -24 25 -31h5l19 5q12 7 13 20q8 46 8 73q2 131 2 398q2 78 2 130t-2 79q-4 36 -4 70q0 55 10 104q156 8 211 10 q1 4 5.5 12t6 12.5t3 14.5t-3.5 16q-10 25 -48 21l-79 -13q-12 -2 -24 -2q-37 0 -73 21q-11 214 -11 386q0 114 5 210q33 10 75 10q27 0 58 -4q83 -14 152 -14h24q8 0 24 -3t21 -4q9 -2 17 -2q34 0 43 41q1 4 1 7q0 9 -6 18q-8 12 -20 12q-15 0 -47 -4q-32 -3 -63 -3l-105 9 q-61 12 -127 15h-15q-67 0 -102 -33z" />
<glyph unicode="g" horiz-adv-x="675" d="M123 1067q0 -59 4 -76q8 -46 8 -172q0 -25 -1 -77t-1 -76q1 -38 1.5 -107t1.5 -126t3 -107q8 -116 27 -174q38 -138 160 -166q28 -7 70 -8t59 -3q28 4 45.5 10.5t31 24t19 27.5t20.5 43q4 8 7 17t3.5 14.5t2 17.5t2.5 18q8 61 8 181q-1 52 -1 99q0 79 3 146q2 43 2 122 v87q-1 40 -1 73q0 90 3 138v8q0 29 -18 43q-163 10 -201 11q-19 0 -29 -2q-33 -10 -33 -35q2 -13 13 -26t24 -13q5 0 11 1t13 2.5t11 2.5q20 2 41 2q46 0 94 -12q5 -28 4 -31q4 -155 4 -290q0 -188 -8 -337q-1 -37 0 -57.5t-0.5 -46t-5.5 -55.5q0 -34 -10 -56 q-5 -11 -11.5 -23.5t-18 -25.5t-19.5 -10q-50 0 -125 16q-19 4 -37 19q-82 59 -88 172q-2 26 -3 56t-1.5 66t-1.5 56v121q-10 210 -10 252q-1 15 -1 43v32q1 10 1 20q0 40 -2 70q-2 38 -7 72q-3 12 0 25q1 32 2 96.5t2 97.5q7 81 25 201q3 34 21 63.5t49 43.5q46 18 87 18 q53 0 99 -29q53 -31 53 -90q-3 -28 0 -53q1 -12 16 -22.5t27 -8.5q12 0 21.5 10t9.5 25q0 69 -6 88q-20 74 -82 114q-58 38 -135 38h-8q-20 -4 -29 -4q-58 -3 -97 -27t-65 -74q-18 -32 -29 -82l-16 -120q-8 -50 -8 -72v-209z" />
<glyph unicode="h" horiz-adv-x="714" d="M143 72v-8q0 -19 7 -52q2 -5 8 -10.5t10 -5.5q21 0 27 12q5 7 10 43q1 25 2 75t2 75q0 45 18 104q101 10 174 10q103 0 150 -20q4 -32 3.5 -72.5t-3.5 -89.5q-4 -86 -4 -127q-3 -26 20 -33q3 -1 6 -1q10 0 19 7q12 9 14 23t2 45q1 65 2 194.5t2 194.5q0 4 6 127 q2 68 2.5 236t6.5 260q4 45 5 97q1 34 1 73q0 20 -0.5 40.5t-0.5 38.5q0 35 1 58q0 145 -2 217q0 26 -8 66q-5 26 -28 26h-7q-28 -4 -25 -45q0 -8 3 -25t3 -26q6 -127 9 -260q3 -92 3 -143q0 -30 -1 -46q-6 -90 -8.5 -190.5t-3 -226t-1.5 -189.5l-6 -123q-27 -30 -56 -30h-5 q-25 4 -55 5.5t-50.5 1.5t-56 -2.5t-51.5 -2.5q-13 -4 -32 -1t-34 19q1 19 1 45q0 44 -3 108t-3 109q0 27 1 47q3 62 5 140q1 46 1 87v53q0 31 -0.5 66t0.5 74v344q0 46 -4 144q0 15 -8 43q-5 12 -15 17t-22 1q-26 -6 -20 -37q2 -19 8.5 -67t7.5 -74v-18q0 -25 -2 -65 q-2 -54 -2 -75v-96q0 -29 1 -61.5t2.5 -72t2.5 -61.5q0 -170 -2 -256q0 -36 -4 -110q-6 -44 -6 -89t6 -91q5 -49 5 -98q0 -74 -11 -148q-10 -73 -17 -178z" />
<glyph unicode="i" horiz-adv-x="399" d="M174 1599q0 -13 14.5 -26.5t28.5 -13.5q19 0 31 15t10 36q-4 26 -36 26h-7q-15 0 -28 -12.5t-13 -24.5zM188 266q5 -190 5 -250q3 -1 12.5 -6t15.5 -6q7 -2 13 -2q10 0 16 4q12 8 12 25q2 12 2 39q0 14 -4 85.5t-4 104.5v154q1 22 8 114.5t8 145.5q1 52 1 110 q0 135 -5 301l-6 271q0 44 -4 67q-4 24 -20 37q-7 6 -18 6q-4 0 -8 -1q-16 -3 -22 -15q-3 -9 -3 -15q0 -3 1 -5q7 -40 10 -88t3.5 -100t1.5 -73q3 -47 3 -151.5t3 -151.5q3 -50 3 -108q0 -109 -11 -246q-1 -18 -4.5 -55t-5 -59t-3.5 -58q-1 -22 0 -44v-30z" />
<glyph unicode="j" horiz-adv-x="655" d="M61 301q0 -14 0.5 -42t2 -46.5t4 -42.5t6.5 -45q11 -55 43.5 -91.5t81.5 -45.5q21 -4 42 -4q93 0 183 84q17 17 25 53q4 37 8 119q2 45 3 136t3 136q3 78 11 235t11 238q2 0 2 51q0 34 -1 90l-1 140q0 16 -2 45t-2 43q-4 66 -8 186q0 7 2.5 22.5t3.5 20.5q38 -6 60 -6 q32 -3 32 35q-3 41 -35 41h-4q-27 -1 -213 -17q-10 0 -26 -8q-8 -3 -11 -11.5t1 -19.5q6 -15 18 -30h105q1 -10 3.5 -38t2.5 -42q1 -34 10 -177q4 -83 4 -144q0 -44 -2 -76q-2 -22 0.5 -62t1.5 -57q0 -6 -18 -371q-1 -36 -6.5 -181t-6.5 -222l-6 -47q-3 -30 -27 -48 q-7 -5 -17.5 -15t-14.5 -13l-12 -6l-13 -6.5t-12 -5t-13.5 -5t-12.5 -3.5t-13.5 -2.5t-12.5 0t-14 1.5q-81 15 -94 105q-11 58 -11 130q0 16 1 33q4 35 4 62t-4 45q-9 6 -14 6q-29 6 -38.5 -2t-9.5 -37v-42v-46z" />
<glyph unicode="k" horiz-adv-x="696" d="M184 41q0 -23 11 -41q8 -13 28 -16h2q6 0 11 5q6 6 8 17q6 24 6 51q-2 67 -2 95t2.5 95.5l3.5 94.5q1 13 1 27.5t-0.5 32.5t-0.5 28q-1 12 -4 38.5t-3 37.5t3 35q3 23 8 221l59 92q6 12 20 50t28 57q10 -20 10 -25q17 -128 47 -225q26 -86 33 -203q4 -35 28 -168 q55 -260 60 -285l6 -20q12 -28 37 -25q11 3 18 14.5t6 24.5q0 5 -6 35q-4 18 -14.5 51.5t-14.5 48.5l-55 230q-4 14 -4 45q-15 171 -41 270q-27 89 -45 234q-4 62 -31 92l9 24q20 38 68 141.5t79 157.5q3 7 8.5 19.5t9.5 23t7 19.5q5 28 38 92q22 36 31 65q6 14 15 50 q0 28 -23 32q-3 1 -6 1q-12 0 -21 -13q-10 -10 -18 -39q-5 -11 -37.5 -88.5t-52.5 -116.5q-11 -26 -33 -74t-27 -59l-129 -301l-49 -98q-2 -3 -9 -12t-9 -15q-2 1 -7 2t-7 2q0 64 8 196q8 119 8 187v15q-1 30 -1 76q0 23 0.5 50.5t0.5 52.5q0 51 -1 95q-1 66 -5 125 q-40 7 -52 -4q-10 -9 -11 -35q0 -6 1 -14q9 -128 9 -170q3 -131 3 -220q0 -45 -1 -79q0 -41 -4 -115.5t-5 -101.5q-1 -8 -1 -19q0 -22 3 -55q17 -104 17 -189q0 -59 -8 -108q-5 -35 -5 -82q0 -24 1 -51q3 -29 3.5 -63t-1 -58.5t-4 -64.5t-3.5 -60q0 -22 -2 -67.5t-2 -67.5z " />
<glyph unicode="l" horiz-adv-x="491" d="M143 39q-1 -4 -1 -8q0 -15 12 -29q13 -14 28 -14h6l115 24q51 9 91 9q44 0 75 -11q18 -9 31 -6q19 0 35 8q18 10 18 31q0 18 -14 29q-20 10 -27 10q-19 4 -61 8h-29q-71 0 -123 -12q-3 -1 -12.5 -3.5t-14 -3.5t-12.5 -2t-14 0t-13.5 3.5t-13.5 7.5v74q-4 90 -9 270 q-1 31 -3.5 94.5t-3.5 95.5q0 20 -2 62.5t-2.5 67t1 60.5t5.5 66q15 111 15 180q0 21 -1 37q-3 26 -3 63q0 50 5 120q3 48 3 116q0 91 -5 220q-3 34 -15 42q-7 4 -20 4q-12 0 -30 -3q0 -4 -1 -14t-1 -15q1 -28 2 -84t2 -84l6 -385q0 -32 -4 -102q-1 -27 -8 -114t-7 -134 q1 -41 7 -177q4 -102 4 -169v-41v-8v-19q0 -27 2 -69q1 -30 1 -57q1 -27 -1 -50q-2 -46 -13 -88z" />
<glyph unicode="m" horiz-adv-x="778" d="M125 1620q1 -5 12 -55t13 -76q5 -63 20 -348q3 -32 3 -63.5t-3 -61.5q-4 -64 -6 -142q-2 -62 -2 -110v-24q0 -56 1 -145t1 -136q0 -36 3 -108t3 -107q0 -38 -3.5 -104t-4.5 -89q0 -25 26 -31q11 -5 23.5 2t15.5 19q4 24 4 37q-1 51 -2 155t-2 156q-1 20 -4.5 81t-3.5 95 q0 77 10 439v35q0 29 1 35q1 3 1 13q-1 18 -3 57q-3 54 -3 67l1 5q0 12 -4 66q-4 62 -4.5 70t-5 69.5t-5.5 69.5q0 1 -0.5 6t0 7.5t3.5 6.5t9 7q5 -9 17.5 -27t15.5 -23q98 -176 139 -268q14 -34 35 -36.5t41 28.5q39 59 63 106q3 6 13 25.5t14 27.5t13 25t15 27t15 24 t18 25.5t19 22.5q-4 -50 -4 -80v-105q-1 -18 1 -78q1 -36 1 -61v-31q-4 -192 -8 -280q-1 -43 -2 -126.5t-2 -125.5v-53q4 -60 4 -138q0 -142 -13 -344q0 -6 -1 -18.5t-1 -18.5q1 -13 11.5 -22.5t21.5 -9.5q12 1 22.5 11t12.5 21q1 5 1 12t-0.5 15t-0.5 12q1 22 1.5 91.5 t2.5 107.5q5 82 5 154.5t-5 134.5q-4 30 -4 55q0 18 2 35q8 63 8 161v12q0 35 -1 66q0 62 1 107q1 71 1 212.5t1 211.5q0 18 0.5 60t1.5 66t3.5 59.5t7.5 64.5q-32 7 -40.5 7.5t-23.5 -5.5q-24 -14 -29 -37q-5 -24 -16 -49l-123 -252q-8 -14 -37 -53q-14 11 -16 14 q-123 222 -193 354q-15 32 -48 32q-5 0 -11 -1h-18q-27 -5 -27 -29q0 -6 2 -14z" />
<glyph unicode="n" horiz-adv-x="714" d="M139 1612q1 -19 1.5 -53t1.5 -62.5t3 -52.5q3 -44 11.5 -131t13.5 -157q4 -58 4 -111v-21q-1 -35 -4 -103.5t-4 -103.5q-4 -177 -14 -268q-9 -53 -9 -113q0 -262 2 -391l9 -41q5 1 20 2t23 6q18 12 18 45q0 6 -2 18.5t-2 18.5q-1 31 -3 107t-2.5 117t-0.5 103.5 t2.5 116.5t7.5 107q7 73 12 297q3 65 3 119q0 86 -7 149q-3 24 -4 50t-1 59t-1 51q5 -1 9 -4t6.5 -7.5t4 -8t3.5 -10t2 -7.5q20 -81 39 -178q24 -107 68.5 -322t68.5 -323q4 -19 17.5 -63.5t17.5 -69.5q14 -61 39 -179.5t38 -174.5q6 -33 18 -41q9 -6 35 -5h15q11 24 11 58 q0 8 -1 16q-5 41 -5 70q0 22 3 37q4 19 6 41t2 38t1 41.5t1 38.5l9 115q4 46 4 70v190q8 160 8 264q0 73 -4 119q-2 13 -2 57q-1 36 1 94q2 128 3 154v207q0 27 -6 37q-3 6 -11.5 12t-15.5 6q-5 -2 -14.5 -9t-12.5 -13q-2 -5 -2 -37q6 -100 6 -212q0 -42 -1 -87v-22 q0 -44 2 -110q4 -86 4 -122q0 -94 -4 -282q0 -14 -2.5 -45t-2.5 -48q-1 -24 -1.5 -66.5t-1.5 -78.5t-3 -68q-2 -65 -10 -190q0 -1 0.5 -8t0 -10t-3 -8t-7.5 -9q-2 7 -6.5 18.5t-7 20.5t-3.5 18q-22 132 -63 281q-2 2 -2 6q-6 29 -18 89t-22 106.5t-21 87.5q-45 165 -76 342 q-20 119 -111 430q0 4 -2 8.5t-6 10.5t-6 10l-43 -7q-23 -7 -23 -26z" />
<glyph unicode="o" horiz-adv-x="681" d="M82 1131q1 -14 3 -31t3 -27q4 -28 4 -45q1 -24 4 -66t5 -77t3 -66q5 -82 11 -225.5t8 -183.5v-209q0 -82 63 -142q68 -65 187 -79q8 -1 15 -1q59 0 110 42q58 47 77 120q32 126 39 299q2 82 2 206t-2 290q0 307 -4 463q-3 139 -104 205q-45 28 -117 49q-1 0 -12.5 3.5 t-13.5 4t-12 2.5q-8 2 -12 2l-1 -1q-3 0 -11 -1t-13 -4t-11 -7.5t-12 -11.5q-2 -4 -6.5 -5t-10.5 -1t-10 -2q-55 -26 -78 -65q-61 -98 -75 -178q-16 -101 -29 -232v-12.5v-13.5zM146 1158q3 68 10 114.5t22 113.5q13 75 58 132q28 38 69 47q7 2 28 10.5t32 11.5q8 2 14.5 2 t11.5 -2q72 -37 92 -53q62 -49 62 -125q0 -8 0.5 -23.5t0.5 -28.5t-1 -24q1 -17 4.5 -62.5t3.5 -68.5q1 -23 1 -53q0 -60 -3 -148v-208q5 -40 5 -85t-2.5 -100.5t-2.5 -85.5q0 -16 2 -22q2 -21 2 -43t-2 -45q-4 -46 -12 -102.5t-11 -86.5q-7 -76 -79 -151q-19 -20 -53 -21 q-9 0 -19 2q-56 7 -96 25q-97 46 -97 147l1 91v51q0 41 -1 41q0 44 -2 93t-5.5 108.5t-4.5 92.5q-12 194 -16 295q-1 7 -1 22.5t-1 22.5q-11 39 -10 91q-1 12 0 25z" />
<glyph unicode="p" d="M143 1612q0 -18 7 -39q14 -53 14 -162v-250q0 -252 -2 -303q0 -25 -7 -86q-5 -47 -5 -76v-16q7 -81 7 -177q0 -80 -5 -171q-1 -21 -7 -273v-53q0 -10 6 -18t15 -8q22 0 35 10q16 24 16 41q2 74 2 217v201l49 38q2 2 133 127q4 4 14 13.5t16 15.5t13.5 15t12.5 18 q65 97 65 162v85q0 236 -14 412q-9 77 -57 150q-11 17 -23.5 31.5t-30.5 29.5t-28 22.5t-35 24.5t-31 21q-53 30 -131 33q-14 0 -22 -10t-7 -25zM221 590q-8 74 -8 133t8 104q4 23 6 47.5t2.5 53.5t0.5 46.5t-1.5 53t-1.5 47.5q-3 90 -3 150t3 90q2 37 2 80q0 59 -4 129 q-2 11 2 41q107 -29 158 -101q58 -86 61 -204q1 -24 1.5 -74t1.5 -74q0 -53 4 -78q5 -25 7 -54v-32v-16q-1 -18 -3.5 -56t-3.5 -49q-3 -48 -37 -94q-57 -76 -176 -176q-7 1 -11 5t-5 7.5t-2 11.5t-1 9z" />
<glyph unicode="q" horiz-adv-x="757" d="M145 1283.5q0 -17.5 1 -44t4 -49.5v-41q0 -354 -3 -711q0 -118 27 -229q49 -165 168 -217q6 -3 18.5 -11.5t18.5 -11.5q-4 -54 -4 -71q0 -34 4 -48q0 -24 27 -28h5q21 0 27 24q6 21 6 48q0 7 -1 25t-0.5 31.5t3.5 26.5q5 2 16.5 8.5t16.5 8.5q57 15 88 78q40 72 54 143 q34 171 34 267v10q0 26 2 38q2 57 17 367v115q0 16 0.5 46.5t0.5 55.5t-1 47q-1 31 -5.5 111t-4.5 123q0 103 -62 190q-16 22 -43 37q-39 27 -123 31q-36 3 -67 3q-39 0 -68 -5q-31 -7 -47 -23q-38 -39 -59.5 -73t-26.5 -80q-1 -6 -7 -46t-7.5 -51t-5 -44t-3.5 -50.5z M207 1241q-1 13 -1 26q0 94 32 218q23 99 124 102q20 1 37 1q42 0 74 -5q48 -8 83.5 -50t41.5 -106q3 -42 7 -128t7 -128q4 -21 4 -72q0 -36 -2 -87q-4 -103 -4 -144v-14v-52q0 -131 -12 -261q-4 -28 -2 -47v-17q0 -99 -41 -272q-12 -44 -45 -96q-18 -39 -62 -39h-6 q-1 9 -2 29.5t-2 29.5q-2 12 -4 35t-4 35q-8 26 -21 29.5t-42 -13.5q1 -20 4 -61.5t4 -63.5q2 -5 -6 -20h-3q-43 0 -83 57q-34 59 -47 111q-13 45 -18.5 103.5t-6 86.5t-0.5 104q0 21 1 62.5t1 60.5q0 30 -2 100q-1 47 -1 85v37q1 52 7 100v22q-8 168 -10 242z" />
<glyph unicode="r" horiz-adv-x="675" d="M184 8q42 -25 49 -18q16 20 19 37q4 8 4 30v16q0 35 3 89q5 76 5 109q0 37 -8 100q-4 18 0 59q10 97 10 169q0 34 -2 63v9q0 32 25 48q28 -66 43 -98q87 -185 123 -312q33 -120 102 -286q18 -44 61 -50q16 26 18 32q1 3 1 7q0 5 -2 11q-14 32 -19 40q-65 124 -94 248 q-11 40 -20 64q-33 77 -119 289q-12 29 -17 44.5t-10.5 47t0.5 51.5q65 57 107 90q60 45 80 119q20 72 21 159q0 72 -15 154q-34 186 -162 268q-6 3 -32 19.5t-42 23.5q-43 15 -67 15q-51 -5 -51 -43q0 -10 4 -23q15 -56 15 -159q0 -23 -1 -48q0 -14 1 -42t1 -42v-358 q-2 -124 -14 -383l-3 -69q-4 -47 -4 -70v-18q0 -21 1 -52q3 -32 3 -78q0 -61 -5 -147q-1 -20 -4.5 -58.5t-4.5 -56.5zM266 1581q110 -15 164 -111q44 -77 55 -151q10 -67 10.5 -134t-10.5 -134q-13 -67 -55 -101q-23 -19 -66 -55.5t-65 -54.5q-3 -2 -12 -5t-13 -4 q1 34 4 168t3 207q-1 88 -15 375z" />
<glyph unicode="s" horiz-adv-x="552" d="M82 219q2 -39 10 -127q10 -64 66 -86q4 -2 14.5 -8t17.5 -8q45 -24 85 -24q44 0 81 30q5 4 26.5 16.5t31.5 20.5q82 61 88 166q2 32 2 64q0 141 -33 276q-3 12 -10 41.5t-11 45t-10.5 39t-14 44t-15.5 39.5l-17 65q-35 117 -43 141q-8 22 -25.5 66.5t-25.5 66.5 q-45 121 -47 127q-6 16 -29 72.5t-33 87.5q-10 32 -10.5 65.5t10.5 67.5q15 52 67 72q23 9 45 9q29 0 56 -15q70 -39 70 -123q0 -39 4 -57q3 -13 15 -21t26 -6q23 3 27 31q3 20 3 40q0 60 -28 113q-45 88 -125 99q-21 4 -45 4q-30 0 -65 -6q-82 -14 -105 -78 q-26 -72 -26 -127q0 -26 6 -49q17 -73 49 -156q36 -100 84 -209q24 -55 44.5 -117t44.5 -145t36 -121q43 -134 63 -323q1 -20 1 -39q0 -64 -15 -123q-7 -25 -21 -39q-41 -45 -73 -66q-24 -17 -53 -17q-20 0 -42 8q-55 20 -69 67q-11 33 -11 85q0 26 3 56q0 6 0.5 18t0.5 22 t-1 19q-3 15 -15.5 22t-29.5 1q-8 -2 -23 -17q0 -5 -3 -42.5t-3 -57.5z" />
<glyph unicode="t" horiz-adv-x="573" d="M84 1636q-2 -4 -2 -8q0 -11 10 -29q3 -4 10 -10.5t9 -9.5q19 1 59.5 6t57.5 5t57 -9q0 -2 3 -9.5t3 -12.5q8 -185 10 -285q1 -29 1 -86v-92t3.5 -84t9.5 -90t6 -78q0 -29 -4 -56q-3 -25 -5 -51t-1.5 -56.5t1 -48.5t2.5 -56t3 -50q2 -37 2 -112q0 -86 -2 -127l-6 -172 q-1 -20 -4 -57.5t-4 -55.5q0 -33 29 -39q4 -1 8 -1q9 0 17 6q11 8 12 22q12 70 12 104q0 46 -1 139t-1 140q0 16 1.5 44.5t1.5 52t-3 44.5q-8 70 -8 147q0 55 4 115q2 38 1.5 75t-1.5 75q-1 21 -7.5 80.5t-7.5 91.5q-2 83 -2 167t2 169q0 23 1 70.5t1 72.5q17 3 36 3.5 t32 -0.5t36 -5.5t31 -6.5t33 -9l23 26q7 13 7 23q0 7 -4 13q-8 14 -32 17q-58 4 -88 4q-33 1 -106 7q-72 7 -104 7h-7q-33 0 -98 -5q-31 -3 -37 -15z" />
<glyph unicode="u" horiz-adv-x="655" d="M123 1522q1 -58 1 -164t1 -191t4 -161q9 -260 9 -463q0 -55 -1 -107q-1 -37 -1 -108t-1 -107q0 -68 37 -123q0 -1 10.5 -17.5t16.5 -23.5q70 -86 150 -86h9q26 3 52 0h6q68 -1 120 61q54 64 54 163v26q0 56 6 141q18 193 18 345v43v48v99q2 96 2 127q0 86 -1 258.5 t-1 257.5q0 25 -2 37q-3 26 -26 29q-11 2 -22.5 -5.5t-12.5 -17.5q-5 -24 -2 -53q8 -311 10 -471v-21q0 -67 -4 -268q0 -12 1 -35t1 -35q4 -36 4 -55q-9 -148 -14 -205q-2 -26 -9 -82q-6 -56 -10 -98q-2 -27 -3 -53q0 -15 1 -29v-11q0 -58 -39 -89q-53 -42 -108 -42 q-28 0 -57 11q-74 24 -109 111q-23 56 -23 127q0 122 5 207q1 33 2 77q0 59 -3 139q-4 140 -4 183q-1 73 -5.5 216t-5.5 215v22q0 71 5 194v66q-2 20 -9.5 28.5t-27.5 9.5q-4 0 -24 -10v-110z" />
<glyph unicode="v" horiz-adv-x="778" d="M41 1630q1 -7 6 -21t6 -18q31 -69 39 -104q8 -29 26.5 -95.5t28 -103.5t22 -93t19.5 -103q6 -42 23 -118.5t22 -103.5q32 -185 64 -401q2 -8 6.5 -29t7 -36t2.5 -29q2 -50 9 -102.5t21.5 -126.5t18.5 -101q3 -24 17 -53q5 -14 16.5 -23.5t24.5 -9.5q25 2 41 35l6 22 q5 23 23 105t26 127q7 48 20.5 144.5t20.5 144.5l49 337q2 15 4 47t4 48q2 25 17 153q22 100 22 103q6 59 32.5 162t33.5 141l3 12q4 12 5 19q3 7 12.5 26.5t12.5 30.5q3 8 3 16q0 10 -4 18q-7 16 -22 21q-10 4 -19 4q-8 0 -16 -3q-16 -7 -22 -27q-7 -28 -20.5 -85.5 t-20.5 -86.5q-4 -20 -10.5 -57t-10.5 -56q-2 -13 -7 -39.5t-7 -40.5q-24 -129 -29 -160q-16 -109 -16 -129q-2 -65 -21 -184l-49 -346q-1 -9 -10 -52.5t-10 -66.5q-3 -80 -39 -180q-19 34 -27 100q-4 74 -14 127q-6 32 -46 267t-69 356q-9 43 -31.5 170t-41.5 196 q-5 16 -13.5 50.5t-13.5 50.5q-17 60 -49 145q-7 26 -29 37q-11 8 -37 -2q-10 -7 -10 -29z" />
<glyph unicode="w" horiz-adv-x="962" d="M66 1595q42 -146 49 -213q5 -62 30 -215q1 -18 15 -94q52 -301 59 -350q6 -39 27 -154.5t30 -179.5q11 -56 27.5 -164t20.5 -129q2 -11 4 -33t4 -32q11 -42 42 -42q13 0 29 7q7 2 21 16q9 45 17 91.5t14.5 103t10 91t10.5 104.5t9 94q6 111 15 227q1 10 6 35.5t8 46.5 q4 -22 19.5 -100.5t17.5 -116.5q9 -102 47 -336q4 -24 11.5 -72t11.5 -71q11 -69 43 -101q20 -17 36 -17q6 1 10 3q18 8 23 45q2 12 2 39q2 17 9.5 84t13.5 102q54 380 61 537q0 43 8 121q24 136 37 305q9 130 23 184q20 73 33 156q1 6 1 12q0 13 -6 25q-9 16 -24 18 q-11 2 -23.5 -9.5t-15.5 -27.5q-2 -2 -2 -6q-28 -198 -33 -256q-6 -51 -37 -346q-2 -17 -7 -50t-8 -60.5t-3 -51.5q0 -85 -31 -311q-6 -51 -21 -144t-20 -129q0 -1 -1 -4.5t-1 -4.5t-2 -4.5t-3.5 -3.5t-5 -1.5t-7.5 0.5q-40 216 -41 225q-9 55 -21 156t-18 141 q-13 98 -33 183q-3 20 -18 51q-9 12 -26 13.5t-26 -9.5q-26 -39 -24 -64q0 -15 -3.5 -43t-4.5 -37q-17 -109 -17 -114q-3 -41 -7 -125t-7 -125q-3 -30 -15 -133t-18 -164q-12 22 -19.5 47.5t-10.5 43t-7 45t-6 40.5q-8 41 -19.5 123t-19.5 123q-13 73 -41.5 221t-42.5 221 q-21 118 -43 303q-8 107 -37 221q-5 29 -22 68q-7 16 -21 22q-7 3 -12 3q-7 0 -14 -4q-14 -8 -14 -27q0 -10 4 -23z" />
<glyph unicode="x" horiz-adv-x="716" d="M82 -12q-1 3 -1 6q0 14 11 31q15 35 25 81q2 6 14 54q2 5 4 12t2 8q4 16 4 23q6 18 21.5 63t23.5 70q52 142 62 176q26 70 45 131q4 13 8.5 26.5t11 30.5t9.5 27q3 9 8.5 26.5t7.5 22.5q0 3 2.5 12t3.5 13l-6 26q-3 10 -13 36.5t-14 41.5l-4 10q-18 61 -20 68 q-14 60 -34.5 130t-34 112.5t-39 118t-32.5 96.5q-18 47 -38 116l-13 41q-2 8 -2 23q0 28 17 35h12q12 0 18 -6q12 -12 19 -37q17 -77 69 -230q23 -69 47 -147l56 -188q5 -27 26 -101q0 -6 2 -8q8 -30 19 -35q6 6 6 15q11 26 16 43q28 94 29 96q4 17 23 76q23 74 64 210.5 t54 178.5l2 2l7 22q17 57 26 78q6 21 29 29q4 2 6 2q10 0 21 -15q8 -11 4 -28q-3 -15 -9 -27q0 -2 -1 -4.5t-1 -3.5l-18 -57q-58 -182 -188 -590q-19 -55 -27 -84q-1 -4 -6.5 -17.5t-7.5 -21.5q4 -8 4 -12q3 -6 7 -18.5t7 -18.5q41 -135 47 -166q11 -47 41 -119l12 -35 q9 -23 32.5 -85t37.5 -95q13 -35 80 -215q6 -9 6 -20q0 -9 -4 -19q-7 -27 -25 -27q-15 0 -24 15q-10 24 -15 33q-3 12 -30 90q-59 144 -86 229q-33 85 -62 186l-24 78q-3 13 -23 70q-2 5 -4 12.5t-4 11.5h-2q-9 0 -12 -10l-2 -4q-14 -41 -38.5 -116t-35.5 -107l-19 -57 q-29 -87 -59 -187q-22 -69 -39 -145q-15 -84 -51 -129l-2 -4l-4 4q-35 24 -35 41z" />
<glyph unicode="y" horiz-adv-x="696" d="M82 1604q13 -64 24 -88q69 -172 97 -236q43 -92 129 -268l41 -72q-3 -14 -12 -58.5t-15 -66.5q-10 -73 -31 -168q-4 -20 -12.5 -63t-14 -76.5t-9.5 -63.5q-7 -58 -41 -186q-7 -24 -29.5 -96.5t-32.5 -112.5q-5 -19 -2 -43q0 -26 23 -29h5q17 0 29 21l7 29l61 211 q4 11 8 41q44 276 80 428q9 39 10 51q5 54 16 108.5t29.5 131.5t24.5 106q16 65 86 326q44 172 49 190q2 7 2 13q0 17 -14 24q-9 5 -17 5q-14 0 -24 -15q-8 -20 -8 -31q-18 -59 -21 -84q-13 -52 -71 -293q-49 -181 -54 -199q-21 11 -39 52q-99 193 -125 262q-10 29 -31 80.5 t-37 95t-26 84.5q-5 28 -32 28q-8 0 -17 -2q-1 -4 -3 -11.5t-3 -13.5v-6v-5z" />
<glyph unicode="z" horiz-adv-x="655" d="M106 29q7 -17 13 -45q28 -21 53 -21h6q10 0 31 1t31 1q6 1 56 -3q20 -1 34 -2q19 0 24 3q68 11 125 11q38 0 72 -5q18 -3 27 19q12 29 0 41q-16 21 -27 16q-17 -5 -35.5 -6t-40 0t-33.5 0q-104 -8 -223 -8q-35 -2 -42.5 13.5t7.5 61.5q1 4 7.5 21t7.5 25q25 96 55 231 q52 231 104 410q16 47 42.5 146t43.5 148q21 53 48 156q13 39 34 116t31 109q6 26 20.5 81.5t20.5 82.5q-10 16 -20 21q-7 3 -17 3q-6 0 -14 -1q-9 -1 -36.5 -7.5t-41.5 -7.5q-20 -3 -57.5 -6t-49.5 -4q-52 -6 -94 -6q-55 0 -96 10q-10 2 -22 0q-11 0 -16.5 -16t1.5 -29 q12 -28 43 -28q19 1 54.5 1h57.5t53 3.5t58 9.5q50 8 70 8q8 0 23.5 -3.5t19.5 -4.5q-8 -52 -12 -62q-3 -16 -13.5 -52.5t-13.5 -55.5q-4 -14 -31 -114.5t-43 -153.5q-7 -23 -24 -72t-23 -72q-11 -37 -33.5 -119.5t-35.5 -125.5q-26 -80 -61.5 -228.5t-45.5 -185.5 q-33 -168 -65 -240q-10 -25 -10 -45q0 -11 3 -20z" />
<glyph unicode="{" horiz-adv-x="575" d="M86 776q-4 -15 1.5 -28.5t10.5 -19t19 -17.5q12 0 33.5 1t29.5 1q42 0 53 -41q15 -82 15 -99q0 -41 -1 -87.5t-2.5 -103.5t-2.5 -89q-4 -126 -4 -184q0 -6 -5 -56q-10 -68 24 -119t103 -47q9 0 33 -4q50 -10 82 15q11 8 15.5 30t-1.5 37q-13 21 -51 4q-16 -8 -24 -8 q-14 0 -41.5 3t-44.5 3q-2 11 -16 37t-13 45q0 4 2 51.5t4 71.5q2 60 5 177t5 175q11 147 -39 232q5 12 19 35q20 29 4 63q-10 62 -10 74q-3 100 0 198q10 143 -21 332q-16 82 27 176q13 41 59 35q9 -2 31 -5t31 -5q16 -2 28 8t13 29q2 13 -4 20t-27 13l-92 18 q-32 8 -64 -21q-42 -47 -63 -133q-15 -77 0 -209q9 -46 18 -192q5 -55 2 -123q-5 -44 -4.5 -100.5t13.5 -100.5q2 -16 2 -51q-62 -26 -93 -20q-16 4 -33 0.5t-26 -21.5z" />
<glyph unicode="|" horiz-adv-x="389" d="M164 -143q5 -2 15.5 -12t17.5 -11q18 -8 31 1t14 32q2 7 2.5 25t1.5 24q-1 38 -4 115.5t-4 115.5q0 129 4 166q0 54 3 115t8 136.5t7 113.5q1 90 0 266.5t0 265.5q-2 125 -2 387q-5 88 -6 93q0 25 -19 49q-12 15 -28.5 12.5t-28.5 -20.5q1 -2 0.5 -10.5t1.5 -10.5 q10 -75 10 -212v-152v-160.5t5 -218.5q9 -239 -17 -494q-1 -34 -5 -97t-6 -114.5t-1 -95.5q0 -34 0.5 -96t0.5 -114t-1 -99z" />
<glyph unicode="}" horiz-adv-x="641" d="M158.5 1686q-4.5 -22 1.5 -37q13 -21 51 -7q18 9 25 9q14 0 41.5 -3t44.5 -3q2 -10 15.5 -36.5t12.5 -45.5q-2 -20 -4 -61.5t-4 -61.5l-12 -353q-11 -149 37 -231q-5 -12 -19 -35q-20 -29 -4 -63q10 -63 10 -74q0 -133 -2 -199q-12 -141 19 -331q13 -84 -29 -177 q-13 -40 -59 -34q-9 2 -31 5t-31 5q-16 3 -28 -6.5t-13 -28.5q-2 -13 4 -20.5t27 -14.5l92 -18q32 -8 64 20q42 47 63 133q16 84 2 209q-12 62 -16 193q-5 55 -2 123q1 9 2.5 33t2 34.5t1 31.5t-1 34.5t-4 32t-6.5 34.5q-2 16 -2 52q61 26 92 18q16 -4 33 -0.5t26 21.5 q4 15 -1.5 28.5t-10.5 19t-19 17.5h-63q-42 0 -53 41q-1 6 -7 42.5t-6 55.5q0 70 9 281q4 126 4 184q0 26 6 56q10 68 -24 118.5t-103 46.5q-3 0 -33 5q-52 11 -82 -13q-11 -8 -15.5 -30z" />
<glyph unicode="&#xa1;" horiz-adv-x="372" d="M123 1698q3 -60 55 -60q51 0 51 60q0 10 -2 14q-5 20 -20 32.5t-37 12.5q-12 3 -26.5 -9.5t-18.5 -31.5q-1 -4 -1 -10t-1 -8zM139 53q0 -53 15 -141q1 -18 18.5 -23t32.5 7q23 13 14 36q-20 70 -16 172q5 348 8 390q1 41 1 115.5t2 135t9 115.5q5 20 0 90q-1 27 -5.5 162 t-3.5 162t3 162q1 2 -2 18q-36 4 -47 -1.5t-16 -29.5q-2 -23 -2 -67q6 -139 14 -420q3 -34 0 -68q-2 -70 -17 -440q-8 -167 -8 -375z" />
<glyph unicode="&#xa8;" horiz-adv-x="1228" d="M373 1593q-4 -28 16 -55t49 -33q22 -5 41 12t23 46q1 4 2 13.5t2 12.5q0 46 -31 58q-19 6 -56 -11.5t-44 -36.5q-2 -2 -2 -6zM731 1597q-2 0 2 -38q-6 -1 2.5 -13t32.5 -26.5t55 -20.5q29 25 37 74q0 10 2 16q0 42 -31 64q-20 2 -56.5 -17.5t-43.5 -38.5z" />
<glyph unicode="&#xaa;" d="M83 1432q0 19 1 42.5t3 39t5 22.5q12 31 26.5 44.5t53.5 18.5q65 10 114 -38.5t66 -112.5l2 -6l4 -23l27 -143q9 -68 -29 -78q-24 -5 -39 12q-3 4 -4 9v36q-2 -5 -7.5 -12t-6.5 -8q-27 -24 -76 -16q-11 0 -23 2t-16 2q-87 32 -100 123q0 11 -0.5 39t-0.5 47zM139.5 1431 q-3.5 -61 3.5 -73q8 -41 55.5 -62.5t75.5 13.5q16 22 18.5 60t-6 74.5t-30.5 63.5t-51 27q-13 -1 -28 -10t-17 -13q-17 -19 -20.5 -80z" />
<glyph unicode="&#xad;" horiz-adv-x="415" d="M82 698q2 8 10 29q86 4 113 4q78 4 119 4q19 0 51 -8q10 -3 15.5 -17.5t2.5 -27.5q-3 -11 -14 -17.5t-21 -2.5q-74 24 -215 0q-17 -3 -34 0q-15 2 -22.5 11.5t-4.5 24.5z" />
<glyph unicode="&#xb0;" horiz-adv-x="389" d="M63 1386q13 -90 101 -122q4 0 16 -2t23 -2q49 -8 76 16q23 26 45.5 85t19.5 93q-12 61 -64 108.5t-128 36.5q-39 -5 -53.5 -18.5t-26.5 -44.5q-3 -7 -5.5 -18.5t-3 -29.5t-0.5 -30v-37.5v-34.5zM120 1448q3 37 19 63q21 21 45 23q37 0 63.5 -28t30.5 -62.5t-8 -63.5 l-16 -30q-28 -35 -75.5 -13.5t-55.5 62.5q-6 12 -3 49z" />
<glyph unicode="&#xb4;" horiz-adv-x="1228" d="M256 1794q1 -4 4 -7t7.5 -6t6.5 -5q19 4 25 8q133 66 272 96q5 1 12 4t9 4q12 7 14 25t-6 31q-14 22 -39 10q-12 -5 -44.5 -20.5t-51.5 -22.5q-17 -7 -168 -62q-30 -13 -39 -22q-11 -11 -2 -33z" />
<glyph unicode="&#xb8;" horiz-adv-x="1228" d="M596 68q1 -18 4 -51.5t4 -49.5q0 -4 2 -19t2 -18v-63q-4 -46 -4 -62q-2 -12 2 -36q8 -23 33 -23q29 0 35 21q6 15 6 36q-6 69 -6 72v51q3 27 -2 70q-5 42 -8 57q-7 22 -22.5 25t-45.5 -10z" />
<glyph unicode="&#xba;" horiz-adv-x="450" d="M83 1432q0 -19 0.5 -47t0.5 -39q13 -91 100 -123q4 0 16 -2t23 -2q49 -8 76 16q22 25 42 84t17 94q-5 67 -58 132t-128 54q-39 -5 -53.5 -18.5t-26.5 -44.5q-3 -7 -5 -22.5t-3 -39t-1 -42.5zM139.5 1431q3.5 61 20.5 80q2 4 17 13t28 10q29 0 51 -27t30.5 -63.5t6 -74.5 t-18.5 -60q-28 -35 -75.5 -13.5t-55.5 62.5q-7 12 -3.5 73z" />
<glyph unicode="&#xbf;" horiz-adv-x="581" d="M47 238q-10 -97 33 -222q17 -64 65 -86q94 -54 189 -34q99 27 146.5 99t39.5 171q0 22 -35 39q-27 -26 -31.5 -35t-4.5 -37q-3 -138 -136 -172q-55 -15 -111 13.5t-69 80.5q-46 156 6 279l148 336q85 178 94 366q2 39 2.5 109.5t1.5 93.5l1 52q0 52 -1 52q3 41 -2 74 q-3 17 -15 27t-26 8q-27 3 -27 -37q0 -17 1 -52t1 -52q0 -89 -4 -269q0 -14 -10 -81q-1 -10 -5 -30t-5 -30q0 -43 -25 -102t-86.5 -200t-93.5 -218q-37 -97 -41 -143zM258 1681q-4 -19 4 -33t25 -20q23 -9 71 2q36 12 43 51q-29 32 -36.5 38t-26.5 10q-64 12 -80 -48z" />
<glyph unicode="&#xc0;" d="M82 55q-5 -36 29 -45q35 -6 43 29q13 86 20 119l12 51q42 -2 160.5 12.5t163.5 -0.5q1 -15 4.5 -36t3.5 -23q7 -84 14 -133q2 -12 13 -21.5t24 -9.5q12 -2 24 8t13 23q0 25 -2 37q-4 25 -29 153q-16 78 -22 117l-49 348q-46 356 -53 416q-3 24 -12.5 117t-16.5 143 q-17 123 -14 170q0 17 -19 72q-4 12 -19.5 16t-25.5 -4q-50 -29 -53 -92q-19 -225 -27 -291q-8 -68 -26.5 -194.5t-24.5 -176.5q-8 -60 -28 -188.5t-29 -196.5l-27 -162q-5 -26 -14.5 -80t-14.5 -81zM107 1877q-2 19 6 32q13 24 37 12q73 -38 92 -45q30 -14 84.5 -35.5 t74.5 -30.5q26 -11 37 -22t2 -35q-1 -4 -4 -7t-7.5 -6t-6.5 -5q-18 4 -23 8q-129 71 -260 100q-3 1 -9 4t-9 4q-12 7 -14 26zM197.5 352q1.5 17 8.5 52t9 51q6 48 20 137t19 121q30 235 37 282q4 26 14 77.5t14 76.5q6 41 27 227q16 -43 16 -47q4 -37 19 -217 q5 -46 16.5 -131t14.5 -107q7 -49 22.5 -155t22.5 -162q5 -37 16 -110.5t16 -110.5v-35l-178 -18q-45 -4 -67 -2q-11 1 -45 16q-3 38 -1.5 55z" />
<glyph unicode="&#xc1;" d="M82 55q-5 -36 29 -45q35 -6 43 29q13 86 20 119l12 51q42 -2 160.5 12.5t163.5 -0.5q1 -15 4.5 -36t3.5 -23q7 -84 14 -133q2 -12 13 -21.5t24 -9.5q12 -2 24 8t13 23q0 25 -2 37q-4 25 -29 153q-16 78 -22 117l-49 348q-46 356 -53 416q-3 24 -12.5 117t-16.5 143 q-17 123 -14 170q0 17 -19 72q-4 12 -19.5 16t-25.5 -4q-50 -29 -53 -92q-19 -225 -27 -291q-8 -68 -26.5 -194.5t-24.5 -176.5q-8 -60 -28 -188.5t-29 -196.5l-27 -162q-5 -26 -14.5 -80t-14.5 -81zM197.5 352q1.5 17 8.5 52t9 51q6 48 20 137t19 121q30 235 37 282 q4 26 14 77.5t14 76.5q6 41 27 227q16 -43 16 -47q4 -37 19 -217q5 -46 16.5 -131t14.5 -107q7 -49 22.5 -155t22.5 -162q5 -37 16 -110.5t16 -110.5v-35l-178 -18q-45 -4 -67 -2q-11 1 -45 16q-3 38 -1.5 55zM260 1757q1 -4 4 -7t8 -6t7 -5q17 3 24 8q133 66 272 96 q5 1 12 4t9 4q12 7 14 25t-6 31q-14 22 -39 10q-12 -5 -44.5 -20.5t-51.5 -22.5q-17 -7 -168 -62q-30 -13 -39 -22q-11 -11 -2 -33z" />
<glyph unicode="&#xc2;" d="M82 55q-5 -36 29 -45q35 -6 43 29q13 86 20 119l12 51q42 -2 160.5 12.5t163.5 -0.5q1 -15 4.5 -36t3.5 -23q7 -84 14 -133q2 -12 13 -21.5t24 -9.5q12 -2 24 8t13 23q0 25 -2 37q-4 25 -29 153q-16 78 -22 117l-49 348q-46 356 -53 416q-3 24 -12.5 117t-16.5 143 q-17 123 -14 170q0 17 -19 72q-4 12 -19.5 16t-25.5 -4q-50 -29 -53 -92q-19 -225 -27 -291q-8 -68 -26.5 -194.5t-24.5 -176.5q-8 -60 -28 -188.5t-29 -196.5l-27 -162q-5 -26 -14.5 -80t-14.5 -81zM94 1759q2 -6 13 -15t14 -13q4 1 13.5 3.5t12.5 4.5q28 24 89 51.5 t81 40.5q40 23 82 -8q45 -35 109 -78q12 -7 25.5 -5t21.5 11q9 13 7.5 29.5t-13.5 23.5l-156 105q-22 16 -49 4l-168 -80q-47 -22 -70 -41q-6 -4 -10 -14.5t-2 -18.5zM197.5 352q1.5 17 8.5 52t9 51q6 48 20 137t19 121q30 235 37 282q4 26 14 77.5t14 76.5q6 41 27 227 q16 -43 16 -47q4 -37 19 -217q5 -46 16.5 -131t14.5 -107q7 -49 22.5 -155t22.5 -162q5 -37 16 -110.5t16 -110.5v-35l-178 -18q-45 -4 -67 -2q-11 1 -45 16q-3 38 -1.5 55z" />
<glyph unicode="&#xc3;" d="M80 1808q13 -31 19 -40t13.5 -7t22.5 19q38 38 101 24l129 -30q8 -2 53 -2q22 1 45.5 8.5t52 20.5t45.5 18q15 4 17.5 23t-9.5 36q-4 4 -8 7t-8.5 6l-7.5 5q-92 -90 -217 -53q-33 11 -80 21q-104 23 -168 -56zM82 55q-5 -36 29 -45q35 -6 43 29q13 86 20 119l12 51 q42 -2 160.5 12.5t163.5 -0.5q1 -15 4.5 -36t3.5 -23q7 -84 14 -133q2 -12 13 -21.5t24 -9.5q12 -2 24 8t13 23q0 25 -2 37q-4 25 -29 153q-16 78 -22 117l-49 348q-46 356 -53 416q-3 24 -12.5 117t-16.5 143q-17 123 -14 170q0 17 -19 72q-4 12 -19.5 16t-25.5 -4 q-50 -29 -53 -92q-19 -225 -27 -291q-8 -68 -26.5 -194.5t-24.5 -176.5q-8 -60 -28 -188.5t-29 -196.5l-27 -162q-5 -26 -14.5 -80t-14.5 -81zM197.5 352q1.5 17 8.5 52t9 51q6 48 20 137t19 121q30 235 37 282q4 26 14 77.5t14 76.5q6 41 27 227q16 -43 16 -47 q4 -37 19 -217q5 -46 16.5 -131t14.5 -107q7 -49 22.5 -155t22.5 -162q5 -37 16 -110.5t16 -110.5v-35l-178 -18q-45 -4 -67 -2q-11 1 -45 16q-3 38 -1.5 55z" />
<glyph unicode="&#xc4;" d="M82 55q-5 -36 29 -45q35 -6 43 29q13 86 20 119l12 51q42 -2 160.5 12.5t163.5 -0.5q1 -15 4.5 -36t3.5 -23q7 -84 14 -133q2 -12 13 -21.5t24 -9.5q12 -2 24 8t13 23q0 25 -2 37q-4 25 -29 153q-16 78 -22 117l-49 348q-46 356 -53 416q-3 24 -12.5 117t-16.5 143 q-17 123 -14 170q0 17 -19 72q-4 12 -19.5 16t-25.5 -4q-50 -29 -53 -92q-19 -225 -27 -291q-8 -68 -26.5 -194.5t-24.5 -176.5q-8 -60 -28 -188.5t-29 -196.5l-27 -162q-5 -26 -14.5 -80t-14.5 -81zM147 1808q-4 -22 12 -43t40 -26q18 -3 33 9.5t18 35.5q1 4 2 11.5t2 10.5 q0 36 -25 45q-15 4 -45.5 -9t-36.5 -27v-7zM197.5 352q1.5 17 8.5 52t9 51q6 48 20 137t19 121q30 235 37 282q4 26 14 77.5t14 76.5q6 41 27 227q16 -43 16 -47q4 -37 19 -217q5 -46 16.5 -131t14.5 -107q7 -49 22.5 -155t22.5 -162q5 -37 16 -110.5t16 -110.5v-35 l-178 -18q-45 -4 -67 -2q-11 1 -45 16q-3 38 -1.5 55zM434 1782q-5 -1 2.5 -10.5t27 -20.5t44.5 -16q23 18 29 57q0 8 2 14q0 33 -25 52q-16 0 -45 -16t-35 -30q-2 0 0 -30z" />
<glyph unicode="&#xc5;" d="M82 55q-5 -36 29 -45q35 -6 43 29q13 86 20 119l12 51q42 -2 160.5 12.5t163.5 -0.5q1 -15 4.5 -36t3.5 -23q7 -84 14 -133q2 -12 13 -21.5t24 -9.5q12 -2 24 8t13 23q0 25 -2 37q-4 25 -29 153q-16 78 -22 117l-49 348q-46 356 -53 416q-3 24 -12.5 117t-16.5 143 q-17 123 -14 170q0 17 -19 72q-4 12 -19.5 16t-25.5 -4q-50 -29 -53 -92q-19 -225 -27 -291q-8 -68 -26.5 -194.5t-24.5 -176.5q-8 -60 -28 -188.5t-29 -196.5l-27 -162q-5 -26 -14.5 -80t-14.5 -81zM197.5 352q1.5 17 8.5 52t9 51q6 48 20 137t19 121q30 235 37 282 q4 26 14 77.5t14 76.5q6 41 27 227q16 -43 16 -47q4 -37 19 -217q5 -46 16.5 -131t14.5 -107q7 -49 22.5 -155t22.5 -162q5 -37 16 -110.5t16 -110.5v-35l-178 -18q-45 -4 -67 -2q-11 1 -45 16q-3 38 -1.5 55zM262 1806q6 -55 62 -75q2 0 8.5 -1t13.5 -1q30 -7 47 10 q14 14 28 50.5t13 57.5q-9 37 -41 66t-78 22q-24 -3 -32 -10.5t-17 -28.5q-4 -9 -4 -90zM309 1819q-6 28 8 53q1 0 4 2t8 4.5t9 3.5q26 0 38.5 -26t2.5 -48l-8 -12q-12 -17 -34.5 -6.5t-27.5 29.5z" />
<glyph unicode="&#xc7;" d="M123 352h4q-4 78 -4 115q0 207 2 307q1 28 1 79t1 92t4 77q2 45 2.5 125t1.5 106q1 24 -0.5 73.5t-1.5 66.5q1 13 5 40t5 42q3 48 26 81t64 64q73 51 162 33q38 -10 62 -41q1 -2 12 -17t13.5 -18.5t10.5 -17t11 -21t7 -19.5t5 -24q6 -45 6 -131q3 -32 -28 -35 q-14 -2 -25 7t-12 24q-2 29 -2 78q-3 74 -58 123q-58 40 -116 2q-4 -3 -37 -31q-25 -22 -31 -57q-17 -96 -12 -175q2 -46 2 -65t-2.5 -66.5l-3.5 -66.5q-3 -110 -9 -223q-6 -61 -6 -129.5t3 -152t3 -128.5q0 -29 -2 -88t-2 -88q0 -45 6 -82q8 -115 115 -154q46 -12 72 -8 q57 11 76 78q6 31 10 94q1 10 12 146q3 20 14 29.5t25 6.5q19 -2 31.5 -18.5t5.5 -34.5q-14 -32 -19 -95.5t-10 -84.5q-3 -12 -6 -34t-6 -34q-12 -51 -44.5 -82t-78.5 -40l2 -21q5 -43 2 -70v-51q0 -2 6 -71q0 -22 -6 -37q-6 -21 -35 -21q-24 0 -32 23q-4 25 -2 37 q0 10 1 29.5t1 31.5v64q1 4 -0.5 19t-1.5 17l-5 50q-70 11 -137 81q-53 53 -53 136q1 26 -4 155z" />
<glyph unicode="&#xc8;" d="M111 55v11q0 1 1 3t1 3q12 95 8 258q0 19 4 59l4 41v51q3 115 12 226q5 57 -2 129q-8 140 -4 419v48q0 95 -6 180q-1 12 -2 36.5t-2 36.5q0 11 -2 17q0 6 -1 18t-1 17q2 10 11.5 22t17.5 12h2q15 0 43 7q8 0 24.5 1t24.5 1h20q56 -6 115 -6q24 -3 53 -3h10q6 -1 17 -2 t16 -2q14 -2 25 -20q10 -13 6 -29q-9 -37 -37 -37h-10q-47 15 -105 15h-49q-28 -3 -59 0q-4 0 -8 1t-5 1q-19 0 -32 -10v-232q0 -42 -2 -67v-152q0 -69 2 -104v-39q29 0 41 2q83 8 120 10q9 0 15 2q4 0 11.5 1t10.5 1q27 0 45 -18l5 -5v-4q-5 -37 -14.5 -54t-33.5 -17 q-2 0 -26 4q-24 6 -62 6q-44 0 -112 -19v-6q15 -102 0 -276q-6 -80 -6 -168v-338h26q44 3 76 8q12 0 18 2h72q45 0 72 8q25 5 30 7h11q14 0 23.5 -9t11.5 -20q4 -28 -9 -47q-11 -27 -34 -27q-3 0 -15 4q-6 4 -18 4q-11 0 -31 -4l-2 -2q-4 0 -6 -2q-12 -4 -19 -4q-4 0 -4 2 q-12 2 -41 2q-19 0 -65 -4t-64 -4h-10q-31 0 -74 6q-12 1 -22 17.5t-10 31.5zM123 1877q-2 19 6 32q13 24 37 12q73 -38 92 -45q30 -14 85 -35.5t75 -30.5q26 -11 37 -22t2 -35q-1 -4 -4 -7t-8 -6t-7 -5q-16 4 -22 8q-129 71 -260 100q-3 1 -9.5 4t-9.5 4q-12 7 -14 26z" />
<glyph unicode="&#xc9;" d="M111 55v11q0 1 1 3t1 3q12 95 8 258q0 19 4 59l4 41v51q3 115 12 226q5 57 -2 129q-8 140 -4 419v48q0 95 -6 180q-1 12 -2 36.5t-2 36.5q0 11 -2 17q0 6 -1 18t-1 17q2 10 11.5 22t17.5 12h2q15 0 43 7q8 0 24.5 1t24.5 1h20q56 -6 115 -6q24 -3 53 -3h10q6 -1 17 -2 t16 -2q14 -2 25 -20q10 -13 6 -29q-9 -37 -37 -37h-10q-47 15 -105 15h-49q-28 -3 -59 0q-4 0 -8 1t-5 1q-19 0 -32 -10v-232q0 -42 -2 -67v-152q0 -69 2 -104v-39q29 0 41 2q83 8 120 10q9 0 15 2q4 0 11.5 1t10.5 1q27 0 45 -18l5 -5v-4q-5 -37 -14.5 -54t-33.5 -17 q-2 0 -26 4q-24 6 -62 6q-44 0 -112 -19v-6q15 -102 0 -276q-6 -80 -6 -168v-338h26q44 3 76 8q12 0 18 2h72q45 0 72 8q25 5 30 7h11q14 0 23.5 -9t11.5 -20q4 -28 -9 -47q-11 -27 -34 -27q-3 0 -15 4q-6 4 -18 4q-11 0 -31 -4l-2 -2q-4 0 -6 -2q-12 -4 -19 -4q-4 0 -4 2 q-12 2 -41 2q-19 0 -65 -4t-64 -4h-10q-31 0 -74 6q-12 1 -22 17.5t-10 31.5zM168 1757q1 -4 4 -7t7.5 -6t6.5 -5q19 4 25 8q133 66 272 96q5 1 12 4t9 4q12 7 14 25t-6 31q-14 22 -39 10q-12 -5 -44.5 -20.5t-51.5 -22.5q-17 -7 -168 -62q-30 -13 -39 -22q-11 -11 -2 -33z " />
<glyph unicode="&#xca;" d="M80 1792q2 -6 13 -16t13 -13q4 1 10.5 3t10 3t6.5 3q28 24 89 51.5t81 40.5q39 23 82 -9q35 -27 109 -77q12 -7 25.5 -5t21.5 11q9 13 7.5 29.5t-13.5 23.5l-156 105q-22 16 -49 4l-168 -80q-47 -22 -70 -41q-6 -4 -10 -14.5t-2 -18.5zM111 55v11q0 1 1 3t1 3 q12 95 8 258q0 19 4 59l4 41v51q3 115 12 226q5 57 -2 129q-8 140 -4 419v48q0 95 -6 180q-1 12 -2 36.5t-2 36.5q0 11 -2 17q0 6 -1 18t-1 17q2 10 11.5 22t17.5 12h2q15 0 43 7q8 0 24.5 1t24.5 1h20q56 -6 115 -6q24 -3 53 -3h10q6 -1 17 -2t16 -2q14 -2 25 -20 q10 -13 6 -29q-9 -37 -37 -37h-10q-47 15 -105 15h-49q-28 -3 -59 0q-4 0 -8 1t-5 1q-19 0 -32 -10v-232q0 -42 -2 -67v-152q0 -69 2 -104v-39q29 0 41 2q83 8 120 10q9 0 15 2q4 0 11.5 1t10.5 1q27 0 45 -18l5 -5v-4q-5 -37 -14.5 -54t-33.5 -17q-2 0 -26 4q-24 6 -62 6 q-44 0 -112 -19v-6q15 -102 0 -276q-6 -80 -6 -168v-338h26q44 3 76 8q12 0 18 2h72q45 0 72 8q25 5 30 7h11q14 0 23.5 -9t11.5 -20q4 -28 -9 -47q-11 -27 -34 -27q-3 0 -15 4q-6 4 -18 4q-11 0 -31 -4l-2 -2q-4 0 -6 -2q-12 -4 -19 -4q-4 0 -4 2q-12 2 -41 2q-19 0 -65 -4 t-64 -4h-10q-31 0 -74 6q-12 1 -22 17.5t-10 31.5z" />
<glyph unicode="&#xcb;" d="M111 55v11q0 1 1 3t1 3q12 95 8 258q0 19 4 59l4 41v51q3 115 12 226q5 57 -2 129q-8 140 -4 419v48q0 95 -6 180q-1 12 -2 36.5t-2 36.5q0 11 -2 17q0 6 -1 18t-1 17q2 10 11.5 22t17.5 12h2q15 0 43 7q8 0 24.5 1t24.5 1h20q56 -6 115 -6q24 -3 53 -3h10q6 -1 17 -2 t16 -2q14 -2 25 -20q10 -13 6 -29q-9 -37 -37 -37h-10q-47 15 -105 15h-49q-28 -3 -59 0q-4 0 -8 1t-5 1q-19 0 -32 -10v-232q0 -42 -2 -67v-152q0 -69 2 -104v-39q29 0 41 2q83 8 120 10q9 0 15 2q4 0 11.5 1t10.5 1q27 0 45 -18l5 -5v-4q-5 -37 -14.5 -54t-33.5 -17 q-2 0 -26 4q-24 6 -62 6q-44 0 -112 -19v-6q15 -102 0 -276q-6 -80 -6 -168v-338h26q44 3 76 8q12 0 18 2h72q45 0 72 8q25 5 30 7h11q14 0 23.5 -9t11.5 -20q4 -28 -9 -47q-11 -27 -34 -27q-3 0 -15 4q-6 4 -18 4q-11 0 -31 -4l-2 -2q-4 0 -6 -2q-12 -4 -19 -4q-4 0 -4 2 q-12 2 -41 2q-19 0 -65 -4t-64 -4h-10q-31 0 -74 6q-12 1 -22 17.5t-10 31.5zM137 1864q-4 -22 12 -43.5t39 -26.5q18 -3 33.5 9.5t18.5 35.5q1 4 2 12t2 11q0 36 -25 45q-15 4 -45.5 -9.5t-36.5 -27.5v-6zM424 1837q-5 -1 2.5 -10.5t27 -20.5t44.5 -16q22 18 28 57 q0 9 2 15q0 33 -24 51q-16 0 -45 -15.5t-35 -29.5q-2 0 0 -31z" />
<glyph unicode="&#xcc;" horiz-adv-x="382" d="M-77.5 1877q-2.5 19 5.5 32q13 24 37 12q73 -38 92 -45q30 -14 85 -35.5t75 -30.5q26 -11 37 -22t2 -35q-1 -4 -4 -7t-7.5 -6t-6.5 -5q-18 4 -23 8q-129 71 -260 100q-3 1 -9 4t-9 4q-12 7 -14.5 26zM197 297q4 -152 4 -281q3 -1 12.5 -6t15.5 -6q17 -5 28.5 2.5 t12.5 24.5q2 12 2 39q-1 18 -3 66t-3.5 89t-1.5 66v155q2 36 9 139t8 154q1 70 -5 473l-6 318q0 44 -4 67q-4 24 -20 37q-24 17 -47 -10q-4 -13 -2 -20q7 -40 9.5 -91.5t3 -113.5t1.5 -90q2 -41 2.5 -175.5t3.5 -185.5q9 -147 -8 -389q-14 -177 -12 -262z" />
<glyph unicode="&#xcd;" horiz-adv-x="378" d="M168 297q4 -152 4 -281q2 -1 12.5 -6t16.5 -6q17 -5 28.5 2.5t12.5 24.5q2 12 2 39q-1 18 -3 66t-3.5 89t-1.5 66v155q1 34 8 137.5t8 155.5q2 104 -4 473l-6 318q0 44 -4 67t-21 37q-24 17 -47 -10q-4 -13 -2 -20q7 -40 9.5 -91.5t3 -113.5t1.5 -90q2 -41 2.5 -175.5 t3.5 -185.5q9 -147 -8 -389q-14 -177 -12 -262zM172 1757q1 -4 4 -7t7.5 -6t6.5 -5q19 4 25 8q133 66 272 96q5 1 12 4t9 4q12 7 14 25t-6 31q-14 22 -39 10q-12 -5 -44.5 -20.5t-51.5 -22.5q-17 -7 -168 -62q-30 -13 -39 -22q-11 -11 -2 -33z" />
<glyph unicode="&#xce;" horiz-adv-x="391" d="M-57 1704q2 -6 13 -16t13 -13q5 1 14.5 3.5t12.5 4.5q28 24 89 52t81 41q39 23 82 -9q42 -32 108 -77q12 -7 25.5 -5t21.5 11q9 13 7.5 29.5t-13.5 23.5l-155 104q-23 17 -49 5l-168 -80q-47 -22 -70 -41q-6 -4 -10 -14.5t-2 -18.5zM164 297q4 -152 4 -281q2 -1 12.5 -6 t16.5 -6q17 -5 28.5 2.5t12.5 24.5q2 12 2 39q0 10 -4.5 98.5t-4.5 122.5v155q2 36 9 139t8 154q2 104 -4 473l-6 318q0 38 -5 67q-4 24 -20 37q-24 17 -47 -10q-4 -13 -2 -20q7 -40 9.5 -91.5t3 -113.5t1.5 -90q2 -41 2.5 -175.5t3.5 -185.5q9 -147 -8 -389 q-14 -177 -12 -262z" />
<glyph unicode="&#xcf;" horiz-adv-x="395" d="M4 1825q-4 -22 12 -43.5t39 -26.5q18 -3 33 9.5t18 35.5q1 3 2.5 11.5t2.5 11.5q0 36 -25 45q-15 4 -45.5 -9.5t-36.5 -27.5v-6zM158 297q4 -152 4 -281q3 -1 12.5 -6t15.5 -6q17 -5 28.5 2.5t12.5 24.5q2 12 2 39q-1 18 -3 66t-3.5 89t-1.5 66v155q2 36 9 139t8 154 q2 104 -4 473l-7 318q0 44 -4 67q-4 24 -20 37q-24 17 -47 -10q-4 -13 -2 -20q7 -40 9.5 -91.5t3 -113.5t1.5 -90q2 -41 2.5 -175.5t3.5 -185.5q9 -147 -8 -389q-14 -177 -12 -262zM291 1798q-5 -1 2.5 -10.5t27 -20.5t44.5 -16q22 18 28 57q0 9 2 15q0 33 -24 51 q-16 0 -45 -15.5t-35 -29.5q-2 0 0 -31z" />
<glyph unicode="&#xd2;" horiz-adv-x="681" d="M82 1131q1 -14 3 -31t3 -27q4 -28 4 -45q1 -24 4 -66t5 -77t3 -66q5 -82 11 -225.5t8 -183.5v-209q0 -82 63 -142q68 -65 187 -79q67 -6 125 41t77 120q32 126 39 299q4 164 0 496q0 307 -4 463q-3 139 -104 205q-45 28 -117 49q-1 0 -12.5 3.5t-13.5 4t-12 2.5t-13 1.5 t-11 -1.5t-13 -4t-11 -7.5t-12 -11.5q-2 -4 -6.5 -5t-10.5 -1t-10 -2q-55 -26 -78 -65q-61 -98 -75 -178q-16 -101 -29 -232q-1 -12 0 -26zM123 1877q-2 19 6 32q13 24 37 12q73 -38 92 -45q30 -14 85 -35.5t75 -30.5q26 -11 37 -22t2 -35q-1 -4 -4 -7t-8 -6t-7 -5 q-16 4 -22 8q-129 71 -260 100q-3 1 -9.5 4t-9.5 4q-12 7 -14 26zM146 1158q3 68 10 114.5t22 113.5q13 75 58 132q28 38 69 47q7 2 28 10.5t32 11.5q17 4 26 0q72 -37 92 -53q62 -49 62 -125q0 -8 0.5 -23.5t0.5 -28.5t-1 -24q1 -17 4.5 -62.5t3.5 -68.5q2 -69 -2 -201 v-208q5 -40 5 -85t-2.5 -100.5t-2.5 -85.5q0 -16 2 -22q4 -42 0 -88t-12 -102.5t-11 -86.5q-7 -76 -79 -151q-24 -26 -72 -19q-56 7 -96 25q-97 46 -97 147l1 91q1 92 -1 92q0 44 -2 93t-5.5 108.5t-4.5 92.5q-12 194 -16 295q-1 7 -1 22.5t-1 22.5q-13 48 -10 116z" />
<glyph unicode="&#xd3;" horiz-adv-x="681" d="M82 1131q1 -14 3 -31t3 -27q4 -28 4 -45q1 -24 4 -66t5 -77t3 -66q5 -82 11 -225.5t8 -183.5v-209q0 -82 63 -142q68 -65 187 -79q67 -6 125 41t77 120q32 126 39 299q4 164 0 496q0 307 -4 463q-3 139 -104 205q-45 28 -117 49q-1 0 -12.5 3.5t-13.5 4t-12 2.5t-13 1.5 t-11 -1.5t-13 -4t-11 -7.5t-12 -11.5q-2 -4 -6.5 -5t-10.5 -1t-10 -2q-55 -26 -78 -65q-61 -98 -75 -178q-16 -101 -29 -232q-1 -12 0 -26zM146 1158q3 68 10 114.5t22 113.5q13 75 58 132q28 38 69 47q7 2 28 10.5t32 11.5q17 4 26 0q72 -37 92 -53q62 -49 62 -125 q0 -8 0.5 -23.5t0.5 -28.5t-1 -24q1 -17 4.5 -62.5t3.5 -68.5q2 -69 -2 -201v-208q5 -40 5 -85t-2.5 -100.5t-2.5 -85.5q0 -16 2 -22q4 -42 0 -88t-12 -102.5t-11 -86.5q-7 -76 -79 -151q-24 -26 -72 -19q-56 7 -96 25q-97 46 -97 147l1 91q1 92 -1 92q0 44 -2 93 t-5.5 108.5t-4.5 92.5q-12 194 -16 295q-1 7 -1 22.5t-1 22.5q-13 48 -10 116zM250 1757q1 -4 4 -7t7.5 -6t6.5 -5q19 4 25 8q133 66 272 96q5 1 12 4t9 4q12 7 14 25t-6 31q-14 22 -39 10q-12 -5 -44.5 -20.5t-51.5 -22.5q-17 -7 -168 -62q-30 -13 -39 -22q-11 -11 -2 -33z " />
<glyph unicode="&#xd4;" horiz-adv-x="681" d="M82 1131q1 -14 3 -31t3 -27q4 -28 4 -45q1 -24 4 -66t5 -77t3 -66q5 -82 11 -225.5t8 -183.5v-209q0 -82 63 -142q68 -65 187 -79q67 -6 125 41t77 120q32 126 39 299q4 164 0 496q0 307 -4 463q-3 139 -104 205q-45 28 -117 49q-1 0 -12.5 3.5t-13.5 4t-12 2.5t-13 1.5 t-11 -1.5t-13 -4t-11 -7.5t-12 -11.5q-2 -4 -6.5 -5t-10.5 -1t-10 -2q-55 -26 -78 -65q-61 -98 -75 -178q-16 -101 -29 -232q-1 -12 0 -26zM141 1755q2 -6 13 -16t14 -13l27 9q28 24 89 51.5t81 40.5q39 23 81 -8q45 -35 109 -78q12 -7 25.5 -5t21.5 11q9 13 7.5 29.5 t-13.5 23.5l-156 105q-22 16 -49 4l-168 -80q-44 -21 -69 -41q-6 -5 -10 -15.5t-3 -17.5zM146 1158q3 68 10 114.5t22 113.5q13 75 58 132q28 38 69 47q7 2 28 10.5t32 11.5q17 4 26 0q72 -37 92 -53q62 -49 62 -125q0 -8 0.5 -23.5t0.5 -28.5t-1 -24q1 -17 4.5 -62.5 t3.5 -68.5q2 -69 -2 -201v-208q5 -40 5 -85t-2.5 -100.5t-2.5 -85.5q0 -16 2 -22q4 -42 0 -88t-12 -102.5t-11 -86.5q-7 -76 -79 -151q-24 -26 -72 -19q-56 7 -96 25q-97 46 -97 147l1 91q1 92 -1 92q0 44 -2 93t-5.5 108.5t-4.5 92.5q-12 194 -16 295q-1 7 -1 22.5t-1 22.5 q-13 48 -10 116z" />
<glyph unicode="&#xd5;" horiz-adv-x="681" d="M82 1131q1 -14 3 -31t3 -27q4 -28 4 -45q1 -24 4 -66t5 -77t3 -66q5 -82 11 -225.5t8 -183.5v-209q0 -82 63 -142q68 -65 187 -79q67 -6 125 41t77 120q32 126 39 299q4 164 0 496q0 307 -4 463q-3 139 -104 205q-45 28 -117 49q-1 0 -12.5 3.5t-13.5 4t-12 2.5t-13 1.5 t-11 -1.5t-13 -4t-11 -7.5t-12 -11.5q-2 -4 -6.5 -5t-10.5 -1t-10 -2q-55 -26 -78 -65q-61 -98 -75 -178q-16 -101 -29 -232q-1 -12 0 -26zM113 1825q13 -31 18.5 -40t13.5 -7.5t23 18.5q39 39 100 25l129 -31q8 -2 54 -2q22 1 45.5 8.5t52 20.5t45.5 18q15 4 17.5 23 t-9.5 36q-2 3 -24 19q-93 -90 -218 -53q-25 8 -79 20q-105 23 -168 -55zM146 1158q3 68 10 114.5t22 113.5q13 75 58 132q28 38 69 47q7 2 28 10.5t32 11.5q17 4 26 0q72 -37 92 -53q62 -49 62 -125q0 -8 0.5 -23.5t0.5 -28.5t-1 -24q1 -17 4.5 -62.5t3.5 -68.5 q2 -69 -2 -201v-208q5 -40 5 -85t-2.5 -100.5t-2.5 -85.5q0 -16 2 -22q4 -42 0 -88t-12 -102.5t-11 -86.5q-7 -76 -79 -151q-24 -26 -72 -19q-56 7 -96 25q-97 46 -97 147l1 91q1 92 -1 92q0 44 -2 93t-5.5 108.5t-4.5 92.5q-12 194 -16 295q-1 7 -1 22.5t-1 22.5 q-13 48 -10 116z" />
<glyph unicode="&#xd6;" horiz-adv-x="681" d="M82 1131q1 -14 3 -31t3 -27q4 -28 4 -45q1 -24 4 -66t5 -77t3 -66q5 -82 11 -225.5t8 -183.5v-209q0 -82 63 -142q68 -65 187 -79q67 -6 125 41t77 120q32 126 39 299q4 164 0 496q0 307 -4 463q-3 139 -104 205q-45 28 -117 49q-1 0 -12.5 3.5t-13.5 4t-12 2.5t-13 1.5 t-11 -1.5t-13 -4t-11 -7.5t-12 -11.5q-2 -4 -6.5 -5t-10.5 -1t-10 -2q-55 -26 -78 -65q-61 -98 -75 -178q-16 -101 -29 -232q-1 -12 0 -26zM146 1158q3 68 10 114.5t22 113.5q13 75 58 132q28 38 69 47q7 2 28 10.5t32 11.5q17 4 26 0q72 -37 92 -53q62 -49 62 -125 q0 -8 0.5 -23.5t0.5 -28.5t-1 -24q1 -17 4.5 -62.5t3.5 -68.5q2 -69 -2 -201v-208q5 -40 5 -85t-2.5 -100.5t-2.5 -85.5q0 -16 2 -22q4 -42 0 -88t-12 -102.5t-11 -86.5q-7 -76 -79 -151q-24 -26 -72 -19q-56 7 -96 25q-97 46 -97 147l1 91q1 92 -1 92q0 44 -2 93 t-5.5 108.5t-4.5 92.5q-12 194 -16 295q-1 7 -1 22.5t-1 22.5q-13 48 -10 116zM168 1839q-4 -22 12 -43.5t39 -26.5q18 -3 33 10t18 36q1 4 2 11.5t2 10.5q0 36 -24 45q-15 4 -45.5 -9.5t-36.5 -27.5v-6zM455 1812q-5 -1 2 -10.5t26.5 -20.5t44.5 -16q23 19 29 58q0 8 2 14 q0 33 -24 51q-16 0 -45 -15.5t-35 -29.5q-2 0 0 -31z" />
<glyph unicode="&#xd9;" horiz-adv-x="655" d="M123 1522q1 -58 1 -164t1 -191t4 -161q11 -331 8 -570q-1 -37 -1 -108t-1 -107q0 -68 37 -123q0 -1 10.5 -17.5t16.5 -23.5q74 -91 159 -86q26 3 52 0q72 -3 126.5 61.5t53.5 162.5q-2 60 6 167q21 221 18 388q-1 51 0.5 147t1.5 127q0 86 -1 258.5t-1 257.5q0 25 -2 37 q-3 26 -26 29q-11 2 -22.5 -5.5t-12.5 -17.5q-5 -24 -2 -53q8 -311 10 -471q1 -48 -4 -289q0 -12 1 -35t1 -35q4 -36 4 -55q-9 -148 -14 -205q-2 -26 -9 -81.5t-10.5 -98t-1.5 -82.5q4 -66 -39 -100q-80 -64 -165 -31q-74 24 -109 111q-23 56 -23 127q0 122 5 207 q3 76 -1 216.5t-4 182.5q-1 73 -5.5 216t-5.5 215t5 216v66q-2 20 -9.5 28.5t-27.5 9.5q-4 0 -24 -10v-110zM137.5 1877q-2.5 19 5.5 32q13 24 37 12q73 -38 92 -45q30 -14 85 -35.5t75 -30.5q26 -11 37 -22t2 -35q-1 -4 -4 -7t-7.5 -6t-6.5 -5q-18 4 -23 8 q-129 71 -260 100q-3 1 -9 4t-9 4q-12 7 -14.5 26z" />
<glyph unicode="&#xda;" horiz-adv-x="655" d="M123 1522q1 -58 1 -164t1 -191t4 -161q11 -331 8 -570q-1 -37 -1 -108t-1 -107q0 -68 37 -123q0 -1 10.5 -17.5t16.5 -23.5q74 -91 159 -86q26 3 52 0q72 -3 126.5 61.5t53.5 162.5q-2 60 6 167q21 221 18 388q-1 51 0.5 147t1.5 127q0 86 -1 258.5t-1 257.5q0 25 -2 37 q-3 26 -26 29q-11 2 -22.5 -5.5t-12.5 -17.5q-5 -24 -2 -53q8 -311 10 -471q1 -48 -4 -289q0 -12 1 -35t1 -35q4 -36 4 -55q-9 -148 -14 -205q-2 -26 -9 -81.5t-10.5 -98t-1.5 -82.5q4 -66 -39 -100q-80 -64 -165 -31q-74 24 -109 111q-23 56 -23 127q0 122 5 207 q3 76 -1 216.5t-4 182.5q-1 73 -5.5 216t-5.5 215t5 216v66q-2 20 -9.5 28.5t-27.5 9.5q-4 0 -24 -10v-110zM295 1757q1 -4 4 -7t7.5 -6t6.5 -5q19 4 25 8q133 66 272 96q5 1 12 4t9 4q12 7 14 25t-6 31q-14 22 -39 10q-12 -5 -44.5 -20.5t-51.5 -22.5q-17 -7 -168 -62 q-30 -13 -39 -22q-11 -11 -2 -33z" />
<glyph unicode="&#xdb;" horiz-adv-x="655" d="M123 1522q1 -58 1 -164t1 -191t4 -161q11 -331 8 -570q-1 -37 -1 -108t-1 -107q0 -68 37 -123q0 -1 10.5 -17.5t16.5 -23.5q74 -91 159 -86q26 3 52 0q72 -3 126.5 61.5t53.5 162.5q-2 60 6 167q21 221 18 388q-1 51 0.5 147t1.5 127q0 86 -1 258.5t-1 257.5q0 25 -2 37 q-3 26 -26 29q-11 2 -22.5 -5.5t-12.5 -17.5q-5 -24 -2 -53q8 -311 10 -471q1 -48 -4 -289q0 -12 1 -35t1 -35q4 -36 4 -55q-9 -148 -14 -205q-2 -26 -9 -81.5t-10.5 -98t-1.5 -82.5q4 -66 -39 -100q-80 -64 -165 -31q-74 24 -109 111q-23 56 -23 127q0 122 5 207 q3 76 -1 216.5t-4 182.5q-1 73 -5.5 216t-5.5 215t5 216v66q-2 20 -9.5 28.5t-27.5 9.5q-4 0 -24 -10v-110zM152 1772q2 -6 13 -16t13 -13l14 3.5t13 4.5q28 24 89 51.5t81 40.5q40 23 82 -8q53 -41 108 -78q12 -7 25.5 -5t21.5 11q9 13 7.5 30t-13.5 24l-155 104 q-23 16 -50 4l-168 -80q-44 -21 -69 -41q-16 -12 -12 -32z" />
<glyph unicode="&#xdc;" horiz-adv-x="655" d="M123 1522q1 -58 1 -164t1 -191t4 -161q11 -331 8 -570q-1 -37 -1 -108t-1 -107q0 -68 37 -123q0 -1 10.5 -17.5t16.5 -23.5q74 -91 159 -86q26 3 52 0q72 -3 126.5 61.5t53.5 162.5q-2 60 6 167q21 221 18 388q-1 51 0.5 147t1.5 127q0 86 -1 258.5t-1 257.5q0 25 -2 37 q-3 26 -26 29q-11 2 -22.5 -5.5t-12.5 -17.5q-5 -24 -2 -53q8 -311 10 -471q1 -48 -4 -289q0 -12 1 -35t1 -35q4 -36 4 -55q-9 -148 -14 -205q-2 -26 -9 -81.5t-10.5 -98t-1.5 -82.5q4 -66 -39 -100q-80 -64 -165 -31q-74 24 -109 111q-23 56 -23 127q0 122 5 207 q3 76 -1 216.5t-4 182.5q-1 73 -5.5 216t-5.5 215t5 216v66q-2 20 -9.5 28.5t-27.5 9.5q-4 0 -24 -10v-110zM184 1851q-4 -22 12 -43t40 -26q18 -3 33 9.5t18 35.5q1 4 2 11.5t2 10.5q0 36 -25 45q-15 4 -45.5 -9t-36.5 -27v-7zM471 1825q-5 -1 2.5 -10.5t27 -20.5t44.5 -16 q22 18 28 57q0 8 2 14q0 34 -24 52q-16 0 -45 -16t-35 -30q-2 0 0 -30z" />
<glyph unicode="&#xdd;" horiz-adv-x="696" d="M82 1604q13 -64 24 -88q69 -172 97 -236q43 -92 129 -268l41 -72q-3 -14 -12 -58.5t-15 -66.5q-10 -73 -31 -168q-4 -20 -12.5 -63t-14 -76.5t-9.5 -63.5q-7 -58 -41 -186q-7 -24 -29.5 -96.5t-32.5 -112.5q-5 -19 -2 -43q0 -26 23 -29q21 -3 34 21l7 29l61 211 q4 11 8 41q44 276 80 428q9 39 10 51q5 54 16 108.5t29.5 131.5t24.5 106q16 65 86 326q44 172 49 190q6 28 -12 37q-26 13 -41 -10q-8 -20 -8 -31q-18 -59 -21 -84q-13 -52 -71 -293q-49 -181 -54 -199q-21 11 -39 52q-99 193 -125 262q-10 29 -31 80.5t-37 95t-26 84.5 q-7 36 -49 26q-1 -4 -3 -11.5t-3 -13.5t0 -11zM256 1794q1 -4 4 -7t7.5 -6t6.5 -5q19 4 25 8q133 66 272 96q5 1 12 4t9 4q12 7 14 25t-6 31q-14 22 -39 10q-12 -5 -44.5 -20.5t-51.5 -22.5q-17 -7 -168 -62q-30 -13 -39 -22q-11 -11 -2 -33z" />
<glyph unicode="&#xe0;" d="M82 55q-5 -36 29 -45q35 -6 43 29q13 86 20 119l12 51q42 -2 160.5 12.5t163.5 -0.5q1 -15 4.5 -36t3.5 -23q7 -84 14 -133q2 -12 13 -21.5t24 -9.5q12 -2 24 8t13 23q0 25 -2 37q-4 25 -29 153q-16 78 -22 117l-49 348q-46 356 -53 416q-3 24 -12.5 117t-16.5 143 q-17 123 -14 170q0 17 -19 72q-4 12 -19.5 16t-25.5 -4q-50 -29 -53 -92q-19 -225 -27 -291q-8 -68 -26.5 -194.5t-24.5 -176.5q-8 -60 -28 -188.5t-29 -196.5l-27 -162q-5 -26 -14.5 -80t-14.5 -81zM107 1877q-2 19 6 32q13 24 37 12q73 -38 92 -45q30 -14 84.5 -35.5 t74.5 -30.5q26 -11 37 -22t2 -35q-1 -4 -4 -7t-7.5 -6t-6.5 -5q-18 4 -23 8q-129 71 -260 100q-3 1 -9 4t-9 4q-12 7 -14 26zM197.5 352q1.5 17 8.5 52t9 51q6 48 20 137t19 121q30 235 37 282q4 26 14 77.5t14 76.5q6 41 27 227q16 -43 16 -47q4 -37 19 -217 q5 -46 16.5 -131t14.5 -107q7 -49 22.5 -155t22.5 -162q5 -37 16 -110.5t16 -110.5v-35l-178 -18q-45 -4 -67 -2q-11 1 -45 16q-3 38 -1.5 55z" />
<glyph unicode="&#xe1;" d="M82 55q-5 -36 29 -45q35 -6 43 29q13 86 20 119l12 51q42 -2 160.5 12.5t163.5 -0.5q1 -15 4.5 -36t3.5 -23q7 -84 14 -133q2 -12 13 -21.5t24 -9.5q12 -2 24 8t13 23q0 25 -2 37q-4 25 -29 153q-16 78 -22 117l-49 348q-46 356 -53 416q-3 24 -12.5 117t-16.5 143 q-17 123 -14 170q0 17 -19 72q-4 12 -19.5 16t-25.5 -4q-50 -29 -53 -92q-19 -225 -27 -291q-8 -68 -26.5 -194.5t-24.5 -176.5q-8 -60 -28 -188.5t-29 -196.5l-27 -162q-5 -26 -14.5 -80t-14.5 -81zM197.5 352q1.5 17 8.5 52t9 51q6 48 20 137t19 121q30 235 37 282 q4 26 14 77.5t14 76.5q6 41 27 227q16 -43 16 -47q4 -37 19 -217q5 -46 16.5 -131t14.5 -107q7 -49 22.5 -155t22.5 -162q5 -37 16 -110.5t16 -110.5v-35l-178 -18q-45 -4 -67 -2q-11 1 -45 16q-3 38 -1.5 55zM260 1757q1 -4 4 -7t8 -6t7 -5q17 3 24 8q133 66 272 96 q5 1 12 4t9 4q12 7 14 25t-6 31q-14 22 -39 10q-12 -5 -44.5 -20.5t-51.5 -22.5q-17 -7 -168 -62q-30 -13 -39 -22q-11 -11 -2 -33z" />
<glyph unicode="&#xe2;" d="M82 55q-5 -36 29 -45q35 -6 43 29q13 86 20 119l12 51q42 -2 160.5 12.5t163.5 -0.5q1 -15 4.5 -36t3.5 -23q7 -84 14 -133q2 -12 13 -21.5t24 -9.5q12 -2 24 8t13 23q0 25 -2 37q-4 25 -29 153q-16 78 -22 117l-49 348q-46 356 -53 416q-3 24 -12.5 117t-16.5 143 q-17 123 -14 170q0 17 -19 72q-4 12 -19.5 16t-25.5 -4q-50 -29 -53 -92q-19 -225 -27 -291q-8 -68 -26.5 -194.5t-24.5 -176.5q-8 -60 -28 -188.5t-29 -196.5l-27 -162q-5 -26 -14.5 -80t-14.5 -81zM94 1759q2 -6 13 -15t14 -13q4 1 13.5 3.5t12.5 4.5q28 24 89 51.5 t81 40.5q40 23 82 -8q45 -35 109 -78q12 -7 25.5 -5t21.5 11q9 13 7.5 29.5t-13.5 23.5l-156 105q-22 16 -49 4l-168 -80q-47 -22 -70 -41q-6 -4 -10 -14.5t-2 -18.5zM197.5 352q1.5 17 8.5 52t9 51q6 48 20 137t19 121q30 235 37 282q4 26 14 77.5t14 76.5q6 41 27 227 q16 -43 16 -47q4 -37 19 -217q5 -46 16.5 -131t14.5 -107q7 -49 22.5 -155t22.5 -162q5 -37 16 -110.5t16 -110.5v-35l-178 -18q-45 -4 -67 -2q-11 1 -45 16q-3 38 -1.5 55z" />
<glyph unicode="&#xe3;" d="M80 1808q13 -31 19 -40t13.5 -7t22.5 19q38 38 101 24l129 -30q8 -2 53 -2q22 1 45.5 8.5t52 20.5t45.5 18q15 4 17.5 23t-9.5 36q-4 4 -8 7t-8.5 6l-7.5 5q-92 -90 -217 -53q-33 11 -80 21q-104 23 -168 -56zM82 55q-5 -36 29 -45q35 -6 43 29q13 86 20 119l12 51 q42 -2 160.5 12.5t163.5 -0.5q1 -15 4.5 -36t3.5 -23q7 -84 14 -133q2 -12 13 -21.5t24 -9.5q12 -2 24 8t13 23q0 25 -2 37q-4 25 -29 153q-16 78 -22 117l-49 348q-46 356 -53 416q-3 24 -12.5 117t-16.5 143q-17 123 -14 170q0 17 -19 72q-4 12 -19.5 16t-25.5 -4 q-50 -29 -53 -92q-19 -225 -27 -291q-8 -68 -26.5 -194.5t-24.5 -176.5q-8 -60 -28 -188.5t-29 -196.5l-27 -162q-5 -26 -14.5 -80t-14.5 -81zM197.5 352q1.5 17 8.5 52t9 51q6 48 20 137t19 121q30 235 37 282q4 26 14 77.5t14 76.5q6 41 27 227q16 -43 16 -47 q4 -37 19 -217q5 -46 16.5 -131t14.5 -107q7 -49 22.5 -155t22.5 -162q5 -37 16 -110.5t16 -110.5v-35l-178 -18q-45 -4 -67 -2q-11 1 -45 16q-3 38 -1.5 55z" />
<glyph unicode="&#xe4;" d="M82 55q-5 -36 29 -45q35 -6 43 29q13 86 20 119l12 51q42 -2 160.5 12.5t163.5 -0.5q1 -15 4.5 -36t3.5 -23q7 -84 14 -133q2 -12 13 -21.5t24 -9.5q12 -2 24 8t13 23q0 25 -2 37q-4 25 -29 153q-16 78 -22 117l-49 348q-46 356 -53 416q-3 24 -12.5 117t-16.5 143 q-17 123 -14 170q0 17 -19 72q-4 12 -19.5 16t-25.5 -4q-50 -29 -53 -92q-19 -225 -27 -291q-8 -68 -26.5 -194.5t-24.5 -176.5q-8 -60 -28 -188.5t-29 -196.5l-27 -162q-5 -26 -14.5 -80t-14.5 -81zM147 1808q-4 -22 12 -43t40 -26q18 -3 33 9.5t18 35.5q1 4 2 11.5t2 10.5 q0 36 -25 45q-15 4 -45.5 -9t-36.5 -27v-7zM197.5 352q1.5 17 8.5 52t9 51q6 48 20 137t19 121q30 235 37 282q4 26 14 77.5t14 76.5q6 41 27 227q16 -43 16 -47q4 -37 19 -217q5 -46 16.5 -131t14.5 -107q7 -49 22.5 -155t22.5 -162q5 -37 16 -110.5t16 -110.5v-35 l-178 -18q-45 -4 -67 -2q-11 1 -45 16q-3 38 -1.5 55zM434 1782q-5 -1 2.5 -10.5t27 -20.5t44.5 -16q23 18 29 57q0 8 2 14q0 33 -25 52q-16 0 -45 -16t-35 -30q-2 0 0 -30z" />
<glyph unicode="&#xe5;" d="M82 55q-5 -36 29 -45q35 -6 43 29q13 86 20 119l12 51q42 -2 160.5 12.5t163.5 -0.5q1 -15 4.5 -36t3.5 -23q7 -84 14 -133q2 -12 13 -21.5t24 -9.5q12 -2 24 8t13 23q0 25 -2 37q-4 25 -29 153q-16 78 -22 117l-49 348q-46 356 -53 416q-3 24 -12.5 117t-16.5 143 q-17 123 -14 170q0 17 -19 72q-4 12 -19.5 16t-25.5 -4q-50 -29 -53 -92q-19 -225 -27 -291q-8 -68 -26.5 -194.5t-24.5 -176.5q-8 -60 -28 -188.5t-29 -196.5l-27 -162q-5 -26 -14.5 -80t-14.5 -81zM197.5 352q1.5 17 8.5 52t9 51q6 48 20 137t19 121q30 235 37 282 q4 26 14 77.5t14 76.5q6 41 27 227q16 -43 16 -47q4 -37 19 -217q5 -46 16.5 -131t14.5 -107q7 -49 22.5 -155t22.5 -162q5 -37 16 -110.5t16 -110.5v-35l-178 -18q-45 -4 -67 -2q-11 1 -45 16q-3 38 -1.5 55zM262 1806q6 -55 62 -75q2 0 8.5 -1t13.5 -1q30 -7 47 10 q14 14 28 50.5t13 57.5q-9 37 -41 66t-78 22q-24 -3 -32 -10.5t-17 -28.5q-4 -9 -4 -90zM309 1819q-6 28 8 53q1 0 4 2t8 4.5t9 3.5q26 0 38.5 -26t2.5 -48l-8 -12q-12 -17 -34.5 -6.5t-27.5 29.5z" />
<glyph unicode="&#xe7;" d="M123 352h4q-4 78 -4 115q0 207 2 307q1 28 1 79t1 92t4 77q2 45 2.5 125t1.5 106q1 24 -0.5 73.5t-1.5 66.5q1 13 5 40t5 42q3 48 26 81t64 64q73 51 162 33q38 -10 62 -41q1 -2 12 -17t13.5 -18.5t10.5 -17t11 -21t7 -19.5t5 -24q6 -45 6 -131q3 -32 -28 -35 q-14 -2 -25 7t-12 24q-2 29 -2 78q-3 74 -58 123q-58 40 -116 2q-4 -3 -37 -31q-25 -22 -31 -57q-17 -96 -12 -175q2 -46 2 -65t-2.5 -66.5l-3.5 -66.5q-3 -110 -9 -223q-6 -61 -6 -129.5t3 -152t3 -128.5q0 -29 -2 -88t-2 -88q0 -45 6 -82q8 -115 115 -154q46 -12 72 -8 q57 11 76 78q6 31 10 94q1 10 12 146q3 20 14 29.5t25 6.5q19 -2 31.5 -18.5t5.5 -34.5q-14 -32 -19 -95.5t-10 -84.5q-3 -12 -6 -34t-6 -34q-12 -51 -44.5 -82t-78.5 -40l2 -21q5 -43 2 -70v-51q0 -2 6 -71q0 -22 -6 -37q-6 -21 -35 -21q-24 0 -32 23q-4 25 -2 37 q0 10 1 29.5t1 31.5v64q1 4 -0.5 19t-1.5 17l-5 50q-70 11 -137 81q-53 53 -53 136q1 26 -4 155z" />
<glyph unicode="&#xe8;" d="M111 55v11q0 1 1 3t1 3q12 95 8 258q0 19 4 59l4 41v51q3 115 12 226q5 57 -2 129q-8 140 -4 419v48q0 95 -6 180q-1 12 -2 36.5t-2 36.5q0 11 -2 17q0 6 -1 18t-1 17q2 10 11.5 22t17.5 12h2q15 0 43 7q8 0 24.5 1t24.5 1h20q56 -6 115 -6q24 -3 53 -3h10q6 -1 17 -2 t16 -2q14 -2 25 -20q10 -13 6 -29q-9 -37 -37 -37h-10q-47 15 -105 15h-49q-28 -3 -59 0q-4 0 -8 1t-5 1q-19 0 -32 -10v-232q0 -42 -2 -67v-152q0 -69 2 -104v-39q29 0 41 2q83 8 120 10q9 0 15 2q4 0 11.5 1t10.5 1q27 0 45 -18l5 -5v-4q-5 -37 -14.5 -54t-33.5 -17 q-2 0 -26 4q-24 6 -62 6q-44 0 -112 -19v-6q15 -102 0 -276q-6 -80 -6 -168v-338h26q44 3 76 8q12 0 18 2h72q45 0 72 8q25 5 30 7h11q14 0 23.5 -9t11.5 -20q4 -28 -9 -47q-11 -27 -34 -27q-3 0 -15 4q-6 4 -18 4q-11 0 -31 -4l-2 -2q-4 0 -6 -2q-12 -4 -19 -4q-4 0 -4 2 q-12 2 -41 2q-19 0 -65 -4t-64 -4h-10q-31 0 -74 6q-12 1 -22 17.5t-10 31.5zM123 1877q-2 19 6 32q13 24 37 12q73 -38 92 -45q30 -14 85 -35.5t75 -30.5q26 -11 37 -22t2 -35q-1 -4 -4 -7t-8 -6t-7 -5q-16 4 -22 8q-129 71 -260 100q-3 1 -9.5 4t-9.5 4q-12 7 -14 26z" />
<glyph unicode="&#xe9;" d="M111 55v11q0 1 1 3t1 3q12 95 8 258q0 19 4 59l4 41v51q3 115 12 226q5 57 -2 129q-8 140 -4 419v48q0 95 -6 180q-1 12 -2 36.5t-2 36.5q0 11 -2 17q0 6 -1 18t-1 17q2 10 11.5 22t17.5 12h2q15 0 43 7q8 0 24.5 1t24.5 1h20q56 -6 115 -6q24 -3 53 -3h10q6 -1 17 -2 t16 -2q14 -2 25 -20q10 -13 6 -29q-9 -37 -37 -37h-10q-47 15 -105 15h-49q-28 -3 -59 0q-4 0 -8 1t-5 1q-19 0 -32 -10v-232q0 -42 -2 -67v-152q0 -69 2 -104v-39q29 0 41 2q83 8 120 10q9 0 15 2q4 0 11.5 1t10.5 1q27 0 45 -18l5 -5v-4q-5 -37 -14.5 -54t-33.5 -17 q-2 0 -26 4q-24 6 -62 6q-44 0 -112 -19v-6q15 -102 0 -276q-6 -80 -6 -168v-338h26q44 3 76 8q12 0 18 2h72q45 0 72 8q25 5 30 7h11q14 0 23.5 -9t11.5 -20q4 -28 -9 -47q-11 -27 -34 -27q-3 0 -15 4q-6 4 -18 4q-11 0 -31 -4l-2 -2q-4 0 -6 -2q-12 -4 -19 -4q-4 0 -4 2 q-12 2 -41 2q-19 0 -65 -4t-64 -4h-10q-31 0 -74 6q-12 1 -22 17.5t-10 31.5zM168 1757q1 -4 4 -7t7.5 -6t6.5 -5q19 4 25 8q133 66 272 96q5 1 12 4t9 4q12 7 14 25t-6 31q-14 22 -39 10q-12 -5 -44.5 -20.5t-51.5 -22.5q-17 -7 -168 -62q-30 -13 -39 -22q-11 -11 -2 -33z " />
<glyph unicode="&#xea;" d="M80 1792q2 -6 13 -16t13 -13q4 1 10.5 3t10 3t6.5 3q28 24 89 51.5t81 40.5q39 23 82 -9q35 -27 109 -77q12 -7 25.5 -5t21.5 11q9 13 7.5 29.5t-13.5 23.5l-156 105q-22 16 -49 4l-168 -80q-47 -22 -70 -41q-6 -4 -10 -14.5t-2 -18.5zM111 55v11q0 1 1 3t1 3 q12 95 8 258q0 19 4 59l4 41v51q3 115 12 226q5 57 -2 129q-8 140 -4 419v48q0 95 -6 180q-1 12 -2 36.5t-2 36.5q0 11 -2 17q0 6 -1 18t-1 17q2 10 11.5 22t17.5 12h2q15 0 43 7q8 0 24.5 1t24.5 1h20q56 -6 115 -6q24 -3 53 -3h10q6 -1 17 -2t16 -2q14 -2 25 -20 q10 -13 6 -29q-9 -37 -37 -37h-10q-47 15 -105 15h-49q-28 -3 -59 0q-4 0 -8 1t-5 1q-19 0 -32 -10v-232q0 -42 -2 -67v-152q0 -69 2 -104v-39q29 0 41 2q83 8 120 10q9 0 15 2q4 0 11.5 1t10.5 1q27 0 45 -18l5 -5v-4q-5 -37 -14.5 -54t-33.5 -17q-2 0 -26 4q-24 6 -62 6 q-44 0 -112 -19v-6q15 -102 0 -276q-6 -80 -6 -168v-338h26q44 3 76 8q12 0 18 2h72q45 0 72 8q25 5 30 7h11q14 0 23.5 -9t11.5 -20q4 -28 -9 -47q-11 -27 -34 -27q-3 0 -15 4q-6 4 -18 4q-11 0 -31 -4l-2 -2q-4 0 -6 -2q-12 -4 -19 -4q-4 0 -4 2q-12 2 -41 2q-19 0 -65 -4 t-64 -4h-10q-31 0 -74 6q-12 1 -22 17.5t-10 31.5z" />
<glyph unicode="&#xeb;" d="M111 55v11q0 1 1 3t1 3q12 95 8 258q0 19 4 59l4 41v51q3 115 12 226q5 57 -2 129q-8 140 -4 419v48q0 95 -6 180q-1 12 -2 36.5t-2 36.5q0 11 -2 17q0 6 -1 18t-1 17q2 10 11.5 22t17.5 12h2q15 0 43 7q8 0 24.5 1t24.5 1h20q56 -6 115 -6q24 -3 53 -3h10q6 -1 17 -2 t16 -2q14 -2 25 -20q10 -13 6 -29q-9 -37 -37 -37h-10q-47 15 -105 15h-49q-28 -3 -59 0q-4 0 -8 1t-5 1q-19 0 -32 -10v-232q0 -42 -2 -67v-152q0 -69 2 -104v-39q29 0 41 2q83 8 120 10q9 0 15 2q4 0 11.5 1t10.5 1q27 0 45 -18l5 -5v-4q-5 -37 -14.5 -54t-33.5 -17 q-2 0 -26 4q-24 6 -62 6q-44 0 -112 -19v-6q15 -102 0 -276q-6 -80 -6 -168v-338h26q44 3 76 8q12 0 18 2h72q45 0 72 8q25 5 30 7h11q14 0 23.5 -9t11.5 -20q4 -28 -9 -47q-11 -27 -34 -27q-3 0 -15 4q-6 4 -18 4q-11 0 -31 -4l-2 -2q-4 0 -6 -2q-12 -4 -19 -4q-4 0 -4 2 q-12 2 -41 2q-19 0 -65 -4t-64 -4h-10q-31 0 -74 6q-12 1 -22 17.5t-10 31.5zM137 1864q-4 -22 12 -43.5t39 -26.5q18 -3 33.5 9.5t18.5 35.5q1 4 2 12t2 11q0 36 -25 45q-15 4 -45.5 -9.5t-36.5 -27.5v-6zM424 1837q-5 -1 2.5 -10.5t27 -20.5t44.5 -16q22 18 28 57 q0 9 2 15q0 33 -24 51q-16 0 -45 -15.5t-35 -29.5q-2 0 0 -31z" />
<glyph unicode="&#xec;" horiz-adv-x="382" d="M-77.5 1877q-2.5 19 5.5 32q13 24 37 12q73 -38 92 -45q30 -14 85 -35.5t75 -30.5q26 -11 37 -22t2 -35q-1 -4 -4 -7t-7.5 -6t-6.5 -5q-18 4 -23 8q-129 71 -260 100q-3 1 -9 4t-9 4q-12 7 -14.5 26zM197 297q4 -152 4 -281q3 -1 12.5 -6t15.5 -6q17 -5 28.5 2.5 t12.5 24.5q2 12 2 39q-1 18 -3 66t-3.5 89t-1.5 66v155q2 36 9 139t8 154q1 70 -5 473l-6 318q0 44 -4 67q-4 24 -20 37q-24 17 -47 -10q-4 -13 -2 -20q7 -40 9.5 -91.5t3 -113.5t1.5 -90q2 -41 2.5 -175.5t3.5 -185.5q9 -147 -8 -389q-14 -177 -12 -262z" />
<glyph unicode="&#xed;" horiz-adv-x="378" d="M168 297q4 -152 4 -281q2 -1 12.5 -6t16.5 -6q17 -5 28.5 2.5t12.5 24.5q2 12 2 39q-1 18 -3 66t-3.5 89t-1.5 66v155q1 34 8 137.5t8 155.5q2 104 -4 473l-6 318q0 44 -4 67t-21 37q-24 17 -47 -10q-4 -13 -2 -20q7 -40 9.5 -91.5t3 -113.5t1.5 -90q2 -41 2.5 -175.5 t3.5 -185.5q9 -147 -8 -389q-14 -177 -12 -262zM172 1757q1 -4 4 -7t7.5 -6t6.5 -5q19 4 25 8q133 66 272 96q5 1 12 4t9 4q12 7 14 25t-6 31q-14 22 -39 10q-12 -5 -44.5 -20.5t-51.5 -22.5q-17 -7 -168 -62q-30 -13 -39 -22q-11 -11 -2 -33z" />
<glyph unicode="&#xee;" horiz-adv-x="391" d="M-57 1704q2 -6 13 -16t13 -13q5 1 14.5 3.5t12.5 4.5q28 24 89 52t81 41q39 23 82 -9q42 -32 108 -77q12 -7 25.5 -5t21.5 11q9 13 7.5 29.5t-13.5 23.5l-155 104q-23 17 -49 5l-168 -80q-47 -22 -70 -41q-6 -4 -10 -14.5t-2 -18.5zM164 297q4 -152 4 -281q2 -1 12.5 -6 t16.5 -6q17 -5 28.5 2.5t12.5 24.5q2 12 2 39q0 10 -4.5 98.5t-4.5 122.5v155q2 36 9 139t8 154q2 104 -4 473l-6 318q0 38 -5 67q-4 24 -20 37q-24 17 -47 -10q-4 -13 -2 -20q7 -40 9.5 -91.5t3 -113.5t1.5 -90q2 -41 2.5 -175.5t3.5 -185.5q9 -147 -8 -389 q-14 -177 -12 -262z" />
<glyph unicode="&#xef;" horiz-adv-x="395" d="M4 1825q-4 -22 12 -43.5t39 -26.5q18 -3 33 9.5t18 35.5q1 3 2.5 11.5t2.5 11.5q0 36 -25 45q-15 4 -45.5 -9.5t-36.5 -27.5v-6zM158 297q4 -152 4 -281q3 -1 12.5 -6t15.5 -6q17 -5 28.5 2.5t12.5 24.5q2 12 2 39q-1 18 -3 66t-3.5 89t-1.5 66v155q2 36 9 139t8 154 q2 104 -4 473l-7 318q0 44 -4 67q-4 24 -20 37q-24 17 -47 -10q-4 -13 -2 -20q7 -40 9.5 -91.5t3 -113.5t1.5 -90q2 -41 2.5 -175.5t3.5 -185.5q9 -147 -8 -389q-14 -177 -12 -262zM291 1798q-5 -1 2.5 -10.5t27 -20.5t44.5 -16q22 18 28 57q0 9 2 15q0 33 -24 51 q-16 0 -45 -15.5t-35 -29.5q-2 0 0 -31z" />
<glyph unicode="&#xf2;" horiz-adv-x="681" d="M82 1131q1 -14 3 -31t3 -27q4 -28 4 -45q1 -24 4 -66t5 -77t3 -66q5 -82 11 -225.5t8 -183.5v-209q0 -82 63 -142q68 -65 187 -79q67 -6 125 41t77 120q32 126 39 299q4 164 0 496q0 307 -4 463q-3 139 -104 205q-45 28 -117 49q-1 0 -12.5 3.5t-13.5 4t-12 2.5t-13 1.5 t-11 -1.5t-13 -4t-11 -7.5t-12 -11.5q-2 -4 -6.5 -5t-10.5 -1t-10 -2q-55 -26 -78 -65q-61 -98 -75 -178q-16 -101 -29 -232q-1 -12 0 -26zM123 1877q-2 19 6 32q13 24 37 12q73 -38 92 -45q30 -14 85 -35.5t75 -30.5q26 -11 37 -22t2 -35q-1 -4 -4 -7t-8 -6t-7 -5 q-16 4 -22 8q-129 71 -260 100q-3 1 -9.5 4t-9.5 4q-12 7 -14 26zM146 1158q3 68 10 114.5t22 113.5q13 75 58 132q28 38 69 47q7 2 28 10.5t32 11.5q17 4 26 0q72 -37 92 -53q62 -49 62 -125q0 -8 0.5 -23.5t0.5 -28.5t-1 -24q1 -17 4.5 -62.5t3.5 -68.5q2 -69 -2 -201 v-208q5 -40 5 -85t-2.5 -100.5t-2.5 -85.5q0 -16 2 -22q4 -42 0 -88t-12 -102.5t-11 -86.5q-7 -76 -79 -151q-24 -26 -72 -19q-56 7 -96 25q-97 46 -97 147l1 91q1 92 -1 92q0 44 -2 93t-5.5 108.5t-4.5 92.5q-12 194 -16 295q-1 7 -1 22.5t-1 22.5q-13 48 -10 116z" />
<glyph unicode="&#xf3;" horiz-adv-x="681" d="M82 1131q1 -14 3 -31t3 -27q4 -28 4 -45q1 -24 4 -66t5 -77t3 -66q5 -82 11 -225.5t8 -183.5v-209q0 -82 63 -142q68 -65 187 -79q67 -6 125 41t77 120q32 126 39 299q4 164 0 496q0 307 -4 463q-3 139 -104 205q-45 28 -117 49q-1 0 -12.5 3.5t-13.5 4t-12 2.5t-13 1.5 t-11 -1.5t-13 -4t-11 -7.5t-12 -11.5q-2 -4 -6.5 -5t-10.5 -1t-10 -2q-55 -26 -78 -65q-61 -98 -75 -178q-16 -101 -29 -232q-1 -12 0 -26zM146 1158q3 68 10 114.5t22 113.5q13 75 58 132q28 38 69 47q7 2 28 10.5t32 11.5q17 4 26 0q72 -37 92 -53q62 -49 62 -125 q0 -8 0.5 -23.5t0.5 -28.5t-1 -24q1 -17 4.5 -62.5t3.5 -68.5q2 -69 -2 -201v-208q5 -40 5 -85t-2.5 -100.5t-2.5 -85.5q0 -16 2 -22q4 -42 0 -88t-12 -102.5t-11 -86.5q-7 -76 -79 -151q-24 -26 -72 -19q-56 7 -96 25q-97 46 -97 147l1 91q1 92 -1 92q0 44 -2 93 t-5.5 108.5t-4.5 92.5q-12 194 -16 295q-1 7 -1 22.5t-1 22.5q-13 48 -10 116zM250 1757q1 -4 4 -7t7.5 -6t6.5 -5q19 4 25 8q133 66 272 96q5 1 12 4t9 4q12 7 14 25t-6 31q-14 22 -39 10q-12 -5 -44.5 -20.5t-51.5 -22.5q-17 -7 -168 -62q-30 -13 -39 -22q-11 -11 -2 -33z " />
<glyph unicode="&#xf4;" horiz-adv-x="681" d="M141 1755q2 -6 13 -16t14 -13l27 9q28 24 89 51.5t81 40.5q39 23 81 -8q45 -35 109 -78q12 -7 25.5 -5t21.5 11q9 13 7.5 29.5t-13.5 23.5l-156 105q-22 16 -49 4l-168 -80q-44 -21 -69 -41q-6 -5 -10 -15.5t-3 -17.5z" />
<glyph unicode="&#xf5;" horiz-adv-x="681" d="M82 1131q1 -14 3 -31t3 -27q4 -28 4 -45q1 -24 4 -66t5 -77t3 -66q5 -82 11 -225.5t8 -183.5v-209q0 -82 63 -142q68 -65 187 -79q67 -6 125 41t77 120q32 126 39 299q4 164 0 496q0 307 -4 463q-3 139 -104 205q-45 28 -117 49q-1 0 -12.5 3.5t-13.5 4t-12 2.5t-13 1.5 t-11 -1.5t-13 -4t-11 -7.5t-12 -11.5q-2 -4 -6.5 -5t-10.5 -1t-10 -2q-55 -26 -78 -65q-61 -98 -75 -178q-16 -101 -29 -232q-1 -12 0 -26zM113 1825q13 -31 18.5 -40t13.5 -7.5t23 18.5q39 39 100 25l129 -31q8 -2 54 -2q22 1 45.5 8.5t52 20.5t45.5 18q15 4 17.5 23 t-9.5 36q-2 3 -24 19q-93 -90 -218 -53q-25 8 -79 20q-105 23 -168 -55zM146 1158q3 68 10 114.5t22 113.5q13 75 58 132q28 38 69 47q7 2 28 10.5t32 11.5q17 4 26 0q72 -37 92 -53q62 -49 62 -125q0 -8 0.5 -23.5t0.5 -28.5t-1 -24q1 -17 4.5 -62.5t3.5 -68.5 q2 -69 -2 -201v-208q5 -40 5 -85t-2.5 -100.5t-2.5 -85.5q0 -16 2 -22q4 -42 0 -88t-12 -102.5t-11 -86.5q-7 -76 -79 -151q-24 -26 -72 -19q-56 7 -96 25q-97 46 -97 147l1 91q1 92 -1 92q0 44 -2 93t-5.5 108.5t-4.5 92.5q-12 194 -16 295q-1 7 -1 22.5t-1 22.5 q-13 48 -10 116z" />
<glyph unicode="&#xf6;" horiz-adv-x="681" d="M82 1131q1 -14 3 -31t3 -27q4 -28 4 -45q1 -24 4 -66t5 -77t3 -66q5 -82 11 -225.5t8 -183.5v-209q0 -82 63 -142q68 -65 187 -79q67 -6 125 41t77 120q32 126 39 299q4 164 0 496q0 307 -4 463q-3 139 -104 205q-45 28 -117 49q-1 0 -12.5 3.5t-13.5 4t-12 2.5t-13 1.5 t-11 -1.5t-13 -4t-11 -7.5t-12 -11.5q-2 -4 -6.5 -5t-10.5 -1t-10 -2q-55 -26 -78 -65q-61 -98 -75 -178q-16 -101 -29 -232q-1 -12 0 -26zM146 1158q3 68 10 114.5t22 113.5q13 75 58 132q28 38 69 47q7 2 28 10.5t32 11.5q17 4 26 0q72 -37 92 -53q62 -49 62 -125 q0 -8 0.5 -23.5t0.5 -28.5t-1 -24q1 -17 4.5 -62.5t3.5 -68.5q2 -69 -2 -201v-208q5 -40 5 -85t-2.5 -100.5t-2.5 -85.5q0 -16 2 -22q4 -42 0 -88t-12 -102.5t-11 -86.5q-7 -76 -79 -151q-24 -26 -72 -19q-56 7 -96 25q-97 46 -97 147l1 91q1 92 -1 92q0 44 -2 93 t-5.5 108.5t-4.5 92.5q-12 194 -16 295q-1 7 -1 22.5t-1 22.5q-13 48 -10 116zM168 1839q-4 -22 12 -43.5t39 -26.5q18 -3 33 10t18 36q1 4 2 11.5t2 10.5q0 36 -24 45q-15 4 -45.5 -9.5t-36.5 -27.5v-6zM455 1812q-5 -1 2 -10.5t26.5 -20.5t44.5 -16q23 19 29 58q0 8 2 14 q0 33 -24 51q-16 0 -45 -15.5t-35 -29.5q-2 0 0 -31z" />
<glyph unicode="&#xf7;" horiz-adv-x="702" d="M82 709q-1 -19 14 -31.5t35 -9.5q13 1 52 9.5t61 8.5q18 1 76 5t85.5 5t74 -0.5t85.5 -7.5q5 -1 11 0t12.5 3t9.5 3q0 5 1.5 14.5t0.5 12.5q-6 20 -24 32.5t-39 10.5q-1 0 -32.5 -3t-47.5 -3q-51 -2 -153 -5t-152 -5q-44 -5 -52 -9q-18 -7 -18 -30zM281 903 q-2 -17 11.5 -30.5t35.5 -14.5h20q33 0 43 27q3 13 -13 39.5t-30 31.5q-2 2 -4 2q-22 2 -41 -15t-22 -40zM301 502q20 -21 59 -25h13q30 3 45 27q0 16 -16.5 43t-30.5 31q0 1 -29 -5q-2 4 -10.5 -3t-17.5 -26t-13 -42z" />
<glyph unicode="&#xf9;" horiz-adv-x="655" d="M123 1522q1 -58 1 -164t1 -191t4 -161q11 -331 8 -570q-1 -37 -1 -108t-1 -107q0 -68 37 -123q0 -1 10.5 -17.5t16.5 -23.5q74 -91 159 -86q26 3 52 0q72 -3 126.5 61.5t53.5 162.5q-2 60 6 167q21 221 18 388q-1 51 0.5 147t1.5 127q0 86 -1 258.5t-1 257.5q0 25 -2 37 q-3 26 -26 29q-11 2 -22.5 -5.5t-12.5 -17.5q-5 -24 -2 -53q8 -311 10 -471q1 -48 -4 -289q0 -12 1 -35t1 -35q4 -36 4 -55q-9 -148 -14 -205q-2 -26 -9 -81.5t-10.5 -98t-1.5 -82.5q4 -66 -39 -100q-80 -64 -165 -31q-74 24 -109 111q-23 56 -23 127q0 122 5 207 q3 76 -1 216.5t-4 182.5q-1 73 -5.5 216t-5.5 215t5 216v66q-2 20 -9.5 28.5t-27.5 9.5q-4 0 -24 -10v-110zM137.5 1877q-2.5 19 5.5 32q13 24 37 12q73 -38 92 -45q30 -14 85 -35.5t75 -30.5q26 -11 37 -22t2 -35q-1 -4 -4 -7t-7.5 -6t-6.5 -5q-18 4 -23 8 q-129 71 -260 100q-3 1 -9 4t-9 4q-12 7 -14.5 26z" />
<glyph unicode="&#xfa;" horiz-adv-x="655" d="M123 1522q1 -58 1 -164t1 -191t4 -161q11 -331 8 -570q-1 -37 -1 -108t-1 -107q0 -68 37 -123q0 -1 10.5 -17.5t16.5 -23.5q74 -91 159 -86q26 3 52 0q72 -3 126.5 61.5t53.5 162.5q-2 60 6 167q21 221 18 388q-1 51 0.5 147t1.5 127q0 86 -1 258.5t-1 257.5q0 25 -2 37 q-3 26 -26 29q-11 2 -22.5 -5.5t-12.5 -17.5q-5 -24 -2 -53q8 -311 10 -471q1 -48 -4 -289q0 -12 1 -35t1 -35q4 -36 4 -55q-9 -148 -14 -205q-2 -26 -9 -81.5t-10.5 -98t-1.5 -82.5q4 -66 -39 -100q-80 -64 -165 -31q-74 24 -109 111q-23 56 -23 127q0 122 5 207 q3 76 -1 216.5t-4 182.5q-1 73 -5.5 216t-5.5 215t5 216v66q-2 20 -9.5 28.5t-27.5 9.5q-4 0 -24 -10v-110zM295 1757q1 -4 4 -7t7.5 -6t6.5 -5q19 4 25 8q133 66 272 96q5 1 12 4t9 4q12 7 14 25t-6 31q-14 22 -39 10q-12 -5 -44.5 -20.5t-51.5 -22.5q-17 -7 -168 -62 q-30 -13 -39 -22q-11 -11 -2 -33z" />
<glyph unicode="&#xfb;" horiz-adv-x="655" d="M123 1522q1 -58 1 -164t1 -191t4 -161q11 -331 8 -570q-1 -37 -1 -108t-1 -107q0 -68 37 -123q0 -1 10.5 -17.5t16.5 -23.5q74 -91 159 -86q26 3 52 0q72 -3 126.5 61.5t53.5 162.5q-2 60 6 167q21 221 18 388q-1 51 0.5 147t1.5 127q0 86 -1 258.5t-1 257.5q0 25 -2 37 q-3 26 -26 29q-11 2 -22.5 -5.5t-12.5 -17.5q-5 -24 -2 -53q8 -311 10 -471q1 -48 -4 -289q0 -12 1 -35t1 -35q4 -36 4 -55q-9 -148 -14 -205q-2 -26 -9 -81.5t-10.5 -98t-1.5 -82.5q4 -66 -39 -100q-80 -64 -165 -31q-74 24 -109 111q-23 56 -23 127q0 122 5 207 q3 76 -1 216.5t-4 182.5q-1 73 -5.5 216t-5.5 215t5 216v66q-2 20 -9.5 28.5t-27.5 9.5q-4 0 -24 -10v-110zM152 1772q2 -6 13 -16t13 -13l14 3.5t13 4.5q28 24 89 51.5t81 40.5q40 23 82 -8q53 -41 108 -78q12 -7 25.5 -5t21.5 11q9 13 7.5 30t-13.5 24l-155 104 q-23 16 -50 4l-168 -80q-44 -21 -69 -41q-16 -12 -12 -32z" />
<glyph unicode="&#xfc;" horiz-adv-x="655" d="M123 1522q1 -58 1 -164t1 -191t4 -161q11 -331 8 -570q-1 -37 -1 -108t-1 -107q0 -68 37 -123q0 -1 10.5 -17.5t16.5 -23.5q74 -91 159 -86q26 3 52 0q72 -3 126.5 61.5t53.5 162.5q-2 60 6 167q21 221 18 388q-1 51 0.5 147t1.5 127q0 86 -1 258.5t-1 257.5q0 25 -2 37 q-3 26 -26 29q-11 2 -22.5 -5.5t-12.5 -17.5q-5 -24 -2 -53q8 -311 10 -471q1 -48 -4 -289q0 -12 1 -35t1 -35q4 -36 4 -55q-9 -148 -14 -205q-2 -26 -9 -81.5t-10.5 -98t-1.5 -82.5q4 -66 -39 -100q-80 -64 -165 -31q-74 24 -109 111q-23 56 -23 127q0 122 5 207 q3 76 -1 216.5t-4 182.5q-1 73 -5.5 216t-5.5 215t5 216v66q-2 20 -9.5 28.5t-27.5 9.5q-4 0 -24 -10v-110zM184 1851q-4 -22 12 -43t40 -26q18 -3 33 9.5t18 35.5q1 4 2 11.5t2 10.5q0 36 -25 45q-15 4 -45.5 -9t-36.5 -27v-7zM471 1825q-5 -1 2.5 -10.5t27 -20.5t44.5 -16 q22 18 28 57q0 8 2 14q0 34 -24 52q-16 0 -45 -16t-35 -30q-2 0 0 -30z" />
<glyph unicode="&#xfd;" horiz-adv-x="696" d="M82 1604q13 -64 24 -88q69 -172 97 -236q43 -92 129 -268l41 -72q-3 -14 -12 -58.5t-15 -66.5q-10 -73 -31 -168q-4 -20 -12.5 -63t-14 -76.5t-9.5 -63.5q-7 -58 -41 -186q-7 -24 -29.5 -96.5t-32.5 -112.5q-5 -19 -2 -43q0 -26 23 -29q21 -3 34 21l7 29l61 211 q4 11 8 41q44 276 80 428q9 39 10 51q5 54 16 108.5t29.5 131.5t24.5 106q16 65 86 326q44 172 49 190q6 28 -12 37q-26 13 -41 -10q-8 -20 -8 -31q-18 -59 -21 -84q-13 -52 -71 -293q-49 -181 -54 -199q-21 11 -39 52q-99 193 -125 262q-10 29 -31 80.5t-37 95t-26 84.5 q-7 36 -49 26q-1 -4 -3 -11.5t-3 -13.5t0 -11zM256 1796q1 -4 4 -7t7.5 -6t6.5 -5q19 4 25 8q133 66 272 96q5 1 12 4t9 4q12 7 14 25t-6 31q-14 22 -39 10q-12 -5 -44.5 -20.5t-51.5 -22.5q-17 -7 -168 -62q-30 -13 -39 -22q-11 -11 -2 -33z" />
<glyph unicode="&#x10c;" d="M100 1884q-1 -7 3 -17.5t10 -15.5q25 -20 69 -41l168 -79q27 -12 49 4l156 104q12 7 13.5 23.5t-7.5 29.5q-8 9 -21.5 11t-25.5 -5q-66 -45 -108 -77q-43 -32 -82 -9q-20 13 -81 41t-89 52q-3 2 -13 4.5l-14 3.5q-3 -3 -14 -13t-13 -16zM123 352q5 -129 4 -155 q0 -83 53 -136q91 -95 193 -84q110 13 137 125q3 12 6 34t6 34q5 21 10 84.5t19 95.5q7 18 -5.5 34.5t-31.5 18.5q-14 3 -25 -6.5t-14 -29.5q-11 -136 -12 -146q-4 -63 -10 -94q-19 -67 -76 -78q-26 -4 -72 8q-107 39 -115 154q-6 37 -6 82q0 29 2 88t2 88q0 45 -3 128.5 t-3 152t6 129.5q6 113 9 223l3.5 66.5t2.5 66.5t-2 65q-5 79 12 175q6 35 31 57q33 28 37 31q58 38 116 -2q55 -49 58 -123q0 -49 2 -78q1 -15 12 -24t25 -7q31 3 28 35q0 86 -6 131q-1 12 -5 24t-7 19.5t-11 21t-10.5 17t-13.5 18.5t-12 17q-24 31 -62 41q-89 18 -162 -33 q-41 -31 -64 -64t-26 -81q-1 -15 -5 -42t-5 -40q0 -17 1.5 -66.5t0.5 -73.5q-1 -26 -1.5 -106t-2.5 -125q-3 -36 -4 -77t-1 -92t-1 -79q-2 -100 -2 -307q0 -37 4 -115h-4z" />
<glyph unicode="&#x10d;" d="M100 1884q-1 -7 3 -17.5t10 -15.5q25 -20 69 -41l168 -79q27 -12 49 4l156 104q12 7 13.5 23.5t-7.5 29.5q-8 9 -21.5 11t-25.5 -5q-66 -45 -108 -77q-43 -32 -82 -9q-20 13 -81 41t-89 52q-3 2 -13 4.5l-14 3.5q-3 -3 -14 -13t-13 -16zM123 352q5 -129 4 -155 q0 -83 53 -136q91 -95 193 -84q110 13 137 125q3 12 6 34t6 34q5 21 10 84.5t19 95.5q7 18 -5.5 34.5t-31.5 18.5q-14 3 -25 -6.5t-14 -29.5q-11 -136 -12 -146q-4 -63 -10 -94q-19 -67 -76 -78q-26 -4 -72 8q-107 39 -115 154q-6 37 -6 82q0 29 2 88t2 88q0 45 -3 128.5 t-3 152t6 129.5q6 113 9 223l3.5 66.5t2.5 66.5t-2 65q-5 79 12 175q6 35 31 57q33 28 37 31q58 38 116 -2q55 -49 58 -123q0 -49 2 -78q1 -15 12 -24t25 -7q31 3 28 35q0 86 -6 131q-1 12 -5 24t-7 19.5t-11 21t-10.5 17t-13.5 18.5t-12 17q-24 31 -62 41q-89 18 -162 -33 q-41 -31 -64 -64t-26 -81q-1 -15 -5 -42t-5 -40q0 -17 1.5 -66.5t0.5 -73.5q-1 -26 -1.5 -106t-2.5 -125q-3 -36 -4 -77t-1 -92t-1 -79q-2 -100 -2 -307q0 -37 4 -115h-4z" />
<glyph unicode="&#x10e;" horiz-adv-x="634" d="M100 1884q-1 -7 3 -17.5t10 -15.5q25 -20 69 -41l168 -79q27 -12 49 4l156 104q12 7 13.5 23.5t-7.5 29.5q-8 9 -21.5 11t-25.5 -5q-66 -45 -108 -77q-43 -32 -82 -9q-20 13 -81 41t-89 52q-3 2 -13 4.5l-14 3.5q-3 -3 -14 -13t-13 -16zM123 1577q5 -135 8 -162 q16 -91 8 -246q-5 -213 0 -282q17 -195 13 -277q-1 -19 0.5 -52t1.5 -44v-129q-2 -20 -8 -68.5t-7 -74.5q-2 -30 -3 -63.5t-1.5 -73.5t-1.5 -62q0 -2 1.5 -4.5t4 -7t4.5 -8.5q31 -6 33 -7q3 -2 11.5 -8.5t15.5 -9.5q17 -6 26 -4q165 24 258 125q69 68 66 151q-11 399 6 627 v27q0 59 -2 172.5t-2 169.5q0 65 -33 155q-32 77 -123 140q-35 22 -108 50t-105 46q-5 3 -15 1t-13 -7q-3 -6 -11 -17t-12.5 -18t-8.5 -18t-3 -21zM190 1446q0 98 3 119q6 -2 22.5 -7t22.5 -8q34 -11 88 -37q152 -68 161 -247q6 -113 9 -226q0 -15 1 -44t1 -42 q0 -11 1.5 -41.5t0.5 -46.5q-2 -33 -8 -119.5t-7 -134.5q-2 -94 2 -282v-66q0 -59 -38 -94q-90 -87 -216 -100q-3 -1 -30 8q-10 157 2 264q4 39 5 77.5t0 100.5t-1 76v80q0 128 -8 174q-10 47 -6 117q14 224 -5 479z" />
<glyph unicode="&#x10f;" horiz-adv-x="634" d="M100 1884q-1 -7 3 -17.5t10 -15.5q25 -20 69 -41l168 -79q27 -12 49 4l156 104q12 7 13.5 23.5t-7.5 29.5q-8 9 -21.5 11t-25.5 -5q-66 -45 -108 -77q-43 -32 -82 -9q-20 13 -81 41t-89 52q-3 2 -13 4.5l-14 3.5q-3 -3 -14 -13t-13 -16zM123 1577q5 -135 8 -162 q16 -91 8 -246q-5 -213 0 -282q17 -195 13 -277q-1 -19 0.5 -52t1.5 -44v-129q-2 -20 -8 -68.5t-7 -74.5q-2 -30 -3 -63.5t-1.5 -73.5t-1.5 -62q0 -2 1.5 -4.5t4 -7t4.5 -8.5q31 -6 33 -7q3 -2 11.5 -8.5t15.5 -9.5q17 -6 26 -4q165 24 258 125q69 68 66 151q-11 399 6 627 v27q0 59 -2 172.5t-2 169.5q0 65 -33 155q-32 77 -123 140q-35 22 -108 50t-105 46q-5 3 -15 1t-13 -7q-3 -6 -11 -17t-12.5 -18t-8.5 -18t-3 -21zM190 1446q0 98 3 119q6 -2 22.5 -7t22.5 -8q34 -11 88 -37q152 -68 161 -247q6 -113 9 -226q0 -15 1 -44t1 -42 q0 -11 1.5 -41.5t0.5 -46.5q-2 -33 -8 -119.5t-7 -134.5q-2 -94 2 -282v-66q0 -59 -38 -94q-90 -87 -216 -100q-3 -1 -30 8q-10 157 2 264q4 39 5 77.5t0 100.5t-1 76v80q0 128 -8 174q-10 47 -6 117q14 224 -5 479z" />
<glyph unicode="&#x11a;" d="M100 1884q-1 -7 3 -17.5t10 -15.5q25 -20 69 -41l168 -79q27 -12 49 4l156 104q12 7 13.5 23.5t-7.5 29.5q-8 9 -21.5 11t-25.5 -5q-66 -45 -108 -77q-43 -32 -82 -9q-20 13 -81 41t-89 52q-3 2 -13 4.5l-14 3.5q-3 -3 -14 -13t-13 -16zM111 55v11q0 1 1 3t1 3 q12 95 8 258q0 19 4 59l4 41v51q3 115 12 226q5 57 -2 129q-8 140 -4 419v48q0 95 -6 180q-1 12 -2 36.5t-2 36.5q0 11 -2 17q0 6 -1 18t-1 17q2 10 11.5 22t17.5 12h2q15 0 43 7q8 0 24.5 1t24.5 1h20q56 -6 115 -6q24 -3 53 -3h10q6 -1 17 -2t16 -2q14 -2 25 -20 q10 -13 6 -29q-9 -37 -37 -37h-10q-47 15 -105 15h-49q-28 -3 -59 0q-4 0 -8 1t-5 1q-19 0 -32 -10v-232q0 -42 -2 -67v-152q0 -69 2 -104v-39q29 0 41 2q83 8 120 10q9 0 15 2q4 0 11.5 1t10.5 1q27 0 45 -18l5 -5v-4q-5 -37 -14.5 -54t-33.5 -17q-2 0 -26 4q-24 6 -62 6 q-44 0 -112 -19v-6q15 -102 0 -276q-6 -80 -6 -168v-338h26q44 3 76 8q12 0 18 2h72q45 0 72 8q25 5 30 7h11q14 0 23.5 -9t11.5 -20q4 -28 -9 -47q-11 -27 -34 -27q-3 0 -15 4q-6 4 -18 4q-11 0 -31 -4l-2 -2q-4 0 -6 -2q-12 -4 -19 -4q-4 0 -4 2q-12 2 -41 2q-19 0 -65 -4 t-64 -4h-10q-31 0 -74 6q-12 1 -22 17.5t-10 31.5z" />
<glyph unicode="&#x11b;" d="M100 1884q-1 -7 3 -17.5t10 -15.5q25 -20 69 -41l168 -79q27 -12 49 4l156 104q12 7 13.5 23.5t-7.5 29.5q-8 9 -21.5 11t-25.5 -5q-66 -45 -108 -77q-43 -32 -82 -9q-20 13 -81 41t-89 52q-3 2 -13 4.5l-14 3.5q-3 -3 -14 -13t-13 -16zM111 55v11q0 1 1 3t1 3 q12 95 8 258q0 19 4 59l4 41v51q3 115 12 226q5 57 -2 129q-8 140 -4 419v48q0 95 -6 180q-1 12 -2 36.5t-2 36.5q0 11 -2 17q0 6 -1 18t-1 17q2 10 11.5 22t17.5 12h2q15 0 43 7q8 0 24.5 1t24.5 1h20q56 -6 115 -6q24 -3 53 -3h10q6 -1 17 -2t16 -2q14 -2 25 -20 q10 -13 6 -29q-9 -37 -37 -37h-10q-47 15 -105 15h-49q-28 -3 -59 0q-4 0 -8 1t-5 1q-19 0 -32 -10v-232q0 -42 -2 -67v-152q0 -69 2 -104v-39q29 0 41 2q83 8 120 10q9 0 15 2q4 0 11.5 1t10.5 1q27 0 45 -18l5 -5v-4q-5 -37 -14.5 -54t-33.5 -17q-2 0 -26 4q-24 6 -62 6 q-44 0 -112 -19v-6q15 -102 0 -276q-6 -80 -6 -168v-338h26q44 3 76 8q12 0 18 2h72q45 0 72 8q25 5 30 7h11q14 0 23.5 -9t11.5 -20q4 -28 -9 -47q-11 -27 -34 -27q-3 0 -15 4q-6 4 -18 4q-11 0 -31 -4l-2 -2q-4 0 -6 -2q-12 -4 -19 -4q-4 0 -4 2q-12 2 -41 2q-19 0 -65 -4 t-64 -4h-10q-31 0 -74 6q-12 1 -22 17.5t-10 31.5z" />
<glyph unicode="&#x147;" horiz-adv-x="714" d="M100 1884q-1 -7 3 -17.5t10 -15.5q25 -20 69 -41l168 -79q27 -12 49 4l156 104q12 7 13.5 23.5t-7.5 29.5q-8 9 -21.5 11t-25.5 -5q-66 -45 -108 -77q-43 -32 -82 -9q-20 13 -81 41t-89 52q-3 2 -13 4.5l-14 3.5q-3 -3 -14 -13t-13 -16zM143 1612l7 -168q1 -34 9.5 -186 t6.5 -234q-3 -106 -6 -191.5t-4.5 -127t-1.5 -70.5q-5 -419 6 -600q0 -23 10 -41q16 -9 37 8q18 8 18 45q0 6 -2 18.5t-2 18.5q0 29 -4 276.5t2 284.5q4 95 8 297q7 166 -4 268q-3 24 -4 50t-1 59t-1 51q6 -7 16 -37q20 -81 39 -178q24 -108 69.5 -323t68.5 -322 q4 -18 17 -63t17 -70q14 -62 40 -181t38 -173q7 -32 23.5 -40t62.5 -6q13 30 10 74q21 420 21 451v190q13 270 4 383q-3 24 -0.5 151.5t2.5 153.5v207q0 27 -6 37q-3 6 -11.5 12t-15.5 6q-31 -10 -37 -22q-2 -5 -2 -37q8 -137 5 -299q-1 -46 2.5 -131.5t3.5 -122.5 q0 -94 -4 -282q0 -14 -2.5 -45t-2.5 -48q-1 -24 -1.5 -66.5t-1.5 -78.5t-3 -68q-2 -65 -10 -190q0 -1 0.5 -7t0 -10t-1 -8.5t-3 -7t-6.5 -2.5l-8 57l-138 571v-1q-42 155 -75 342q-20 119 -111 430q0 4 -2 8.5t-6 10.5t-6 10l-37 -7q-23 -7 -23 -26z" />
<glyph unicode="&#x148;" horiz-adv-x="714" d="M100 1884q-1 -7 3 -17.5t10 -15.5q25 -20 69 -41l168 -79q27 -12 49 4l156 104q12 7 13.5 23.5t-7.5 29.5q-8 9 -21.5 11t-25.5 -5q-66 -45 -108 -77q-43 -32 -82 -9q-20 13 -81 41t-89 52q-3 2 -13 4.5l-14 3.5q-3 -3 -14 -13t-13 -16zM139 1612q1 -19 1.5 -53 t1.5 -62.5t3 -52.5q3 -44 11.5 -131t13.5 -156.5t4 -132.5q-1 -35 -4 -103.5t-4 -103.5q-4 -177 -14 -268q-9 -53 -9 -113q0 -262 2 -391l9 -41q5 1 20 2t23 6q18 12 18 45q0 6 -2 18.5t-2 18.5q-1 31 -3 107t-2.5 117t-0.5 103.5t2.5 116.5t7.5 107q7 73 12 297 q7 166 -4 268q-3 24 -4 50t-1 59t-1 51q5 -1 9 -4t6.5 -7.5t4 -8t3.5 -10t2 -7.5q20 -81 39 -178q24 -107 68.5 -322t68.5 -323q4 -19 17.5 -63.5t17.5 -69.5q14 -61 39 -179.5t38 -174.5q7 -33 18.5 -40.5t49.5 -5.5q13 30 10 74q-8 71 -2 107q4 19 6 41t2 38t1 41.5 t1 38.5l9 115q4 46 4 70v190q13 270 4 383q-3 24 -0.5 151.5t2.5 153.5v207q0 27 -6 37q-3 6 -11.5 12t-15.5 6q-5 -2 -14.5 -9t-12.5 -13q-2 -5 -2 -37q8 -137 5 -299q-1 -46 2.5 -131.5t3.5 -122.5q0 -94 -4 -282q0 -14 -2.5 -45t-2.5 -48q-1 -24 -1.5 -66.5t-1.5 -78.5 t-3 -68q-2 -65 -10 -190q0 -1 0.5 -8t0 -10t-3 -8t-7.5 -9q-2 7 -6.5 18.5t-7 20.5t-3.5 18q-22 132 -63 281q-2 2 -2 6q-6 29 -18 89t-22 106.5t-21 87.5q-45 165 -76 342q-20 119 -111 430q0 4 -2 8.5t-6 10.5t-6 10l-43 -7q-23 -7 -23 -26z" />
<glyph unicode="&#x158;" horiz-adv-x="675" d="M100 1884q-1 -7 3 -17.5t10 -15.5q25 -20 69 -41l168 -79q27 -12 49 4l156 104q12 7 13.5 23.5t-7.5 29.5q-8 9 -21.5 11t-25.5 -5q-66 -45 -108 -77q-43 -32 -82 -9q-20 13 -81 41t-89 52q-3 2 -13 4.5l-14 3.5q-3 -3 -14 -13t-13 -16zM184 8q42 -25 49 -18q16 20 19 37 q4 8 4 30q-1 38 3 105t4.5 104.5t-7.5 104.5q-4 18 0 59q15 142 8 232q-4 39 25 57q28 -66 43 -98q87 -185 123 -312q33 -120 102 -286q18 -44 61 -50q15 26 17.5 32t-0.5 18q-14 32 -19 40q-65 124 -94 248q-11 40 -20 64q-33 77 -119 289q-12 29 -17 44.5t-10.5 47 t0.5 51.5q65 57 107 90q60 45 80 119q37 133 6 313q-34 186 -162 268q-6 3 -32 19.5t-42 23.5q-43 15 -67 15q-65 -7 -47 -66q18 -68 14 -207q0 -14 1 -42t1 -42v-358q-2 -124 -14 -383q-1 -23 -3.5 -69.5t-3 -69.5t0.5 -70q6 -75 -2 -225q-1 -20 -4.5 -58.5t-4.5 -56.5z M266 1581q110 -15 164 -111q44 -77 55 -151q21 -134 0 -268q-13 -67 -55 -101q-23 -19 -66 -55.5t-65 -54.5q-3 -2 -12 -5t-13 -4q1 34 4 168t3 207q-1 88 -15 375z" />
<glyph unicode="&#x159;" horiz-adv-x="675" d="M100 1884q-1 -7 3 -17.5t10 -15.5q25 -20 69 -41l168 -79q27 -12 49 4l156 104q12 7 13.5 23.5t-7.5 29.5q-8 9 -21.5 11t-25.5 -5q-66 -45 -108 -77q-43 -32 -82 -9q-20 13 -81 41t-89 52q-3 2 -13 4.5l-14 3.5q-3 -3 -14 -13t-13 -16zM184 8q42 -25 49 -18q16 20 19 37 q4 8 4 30q-1 38 3 105t4.5 104.5t-7.5 104.5q-4 18 0 59q15 142 8 232q-4 39 25 57q28 -66 43 -98q87 -185 123 -312q33 -120 102 -286q18 -44 61 -50q15 26 17.5 32t-0.5 18q-14 32 -19 40q-65 124 -94 248q-11 40 -20 64q-33 77 -119 289q-12 29 -17 44.5t-10.5 47 t0.5 51.5q65 57 107 90q60 45 80 119q37 133 6 313q-34 186 -162 268q-6 3 -32 19.5t-42 23.5q-43 15 -67 15q-65 -7 -47 -66q18 -68 14 -207q0 -14 1 -42t1 -42v-358q-2 -124 -14 -383q-1 -23 -3.5 -69.5t-3 -69.5t0.5 -70q6 -75 -2 -225q-1 -20 -4.5 -58.5t-4.5 -56.5z M266 1581q110 -15 164 -111q44 -77 55 -151q21 -134 0 -268q-13 -67 -55 -101q-23 -19 -66 -55.5t-65 -54.5q-3 -2 -12 -5t-13 -4q1 34 4 168t3 207q-1 88 -15 375z" />
<glyph unicode="&#x160;" horiz-adv-x="552" d="M82 219q2 -39 10 -127q10 -64 66 -86q4 -2 14.5 -8t17.5 -8q96 -51 166 6q5 4 26.5 16.5t31.5 20.5q82 61 88 166q9 175 -31 340q-3 12 -10 41.5t-11 45t-10.5 39t-14 44t-15.5 39.5l-17 65q-35 117 -43 141q-8 22 -25.5 66.5t-25.5 66.5q-45 121 -47 127q-6 16 -29 72.5 t-33 87.5q-21 65 0 133q15 52 67 72t101 -6q70 -39 70 -123q0 -39 4 -57q3 -13 15 -21t26 -6q23 3 27 31q12 83 -25 153q-45 88 -125 99q-47 8 -110 -2q-82 -14 -105 -78q-38 -106 -20 -176q17 -73 49 -156q36 -100 84 -209q24 -55 44.5 -117t44.5 -145t36 -121 q43 -134 63 -323q6 -85 -14 -162q-7 -25 -21 -39q-41 -45 -73 -66q-40 -29 -95 -9t-69 67q-16 50 -8 141q0 6 0.5 18t0.5 22t-1 19q-3 15 -15.5 22t-29.5 1q-8 -2 -23 -17q0 -5 -3 -42.5t-3 -57.5zM100 1884q-1 -7 3 -17.5t10 -15.5q25 -20 69 -41l168 -79q27 -12 49 4 l156 104q12 7 13.5 23.5t-7.5 29.5q-8 9 -21.5 11t-25.5 -5q-66 -45 -108 -77q-43 -32 -82 -9q-20 13 -81 41t-89 52q-3 2 -13 4.5l-14 3.5q-3 -3 -14 -13t-13 -16z" />
<glyph unicode="&#x161;" horiz-adv-x="552" d="M82 219q2 -39 10 -127q10 -64 66 -86q4 -2 14.5 -8t17.5 -8q96 -51 166 6q5 4 26.5 16.5t31.5 20.5q82 61 88 166q9 175 -31 340q-3 12 -10 41.5t-11 45t-10.5 39t-14 44t-15.5 39.5l-17 65q-35 117 -43 141q-8 22 -25.5 66.5t-25.5 66.5q-45 121 -47 127q-6 16 -29 72.5 t-33 87.5q-21 65 0 133q15 52 67 72t101 -6q70 -39 70 -123q0 -39 4 -57q3 -13 15 -21t26 -6q23 3 27 31q12 83 -25 153q-45 88 -125 99q-47 8 -110 -2q-82 -14 -105 -78q-38 -106 -20 -176q17 -73 49 -156q36 -100 84 -209q24 -55 44.5 -117t44.5 -145t36 -121 q43 -134 63 -323q6 -85 -14 -162q-7 -25 -21 -39q-41 -45 -73 -66q-40 -29 -95 -9t-69 67q-16 50 -8 141q0 6 0.5 18t0.5 22t-1 19q-3 15 -15.5 22t-29.5 1q-8 -2 -23 -17q0 -5 -3 -42.5t-3 -57.5zM100 1884q-1 -7 3 -17.5t10 -15.5q25 -20 69 -41l168 -79q27 -12 49 4 l156 104q12 7 13.5 23.5t-7.5 29.5q-8 9 -21.5 11t-25.5 -5q-66 -45 -108 -77q-43 -32 -82 -9q-20 13 -81 41t-89 52q-3 2 -13 4.5l-14 3.5q-3 -3 -14 -13t-13 -16z" />
<glyph unicode="&#x164;" horiz-adv-x="573" d="M84.5 1636.5q-6.5 -11.5 7.5 -37.5q3 -4 10 -10.5t9 -9.5q19 1 59.5 6t57.5 5t57 -9q0 -2 3 -9.5t3 -12.5q8 -185 10 -285q1 -29 1 -86v-92t3.5 -84t9.5 -90q10 -74 2 -134q-3 -25 -5 -51t-1.5 -56.5t1 -48.5t2.5 -56t3 -50q2 -37 2 -112q0 -86 -2 -127l-6 -172 q-1 -20 -4 -57.5t-4 -55.5q0 -33 29 -39q14 -3 25 4.5t12 22.5q12 70 12 104q0 46 -1 139t-1 140q0 16 1.5 44.5t1.5 52t-3 44.5q-14 120 -4 262q3 75 0 150q-1 21 -7.5 80.5t-7.5 91.5q-3 166 0 336q0 23 1 70.5t1 72.5q17 3 36 3.5t32 -0.5t36 -5.5t31 -6.5t33 -9l23 26 q11 22 3.5 36t-32.5 17q-58 4 -88 4q-33 1 -105.5 7t-105 6.5t-104.5 -4.5q-30 -3 -36.5 -14.5zM100 1884q-1 -7 3 -17.5t10 -15.5q25 -20 69 -41l168 -79q27 -12 49 4l156 104q12 7 13.5 23.5t-7.5 29.5q-8 9 -21.5 11t-25.5 -5q-66 -45 -108 -77q-43 -32 -82 -9 q-20 13 -81 41t-89 52q-3 2 -13 4.5l-14 3.5q-3 -3 -14 -13t-13 -16z" />
<glyph unicode="&#x165;" horiz-adv-x="573" d="M84.5 1636.5q-6.5 -11.5 7.5 -37.5q3 -4 10 -10.5t9 -9.5q19 1 59.5 6t57.5 5t57 -9q0 -2 3 -9.5t3 -12.5q8 -185 10 -285q1 -29 1 -86v-92t3.5 -84t9.5 -90q10 -74 2 -134q-3 -25 -5 -51t-1.5 -56.5t1 -48.5t2.5 -56t3 -50q2 -37 2 -112q0 -86 -2 -127l-6 -172 q-1 -20 -4 -57.5t-4 -55.5q0 -33 29 -39q14 -3 25 4.5t12 22.5q12 70 12 104q0 46 -1 139t-1 140q0 16 1.5 44.5t1.5 52t-3 44.5q-14 120 -4 262q3 75 0 150q-1 21 -7.5 80.5t-7.5 91.5q-3 166 0 336q0 23 1 70.5t1 72.5q17 3 36 3.5t32 -0.5t36 -5.5t31 -6.5t33 -9l23 26 q11 22 3.5 36t-32.5 17q-58 4 -88 4q-33 1 -105.5 7t-105 6.5t-104.5 -4.5q-30 -3 -36.5 -14.5zM100 1884q-1 -7 3 -17.5t10 -15.5q25 -20 69 -41l168 -79q27 -12 49 4l156 104q12 7 13.5 23.5t-7.5 29.5q-8 9 -21.5 11t-25.5 -5q-66 -45 -108 -77q-43 -32 -82 -9 q-20 13 -81 41t-89 52q-3 2 -13 4.5l-14 3.5q-3 -3 -14 -13t-13 -16z" />
<glyph unicode="&#x16e;" horiz-adv-x="655" d="M123 1522q1 -58 1 -164t1 -191t4 -161q11 -331 8 -570q-1 -37 -1 -108t-1 -107q0 -68 37 -123q0 -1 10.5 -17.5t16.5 -23.5q74 -91 159 -86q26 3 52 0q72 -3 126.5 61.5t53.5 162.5q-2 60 6 167q21 221 18 388q-1 51 0.5 147t1.5 127q0 86 -1 258.5t-1 257.5q0 25 -2 37 q-3 26 -26 29q-11 2 -22.5 -5.5t-12.5 -17.5q-5 -24 -2 -53q8 -311 10 -471q1 -48 -4 -289q0 -12 1 -35t1 -35q4 -36 4 -55q-9 -148 -14 -205q-2 -26 -9 -81.5t-10.5 -98t-1.5 -82.5q4 -66 -39 -100q-80 -64 -165 -31q-74 24 -109 111q-23 56 -23 127q0 122 5 207 q3 76 -1 216.5t-4 182.5q-1 73 -5.5 216t-5.5 215t5 216v66q-2 20 -9.5 28.5t-27.5 9.5q-4 0 -24 -10v-110zM262 1806q6 -55 62 -75q2 0 8.5 -1t13.5 -1q30 -7 47 10q14 14 28 50.5t13 57.5q-9 37 -41 66t-78 22q-24 -3 -32 -10.5t-17 -28.5q-4 -9 -4 -90zM309 1819 q-6 28 8 53q1 0 4 2t8 4.5t9 3.5q26 0 38.5 -26t2.5 -48l-8 -12q-12 -17 -34.5 -6.5t-27.5 29.5z" />
<glyph unicode="&#x16f;" horiz-adv-x="655" d="M123 1522q1 -58 1 -164t1 -191t4 -161q11 -331 8 -570q-1 -37 -1 -108t-1 -107q0 -68 37 -123q0 -1 10.5 -17.5t16.5 -23.5q74 -91 159 -86q26 3 52 0q72 -3 126.5 61.5t53.5 162.5q-2 60 6 167q21 221 18 388q-1 51 0.5 147t1.5 127q0 86 -1 258.5t-1 257.5q0 25 -2 37 q-3 26 -26 29q-11 2 -22.5 -5.5t-12.5 -17.5q-5 -24 -2 -53q8 -311 10 -471q1 -48 -4 -289q0 -12 1 -35t1 -35q4 -36 4 -55q-9 -148 -14 -205q-2 -26 -9 -81.5t-10.5 -98t-1.5 -82.5q4 -66 -39 -100q-80 -64 -165 -31q-74 24 -109 111q-23 56 -23 127q0 122 5 207 q3 76 -1 216.5t-4 182.5q-1 73 -5.5 216t-5.5 215t5 216v66q-2 20 -9.5 28.5t-27.5 9.5q-4 0 -24 -10v-110zM262 1806q6 -55 62 -75q2 0 8.5 -1t13.5 -1q30 -7 47 10q14 14 28 50.5t13 57.5q-9 37 -41 66t-78 22q-24 -3 -32 -10.5t-17 -28.5q-4 -9 -4 -90zM309 1819 q-6 28 8 53q1 0 4 2t8 4.5t9 3.5q26 0 38.5 -26t2.5 -48l-8 -12q-12 -17 -34.5 -6.5t-27.5 29.5z" />
<glyph unicode="&#x17d;" horiz-adv-x="655" d="M100 1884q-1 -7 3 -17.5t10 -15.5q25 -20 69 -41l168 -79q27 -12 49 4l156 104q12 7 13.5 23.5t-7.5 29.5q-8 9 -21.5 11t-25.5 -5q-66 -45 -108 -77q-43 -32 -82 -9q-20 13 -81 41t-89 52q-3 2 -13 4.5l-14 3.5q-3 -3 -14 -13t-13 -16zM106 29q7 -17 13 -45 q31 -24 59 -21q10 0 31 1t31 1q7 0 56.5 -3.5t57.5 1.5q113 18 197 6q18 -3 27 19q12 29 0 41q-16 21 -27 16q-17 -5 -35.5 -6t-40 0t-33.5 0q-104 -8 -233 -8q-35 -2 -42.5 13.5t7.5 61.5q1 3 7 20.5t7 25.5q33 128 56 231q52 231 104 410q16 47 42.5 146t43.5 148 q18 45 47 156q13 40 35 117.5t31 107.5q6 26 20.5 81.5t20.5 82.5q-17 28 -41 23q-37 -12 -78 -15q-20 -3 -57.5 -6t-49.5 -4q-118 -14 -190 4q-10 2 -22 0q-11 0 -16.5 -16t1.5 -29q12 -28 43 -28q19 1 54.5 1h57.5t53 3.5t58 9.5q50 8 70 8q8 0 23.5 -3.5t19.5 -4.5 q-8 -52 -12 -62q-3 -16 -13.5 -52.5t-13.5 -55.5q-4 -14 -31 -114.5t-43 -153.5q-7 -23 -24 -72t-23 -72q-11 -37 -33.5 -119.5t-35.5 -125.5q-26 -80 -61.5 -228.5t-45.5 -185.5q-33 -168 -65 -240q-15 -38 -7 -65z" />
<glyph unicode="&#x17e;" horiz-adv-x="655" d="M100 1884q-1 -7 3 -17.5t10 -15.5q25 -20 69 -41l168 -79q27 -12 49 4l156 104q12 7 13.5 23.5t-7.5 29.5q-8 9 -21.5 11t-25.5 -5q-66 -45 -108 -77q-43 -32 -82 -9q-20 13 -81 41t-89 52q-3 2 -13 4.5l-14 3.5q-3 -3 -14 -13t-13 -16zM106 29q7 -17 13 -45 q31 -24 59 -21q10 0 31 1t31 1q7 0 56.5 -3.5t57.5 1.5q113 18 197 6q18 -3 27 19q12 29 0 41q-16 21 -27 16q-17 -5 -35.5 -6t-40 0t-33.5 0q-104 -8 -223 -8q-35 -2 -42.5 13.5t7.5 61.5q1 4 7.5 21t7.5 25q25 96 55 231q52 231 104 410q16 47 42.5 146t43.5 148 q21 53 48 156q13 39 34 116t31 109q6 26 20.5 81.5t20.5 82.5q-9 16 -19.5 21t-31.5 2q-9 -1 -36.5 -7.5t-41.5 -7.5q-20 -3 -57.5 -6t-49.5 -4q-118 -14 -190 4q-10 2 -22 0q-11 0 -16.5 -16t1.5 -29q12 -28 43 -28q19 1 54.5 1h57.5t53 3.5t58 9.5q50 8 70 8 q8 0 23.5 -3.5t19.5 -4.5q-8 -52 -12 -62q-3 -16 -13.5 -52.5t-13.5 -55.5q-4 -14 -31 -114.5t-43 -153.5q-7 -23 -24 -72t-23 -72q-11 -37 -33.5 -119.5t-35.5 -125.5q-26 -80 -61.5 -228.5t-45.5 -185.5q-33 -168 -65 -240q-15 -38 -7 -65z" />
<glyph unicode="&#x2c6;" horiz-adv-x="1228" d="M141 1755q2 -6 13 -16t14 -13l27 9q28 24 89 51.5t81 40.5q39 23 81 -8q45 -35 109 -78q12 -7 25.5 -5t21.5 11q9 13 7.5 29.5t-13.5 23.5l-156 105q-22 16 -49 4l-168 -80q-44 -21 -69 -41q-6 -5 -10 -15.5t-3 -17.5z" />
<glyph unicode="&#x2c7;" horiz-adv-x="1228" d="M100 1884q-1 -7 3 -17.5t10 -15.5q25 -20 69 -41l168 -79q27 -12 49 4l156 104q12 7 13.5 23.5t-7.5 29.5q-8 9 -21.5 11t-25.5 -5q-66 -45 -108 -77q-43 -32 -82 -9q-20 13 -81 41t-89 52q-3 2 -13 4.5l-14 3.5q-3 -3 -14 -13t-13 -16z" />
<glyph unicode="&#x2da;" horiz-adv-x="1228" d="M262 1806q6 -55 62 -75q2 0 8.5 -1t13.5 -1q30 -7 47 10q14 14 28 50.5t13 57.5q-9 37 -41 66t-78 22q-24 -3 -32 -10.5t-17 -28.5q-4 -9 -4 -90zM309 1819q-6 28 8 53q1 0 4 2t8 4.5t9 3.5q26 0 38.5 -26t2.5 -48l-8 -12q-12 -17 -34.5 -6.5t-27.5 29.5z" />
<glyph unicode="&#x2dc;" horiz-adv-x="1228" d="M373 1542q13 -31 18.5 -40t13.5 -7.5t23 18.5q39 39 100 25l129 -31q8 -2 54 -2q22 1 45.5 8.5t52 20.5t45.5 18q15 4 17.5 23.5t-9.5 36.5q-4 4 -8 7t-8.5 6l-7.5 5q-92 -90 -217 -53q-23 7 -80 20q-105 23 -168 -55z" />
<glyph unicode="&#x2000;" horiz-adv-x="980" />
<glyph unicode="&#x2001;" horiz-adv-x="1960" />
<glyph unicode="&#x2002;" horiz-adv-x="980" />
<glyph unicode="&#x2003;" horiz-adv-x="1960" />
<glyph unicode="&#x2004;" horiz-adv-x="653" />
<glyph unicode="&#x2005;" horiz-adv-x="490" />
<glyph unicode="&#x2006;" horiz-adv-x="326" />
<glyph unicode="&#x2007;" horiz-adv-x="326" />
<glyph unicode="&#x2008;" horiz-adv-x="245" />
<glyph unicode="&#x2009;" horiz-adv-x="392" />
<glyph unicode="&#x200a;" horiz-adv-x="108" />
<glyph unicode="&#x2010;" horiz-adv-x="415" d="M82 698q2 8 10 29q86 4 113 4q78 4 119 4q19 0 51 -8q10 -3 15.5 -17.5t2.5 -27.5q-3 -11 -14 -17.5t-21 -2.5q-74 24 -215 0q-17 -3 -34 0q-15 2 -22.5 11.5t-4.5 24.5z" />
<glyph unicode="&#x2011;" horiz-adv-x="415" d="M82 698q2 8 10 29q86 4 113 4q78 4 119 4q19 0 51 -8q10 -3 15.5 -17.5t2.5 -27.5q-3 -11 -14 -17.5t-21 -2.5q-74 24 -215 0q-17 -3 -34 0q-15 2 -22.5 11.5t-4.5 24.5z" />
<glyph unicode="&#x2012;" horiz-adv-x="415" d="M82 698q2 8 10 29q86 4 113 4q78 4 119 4q19 0 51 -8q10 -3 15.5 -17.5t2.5 -27.5q-3 -11 -14 -17.5t-21 -2.5q-74 24 -215 0q-17 -3 -34 0q-15 2 -22.5 11.5t-4.5 24.5z" />
<glyph unicode="&#x2013;" horiz-adv-x="702" d="M82 709q-1 -19 14 -31.5t35 -9.5q13 1 52 9.5t61 8.5q18 1 76 5t85.5 5t74 -0.5t85.5 -7.5q5 -1 11 0t12.5 3t9.5 3q0 5 1.5 14.5t0.5 12.5q-6 20 -24 32.5t-39 10.5q-1 0 -32.5 -3t-47.5 -3q-51 -2 -153 -5t-152 -5q-44 -5 -52 -9q-18 -7 -18 -30z" />
<glyph unicode="&#x2014;" horiz-adv-x="1017" d="M84 713q-6 -38 16 -41q8 -2 23 -2q17 1 52 4t52 4q1 0 39 1t39 -1q21 -2 78.5 -8.5t89.5 -7.5q40 -1 240 4l176 6q5 1 19.5 1.5t21.5 2.5q16 4 22 20q10 27 -6 49h-12q-24 -7 -50.5 -9.5t-61 -3t-50.5 -1.5q-20 -1 -55.5 -1t-64.5 -1t-54 -4q-93 -10 -225 8 q-106 14 -142 12q-90 -4 -139 -4q-5 -12 -8 -28z" />
<glyph unicode="&#x2018;" horiz-adv-x="362" d="M109 1481q16 -22 38 -17q9 3 19 13q5 5 23 22t25 24t22.5 21.5t25.5 22.5t24.5 19.5t28 20.5t27.5 17q4 2 7 6.5t6.5 13t6.5 13.5q-26 32 -28 33q-15 9 -33 -9l-98 -90q-47 -37 -90 -78q-17 -13 -4 -32z" />
<glyph unicode="&#x2019;" horiz-adv-x="317" d="M29 1640q-23 26 4 46q1 1 26 16q15 -12 44 -35t44 -35l95 -73q9 -9 32 -41q6 -9 0.5 -23t-16.5 -22q-7 -6 -20 -4.5t-19 10.5q-26 42 -65 73t-99 66q-10 6 -26 22z" />
<glyph unicode="&#x201c;" horiz-adv-x="307" d="M33 1595q16 -22 39 -16q9 3 18 12q6 6 26.5 26t29 28t27 24.5t30.5 26t29.5 22t33.5 21.5q4 2 7.5 6.5t7.5 13.5t6 13q-22 26 -29 32q-16 9 -33 -8l-98 -90q-47 -38 -90 -78q-17 -14 -4 -33zM150 1481q16 -22 38 -17q9 3 19 13q5 5 23 22t25 24t22.5 21.5t25.5 22.5 t24.5 19.5t28 20.5t27.5 17q4 2 7 6.5t6.5 13t6.5 13.5q-27 32 -28 33q-15 9 -33 -9l-98 -90q-46 -37 -90 -78q-17 -13 -4 -32z" />
<glyph unicode="&#x201d;" horiz-adv-x="307" d="M-33 1640q-23 26 4 46q3 3 7 5.5t10 5.5l10 5q15 -12 44 -35t44 -35l94 -73q13 -13 33 -41q6 -9 0.5 -23t-16.5 -22q-7 -6 -20 -4.5t-19 10.5q-26 42 -65 73t-99 66q-13 8 -27 22zM78 1763q-22 25 4 45q2 2 27 17q15 -12 44 -35t44 -35l94 -74q13 -13 33 -41q6 -9 0 -23 t-17 -22q-7 -6 -20 -4t-19 11q-26 42 -65 73t-99 66q-10 6 -26 22z" />
<glyph unicode="&#x2026;" horiz-adv-x="614" d="M82 59q2 -19 21.5 -39t37.5 -20q22 0 38.5 22t13.5 48q-3 39 -56 36q-23 0 -39 -14t-16 -33zM260 59q2 -19 21.5 -39t37.5 -20q22 0 38.5 22t13.5 48q-3 39 -56 36q-23 0 -39 -14t-16 -33zM432 59q2 -19 22 -39t38 -20q22 0 38 22t13 48q-3 39 -56 36q-23 0 -39 -14 t-16 -33z" />
<glyph unicode="&#x202f;" horiz-adv-x="392" />
<glyph unicode="&#x205f;" horiz-adv-x="490" />
<glyph unicode="&#x25fc;" horiz-adv-x="1658" d="M0 0v1659h1659v-1659h-1659z" />
</font>
</defs>
</svg>
