<?xml version="1.0" encoding="UTF-8" standalone="no"?>
<svg width="744px" height="49px" viewBox="0 0 744 49" version="1.1" xmlns="http://www.w3.org/2000/svg" xmlns:xlink="http://www.w3.org/1999/xlink" xmlns:sketch="http://www.bohemiancoding.com/sketch/ns">
    <!-- Generator: Sketch 3.1 (8751) - http://www.bohemiancoding.com/sketch -->
    <title>Simple scheme - Desktop HD</title>
    <desc>Created with Sketch.</desc>
    <defs></defs>
    <g id="Schéma" stroke="none" stroke-width="1" fill="none" fill-rule="evenodd" sketch:type="MSPage">
        <g id="Simple-scheme---Desktop-HD" sketch:type="MSArtboardGroup" transform="translate(-270.000000, -599.000000)">
            <g id="rows" sketch:type="MSLayerGroup" transform="translate(0.000000, 455.000000)"></g>
            <g id="scheme" sketch:type="MSLayerGroup" transform="translate(211.000000, 499.000000)" stroke="#959B9F" stroke-dasharray="2,2">
                <g id="1st---2nd-row" transform="translate(64.000000, 0.000000)">
                    <path d="M732.000012,103 C732.000012,103 732.000012,117.5 715.826285,117.5 L396.99812,117.5 C376.99812,117.5 376.99812,139.335547 376.99812,139.335547 L376.99812,146.5" id="short-right" sketch:type="MSShapeGroup" transform="translate(554.500000, 124.500000) scale(-1, 1) translate(-554.500000, -124.500000) "></path>
                    <path id="short-right-decoration-1" d="M374.480021,134.652808 C375.059938,138.860234 375.94812,142.176419 376.99812,145.956419 C378.04812,142.176419 378.956843,139.015586 380.387701,135.701294"></path>
                    <path d="M355.000012,103 C355.000012,103 355.000012,117.5 338.826285,117.5 L19.9981203,117.5 C-0.00187969261,117.5 -0.00187969261,139.335547 -0.00187969261,139.335547 L-0.00187969261,306.5" id="long-left" sketch:type="MSShapeGroup"></path>
                    <path id="long-left-decoration-1" d="M-3.00187969,295.156419 C-1.95187969,298.936419 -1.05187969,302.176419 -0.00187969261,305.956419 C1.04812031,302.176419 1.94812031,298.936419 2.99812031,295.156419"></path>
                    <path d="M366,102.5 L366,144.166797" id="short-middle" sketch:type="MSShapeGroup"></path>
                    <path id="short-middle-decoration-1" d="M363,132.7 C364.05,136.48 364.95,139.72 366,143.5 C367.05,139.72 367.95,136.48 369,132.7"></path>
                </g>
            </g>
            <g id="header" sketch:type="MSLayerGroup"></g>
        </g>
    </g>
</svg>