<?xml version="1.0" encoding="UTF-8" standalone="no"?>
<svg width="744px" height="49px" viewBox="0 0 744 49" version="1.1" xmlns="http://www.w3.org/2000/svg" xmlns:xlink="http://www.w3.org/1999/xlink" xmlns:sketch="http://www.bohemiancoding.com/sketch/ns">
    <!-- Generator: Sketch 3.1 (8751) - http://www.bohemiancoding.com/sketch -->
    <title>Simple scheme - Desktop HD</title>
    <desc>Created with Sketch.</desc>
    <defs></defs>
    <g id="Schéma" stroke="none" stroke-width="1" fill="none" fill-rule="evenodd" sketch:type="MSPage">
        <g id="Simple-scheme---Desktop-HD" sketch:type="MSArtboardGroup" transform="translate(-270.000000, -759.000000)">
            <g id="scheme" sketch:type="MSLayerGroup" transform="translate(211.000000, 499.000000)" stroke="#959B9F" stroke-dasharray="2,2">
                <g id="1st---2nd-row" transform="translate(64.000000, 0.000000)">
                    <path d="M355.000012,103 C355.000012,103 355.000012,117.5 338.826285,117.5 L19.9981203,117.5 C-0.00187969261,117.5 -0.00187969261,139.335547 -0.00187969261,139.335547 L-0.00187969261,306.5" id="long-left" sketch:type="MSShapeGroup"></path>
                    <path id="long-left-decoration-1" d="M-3.00187969,295.156419 C-1.95187969,298.936419 -1.05187969,302.176419 -0.00187969261,305.956419 C1.04812031,302.176419 1.94812031,298.936419 2.99812031,295.156419"></path>
                    <path d="M366,264.5 L366,306.166797" id="short-middle" sketch:type="MSShapeGroup"></path>
                    <path id="short-middle-decoration-1" d="M363,294.7 C364.05,298.48 364.95,301.72 366,305.5 C367.05,301.72 367.95,298.48 369,294.7"></path>
                    <path d="M355.000012,263 C355.000012,263 355.000012,277.5 338.826285,277.5 L29.9981203,277.5 C9.99812031,277.5 9.99812031,299.335547 9.99812031,299.335547 L9.99812031,306.5" id="short-left--10px" sketch:type="MSShapeGroup"></path>
                    <path id="short-left--10px-decoration-1" d="M7.48002133,294.652808 C8.05993803,298.860234 8.94812031,302.176419 9.99812031,305.956419 C11.0481203,302.176419 11.9568426,299.015586 13.3877009,295.701294"></path>
                    <path d="M725.000012,263 C725.000012,263 725.000012,277.5 708.826285,277.5 L399.99812,277.5 C379.99812,277.5 379.99812,299.335547 379.99812,299.335547 L379.99812,306.5" id="short-right--10px-2" sketch:type="MSShapeGroup" transform="translate(552.500000, 284.500000) scale(-1, 1) translate(-552.500000, -284.500000) "></path>
                    <path id="short-right--10px-2-decoration-1" d="M377.480021,294.652808 C378.059938,298.860234 378.94812,302.176419 379.99812,305.956419 C381.04812,302.176419 381.956843,299.015586 383.387701,295.701294"></path>
                    <path d="M735,264.5 L735,306.166797" id="short-middle-2" sketch:type="MSShapeGroup"></path>
                    <path id="short-middle-2-decoration-1" d="M732,294.7 C733.05,298.48 733.95,301.72 735,305.5 C736.05,301.72 736.95,298.48 738,294.7"></path>
                </g>
            </g>
            <g id="header" sketch:type="MSLayerGroup"></g>
        </g>
    </g>
</svg>