<?xml version="1.0" encoding="utf-8"?>
<!-- Generator: Adobe Illustrator 16.0.3, SVG Export Plug-In . SVG Version: 6.00 Build 0)  -->
<!DOCTYPE svg PUBLIC "-//W3C//DTD SVG 1.1//EN" "http://www.w3.org/Graphics/SVG/1.1/DTD/svg11.dtd">
<svg version="1.1" id="Layer_2" xmlns="http://www.w3.org/2000/svg" xmlns:xlink="http://www.w3.org/1999/xlink" x="0px" y="0px"
	 width="75.932px" height="63.939px" viewBox="4.056 0 75.932 63.939" enable-background="new 4.056 0 75.932 63.939"
	 xml:space="preserve">
<g>
	<g>
		<path fill="#AF946D" d="M79.914,23.634c-0.217-0.872-0.82-2.859-2.082-4.278c-0.077-0.087-0.097-0.318,0.124-0.392
			c0.436-0.146,1.179-0.321,1.729-0.083c0.121,0.052,0.319-0.039,0.303-0.169c-0.25-1.947-2.293-3.842-3.726-4.187
			c-0.152-0.037-0.288-0.147-0.062-0.26c0.503-0.252,1.409-0.616,2.025-0.343c0.101,0.045,0.212-0.048,0.174-0.164
			c-0.593-1.773-2.223-3.001-5.678-3.973c-0.092-0.025-0.231-0.189-0.114-0.334c0.321-0.401,1.163-1.056,2.97-0.32
			c0.13,0.053,0.263-0.086,0.178-0.217c-1.407-2.177-5.1-3.769-10.008-3.862c-0.153-0.003-0.341-0.111-0.058-0.231
			c0.302-0.129,0.791-0.272,1.522-0.319c0.152-0.009,0.163-0.202,0.003-0.293c-2.835-1.618-4.958-2.676-12.908-1.936
			C54.22,2.281,54.059,2.2,54.118,2.047c0.151-0.391,0.593-1.145,1.821-1.55c0.174-0.058,0.184-0.245-0.004-0.283
			c-3.417-0.706-5.637,0.44-8.341,1.92c-0.127,0.07-0.342,0.057-0.217-0.205c0.18-0.376,0.531-0.976,1.169-1.666
			c0.077-0.083,0.006-0.25-0.113-0.247c-2.943,0.083-6.122,1.217-9.237,4.208c-0.098,0.094-0.305,0.153-0.303-0.057
			c0.003-0.428,0.058-1.166,0.357-1.699c0.066-0.117-0.025-0.303-0.163-0.278c-1.833,0.335-4.368,2.83-5.398,5.296
			c-0.043,0.103-0.242,0.167-0.286,0.087c-0.311-0.56-0.127-1.411,0.025-1.907c0.074-0.24-0.111-0.266-0.247-0.187
			c-2.092,1.219-5.575,4.55-5.575,9.811c-2.096,1.133-3.326,3.107-3.326,4.762c-0.778,0.778-4.589-1.913-7.162-0.57
			c-2.234,1.166-2.952,5.696,0.266,8.925c-1.971,2.26-3.746,3.955-5.638,5.847C9.803,36.2,7.74,36.106,6.244,36.371h0
			c-0.959,0.168-1.685,0.485-1.995,1.577c-0.603,2.12,0.246,4.209,2,6.173c1.696,1.897,4.235,3.677,7.13,5.254
			c0.223,1.152-0.061,2.444-0.85,3.233c-1.231,1.231,0,3.5,4.029,3.5c3.044,0,5.477,0.094,7.247-2.292
			c3.901,1.29,7.487,2.101,9.763,2.262c2.007,0.141,4.257-0.224,6.549-0.988c0.956,1.3,0.866,3.476-0.268,4.608
			c-1.231,1.231,0.741,4.241,4.77,4.241c4.029,0,9.074-0.189,11.107-5.736c0.754-2.058,2.645-3.474,4.718-4.562
			c0.092-0.048,0.36,0.049,0.405,0.142c0.632,1.317,1.869,2.324,3.494,2.324c4.814,0,8.953-2.811,9.849-7.577
			c0.895-4.764-0.112-9.799,2.686-14.5c1.168-1.962,1.891-5.855,1.529-10.214c-0.008-0.096,0.146-0.272,0.232-0.261
			c0.36,0.047,0.723,0.13,1.012,0.269C79.792,23.894,79.982,23.909,79.914,23.634z"/>
		<path fill="none" stroke="#CDAD7F" stroke-width="0.3516" stroke-linecap="round" stroke-linejoin="round" d="M65.24,47.685
			c-3.525,0-4.923,2.105-4.854,4.211"/>
	</g>
	<path fill="#A48C67" d="M63.974,37.467c-0.32-0.679-0.831-1.249-1.407-1.784c-0.865-0.801-1.906-1.526-2.792-2.244
		c-0.439-0.358-0.844-0.714-1.16-1.055c-0.155-0.168-0.289-0.333-0.401-0.492c0.084-0.049,0.169-0.095,0.246-0.13
		c0.099-0.045,0.186-0.066,0.204-0.066c0.201-0.025,0.376-0.078,0.573-0.194c0.099-0.063,0.201-0.14,0.295-0.271
		c0.095-0.123,0.18-0.316,0.18-0.531c0-0.039-0.004-0.077-0.007-0.113c-0.08-0.629-0.32-1.333-0.749-2.032
		c-0.21-0.341-0.467-0.682-0.777-1.009c0.109,0.035,0.215,0.053,0.313,0.053c0.229,0,0.425-0.06,0.615-0.187
		c0.095-0.066,0.19-0.151,0.271-0.278c0.078-0.12,0.137-0.289,0.137-0.467c0-0.053-0.003-0.106-0.014-0.158
		c-0.183-1.009-0.77-1.902-1.621-2.592c-0.619-0.506-1.378-0.914-2.25-1.216c0.165,0.028,0.331,0.07,0.496,0.137
		c0.109,0.045,0.229,0.074,0.355,0.074c0.243,0,0.493-0.109,0.651-0.285c0.162-0.175,0.239-0.404,0.239-0.619
		c0-0.179-0.053-0.352-0.133-0.499c-0.31-0.549-0.689-1.104-1.157-1.621c-0.471-0.518-1.035-1.002-1.709-1.421
		c-1.125-0.696-2.557-1.192-4.364-1.378c0.095-0.098,0.172-0.197,0.225-0.309c0.063-0.134,0.105-0.282,0.105-0.458
		c0-0.109-0.018-0.232-0.07-0.358c-0.053-0.127-0.141-0.257-0.26-0.352c-0.58-0.479-1.269-0.869-2.11-1.128
		c-0.844-0.26-1.832-0.394-3.045-0.394c-0.236,0-0.481,0.007-0.735,0.018c0.053-0.113,0.081-0.235,0.081-0.362
		c0-0.207-0.077-0.411-0.204-0.559c-0.123-0.151-0.281-0.25-0.439-0.31c-0.861-0.312-1.801-0.464-2.75-0.468
		c-1.259,0.004-2.539,0.274-3.682,0.816v-0.004c-0.003-0.218-0.057-0.415-0.19-0.612c-0.067-0.099-0.158-0.193-0.284-0.274
		c-0.127-0.078-0.292-0.13-0.461-0.13c-0.021,0-0.049,0.003-0.081,0.003c-0.003,0-0.011,0-0.014,0.003h-0.004
		c-0.657,0.056-1.283,0.197-1.881,0.401c-0.602,0.204-1.175,0.471-1.727,0.794c-0.531,0.31-1.041,0.672-1.544,1.066
		c-0.042-0.154-0.119-0.295-0.232-0.411c-0.169-0.176-0.422-0.285-0.679-0.282c-0.056,0-0.116,0.004-0.172,0.015
		c-0.805,0.133-1.547,0.376-2.219,0.696c-0.018,0.26-0.027,0.527-0.027,0.801c-2.096,1.133-3.327,3.108-3.327,4.761
		c-0.777,0.777-4.585-1.913-7.159-0.57c-2.236,1.168-2.954,5.697,0.264,8.925c-1.969,2.261-3.746,3.956-5.637,5.848
		c-1.944,1.945-4.009,1.85-5.503,2.113c-0.479,0.085-0.9,0.208-1.242,0.444c-0.34,0.239-0.597,0.591-0.752,1.135
		c-0.601,2.121,0.246,4.209,2.001,6.175c1.695,1.896,4.233,3.675,7.127,5.253c0.053,0.271,0.077,0.552,0.074,0.833
		c3.119,1.667,6.593,3.088,9.867,4.181c0.165-0.172,0.328-0.365,0.485-0.576c3.903,1.291,7.49,2.103,9.766,2.265
		c2.004,0.141,4.254-0.225,6.547-0.989c0.141,0.19,0.257,0.401,0.348,0.623c1.386-0.468,2.778-1.072,4.139-1.794
		c1.403-0.742,2.774-1.606,4.072-2.57c2.472-1.835,4.669-4.026,6.309-6.428c0.278,0.035,0.556,0.06,0.833,0.06
		c1.902-0.003,3.748-0.749,5.232-1.762c0.742-0.51,1.396-1.086,1.92-1.695c0.523-0.612,0.925-1.245,1.146-1.899
		c0.099-0.299,0.148-0.601,0.148-0.897C64.265,38.279,64.153,37.854,63.974,37.467z"/>
	<path fill="#CDAD7F" d="M57.291,31.682c0,0,0.756-0.63,1.301-0.685c0.181-0.019,0.437-0.142,0.414-0.32
		c-0.135-1.042-0.813-2.453-2.368-3.54c-0.219-0.152-0.349-0.507,0.137-0.52c0.485-0.014,1.095,0.029,1.591,0.254
		c0.185,0.084,0.477-0.05,0.442-0.236c-0.301-1.638-1.906-2.982-4.371-3.543c-0.177-0.041-0.476-0.5-0.356-0.649
		c0.41-0.505,1.414-0.625,2.31-0.255c0.197,0.082,0.352-0.117,0.23-0.333c-1.158-2.054-3.246-4.006-7.766-4.145
		c-0.171-0.005-0.468-0.27-0.251-0.541c0.163-0.203,0.418-0.412,0.812-0.521c0.173-0.047,0.304-0.362,0.144-0.494
		c-1.417-1.164-3.434-1.696-7.708-1.144c-0.207,0.027-0.535-0.144-0.226-0.405c0.309-0.261,0.827-0.551,1.664-0.666
		c0.239-0.034,0.292-0.304,0.021-0.402c-2.26-0.829-5.263-0.439-7.188,1.125c-0.149,0.122-0.439,0.176-0.339-0.163
		c0.085-0.29,0.253-0.675,0.58-1.107c0.125-0.165,0.015-0.504-0.197-0.485c-2.406,0.21-4.369,1.583-6.335,3.472
		c-0.16,0.154-0.488,0.184-0.363-0.229c0.11-0.366,0.325-0.83,0.739-1.281c0.149-0.163,0.013-0.426-0.235-0.384
		c-0.875,0.147-1.669,0.43-2.366,0.806c-2.096,1.133-3.326,3.107-3.326,4.762c-0.778,0.778-4.589-1.913-7.162-0.57
		c-2.234,1.166-2.952,5.696,0.266,8.925c-1.971,2.26-3.746,3.955-5.638,5.847C9.803,36.2,7.74,36.106,6.244,36.371h0
		c-0.959,0.168-1.685,0.485-1.995,1.577c-0.603,2.12,0.246,4.209,2,6.173c1.696,1.897,4.235,3.677,7.13,5.254
		c3.257,1.776,6.966,3.297,10.426,4.441c3.901,1.289,7.487,2.101,9.763,2.262c2.007,0.141,4.257-0.224,6.549-0.987
		c5.539-1.842,11.326-6.001,14.537-10.925c3.762,0.743,8.003-2.389,8.795-4.762C64.457,36.382,58.413,34.368,57.291,31.682z
		 M38.51,46.509c-0.768,3.684-2.401,5.495-5.826,6.459c-0.593,0.167-1.249,0.252-1.948,0.252c-3.103,0-7.146-1.667-11.384-4.695
		c-0.703-0.502-0.646-0.969-0.589-1.146c0.073-0.229,0.307-0.474,0.739-0.474c0.151,0,0.319,0.029,0.5,0.088
		c2.868,0.93,5.625,1.401,8.194,1.401c3.6,0,6.706-0.926,8.982-2.677c0.151-0.117,0.329-0.178,0.517-0.178l0,0
		c0.252,0,0.498,0.116,0.655,0.31C38.5,46.034,38.558,46.274,38.51,46.509z"/>
	<path fill="#E2CFB4" d="M53.984,44.237c-6.927,0.575-11.95-4.317-11.95-9.049c0-4.783-5.161-8.272-10.729-4.039
		c-0.117,0.089-0.431,0.162-0.429-0.204c0.006-1.235,0.092-4.473-2.2-6.17c-2.565-1.9-6.632-1.52-11.291,3.633
		c-1.971,2.259-3.746,3.954-5.638,5.847C9.803,36.2,7.74,36.106,6.244,36.371h0c-0.959,0.168-1.685,0.485-1.995,1.577
		c-0.603,2.12,0.246,4.209,2,6.173c1.696,1.897,4.235,3.677,7.13,5.254c3.257,1.776,6.966,3.297,10.426,4.441
		c3.901,1.289,7.487,2.101,9.763,2.262c2.007,0.141,4.257-0.224,6.549-0.987c5.309-1.765,10.846-5.66,14.124-10.316
		C54.384,44.573,54.206,44.219,53.984,44.237z M38.071,46.417c-0.728,3.493-2.195,5.187-5.509,6.12
		c-3.183,0.896-7.963-0.814-12.951-4.377c-0.693-0.496-0.514-0.989,0.252-0.742c7.665,2.485,13.87,1.514,17.587-1.347
		C37.734,45.853,38.14,46.089,38.071,46.417z"/>
	<path fill="#77461C" d="M23.162,29.444c0,0.618-0.501,1.12-1.119,1.12c-0.619,0-1.12-0.502-1.12-1.12s0.501-1.12,1.12-1.12
		C22.661,28.324,23.162,28.826,23.162,29.444z M36.02,36.957c-0.618,0-1.12,0.501-1.12,1.119c0,0.619,0.501,1.12,1.12,1.12
		c0.618,0,1.119-0.501,1.119-1.12C37.139,37.458,36.638,36.957,36.02,36.957z"/>
	<path fill="#77461C" d="M6.244,36.371c3.651-0.551,9.036,2.589,8.366,4.487c-0.671,1.899-3.134,3.862-8.36,3.263
		c-1.754-1.964-2.603-4.053-2-6.173C4.559,36.856,5.284,36.54,6.244,36.371L6.244,36.371z"/>
	<circle fill="#A58060" cx="22.51" cy="29.077" r="0.208"/>
	<circle fill="#A58060" cx="36.584" cy="37.902" r="0.209"/>
</g>
</svg>
