<?xml version="1.0" encoding="utf-8"?>
<!-- Generator: Adobe Illustrator 18.0.0, SVG Export Plug-In . SVG Version: 6.00 Build 0)  -->
<!DOCTYPE svg PUBLIC "-//W3C//DTD SVG 1.1//EN" "http://www.w3.org/Graphics/SVG/1.1/DTD/svg11.dtd">
<svg version="1.1" id="Vrstva_1" xmlns="http://www.w3.org/2000/svg" xmlns:xlink="http://www.w3.org/1999/xlink" x="0px" y="0px"
	 viewBox="0 0 317.7 64.8" enable-background="new 0 0 317.7 64.8" xml:space="preserve">
<g>
	<g>
		<path fill="#70706E" d="M84.2,16.2h6.4H98c1.4,0,2.7,0.3,3.8,0.7c1.2,0.5,2.2,1.2,3,2c0.8,0.9,1.5,1.9,2,3
			c0.5,1.2,0.7,2.4,0.7,3.7c0,1.3-0.2,2.5-0.7,3.6c-0.5,1.1-1.1,2-1.9,2.8c0.5,0.3,1,0.6,1.5,1.1c0.5,0.4,1,1,1.4,1.6
			c0.4,0.6,0.7,1.3,1,2c0.2,0.7,0.4,1.5,0.4,2.3c0,1.4-0.3,2.7-0.8,3.9c-0.5,1.2-1.2,2.2-2.1,3c-0.9,0.9-1.9,1.5-3,2
			c-1.2,0.5-2.4,0.7-3.7,0.6h-9h-6.4v-5.8v-7.4v-5.9v-7.4V16.2z M98,22.1h-7.4v7.4H98c1.2,0,2.1-0.3,2.7-1.1
			c0.6-0.7,0.9-1.6,0.9-2.6c0-1.3-0.4-2.2-1.1-2.8C99.8,22.4,99,22.1,98,22.1z M99.6,42.8c1-0.1,1.8-0.4,2.6-1.1
			c0.8-0.6,1.2-1.5,1.2-2.7c0-1.1-0.4-2-1.1-2.7c-0.7-0.7-1.6-1-2.7-1H98h-1.1h-6.4v7.4H99.6z"/>
		<path fill="#70706E" d="M124.6,16.2h8.2l11.6,32.3h-6.8l-2.6-7.9h-11.7l-2.6,7.9H114L124.6,16.2z M132.9,35.4l-4.1-12.7l-3.9,12.7
			H132.9z"/>
		<path fill="#70706E" d="M169.5,32l8.2,16.5H171L164,34.5h-6.9v14.1h-6.2V34.5V29V16.3h6.2V29h7.2l6.2-12.7h6.7L169.5,32z"/>
		<path fill="#70706E" d="M193,16.2h8.2l11.6,32.3h-6.8l-2.6-7.9h-11.7l-2.6,7.9h-6.6L193,16.2z M201.3,35.4l-4.1-12.7l-3.9,12.7
			H201.3z"/>
		<path fill="#70706E" d="M224.6,16.2v26.4h14.1v5.9h-14.1h-6.5v-5.9V16.2H224.6z"/>
		<path fill="#70706E" d="M253,16.2h8.2l11.6,32.3H266l-2.6-7.9h-11.7l-2.6,7.9h-6.6L253,16.2z M259.5,13.2h-6.3l5.2-8h7.5
			L259.5,13.2z M261.3,35.4l-4.1-12.7l-3.9,12.7H261.3z"/>
		<path fill="#70706E" d="M278.5,16.2h6.4h8.3c1.4,0,2.7,0.3,4,0.8c1.2,0.5,2.3,1.3,3.3,2.2c1,1,1.7,2,2.2,3.3
			c0.5,1.2,0.8,2.6,0.8,4c0,1.4-0.3,2.7-0.8,4c-0.5,1.2-1.2,2.3-2.2,3.2c-1.1,1.1-2.3,1.9-3.8,2.4l7.2,12.4h-6.7l-6.9-11.9h-5.3
			v11.9h-6.4V36.7v-5.5v-9.3V16.2z M282.2,5.1h6l2.5,3.7l2.2-3.7h6l-5.4,7.9h-6.3L282.2,5.1z M293.1,21.9h-8.3v9.3h8.3
			c0.6,0,1.2-0.1,1.7-0.3c0.6-0.2,1.1-0.6,1.5-1.1c0.9-0.9,1.3-1.9,1.3-3.2c0-1.3-0.4-2.4-1.3-3.3c-0.4-0.4-0.9-0.8-1.5-1
			C294.4,22,293.8,21.9,293.1,21.9z"/>
		<path fill="#70706E" d="M317.7,16.2v32.3h-6.5V16.2H317.7z"/>
	</g>
	<g>
		<g>
			<defs>
				<path id="SVGID_1_" d="M56.2,16.2L28.1,0L0,16.2v32.4l28.1,16.2l28.1-16.2l0-11.6l-8-4.6l8-4.6L56.2,16.2z M38.1,38.2l8,4.6
					l-18,10.4L10,42.8V22l18-10.4l18,10.4l-8,4.6V38.2z"/>
			</defs>
			<clipPath id="SVGID_2_">
				<use xlink:href="#SVGID_1_"  overflow="visible"/>
			</clipPath>
			<g clip-path="url(#SVGID_2_)">
				<polygon fill="#8400C5" points="28.1,-11.5 28.1,32.4 66.1,10.4 				"/>
				<polygon fill="#FF006E" points="-10,10.4 28.1,32.4 28.1,-11.5 				"/>
				<polygon fill="#E20614" points="-10,54.4 28.1,32.4 -10,10.4 				"/>
				<polygon fill="#F29100" points="28.1,76.4 28.1,32.4 -10,54.4 				"/>
				<polygon fill="#00A2E2" points="66.1,10.4 28.1,32.4 66.1,54.4 				"/>
				<polygon fill="#43A22B" points="66.1,54.4 56.2,48.6 56.2,37.1 46.1,42.8 28.1,32.4 28.1,76.4 				"/>
			</g>
		</g>
		<linearGradient id="SVGID_3_" gradientUnits="userSpaceOnUse" x1="38.0869" y1="34.7446" x2="56.166" y2="34.7446">
			<stop  offset="0.1472" style="stop-color:#FFFFFF;stop-opacity:0"/>
			<stop  offset="1" style="stop-color:#00A2E2"/>
		</linearGradient>
		<polygon fill="url(#SVGID_3_)" points="46.1,42.8 38.1,38.2 38.1,26.6 56.2,37.1 		"/>
		<linearGradient id="SVGID_4_" gradientUnits="userSpaceOnUse" x1="38.1728" y1="13.9018" x2="56.1543" y2="13.9018">
			<stop  offset="0.1472" style="stop-color:#FFFFFF;stop-opacity:0"/>
			<stop  offset="1" style="stop-color:#673B8E"/>
		</linearGradient>
		<polygon fill="url(#SVGID_4_)" points="46.1,22 38.2,17.4 38.2,5.8 56.2,16.2 		"/>
		
			<linearGradient id="SVGID_5_" gradientUnits="userSpaceOnUse" x1="12303.5059" y1="24.3237" x2="12321.585" y2="24.3237" gradientTransform="matrix(-1 0 0 1 12359.6719 0)">
			<stop  offset="0.1472" style="stop-color:#FFFFFF;stop-opacity:0"/>
			<stop  offset="1" style="stop-color:#00A2E2"/>
		</linearGradient>
		<polygon fill="url(#SVGID_5_)" points="48.1,32.4 56.2,27.8 56.2,16.2 38.1,26.6 		"/>
		
			<linearGradient id="SVGID_6_" gradientUnits="userSpaceOnUse" x1="12401.0537" y1="8.706" x2="12411.1465" y2="8.706" gradientTransform="matrix(-1 0 0 1 12439.2266 0)">
			<stop  offset="0.2025" style="stop-color:#1A171B;stop-opacity:0"/>
			<stop  offset="0.3436" style="stop-color:#1A171B;stop-opacity:0"/>
			<stop  offset="0.4751" style="stop-color:#261D2D;stop-opacity:0.2004"/>
			<stop  offset="0.7375" style="stop-color:#442B5A;stop-opacity:0.6001"/>
			<stop  offset="1" style="stop-color:#673B8E"/>
		</linearGradient>
		<polygon opacity="0.25" fill="url(#SVGID_6_)" points="38.2,17.4 28.1,11.6 28.1,0 38.2,5.8 		"/>
		
			<linearGradient id="SVGID_7_" gradientUnits="userSpaceOnUse" x1="9315.3701" y1="-5079.8979" x2="9329.7734" y2="-5091.9614" gradientTransform="matrix(-0.5008 0.8656 0.8656 0.5008 9081.126 -5506.3604)">
			<stop  offset="6.748470e-002" style="stop-color:#FFFFFF;stop-opacity:0"/>
			<stop  offset="8.725958e-002" style="stop-color:#FDF8FC;stop-opacity:2.120596e-002"/>
			<stop  offset="0.3503" style="stop-color:#E7A1D0;stop-opacity:0.3033"/>
			<stop  offset="0.5821" style="stop-color:#D65CAD;stop-opacity:0.5518"/>
			<stop  offset="0.774" style="stop-color:#CA2A94;stop-opacity:0.7576"/>
			<stop  offset="0.9189" style="stop-color:#C20C85;stop-opacity:0.913"/>
			<stop  offset="1" style="stop-color:#BF007F"/>
		</linearGradient>
		<polygon fill="url(#SVGID_7_)" points="20,16.2 10,22 0,16.2 10,10.4 		"/>
		
			<linearGradient id="SVGID_8_" gradientUnits="userSpaceOnUse" x1="3374.948" y1="-4879.1494" x2="3384.9663" y2="-4879.1494" gradientTransform="matrix(0.4966 0.868 0.868 -0.4966 2561.6306 -5316.7993)">
			<stop  offset="6.748470e-002" style="stop-color:#FFFFFF;stop-opacity:0"/>
			<stop  offset="7.016165e-002" style="stop-color:#FFFEFE;stop-opacity:2.870679e-003"/>
			<stop  offset="0.3382" style="stop-color:#F5A7AC;stop-opacity:0.2903"/>
			<stop  offset="0.5743" style="stop-color:#ED626B;stop-opacity:0.5434"/>
			<stop  offset="0.7697" style="stop-color:#E7303C;stop-opacity:0.7531"/>
			<stop  offset="0.9174" style="stop-color:#E3121F;stop-opacity:0.9114"/>
			<stop  offset="1" style="stop-color:#E20614"/>
		</linearGradient>
		<polygon fill="url(#SVGID_8_)" points="10,31.3 10,42.8 0,48.6 0,37.1 		"/>
		
			<linearGradient id="SVGID_9_" gradientUnits="userSpaceOnUse" x1="12411.1465" y1="56.1386" x2="12421.2275" y2="56.1386" gradientTransform="matrix(-1 0 0 1 12439.2266 0)">
			<stop  offset="0" style="stop-color:#F0CA00"/>
			<stop  offset="8.108596e-002" style="stop-color:#F1CC0C;stop-opacity:0.913"/>
			<stop  offset="0.226" style="stop-color:#F2D32A;stop-opacity:0.7576"/>
			<stop  offset="0.4179" style="stop-color:#F5DD5C;stop-opacity:0.5518"/>
			<stop  offset="0.6497" style="stop-color:#F9ECA1;stop-opacity:0.3033"/>
			<stop  offset="0.9127" style="stop-color:#FFFEF8;stop-opacity:2.120596e-002"/>
			<stop  offset="0.9325" style="stop-color:#FFFFFF;stop-opacity:0"/>
		</linearGradient>
		<polygon fill="url(#SVGID_9_)" points="28.1,64.8 18,59 18,47.4 28.1,53.3 		"/>
	</g>
</g>
</svg>
