<?xml version="1.0" encoding="UTF-8" standalone="no"?>
<svg width="12px" height="9px" viewBox="0 0 12 9" version="1.1" xmlns="http://www.w3.org/2000/svg" xmlns:xlink="http://www.w3.org/1999/xlink" xmlns:sketch="http://www.bohemiancoding.com/sketch/ns">
    <!-- Generator: Sketch 3.1 (8751) - http://www.bohemiancoding.com/sketch -->
    <title>dropdown button 2 + dropdown button 2</title>
    <desc>Created with Sketch.</desc>
    <defs></defs>
    <g id="O-nás" stroke="none" stroke-width="1" fill="none" fill-rule="evenodd" sketch:type="MSPage">
        <g id="O-nás---Desktop-HD" sketch:type="MSArtboardGroup" transform="translate(-229.000000, -40.000000)">
            <g id="header" sketch:type="MSLayerGroup" transform="translate(0.000000, -30.000000)">
                <g id="normal" sketch:type="MSShapeGroup">
                    <g id="Předměty-2" transform="translate(124.000000, 30.000000)">
                        <g id="closed">
                            <g id="Předměty-+-dropdown-button-2-+-dropdown-button-2" transform="translate(32.000000, 31.000000)">
                                <g id="dropdown-button-2-+-dropdown-button-2" transform="translate(72.000000, 9.000000)">
                                    <path d="M5.78,0.4996 L8.987,0.4996 C9.725,0.4996 10.061,0.9696 10.061,1.4056 C10.061,1.6366 9.976,1.8716 9.81,2.1036 L5.78085618,7.71149002 L1.75,2.1046 C1.584,1.8716 1.5,1.6366 1.5,1.4056 C1.5,0.9686 1.836,0.4996 2.573,0.4996 L5.78,0.4996 Z" id="fill" fill-opacity="0.161599864" fill="#3E4656"></path>
                                    <path d="M9.204,4.4576 L3.583,8.4976 C3.575,8.5026 3.568,8.5076 3.561,8.5116 L3.561,8.4876 L3.561,0.0736 L3.561,0.0486 C3.568,0.0536 3.575,0.0576 3.582,0.0626 L9.205,4.1036 C9.284,4.1606 9.331,4.2266 9.331,4.2806 C9.331,4.3346 9.284,4.4006 9.204,4.4576 M9.788,3.2906 L4.165,-0.7494 C3.933,-0.9154 3.698,-1.0004 3.467,-1.0004 C3.031,-1.0004 2.561,-0.6644 2.561,0.0736 L2.561,8.4876 C2.561,9.2246 3.03,9.5606 3.467,9.5606 C3.698,9.5606 3.933,9.4766 4.166,9.3106 L9.787,5.2696 C10.133,5.0216 10.331,4.6616 10.331,4.2806 C10.331,3.8996 10.133,3.5386 9.788,3.2906" id="border" fill="#FFFFFF" transform="translate(6.561000, 4.499600) rotate(90.000000) translate(-6.561000, -4.499600) "></path>
                                </g>
                            </g>
                        </g>
                    </g>
                </g>
            </g>
        </g>
    </g>
</svg>