<?xml version="1.0" encoding="UTF-8" standalone="no"?>
<svg width="32px" height="34px" viewBox="0 0 32 34" version="1.1" xmlns="http://www.w3.org/2000/svg" xmlns:xlink="http://www.w3.org/1999/xlink" xmlns:sketch="http://www.bohemiancoding.com/sketch/ns">
    <!-- Generator: Sketch 3.2.2 (9983) - http://www.bohemiancoding.com/sketch -->
    <title>logo 5</title>
    <desc>Created with Sketch.</desc>
    <defs>
        <linearGradient x1="50%" y1="0%" x2="50%" y2="99.477838%" id="linearGradient-1">
            <stop stop-color="#E2E8D3" offset="2.78419962%"></stop>
            <stop stop-color="#E6ECD6" offset="100%"></stop>
        </linearGradient>
        <ellipse id="path-2" cx="14.8280479" cy="14.3333333" rx="14.8280479" ry="14.3333333"></ellipse>
        <linearGradient x1="55.9591697%" y1="31.6165123%" x2="33.7847856%" y2="145.896026%" id="linearGradient-4">
            <stop stop-color="#FCFFF4" offset="0%"></stop>
            <stop stop-color="#E6ECD6" offset="100%"></stop>
        </linearGradient>
        <path id="path-5" d="M1.83913772,8.33333333 L25.4030897,13.3333333 L25.4030897,14.7777778 L20.9201916,13.7777778 L21.1500838,15.2222222 L25.632982,16.1111111 L27.5870658,17.4444444 L30.3457724,16.4444444 L31.9550179,8.11111111 L29.5411496,2.22222222 L23.6788981,0.111111111 L4.71279041,-0.444444444 L0.344838322,5 L1.83913772,8.33333333 Z"></path>
        <path id="path-6" d="M0.114946107,0.111111111 C0.114946107,0.111111111 1.30678595e-14,1.44444444 0,2 C-1.30678595e-14,2.55555556 0.229892215,4.11111111 0.229892215,4.11111111 L0.45978443,6.44444444 L0.45978443,8.11111111 C0.45978443,8.11111111 0.574730537,8.66666667 0.574730537,8.88888889 L0.574730537,9.77777778 L0.804622752,12.2222222 L1.03451497,12.6666667 L14.4832095,12.8888889 L14.4832095,10.1111111 C14.4832095,9.77777778 14.3682634,8.55555556 14.3682634,8.11111111 L14.3682634,6.22222222 L14.3682634,4.11111111 C14.3682634,3.88888889 14.4832095,2.11111111 14.4832095,2.11111111 L14.3682634,0.555555556 L14.1383712,0.222222222 L0.114946107,0.111111111 Z"></path>
        <path id="path-8" d="M9.88536524,0.111111111 C9.88536524,0.111111111 13.5636407,1.55555554 15.5177245,4.33333343 C15.9775089,4.88888898 15.9775089,5.00000009 15.9775089,6 C15.9775089,6 16.092455,8.44444444 16.092455,8.88888889 C16.092455,9.33333333 16.2074012,11 16.2074012,11 C16.2074012,11 16.2074012,13.2222222 16.2074012,13.2222222 C16.2074012,13.2222222 16.3223473,14.8888889 16.3223473,14.8888889 C16.3223473,14.8888889 15.8625628,15.1111111 15.8625628,15.1111111 C15.8625628,15.1111111 15.8625628,16.5555556 15.8625628,16.5555556 L15.9775089,18.4444444 C15.9775089,18.4444444 13.7935329,20.2222222 9.1956886,20.2222222 C4.5978443,20.2222222 0.344838322,19.1111111 0.344838322,19.1111111 C0.344838322,19.1111111 0.229892215,15.8888889 0.229892215,15.6666667 C0.229892215,15.4444444 0.344838322,12.5555556 0.344838322,12.5555556 L0.229892215,7.88888889 L0.114946107,6 C0.114946107,6 0.114946107,5.00000019 0.574730537,4.33333343 C2.64376047,2.11111121 4.5978443,0.555555556 6.0921437,0.111111111 C7.58644309,-0.333333333 9.88536524,0.111111111 9.88536524,0.111111111 Z"></path>
        <linearGradient x1="55.6768003%" y1="100%" x2="50%" y2="10.4795259%" id="linearGradient-10">
            <stop stop-color="#BBA88B" offset="3.06122449%"></stop>
            <stop stop-color="#A6937C" offset="100%"></stop>
        </linearGradient>
        <path id="path-11" d="M12.7590179,2.77777778 C12.7590179,2.77777778 15.1728862,1 16.5522395,2.11111112 C17.9315928,3.22222223 20.8052454,1.22222222 20.8052454,1.22222222 C20.8052454,1.22222222 21.2650299,3.66666667 19.7707305,4.77777778 C19.7707305,4.77777778 21.0351377,5.33333333 21.0351377,6.22222222 C21.0351377,7.11111111 19.8856766,7.44444444 19.8856766,7.44444444 C19.8856766,7.44444444 21.6098682,8.88888889 20.0006227,10.5555556 C20.0006227,11.3333333 20.0006227,9.66666667 17.9315928,9.66666667 C15.8625628,9.66666667 13.908479,10.4444444 12.873964,12.7777778 C11.8394491,15.1111111 13.6785868,17.3333333 13.6785868,17.3333333 L12.1842874,18.7777778 C12.1842874,18.7777778 11.724503,19.2222222 11.3796646,19.2222222 C11.0348263,19.2222222 10.3451497,18.7777778 10.3451497,18.7777778 C10.3451497,18.7777778 8.73590417,17.5555556 8.96579638,17.2222222 C9.1956886,16.8888889 11.0348263,14.1111111 10.0003113,12.6666667 C8.96579638,11.2222222 7.24339356,9.33333333 3.21849101,9.33333333 C0.34483836,9.33333333 1.83913772,5.66666667 1.83913772,5.66666667 C1.83913772,5.66666667 -0.804622738,5 0.91956886,3.22222222 C1.03451499,3.11111111 -0.829866136,2.15991327 0.229892215,0.111111111 C0.459784452,-0.333333333 2.06902998,2.33333333 4.48289819,2.22222222 C6.8967664,2.11111111 8.27611979,2.22222216 8.73590417,2.66666667"></path>
    </defs>
    <g id="Kurz" stroke="none" stroke-width="1" fill="none" fill-rule="evenodd" sketch:type="MSPage">
        <g id="Video" sketch:type="MSArtboardGroup" transform="translate(-1208.000000, -1752.000000)">
            <g id="footer-2" sketch:type="MSLayerGroup" transform="translate(0.000000, 1327.000000)">
                <g id="ents" transform="translate(1061.000000, 418.000000)">
                    <g id="favicon-32" transform="translate(148.000000, 8.000000)">
                        <g id="logo-5">
                            <g id="in-circle" transform="translate(0.000000, 3.333333)">
                                <mask id="mask-3" sketch:name="Oval 1" fill="white">
                                    <use xlink:href="#path-2"></use>
                                </mask>
                                <g id="Oval-1">
                                    <use stroke="#3F5158" stroke-width="0.693333308" fill="url(#linearGradient-1)" sketch:type="MSShapeGroup" xlink:href="#path-2"></use>
                                    <use stroke="none" fill-opacity="0.02" fill="none" xlink:href="#path-2"></use>
                                </g>
                                <g id="Path-86">
                                    <use fill="url(#linearGradient-4)" sketch:type="MSShapeGroup" mask="url(#mask-3)" xlink:href="#path-5"></use>
                                    <use fill-opacity="0.00999999978" fill="none" xlink:href="#path-5"></use>
                                </g>
                                <g id="face" mask="url(#mask-3)">
                                    <g transform="translate(7.356551, 6.000000)">
                                        <mask id="mask-7" sketch:name="face" fill="white">
                                            <use xlink:href="#path-6"></use>
                                        </mask>
                                        <use id="face" stroke="#3F5158" stroke-width="0.693333308" fill="#A6937C" fill-rule="evenodd" sketch:type="MSShapeGroup" xlink:href="#path-6"></use>
                                        <path d="M9.1956886,5.33333333 C9.1956886,5.33333333 10.0003113,1.33333333 14.7131018,1.66666667 C14.942994,1.66666667 14.8280479,0.333333333 14.8280479,0.333333333 L10.5750419,0.333333333 L8.50601195,4.33333333 L9.1956886,5.33333333 Z" id="shadow-under-eyebrow" stroke="none" fill="#91816D" fill-rule="evenodd" sketch:type="MSShapeGroup" mask="url(#mask-7)"></path>
                                        <path d="M6.43698202,5.33333333 C6.43698202,5.33333333 6.43698202,1.44444444 -0.344838322,2 C-7.12665866,2.55555556 -0.229892215,-0.222222222 -0.229892215,-0.222222222 L5.28752094,0.333333333 L6.55192813,3 L7.35655088,4.33333333 L6.43698202,5.33333333 Z" id="shadow-under-eyebrow" stroke="none" fill="#91816D" fill-rule="evenodd" sketch:type="MSShapeGroup" mask="url(#mask-7)"></path>
                                        <path d="M10.7363883,3.78142077 L10.464314,4.30601093 C10.464314,4.30601093 11.1444997,4.69945355 12.0967596,4.69945355 C13.0490196,4.69945355 13.8652424,4.17486339 13.8652424,4.17486339 L13.5931681,3.78142077 C13.5931681,3.78142077 12.9129824,4.04371585 12.2327968,4.04371585 C11.5526111,4.04371585 10.7363883,3.78142077 10.7363883,3.78142077 Z" id="Path-141" stroke="none" fill="#3F5258" fill-rule="evenodd" sketch:type="MSShapeGroup" mask="url(#mask-7)"></path>
                                        <path d="M1.89397439,4.04371585 L1.62190012,4.56830601 C1.62190012,4.56830601 2.3020858,5.22404372 3.11830862,5.22404372 C3.93453144,5.22404372 4.75075426,4.56830601 4.75075426,4.56830601 L4.61471712,4.17486339 C4.61471712,4.17486339 4.07056858,4.43715847 3.39038289,4.43715847 C2.71019721,4.43715847 1.89397439,4.04371585 1.89397439,4.04371585 Z" id="Path-142" stroke="none" fill="#3F5258" fill-rule="evenodd" sketch:type="MSShapeGroup" mask="url(#mask-7)"></path>
                                    </g>
                                </g>
                                <g id="beard" mask="url(#mask-3)">
                                    <g transform="translate(6.896766, 12.888889)">
                                        <mask id="mask-9" sketch:name="beard" fill="white">
                                            <use xlink:href="#path-8"></use>
                                        </mask>
                                        <use id="beard" stroke="#3F5158" stroke-width="0.693333308" fill="#E5DDD4" fill-rule="evenodd" sketch:type="MSShapeGroup" xlink:href="#path-8"></use>
                                        <path d="M4.66639014,1.08925319 L3.30601878,5.15482696 L3.44205592,14.9908925 L0.449238915,13.9417122 L0.313201779,5.02367942 L2.35375882,2.66302368 L4.66639014,1.08925319 Z" id="Path-140" stroke="none" fill="#D9D1C8" fill-rule="evenodd" sketch:type="MSShapeGroup" mask="url(#mask-9)"></path>
                                    </g>
                                </g>
                                <path d="M13.1038563,18 L12.9889101,18.6666667 L17.2419161,18.8888889 L17.12697,18.1111111 L13.1038563,18 Z" id="mouth" fill="#3F5258" sketch:type="MSShapeGroup" mask="url(#mask-3)"></path>
                                <path d="M21.1417669,21 C21.1417669,21 21.1417669,23.0833333 21.1417669,23.0833333 C21.1417669,23.0833333 21.4525633,24.4230761 21.4525633,24.4230761 L21.5670675,26.1388889 C21.5670675,26.1388889 21.5258452,27.2292941 21.5052341,27.7744968 C21.4785896,28.4792941 21.4253006,29.8888889 21.4253006,29.8888889" id="Path-32" stroke="#3F5158" stroke-width="0.668" fill="#FFFFFF" sketch:type="MSShapeGroup" mask="url(#mask-3)"></path>
                            </g>
                            <path d="M10.1152575,1.88888889 C12.3162398,1.50206161 14.7131018,0.444444465 17.7017005,1.88888887 C20.6902993,3.33333327 18.161485,3.44444444 18.161485,3.44444444 L10.1152575,3.22222222" id="top-of-head-2" fill="#A8957D" sketch:type="MSShapeGroup"></path>
                            <g id="forehead" transform="translate(3.678275, 0.000000)">
                                <mask id="mask-12" sketch:name="forehead" fill="white">
                                    <use xlink:href="#path-11"></use>
                                </mask>
                                <use stroke="#3F5158" stroke-width="0.693333308" fill="url(#linearGradient-10)" sketch:type="MSShapeGroup" xlink:href="#path-11"></use>
                                <path d="M-2.87365269,0.666666667 L-0.91956886,10.4444444 C-0.91956886,10.4444444 3.90816765,14.765432 3.90816765,10.4444442 C3.90816765,9.07608398 3.77114876,7.23915038 4.11004192,6.17993649 C5.05762873,2.55555558 1.14946107,3.44444446 1.14946107,1.11111111 C1.14946107,0.333333362 -2.87365269,0.666666667 -2.87365269,0.666666667 Z" id="Path-17" fill="#91816D" sketch:type="MSShapeGroup" mask="url(#mask-12)"></path>
                                <path d="M20.345461,2 L18.3913772,4.11111111 L17.5867544,5.77777778 C17.5867544,5.77777778 17.5867545,8.88888889 17.5867544,10 C17.5867544,11.1111111 17.8166467,12.7777778 17.8166467,12.7777778 C17.8166467,12.7777778 18.8778328,12.2529602 19.2934798,11.6572181 C19.9889785,10.6603676 21.1500838,8 21.1500838,8 L22.2995448,3.77777778 L20.345461,2 Z" id="Path-18" fill="#91816D" sketch:type="MSShapeGroup" mask="url(#mask-12)"></path>
                            </g>
                            <path d="M9.88536524,1.77777778 C9.88536524,1.77777778 12.4141796,1.38095241 12.4141796,2.93650797 C12.4141796,3.37842043 13.7426379,4.83367878 15.56467,4.42179096 C17.2376787,4.0435913 18.9391756,3.45621718 19.3109461,2.93650797 C19.9595099,2.02986092 14.8280479,1.44444444 14.8280479,1.44444444 L9.88536524,1.77777778 Z" id="Path-19" fill="#91816D" sketch:type="MSShapeGroup" transform="translate(14.598156, 3.000000) scale(-1, 1) translate(-14.598156, -3.000000) "></path>
                            <g id="bugged-2" transform="translate(8.965796, 6.222222)" stroke="#3F5158" stroke-width="0.693333308" sketch:type="MSShapeGroup">
                                <path d="M6.43698202,4.77777778 C6.43698202,4.77777778 5.97719759,2 8.73590417,2 C11.4946107,2 11.0348263,0 11.0348263,0" id="Path-10"></path>
                                <path d="M5.28752094,4.66666667 C5.28752094,4.66666667 5.86225148,2.11111111 2.41386826,2.11111111 C-1.03451497,2.11111111 0.114946107,0 0.114946107,0" id="Path-11"></path>
                            </g>
                            <path d="M23.9087904,7.88888889 L22.5294371,7.22222222" id="Path-21" stroke="#3F5158" stroke-width="0.666666667" sketch:type="MSShapeGroup"></path>
                            <path d="M3.8206384,2.91764656 C3.8206384,2.91764656 3.61289668,2.70653748 4.48873706,3.16563423 C5.36457743,3.62473098 5.60311262,4.35817143 6.90851653,4.35817143" id="Path-20" stroke="#3F5158" stroke-width="0.666666667" sketch:type="MSShapeGroup" transform="translate(5.299271, 3.580394) rotate(15.000000) translate(-5.299271, -3.580394) "></path>
                            <path d="M10.7469338,2.09836066 C13.6717322,2.09836065 13.6037136,1.36899191 16.5965306,1.60252874" id="Path-164" stroke="#3F5258" stroke-width="0.693333333" sketch:type="MSShapeGroup" transform="translate(13.671732, 1.827385) rotate(1.000000) translate(-13.671732, -1.827385) "></path>
                        </g>
                    </g>
                </g>
            </g>
        </g>
    </g>
</svg>