<?xml version="1.0" encoding="UTF-8" standalone="no"?>
<svg width="894px" height="321px" viewBox="0 0 894 321" version="1.1" xmlns="http://www.w3.org/2000/svg" xmlns:xlink="http://www.w3.org/1999/xlink" xmlns:sketch="http://www.bohemiancoding.com/sketch/ns">
    <!-- Generator: Sketch 3.1 (8751) - http://www.bohemiancoding.com/sketch -->
    <title>images</title>
    <desc>Created with Sketch.</desc>
    <defs></defs>
    <g id="Error" stroke="none" stroke-width="1" fill="none" fill-rule="evenodd" sketch:type="MSPage">
        <g id="error-404" sketch:type="MSArtboardGroup" transform="translate(-225.000000, -112.000000)">
            <g id="images" sketch:type="MSLayerGroup" transform="translate(225.000000, 112.000000)">
                <path d="M136.2825,287.566176 L160.0325,287.566176 L160.0325,318.448529 L136.2825,318.448529 L136.2825,287.566176 Z M133.7825,320.919118 L162.5325,320.919118 L162.5325,285.095588 L133.7825,285.095588 L133.7825,320.919118 Z M143,282.470588 L165.0325,282.470588 L165.0325,301.192706 L167.5325,301.192706 L167.5325,280 L143,280 L143,282.470588 Z M146.9075,298.459 L141.2825,298.459 L141.2825,292.900176 L146.9075,292.900176 L146.9075,298.459 Z M149.4075,290.429588 L138.7825,290.429588 L138.7825,300.929588 L149.4075,300.929588 L149.4075,290.429588 Z M151.7525,292.900176 L157.685,292.900176 L157.685,290.429588 L151.7525,290.429588 L151.7525,292.900176 Z M151.7525,296.917353 L157.685,296.917353 L157.685,294.446765 L151.7525,294.446765 L151.7525,296.917353 Z M151.7525,301.235941 L157.685,301.235941 L157.685,298.765353 L151.7525,298.765353 L151.7525,301.235941 Z M138.625,306.404412 L157.6875,306.404412 L157.6875,303.933824 L138.625,303.933824 L138.625,306.404412 Z M138.625,310.947824 L157.6875,310.947824 L157.6875,308.477235 L138.625,308.477235 L138.625,310.947824 Z M138.625,315.204647 L157.6875,315.204647 L157.6875,312.734059 L138.625,312.734059 L138.625,315.204647 Z" id="history" fill="#D04613" sketch:type="MSShapeGroup"></path>
                <path d="M807.775385,88.1 C809.985231,88.1 811.781538,89.8514 811.781538,92.006 L811.781538,100.1981 L803.769231,100.1981 L803.769231,92.006 C803.769231,89.8514 805.565538,88.1 807.775385,88.1 M807.775385,108.9362 C805.565538,108.9362 803.769231,107.1827 803.769231,105.0302 L803.769231,102.2981 L811.781538,102.2981 L811.781538,105.0302 C811.781538,107.1827 809.985231,108.9362 807.775385,108.9362 M807.775385,111.0362 C811.172,111.0362 813.935385,108.3419 813.935385,105.0302 L813.935385,92.006 C813.935385,88.6943 811.172,86 807.775385,86 C804.378769,86 801.615385,88.6943 801.615385,92.006 L801.615385,105.0302 C801.615385,108.3419 804.378769,111.0362 807.775385,111.0362 M807.777538,125.16899 C800.439385,125.16899 796.067077,123.75359 795.683692,123.11099 C796.067077,122.31929 800.439385,120.90389 807.777538,120.90389 C815.115692,120.90389 819.488,122.31929 819.871385,122.96189 C819.488,123.75359 815.115692,125.16899 807.777538,125.16899 M808.746769,118.81439 L808.746769,114.21119 C813.474462,113.74079 817.189846,109.87889 817.189846,105.14759 L817.189846,102.06059 L818.740615,102.06059 L818.740615,99.96059 L815.036,99.96059 L815.036,105.14759 C815.036,109.03889 811.790154,112.20359 807.799077,112.20359 C805.862769,112.20359 804.047077,111.47069 802.681538,110.13929 C801.316,108.80579 800.562154,107.03339 800.562154,105.14759 L800.562154,100.35959 L796.814462,100.35959 L796.814462,102.45959 L798.408308,102.45959 L798.408308,105.14759 C798.408308,107.59409 799.386154,109.89569 801.158769,111.62399 C802.640615,113.07089 804.542462,113.93399 806.592923,114.18809 L806.592923,118.81859 C801.257846,118.94459 793.542769,119.93159 793.542769,123.03539 C793.542769,126.37859 802.489846,127.26899 807.777538,127.26899 C813.065231,127.26899 822.012308,126.37859 822.012308,123.03539 C822.012308,119.89169 814.088308,118.91729 808.746769,118.81439" id="ZSV" fill="#97205E" sketch:type="MSShapeGroup"></path>
                <path d="M892.0414,237.75284 C889.299702,239.288548 886.357297,240.30541 883.272643,240.782597 L883.272643,222.022723 L887.657021,222.022723 L887.657021,220.129125 L883.272643,220.129125 L883.272643,218.267719 L885.994855,218.267719 L885.994855,216.374121 L883.272643,216.374121 L883.272643,214.527863 L885.951985,214.527863 L885.951985,212.634265 L883.272643,212.634265 L883.272643,210.799369 L887.657021,210.799369 L887.657021,208.905771 L883.272643,208.905771 L883.272643,207.246979 L885.891578,207.246979 L885.891578,205.353381 L883.272643,205.353381 L883.272643,202.893598 L892.0414,202.893598 L892.0414,237.75284 Z M875.478192,240.846979 C874.75136,240.742831 874.030373,240.597024 873.315232,240.432281 L873.315232,220.63661 L875.478192,220.63661 L875.478192,240.846979 Z M862.948613,220.63661 L864.846561,220.63661 L864.846561,236.804148 C864.193776,236.370514 863.55658,235.914157 862.948613,235.419928 L862.948613,220.63661 Z M869.225094,210.060866 L870.914541,212.738413 C869.854496,213.071686 868.654151,213.07358 867.539544,212.727051 L869.225094,210.060866 Z M863.731955,218.743012 L866.475602,214.406673 C867.344683,214.745627 868.281966,214.923625 869.225094,214.923625 C870.189657,214.923625 871.124991,214.74752 871.972638,214.41046 L874.706542,218.743012 L863.731955,218.743012 Z M866.795174,220.63661 L871.366619,220.63661 L871.366619,239.888819 C869.772654,239.390803 868.239096,238.746979 866.795174,237.961136 L866.795174,220.63661 Z M893.015706,201 L882.298336,201 C881.760519,201 881.32403,201.424166 881.32403,201.946799 L881.32403,241.013616 C880.022357,241.121551 878.718735,241.134806 877.426805,241.051488 L877.426805,219.689811 C877.426805,219.511812 877.362501,219.35275 877.272864,219.21073 L877.284556,219.203156 L870.055203,207.758251 C869.877879,207.477998 869.564153,207.305681 869.225094,207.305681 C868.886035,207.305681 868.572309,207.477998 868.394985,207.758251 L861.151992,219.203156 L861.155889,219.206943 C861.066253,219.350857 861,219.509919 861,219.689811 L861,235.861136 C861,236.162218 861.148095,236.434896 861.381928,236.609107 C862.607605,237.643012 863.936559,238.567087 865.327869,239.349143 C868.652202,241.254103 872.467586,242.469793 876.364811,242.865555 C877.274813,242.954554 878.19261,243 879.110406,243 C880.21527,243 881.320133,242.933724 882.421099,242.806853 C886.333913,242.365645 890.051866,241.131019 893.465836,239.133273 C893.641211,239.046168 893.789305,238.906041 893.886736,238.728043 C893.984167,238.548151 894.019242,238.34743 893.990013,238.154283 L893.990013,201.946799 C893.990013,201.424166 893.553523,201 893.015706,201 L893.015706,201 Z" id="umění" fill="#5E4EC5" sketch:type="MSShapeGroup"></path>
                <path d="M9.50422613,197.139354 C5.48704448,197.139354 2.21698767,193.799284 2.21698767,189.701137 C2.21698767,185.5962 5.48704448,182.26292 9.50422613,182.26292 C13.5214078,182.26292 16.7914646,185.5962 16.7914646,189.701137 C16.7914646,193.799284 13.5214078,197.139354 9.50422613,197.139354 M9.50422613,180 C4.26326729,180 0,184.351595 0,189.701137 C0,195.048416 4.26326729,199.402273 9.50422613,199.402273 C14.745185,199.402273 19.0084523,195.048416 19.0084523,189.701137 C19.0084523,184.351595 14.745185,180 9.50422613,180 M30.4953305,197.139354 C26.4781488,197.139354 23.208092,193.799284 23.208092,189.701137 C23.208092,185.598463 26.4781488,182.265183 30.4953305,182.265183 C34.5125121,182.265183 37.7825689,185.598463 37.7825689,189.701137 C37.7825689,193.799284 34.5125121,197.139354 30.4953305,197.139354 M30.4953305,180.002263 C25.2543716,180.002263 20.9911043,184.353857 20.9911043,189.701137 C20.9911043,195.048416 25.2543716,199.402273 30.4953305,199.402273 C35.7362893,199.402273 39.9995566,195.048416 39.9995566,189.701137 C39.9995566,184.353857 35.7362893,180.002263 30.4953305,180.002263 M9.50422613,220.736401 C5.48704448,220.736401 2.21698767,217.396332 2.21698767,213.298184 C2.21698767,209.193248 5.48704448,205.859967 9.50422613,205.859967 C13.5214078,205.859967 16.7914646,209.193248 16.7914646,213.298184 C16.7914646,217.396332 13.5214078,220.736401 9.50422613,220.736401 M9.50422613,203.597048 C4.26326729,203.597048 0,207.948642 0,213.298184 C0,218.645464 4.26326729,222.999321 9.50422613,222.999321 C14.745185,222.999321 19.0084523,218.645464 19.0084523,213.298184 C19.0084523,207.948642 14.745185,203.597048 9.50422613,203.597048 M30.4953305,220.687749 C26.4781488,220.687749 23.208092,217.347679 23.208092,213.249532 C23.208092,209.146858 26.4781488,205.813578 30.4953305,205.813578 C34.5125121,205.813578 37.7825689,209.146858 37.7825689,213.249532 C37.7825689,217.347679 34.5125121,220.687749 30.4953305,220.687749 M30.4953305,203.550658 C25.2543716,203.550658 20.9911043,207.902252 20.9911043,213.249532 C20.9911043,218.596811 25.2543716,222.950668 30.4953305,222.950668 C35.7362893,222.950668 39.9995566,218.596811 39.9995566,213.249532 C39.9995566,207.902252 35.7362893,203.550658 30.4953305,203.550658 Z M12.2018567,188.746185 L10.6854372,188.746185 L10.6854372,187.198348 C10.6854372,186.530786 10.1577941,185.992211 9.50378274,185.992211 C8.85198836,185.992211 8.32212831,186.530786 8.32212831,187.198348 L8.32212831,188.746185 L6.80570874,188.746185 C6.15169738,188.746185 5.62405432,189.284759 5.62405432,189.952321 C5.62405432,190.619882 6.15169738,191.158457 6.80570874,191.158457 L8.32212831,191.158457 L8.32212831,192.706294 C8.32212831,193.376118 8.85198836,193.91243 9.50378274,193.91243 C10.1577941,193.91243 10.6854372,193.376118 10.6854372,192.706294 L10.6854372,191.158457 L12.2018567,191.158457 C12.8558681,191.158457 13.3835112,190.619882 13.3835112,189.952321 C13.3835112,189.284759 12.8558681,188.746185 12.2018567,188.746185 Z M33.1929611,188.746185 L27.7968131,188.746185 C27.1428017,188.746185 26.6151587,189.284759 26.6151587,189.952321 C26.6151587,190.619882 27.1428017,191.158457 27.7968131,191.158457 L33.1929611,191.158457 C33.8469724,191.158457 34.3746155,190.619882 34.3746155,189.952321 C34.3746155,189.284759 33.8469724,188.746185 33.1929611,188.746185 Z M10.575918,211.008562 L6.76048219,214.90531 C6.29713177,215.375997 6.29713177,216.138601 6.76048219,216.611551 C7.22383262,217.082239 7.97095746,217.082239 8.4320909,216.611551 L12.2475267,212.717067 C12.7086601,212.244116 12.7086601,211.47925 12.2475267,211.008562 C11.7841763,210.535612 11.0370514,210.535612 10.575918,211.008562 Z M7.67809339,212.696927 C8.37644451,212.696927 8.94399335,212.119882 8.94399335,211.409325 C8.94399335,210.694243 8.37644451,210.114935 7.67809339,210.114935 C6.97974228,210.114935 6.41441042,210.694243 6.41441042,211.409325 C6.41441042,212.119882 6.97974228,212.696927 7.67809339,212.696927 Z M11.3283636,214.769761 C10.6300125,214.769761 10.0646806,215.349069 10.0646806,216.057362 C10.0646806,216.774708 10.6300125,217.351752 11.3283636,217.351752 C12.0267147,217.351752 12.5942635,216.774708 12.5942635,216.057362 C12.5942635,215.349069 12.0267147,214.769761 11.3283636,214.769761 Z M33.2395178,209.959782 C32.7783844,209.486832 32.0312595,209.486832 31.5679091,209.959782 L30.4948871,211.055035 L29.424082,209.959782 C28.9629486,209.486832 28.2158237,209.486832 27.7524733,209.959782 C27.2913399,210.430469 27.2913399,211.195336 27.7524733,211.668286 L28.8232784,212.761276 L27.7524733,213.856529 C27.2891229,214.327217 27.2891229,215.089821 27.7524733,215.562771 C28.2158237,216.033458 28.9629486,216.033458 29.424082,215.562771 L30.4948871,214.467518 L31.5679091,215.562771 C32.0312595,216.033458 32.7783844,216.033458 33.2395178,215.562771 C33.7006512,215.089821 33.7006512,214.327217 33.2395178,213.856529 L32.1664958,212.761276 L33.2395178,211.668286 C33.7006512,211.195336 33.7006512,210.430469 33.2395178,209.959782 Z" id="math" fill="#0A82CC" sketch:type="MSShapeGroup"></path>
                <path d="M123.40165,134.888 C122.724767,136.351368 120.565708,137.189158 117.47512,137.189158 C116.785179,137.189158 116.025591,137.098526 115.274708,137.018947 C115.509767,135.955684 115.710002,134.846 115.862355,133.685474 C117.960473,132.051895 119.753885,130.338737 121.186002,128.627789 C123.262355,131.119053 124.085061,133.409158 123.40165,134.888 M106.906179,146.223579 C105.656885,146.223579 104.357532,145.184632 103.210532,143.334421 L103.201826,142.410421 L103.201826,143.318947 C102.777414,142.635895 102.376944,141.840105 102.00912,140.942632 C104.30965,140.270632 106.734238,139.280316 109.145767,138.011474 C110.29712,138.356316 111.433238,138.648105 112.536708,138.866947 C111.126355,143.449368 108.947708,146.223579 106.906179,146.223579 M95.8671201,139.744526 C93.5970613,139.744526 91.9777672,139.123368 91.3052378,137.993789 C90.3127672,136.322632 91.3204731,133.283158 94.0475907,129.936421 C95.1837084,130.909053 96.4504142,131.857368 97.8455319,132.765895 C98.1088848,135.175368 98.5463554,137.416842 99.1448848,139.397474 C97.9804731,139.625158 96.8770025,139.744526 95.8671201,139.744526 M90.4107084,119.164526 C91.0854142,117.701158 93.2466495,116.861158 96.3372378,116.861158 C97.1316495,116.861158 97.9957084,116.951789 98.8684731,117.057895 C98.3635319,118.961158 97.984826,121.058947 97.7715319,123.313684 C96.3241789,124.454316 95.0226495,125.630316 93.8887084,126.819579 C90.8830025,123.802211 89.6010613,120.915263 90.4107084,119.164526 M106.906179,109.210526 C108.828002,109.210526 110.873885,111.662 112.284238,115.771368 C110.923944,116.144947 109.513591,116.637895 108.08365,117.234737 C105.924591,116.377053 103.765532,115.711684 101.708767,115.276211 C103.110414,111.471895 105.064885,109.210526 106.906179,109.210526 M116.097414,124.034316 C117.470767,125.015789 118.672179,126.017158 119.688591,127.011895 C118.720061,128.190105 117.531708,129.403684 116.14965,130.608421 C116.206238,129.662316 116.245414,128.702947 116.245414,127.717053 C116.245414,126.454842 116.188826,125.228 116.097414,124.034316 M110.96312,118.483684 C111.620414,118.253789 112.271179,118.052632 112.906708,117.878 C113.056885,118.463789 113.196179,119.071684 113.320238,119.703895 C112.558473,119.283895 111.77712,118.872737 110.96312,118.483684 M100.178708,121.540842 C100.392002,120.059789 100.679297,118.684842 101.023179,117.429263 C102.38565,117.705579 103.787297,118.079158 105.22812,118.563263 C104.172532,119.100421 103.11912,119.670737 102.078767,120.307368 C101.425826,120.707474 100.792473,121.120842 100.178708,121.540842 M97.6191789,129.949684 C96.8595907,129.405895 96.1609436,128.853263 95.5123554,128.298421 C96.1457084,127.637474 96.837826,126.972105 97.5974142,126.311158 C97.5821789,126.777579 97.5647672,127.241789 97.5647672,127.717053 C97.5647672,128.473053 97.5843554,129.218 97.6191789,129.949684 M106.209708,137.007895 C104.52512,137.786 102.862297,138.413789 101.273473,138.869158 C100.844708,137.472105 100.487767,135.907053 100.226591,134.198316 C101.099355,134.686842 101.996061,135.164316 102.938473,135.615263 C104.020179,136.130316 105.11712,136.590105 106.209708,137.007895 M113.36812,135.498105 C113.289767,135.904842 113.209238,136.304947 113.122179,136.689579 C112.719532,136.614421 112.319061,136.537053 111.907708,136.439789 C112.403944,136.130316 112.891473,135.818632 113.36812,135.498105 M110.608355,134.658105 C110.064238,134.991895 109.515767,135.303579 108.96512,135.608632 C107.274002,135.060421 105.563297,134.423789 103.861297,133.612526 C102.437885,132.933895 101.12112,132.206632 99.8979436,131.455053 C99.797826,130.261368 99.7412378,129.014632 99.7412378,127.717053 C99.7412378,126.594105 99.7912966,125.515368 99.8674731,124.467579 C100.89912,123.693895 102.00912,122.933474 103.204002,122.201789 C104.814591,121.213684 106.451297,120.367053 108.070591,119.644211 C108.697414,119.909474 109.326414,120.141579 109.948885,120.437789 C111.313532,121.089895 112.578061,121.781789 113.757708,122.500211 C113.953591,124.133789 114.068944,125.873474 114.068944,127.717053 C114.068944,129.399263 113.971002,130.990842 113.805591,132.500632 C112.815297,133.236737 111.748826,133.961789 110.608355,134.658105 M117.947414,117.115368 C120.215297,117.115368 121.834591,117.738737 122.504944,118.866105 C123.32765,120.249895 122.76612,122.577579 121.003179,125.234632 C119.540591,123.830947 117.784179,122.456 115.781826,121.169474 C115.58812,119.847579 115.337826,118.589789 115.037473,117.407158 C116.064767,117.223684 117.046355,117.115368 117.947414,117.115368 M124.370179,117.725474 C123.273238,115.879684 121.051061,114.904842 117.947414,114.904842 C116.850473,114.904842 115.659944,115.030842 114.408473,115.269579 C112.719532,110.227368 110.016355,107 106.906179,107 C103.872179,107 101.227767,110.063789 99.5322966,114.889368 C98.4179436,114.734632 97.3449436,114.650632 96.3372378,114.650632 C92.3085907,114.650632 89.5052966,115.919474 88.4410025,118.225053 C87.1394731,121.039053 88.7914142,124.816842 92.4391789,128.455368 C89.1331201,132.489579 87.8511789,136.455263 89.4421789,139.134421 C90.5391201,140.980211 92.7591201,141.955053 95.8671201,141.955053 C97.0990025,141.955053 98.4571201,141.782632 99.8827084,141.482 C101.582532,145.759368 104.074591,148.434105 106.906179,148.434105 C110.210061,148.434105 113.063414,144.804421 114.717532,139.209579 C115.673002,139.326737 116.602355,139.399684 117.47512,139.399684 C121.501591,139.399684 124.307061,138.130842 125.371355,135.827474 C126.522708,133.336211 125.360473,130.091158 122.55065,126.852737 C124.962179,123.371158 125.756591,120.059789 124.370179,117.725474 M106.967555,129.7556 C105.866261,129.7556 104.971732,128.847074 104.971732,127.728547 C104.971732,126.612232 105.866261,125.703705 106.967555,125.703705 C108.066673,125.703705 108.963379,126.612232 108.963379,127.728547 C108.963379,128.847074 108.066673,129.7556 106.967555,129.7556 M106.967555,123.493179 C104.667026,123.493179 102.795261,125.392021 102.795261,127.728547 C102.795261,130.065074 104.667026,131.966126 106.967555,131.966126 C109.268085,131.966126 111.13985,130.065074 111.13985,127.728547 C111.13985,125.392021 109.268085,123.493179 106.967555,123.493179" id="physics" fill="#3DBCB2" sketch:type="MSShapeGroup"></path>
                <path d="M99.5795331,52.6522 C99.5398058,52.711 99.4059876,52.7698 99.190624,52.7698 L82.4968058,52.7698 C82.2835331,52.7698 82.1518058,52.7131 82.1141694,52.6585 C82.0765331,52.6039 82.0744421,52.459 82.1538967,52.2616 L85.160624,44.7394 L96.6208967,44.7394 L99.5460785,52.2469 C99.6234421,52.4464 99.6192603,52.5955 99.5795331,52.6522 L99.5795331,52.6522 Z M86.7748058,29.8 L95.4039876,29.8 C96.0354421,29.8 96.5665331,30.2473 96.5665331,30.7765 C96.5665331,31.3015 96.0521694,31.7278 95.3057149,31.7341 L94.2017149,31.7341 L94.2017149,36.2302 C94.2017149,37.5175 94.5697149,39.4663 95.0359876,40.6675 L95.8033512,42.6394 L85.9990785,42.6394 L86.8772603,40.447 C87.3560785,39.2479 87.7303512,37.297 87.7303512,36.0055 L87.7303512,31.7341 L86.7643512,31.7341 C86.1308058,31.7278 85.6164421,31.3015 85.6164421,30.7765 C85.6164421,30.2473 86.1475331,29.8 86.7748058,29.8 L86.7748058,29.8 Z M96.982624,39.9031 C96.6083512,38.9413 96.292624,37.2592 96.292624,36.2302 L96.292624,33.706 C97.6538058,33.3385 98.6574421,32.173 98.6574421,30.7765 C98.6574421,29.0797 97.1979876,27.7 95.4039876,27.7 L86.7748058,27.7 C84.9828967,27.7 83.5255331,29.0797 83.5255331,30.7765 C83.5255331,32.0869 84.4078967,33.1978 85.6394421,33.6325 L85.6394421,36.0055 C85.6394421,37.0345 85.3174421,38.7103 84.9368967,39.6637 L80.2135331,51.4783 C79.8789876,52.3183 79.939624,53.1772 80.3808058,53.8345 C80.8240785,54.4918 81.595624,54.8698 82.4968058,54.8698 L99.190624,54.8698 C100.089715,54.8698 100.86126,54.4918 101.306624,53.8366 C101.754079,53.1814 101.820988,52.3225 101.494806,51.4804 L96.982624,39.9031 Z M83.7699603,18.2647 C84.0334149,18.2647 84.2487785,18.481 84.2487785,18.7456 C84.2508694,19.2748 83.2932331,19.2769 83.2911421,18.7456 C83.2911421,18.481 83.5065058,18.2647 83.7699603,18.2647 M83.7699603,21.3265 C85.1875967,21.3265 86.3396876,20.1673 86.3396876,18.7456 C86.3396876,17.3218 85.1875967,16.1647 83.7699603,16.1647 C82.3544149,16.1647 81.2002331,17.3218 81.2002331,18.7456 C81.2002331,20.1673 82.3544149,21.3265 83.7699603,21.3265 M91.3536876,25.04875 C92.5538694,25.04875 93.530324,24.06595 93.530324,22.85845 C93.530324,21.65305 92.5538694,20.67235 91.3536876,20.67235 C90.1514149,20.67235 89.1728694,21.65305 89.1728694,22.85845 C89.1728694,24.06595 90.1514149,25.04875 91.3536876,25.04875 M98.7023967,19.36804 C97.5273058,19.36804 96.5675785,18.40624 96.5675785,17.22394 C96.5675785,16.04374 97.5273058,15.08194 98.7023967,15.08194 C99.8774876,15.08194 100.837215,16.04374 100.837215,17.22394 C100.837215,18.40624 99.8774876,19.36804 98.7023967,19.36804 M98.7023967,12.98194 C96.373124,12.98194 94.4766694,14.88454 94.4766694,17.22394 C94.4766694,19.56544 96.373124,21.46804 98.7023967,21.46804 C101.031669,21.46804 102.928124,19.56544 102.928124,17.22394 C102.928124,14.88454 101.031669,12.98194 98.7023967,12.98194" id="chemistry" fill="#EC9405" sketch:type="MSShapeGroup"></path>
                <path d="M747.185625,290.0473 L747.185625,290.0473 C745.88725,290.0473 745.1095,289.9423 744.6505,289.8352 C744.56975,289.7491 744.482625,289.6651 744.39125,289.5853 C744.3955,289.5811 744.397625,289.579 744.39975,289.5748 C745.400625,288.5185 746.49925,289.1443 747.4215,290.0473 L747.185625,290.0473 M741.75625,294.85 C741.75625,295.7383 738.706875,297.4603 733.116,297.4729 C733.20525,297.0529 733.19675,296.5888 733.045875,296.0722 C733.0395,296.0554 733.03525,296.0386 733.028875,296.0218 C733.15,294.9718 733.390125,293.548 733.687625,292.2502 C738.90025,292.3783 741.75625,293.9953 741.75625,294.85 M733.062875,314.947 C727.580375,314.947 724.520375,313.3069 724.358875,312.3094 L724.358875,297.7711 C726.435,298.9618 729.756375,299.575 733.058625,299.575 C736.35875,299.575 739.680125,298.9618 741.75625,297.7711 L741.754125,312.322 C741.754125,313.2145 738.68775,314.947 733.062875,314.947 M728.30075,292.7227 C729.38875,293.9407 730.447,295.2847 730.878375,296.3053 C730.85075,296.719 730.84225,297.0781 730.855,297.3742 C726.641125,297.0004 724.358875,295.6165 724.358875,294.85 C724.358875,294.2578 725.740125,293.3044 728.30075,292.7227 M731.490375,292.2838 C731.433,292.54 731.379875,292.7983 731.328875,293.0545 C731.144,292.813 730.95275,292.5757 730.759375,292.3384 C730.99525,292.3174 731.24175,292.3006 731.490375,292.2838 M734.932875,280.5721 C736.244,282.6931 737.491375,285.4231 736.95375,286.45 C736.80075,286.7419 736.369375,286.891 735.672375,286.891 L735.67025,286.891 C735.50025,286.891 735.319625,286.8805 735.124125,286.8616 C733.9915,286.7545 733.300875,286.4227 733.06925,285.8767 C732.578375,284.7217 733.694,282.3907 734.932875,280.5721 M720.827125,286.2253 C721.213875,286.2127 721.638875,286.2043 722.07875,286.2043 C726.02275,286.2043 726.700625,286.8847 726.730375,286.849 C726.721875,286.8889 726.662375,287.1052 726.254375,287.5315 C725.655125,288.1636 725.0495,288.4681 724.4035,288.4681 C723.126375,288.4681 721.783375,287.3131 720.827125,286.2253 M745.51325,286.891 C744.529375,286.891 743.63475,287.311 742.8485,288.1384 C742.731625,288.2623 742.67425,288.3715 742.585,288.4891 C741.431125,287.9935 740.08175,287.6596 738.825875,287.4349 C738.830125,287.4286 738.8365,287.4223 738.84075,287.4139 C740.313375,284.5999 736.607375,279.1861 735.84875,278.1277 L735.039125,277 L734.15725,278.0731 C733.704625,278.6254 729.777625,283.5436 731.11,286.6873 C731.42875,287.4433 732.017375,287.9935 732.81,288.382 C732.53375,288.8797 732.280875,289.5097 732.051375,290.2153 C731.0505,290.251 730.06025,290.3413 729.11675,290.4841 C728.57275,289.9108 728.0755,289.4152 727.70575,289.0582 C727.737625,289.0267 727.771625,289.0036 727.8035,288.9721 C728.783125,287.941 729.084875,286.9687 728.696,286.0825 C728.098875,284.7133 726.05675,284.1043 722.07875,284.1043 C720.2725,284.1043 718.76375,284.2408 718.702125,284.245 L717,284.4025 L717.8925,285.841 C718.192125,286.324 720.924875,290.5681 724.4035,290.5681 C724.92625,290.5681 725.425625,290.4526 725.910125,290.2657 C726.13325,290.4757 726.38825,290.7235 726.679375,291.0112 C724.07625,291.7672 722.233875,293.044 722.233875,294.85 L722.225375,312.322 C722.225375,315.4237 727.678125,317.047 733.062875,317.047 C738.371125,317.047 743.741,315.4657 743.877,312.3262 L743.88125,295.5535 L743.772875,295.5535 C743.836625,295.3267 743.88125,295.0957 743.88125,294.85 C743.88125,291.9772 739.24025,290.4379 734.257125,290.2258 C734.44625,289.6966 734.643875,289.2913 734.839375,289.0897 L734.924375,289.096 C737.189625,289.2136 740.491875,289.7575 742.2025,290.6269 C742.731625,291.6748 744.270125,292.1473 747.185625,292.1473 C748.518,292.1473 749.64425,292.0444 749.64425,292.0444 L751.34,291.8869 L750.453875,290.4505 C750.228625,290.0872 748.180125,286.891 745.51325,286.891" id="přírodovědu" fill="#7EC22F" sketch:type="MSShapeGroup"></path>
                <path d="M757.0764,31.875 L719.1,31.875 L719.1,14.018625 L742.1517,14.018625 L744.825,14.018625 L757.0764,14.018625 L757.0764,31.875 Z M744.825,11.893625 L743.8674,11.893625 C743.6784,10.461375 743.6154,8.0835 744.6591,7.03375 C745.2597,6.428125 746.2677,6.28575 747.66,6.619375 C752.4417,7.758375 755.4237,6.154 756.5262,1.846625 C756.5556,1.734 756.5766,1.64475 756.5913,1.600125 C756.8118,1.05825 756.5577,0.43775 756.0222,0.2125 C755.4846,-0.01275 754.8693,0.2465 754.6509,0.788375 C754.6047,0.89675 754.5543,1.077375 754.4934,1.31325 C754.1238,2.76675 753.3552,5.797 748.1388,4.549625 C746.001,4.0375 744.3315,4.366875 743.1786,5.527125 C741.486,7.227125 741.5448,10.176625 741.7527,11.893625 L717,11.893625 L717,34 L759.1764,34 L759.1764,11.893625 L744.825,11.893625 Z M723.4995,16.2095 L721.2231,16.2095 L721.2231,18.3345 L723.4995,18.3345 L723.4995,16.2095 Z M726.9141,16.2095 L724.6377,16.2095 L724.6377,18.3345 L726.9141,18.3345 L726.9141,16.2095 Z M730.3287,16.2095 L728.0523,16.2095 L728.0523,18.3345 L730.3287,18.3345 L730.3287,16.2095 Z M734.1003,16.2095 L731.8239,16.2095 L731.8239,18.3345 L734.1003,18.3345 L734.1003,16.2095 Z M737.5128,16.2095 L735.2364,16.2095 L735.2364,18.3345 L737.5128,18.3345 L737.5128,16.2095 Z M740.9295,16.2095 L738.6531,16.2095 L738.6531,18.3345 L740.9295,18.3345 L740.9295,16.2095 Z M744.3441,16.2095 L742.0677,16.2095 L742.0677,18.3345 L744.3441,18.3345 L744.3441,16.2095 Z M747.8994,16.2095 L745.623,16.2095 L745.623,18.3345 L747.8994,18.3345 L747.8994,16.2095 Z M751.2447,16.2095 L748.9683,16.2095 L748.9683,18.3345 L751.2447,18.3345 L751.2447,16.2095 Z M754.8,16.2095 L752.5236,16.2095 L752.5236,18.3345 L754.8,18.3345 L754.8,16.2095 Z M721.3008,22.318875 L723.5772,22.318875 L723.5772,20.193875 L721.3008,20.193875 L721.3008,22.318875 Z M724.7154,22.318875 L726.9918,22.318875 L726.9918,20.193875 L724.7154,20.193875 L724.7154,22.318875 Z M728.13,22.318875 L730.4064,22.318875 L730.4064,20.193875 L728.13,20.193875 L728.13,22.318875 Z M731.9016,22.318875 L734.178,22.318875 L734.178,20.193875 L731.9016,20.193875 L731.9016,22.318875 Z M737.5926,20.193875 L735.3162,20.193875 L735.3162,22.318875 L737.5926,22.318875 L737.5926,20.193875 Z M741.0072,20.193875 L738.7308,20.193875 L738.7308,22.318875 L741.0072,22.318875 L741.0072,20.193875 Z M744.4218,20.193875 L742.1454,20.193875 L742.1454,22.318875 L744.4218,22.318875 L744.4218,20.193875 Z M745.7007,22.318875 L747.9771,22.318875 L747.9771,20.193875 L745.7007,20.193875 L745.7007,22.318875 Z M726.98928,26.0374125 L726.98928,23.9124125 L725.77548,23.9124125 L724.71288,23.9124125 L721.29828,23.9124125 L721.29828,26.0374125 L724.71288,26.0374125 L725.77548,26.0374125 L726.98928,26.0374125 Z M730.4043,23.912625 L728.1279,23.912625 L728.1279,26.037625 L730.4043,26.037625 L730.4043,23.912625 Z M734.1759,23.912625 L731.8995,23.912625 L731.8995,26.037625 L734.1759,26.037625 L734.1759,23.912625 Z M735.3141,26.037625 L737.5905,26.037625 L737.5905,23.912625 L735.3141,23.912625 L735.3141,26.037625 Z M738.7287,26.037625 L741.0051,26.037625 L741.0051,23.912625 L738.7287,23.912625 L738.7287,26.037625 Z M742.1433,26.037625 L744.4197,26.037625 L744.4197,23.912625 L742.1433,23.912625 L742.1433,26.037625 Z M747.975,23.912625 L745.6986,23.912625 L745.6986,26.037625 L747.975,26.037625 L747.975,23.912625 Z M721.3659,29.82225 L723.6423,29.82225 L723.6423,27.69725 L721.3659,27.69725 L721.3659,29.82225 Z M724.7805,29.82225 L727.0569,29.82225 L727.0569,27.69725 L724.7805,27.69725 L724.7805,29.82225 Z M728.1951,29.82225 L730.4715,29.82225 L730.4715,27.69725 L728.1951,27.69725 L728.1951,29.82225 Z M738.79569,27.697675 L737.65749,27.697675 L735.38109,27.697675 L734.24289,27.697675 L732.96189,27.697675 L731.96649,27.697675 L731.96649,29.822675 L732.96189,29.822675 L734.24289,29.822675 L735.38109,29.822675 L737.65749,29.822675 L738.79569,29.822675 L741.07209,29.822675 L744.48669,29.822675 L744.48669,27.697675 L741.07209,27.697675 L738.79569,27.697675 Z M745.7658,29.82225 L748.0422,29.82225 L748.0422,27.69725 L745.7658,27.69725 L745.7658,29.82225 Z M750.2493,27.697675 L749.1111,27.697675 L749.1111,29.822675 L750.2493,29.822675 L751.3875,29.822675 L754.9428,29.822675 L754.9428,27.697675 L751.3875,27.697675 L750.2493,27.697675 Z M749.0565,26.037625 L754.8315,26.037625 L754.8315,20.193875 L749.0565,20.193875 L749.0565,26.037625 Z" id="informatiku" fill="#C268C8" sketch:type="MSShapeGroup"></path>
            </g>
        </g>
    </g>
</svg>