<?xml version="1.0" encoding="utf-8"?>
<!-- Generator: Adobe Illustrator 16.0.3, SVG Export Plug-In . SVG Version: 6.00 Build 0)  -->
<!DOCTYPE svg PUBLIC "-//W3C//DTD SVG 1.1 Tiny//EN" "http://www.w3.org/Graphics/SVG/1.1/DTD/svg11-tiny.dtd">
<svg version="1.1" baseProfile="tiny" id="Vrstva_1"
	 xmlns="http://www.w3.org/2000/svg" xmlns:xlink="http://www.w3.org/1999/xlink" x="0px" y="0px" width="826.861px"
	 height="269.996px" viewBox="0 0 826.861 269.996" xml:space="preserve">
<g id="zDhtWc.tif" display="none">
	
		<image display="inline" width="882" height="288" id="Layer_0_1_" xlink:href="7E60776F27E23109.png"  transform="matrix(0.9375 0 0 0.9375 0 0)">
	</image>
</g>
<g>
	<path fill="#555759" d="M680.495,116.326c1.866,0,3.571-0.151,5.113-0.449c1.543-0.301,3.086-0.723,4.615-1.271v4.677
		c-1.244,0.612-2.774,1.084-4.591,1.445c-1.827,0.348-3.78,0.521-5.872,0.521c-2.473,0-4.801-0.312-6.979-0.944
		c-2.178-0.636-4.055-1.655-5.646-3.062c-1.58-1.404-2.824-3.244-3.731-5.521c-0.896-2.266-1.345-5.002-1.345-8.211
		c0-3.161,0.436-5.897,1.306-8.209c0.883-2.328,2.04-4.256,3.495-5.812c1.456-1.555,3.135-2.725,5.028-3.495
		c1.888-0.786,3.865-1.171,5.933-1.171c1.939,0,3.756,0.325,5.436,0.971c1.693,0.648,3.162,1.656,4.393,3.048
		c1.244,1.382,2.215,3.175,2.935,5.362c0.709,2.188,1.07,4.814,1.07,7.875c0,0.287,0,0.535,0,0.746s-0.013,0.673-0.036,1.406
		h-23.947c0,2.201,0.32,4.068,0.993,5.613c0.673,1.528,1.579,2.783,2.739,3.743c1.154,0.944,2.5,1.64,4.056,2.077
		C677.014,116.101,678.69,116.326,680.495,116.326 M677.547,89.675c-1.319,0-2.526,0.264-3.657,0.772
		c-1.12,0.509-2.102,1.194-2.935,2.077c-0.835,0.873-1.519,1.903-2.04,3.085c-0.512,1.171-0.833,2.429-0.96,3.771h17.765
		c0-1.369-0.174-2.639-0.533-3.807c-0.363-1.182-0.885-2.213-1.581-3.085c-0.683-0.884-1.529-1.569-2.55-2.065
		C680.048,89.925,678.878,89.675,677.547,89.675z M646.199,84.824c1.677,0,3.282,0.175,4.813,0.522
		c1.529,0.349,2.837,0.833,3.929,1.469v4.653c-1.529-0.572-2.935-1.008-4.229-1.295c-1.281-0.287-2.599-0.422-3.928-0.422
		c-1.418,0-2.812,0.234-4.195,0.696c-1.378,0.462-2.623,1.222-3.719,2.275c-1.096,1.06-1.979,2.452-2.637,4.194
		c-0.67,1.729-1.008,3.895-1.008,6.467c0,1.867,0.248,3.598,0.746,5.176c0.498,1.58,1.244,2.951,2.228,4.105
		c0.981,1.145,2.216,2.054,3.694,2.689c1.479,0.646,3.197,0.971,5.139,0.971c1.418,0,2.837-0.151,4.266-0.449
		c1.432-0.301,2.837-0.723,4.192-1.271v4.677c-0.411,0.251-0.958,0.485-1.616,0.736c-0.672,0.236-1.406,0.447-2.215,0.635
		c-0.797,0.174-1.643,0.321-2.55,0.436c-0.896,0.111-1.793,0.16-2.7,0.16c-2.324,0-4.529-0.348-6.606-1.057
		c-2.077-0.696-3.892-1.779-5.446-3.234c-1.557-1.467-2.789-3.31-3.684-5.548c-0.896-2.229-1.342-4.878-1.342-7.937
		c0-2.277,0.234-4.329,0.707-6.158c0.474-1.816,1.119-3.422,1.953-4.803c0.82-1.383,1.779-2.563,2.887-3.533
		c1.107-0.971,2.289-1.767,3.533-2.389c1.254-0.623,2.549-1.07,3.881-1.346C643.636,84.961,644.929,84.824,646.199,84.824z
		 M614.798,105.14c-1.043-0.3-2.277-0.574-3.706-0.846c-1.432-0.262-3.011-0.412-4.74-0.435c-2.402,0-4.279,0.509-5.638,1.529
		c-1.354,1.033-2.04,2.599-2.04,4.728c0,1.07,0.174,2.003,0.512,2.812c0.337,0.807,0.81,1.465,1.405,1.988
		c0.585,0.523,1.294,0.922,2.104,1.17c0.82,0.262,1.68,0.385,2.6,0.385c1.221,0,2.35-0.174,3.396-0.532
		c1.031-0.349,1.964-0.772,2.775-1.258c0.82-0.485,1.503-0.974,2.078-1.468c0.569-0.486,0.994-0.86,1.254-1.133V105.14z
		 M615.099,116.523h-0.137c-0.475,0.585-1.061,1.168-1.756,1.742c-0.709,0.56-1.529,1.07-2.451,1.519
		c-0.934,0.459-1.941,0.807-3.035,1.068c-1.094,0.261-2.266,0.397-3.51,0.397c-1.676,0-3.222-0.248-4.613-0.746
		c-1.408-0.498-2.613-1.231-3.622-2.191c-1.008-0.956-1.788-2.125-2.35-3.506s-0.847-2.947-0.847-4.689
		c0-1.727,0.312-3.272,0.934-4.628c0.622-1.354,1.492-2.513,2.613-3.459c1.12-0.943,2.462-1.68,4.031-2.188
		c1.565-0.511,3.305-0.76,5.199-0.76c1.803,0.024,3.469,0.186,5.014,0.473c1.529,0.287,2.885,0.658,4.079,1.094h0.149V98.25
		c0-0.961-0.062-1.793-0.187-2.526c-0.113-0.722-0.324-1.37-0.608-1.93c-0.633-1.168-1.643-2.124-3.037-2.897
		c-1.379-0.756-3.246-1.145-5.611-1.145c-1.74,0-3.396,0.161-4.936,0.473c-1.545,0.324-3.074,0.76-4.604,1.318v-4.688
		c0.57-0.301,1.266-0.56,2.052-0.823c0.796-0.248,1.63-0.474,2.499-0.646c0.873-0.188,1.793-0.324,2.773-0.412
		c0.971-0.1,1.943-0.15,2.914-0.15c3.492,0,6.355,0.623,8.581,1.854c2.228,1.247,3.834,2.887,4.815,4.927
		c0.363,0.771,0.621,1.63,0.785,2.562c0.164,0.934,0.237,1.967,0.237,3.085v23.101h-4.754L615.099,116.523z M552.797,103.474
		c0-2.404,0.234-4.529,0.708-6.396c0.473-1.853,1.107-3.469,1.878-4.863c0.784-1.379,1.692-2.539,2.738-3.473
		c1.057-0.93,2.14-1.689,3.259-2.275c1.119-0.582,2.252-1.007,3.408-1.258c1.156-0.258,2.238-0.385,3.272-0.385
		c2.114,0,3.956,0.348,5.511,1.061c1.555,0.707,2.948,1.74,4.193,3.096h0.11V67.582h5.674v52.771h-4.279l-1.169-3.867h-0.15
		c-0.436,0.562-0.959,1.131-1.531,1.706c-0.584,0.569-1.281,1.08-2.064,1.54c-0.796,0.461-1.704,0.832-2.736,1.107
		c-1.033,0.273-2.239,0.41-3.595,0.41c-1.903,0-3.771-0.321-5.587-0.97c-1.828-0.633-3.457-1.667-4.876-3.085
		c-1.419-1.429-2.574-3.259-3.446-5.51C553.231,109.444,552.797,106.707,552.797,103.474z M558.693,103.421
		c0,1.994,0.223,3.797,0.671,5.413c0.46,1.616,1.107,2.987,1.953,4.118c0.858,1.131,1.904,2.001,3.148,2.613
		c1.243,0.608,2.675,0.906,4.279,0.906c1.193,0,2.275-0.16,3.246-0.472c0.971-0.324,1.841-0.72,2.613-1.205
		c0.771-0.485,1.43-0.997,1.977-1.544c0.548-0.549,0.984-1.058,1.294-1.52V93.609c-1.169-1.182-2.524-2.141-4.056-2.863
		c-1.529-0.707-3.184-1.07-4.963-1.07c-1.082,0-2.201,0.201-3.383,0.6c-1.184,0.41-2.277,1.131-3.284,2.177
		c-1.021,1.044-1.854,2.449-2.515,4.205C559.017,98.423,558.693,100.674,558.693,103.421z M538.265,105.14
		c-1.044-0.3-2.275-0.574-3.707-0.846c-1.43-0.262-3.01-0.412-4.739-0.435c-2.401,0-4.278,0.509-5.636,1.529
		c-1.355,1.033-2.04,2.599-2.04,4.728c0,1.07,0.174,2.003,0.51,2.812c0.337,0.807,0.81,1.465,1.407,1.988
		c0.584,0.523,1.293,0.922,2.102,1.17c0.82,0.262,1.679,0.385,2.601,0.385c1.219,0,2.351-0.174,3.396-0.532
		c1.032-0.349,1.965-0.772,2.774-1.258c0.821-0.485,1.506-0.974,2.077-1.468c0.572-0.486,0.994-0.86,1.256-1.133V105.14z
		 M538.563,116.523h-0.136c-0.474,0.585-1.059,1.168-1.755,1.742c-0.709,0.56-1.529,1.07-2.45,1.519
		c-0.933,0.459-1.942,0.807-3.036,1.068c-1.095,0.261-2.265,0.397-3.508,0.397c-1.68,0-3.223-0.248-4.615-0.746
		c-1.406-0.498-2.612-1.231-3.621-2.191c-1.007-0.956-1.79-2.125-2.35-3.506c-0.561-1.381-0.847-2.947-0.847-4.689
		c0-1.727,0.312-3.272,0.933-4.628c0.623-1.354,1.492-2.513,2.613-3.459c1.119-0.943,2.463-1.68,4.029-2.188
		c1.569-0.511,3.31-0.76,5.201-0.76c1.803,0.024,3.471,0.186,5.014,0.473c1.529,0.287,2.887,0.658,4.08,1.094h0.148V98.25
		c0-0.961-0.062-1.793-0.186-2.526c-0.113-0.722-0.324-1.37-0.609-1.93c-0.636-1.168-1.643-2.124-3.036-2.897
		c-1.382-0.756-3.247-1.145-5.61-1.145c-1.741,0-3.397,0.161-4.938,0.473c-1.545,0.324-3.073,0.76-4.604,1.318v-4.688
		c0.572-0.301,1.268-0.56,2.053-0.823c0.795-0.248,1.629-0.474,2.5-0.646c0.871-0.188,1.791-0.324,2.773-0.412
		c0.972-0.1,1.941-0.15,2.912-0.15c3.494,0,6.356,0.623,8.583,1.854c2.227,1.247,3.832,2.887,4.814,4.927
		c0.361,0.771,0.622,1.63,0.784,2.562c0.162,0.934,0.236,1.967,0.236,3.085v23.101h-4.752L538.563,116.523z M492.062,98.782
		c2.987,4.306,5.935,8.722,8.857,13.261h0.213c-0.312-4.725-0.475-9.564-0.475-14.49V71.616h6.01v48.737h-5.971l-19.109-27.169
		c-3.295-4.737-6.244-9.155-8.832-13.259h-0.225c0.312,4.44,0.474,9.629,0.474,15.55v24.878h-5.972V71.616h5.896L492.062,98.782z"/>
	<path fill="#555759" d="M515.247,188.334c-0.821-0.197-1.768-0.371-2.836-0.535c-1.07-0.16-2.152-0.236-3.234-0.236
		c-2.115,0-3.783,0.424-5.002,1.257c-1.23,0.847-1.84,2.128-1.84,3.857c0,0.796,0.136,1.492,0.422,2.088
		c0.273,0.599,0.646,1.097,1.12,1.481c0.472,0.386,1.032,0.686,1.655,0.883c0.633,0.188,1.306,0.288,2.003,0.288
		c0.87,0,1.703-0.113,2.474-0.348c0.771-0.228,1.494-0.522,2.141-0.872c0.66-0.35,1.244-0.748,1.768-1.183
		c0.521-0.447,0.971-0.873,1.33-1.28V188.334z M515.956,199.631h-0.149c-0.484,0.51-1.058,1.031-1.741,1.567
		c-0.684,0.534-1.469,1.043-2.338,1.519c-0.872,0.472-1.842,0.843-2.912,1.131c-1.069,0.287-2.227,0.435-3.47,0.435
		c-1.681,0-3.249-0.261-4.704-0.782c-1.467-0.523-2.711-1.282-3.756-2.266c-1.047-0.98-1.867-2.165-2.463-3.569
		c-0.598-1.393-0.896-2.961-0.896-4.678c0-1.903,0.348-3.596,1.033-5.114c0.696-1.503,1.666-2.773,2.897-3.817
		c1.245-1.044,2.726-1.84,4.454-2.39c1.717-0.548,3.633-0.822,5.723-0.822c1.529,0,2.936,0.1,4.23,0.288
		c1.279,0.197,2.412,0.435,3.383,0.698v-1.419c0-0.822-0.138-1.618-0.424-2.377c-0.273-0.771-0.721-1.443-1.344-2.041
		c-0.621-0.597-1.43-1.058-2.425-1.419c-0.995-0.348-2.214-0.521-3.646-0.521c-1.74,0-3.495,0.187-5.25,0.575
		c-1.741,0.385-3.645,0.967-5.684,1.739v-6.744c1.777-0.77,3.656-1.365,5.646-1.777c2.002-0.424,4.08-0.635,6.27-0.658
		c2.576,0,4.841,0.311,6.768,0.943c1.93,0.636,3.561,1.505,4.854,2.612c1.306,1.107,2.288,2.412,2.936,3.922
		c0.634,1.502,0.957,3.145,0.957,4.911v13.312c0,2.338,0.024,4.343,0.075,6.021c0.05,1.666,0.101,3.158,0.148,4.476h-7.8
		L515.956,199.631z M476.62,203.385v-52.771h8.658v52.771H476.62z M471.158,174.949h-0.721c-2.651,0-4.977,0.398-6.98,1.182
		c-2.015,0.786-3.558,1.978-4.651,3.596v23.659h-8.658v-35.302h7.164l0.797,4.899h0.149c1.02-1.804,2.426-3.209,4.204-4.239
		c1.791-1.033,3.932-1.556,6.445-1.556c0.869,0,1.617,0.047,2.251,0.147V174.949z M431.884,188.334
		c-0.821-0.197-1.766-0.371-2.836-0.535c-1.07-0.16-2.152-0.236-3.234-0.236c-2.115,0-3.781,0.424-5.002,1.257
		c-1.23,0.847-1.84,2.128-1.84,3.857c0,0.796,0.137,1.492,0.422,2.088c0.274,0.599,0.647,1.097,1.119,1.481
		c0.474,0.386,1.034,0.686,1.654,0.883c0.636,0.188,1.307,0.288,2.004,0.288c0.87,0,1.705-0.113,2.477-0.348
		c0.771-0.228,1.492-0.522,2.139-0.872c0.659-0.35,1.244-0.748,1.767-1.183c0.523-0.447,0.972-0.873,1.331-1.28V188.334z
		 M432.593,199.631h-0.148c-0.485,0.51-1.059,1.031-1.742,1.567c-0.684,0.534-1.468,1.043-2.339,1.519
		c-0.87,0.472-1.841,0.843-2.911,1.131c-1.068,0.287-2.227,0.435-3.471,0.435c-1.68,0-3.246-0.261-4.702-0.782
		c-1.468-0.523-2.713-1.282-3.757-2.266c-1.045-0.98-1.867-2.165-2.464-3.569c-0.597-1.393-0.896-2.961-0.896-4.678
		c0-1.903,0.349-3.596,1.033-5.114c0.695-1.503,1.667-2.773,2.898-3.817c1.244-1.044,2.723-1.84,4.453-2.39
		c1.717-0.548,3.633-0.822,5.723-0.822c1.529,0,2.937,0.1,4.229,0.288c1.282,0.197,2.414,0.435,3.384,0.698v-1.419
		c0-0.822-0.137-1.618-0.423-2.377c-0.272-0.771-0.721-1.443-1.343-2.041c-0.623-0.597-1.432-1.058-2.426-1.419
		c-0.997-0.348-2.215-0.521-3.645-0.521c-1.744,0-3.496,0.187-5.252,0.575c-1.74,0.385-3.645,0.967-5.685,1.739v-6.744
		c1.78-0.77,3.657-1.365,5.648-1.777c2.003-0.424,4.08-0.635,6.27-0.658c2.574,0,4.839,0.311,6.768,0.943
		c1.929,0.636,3.558,1.505,4.851,2.612c1.307,1.107,2.291,2.412,2.938,3.922c0.635,1.502,0.957,3.145,0.957,4.911v13.312
		c0,2.338,0.025,4.343,0.075,6.021c0.05,1.666,0.099,3.158,0.149,4.476h-7.801L432.593,199.631z M365.702,203.385v-48.736h8.932
		v22.178h0.136l18.412-22.178h11.072l-20.327,24.145l22.007,24.592h-11.445l-19.719-22.003h-0.136v22.003H365.702z"/>
	<path fill="#555759" d="M784.103,188.334c-0.823-0.197-1.768-0.371-2.838-0.535c-1.069-0.16-2.151-0.236-3.231-0.236
		c-2.114,0-3.783,0.424-5.005,1.257c-1.228,0.847-1.84,2.128-1.84,3.857c0,0.796,0.137,1.492,0.422,2.088
		c0.273,0.599,0.649,1.097,1.121,1.481c0.472,0.386,1.033,0.686,1.652,0.883c0.639,0.188,1.308,0.288,2.004,0.288
		c0.873,0,1.705-0.113,2.479-0.348c0.77-0.228,1.492-0.522,2.139-0.872c0.658-0.35,1.243-0.748,1.766-1.183
		c0.524-0.447,0.973-0.873,1.332-1.28V188.334z M784.812,199.631h-0.15c-0.484,0.51-1.055,1.031-1.739,1.567
		c-0.687,0.534-1.47,1.043-2.34,1.519c-0.872,0.472-1.843,0.843-2.913,1.131c-1.066,0.287-2.225,0.435-3.47,0.435
		c-1.68,0-3.247-0.261-4.703-0.782c-1.466-0.523-2.71-1.282-3.755-2.266c-1.047-0.98-1.866-2.165-2.465-3.569
		c-0.596-1.393-0.893-2.961-0.893-4.678c0-1.903,0.348-3.596,1.029-5.114c0.699-1.503,1.67-2.773,2.897-3.817
		c1.245-1.044,2.727-1.84,4.456-2.39c1.717-0.548,3.633-0.822,5.721-0.822c1.53,0,2.938,0.1,4.23,0.288
		c1.281,0.197,2.414,0.435,3.385,0.698v-1.419c0-0.822-0.138-1.618-0.422-2.377c-0.275-0.771-0.723-1.443-1.346-2.041
		c-0.621-0.597-1.431-1.058-2.425-1.419c-0.997-0.348-2.214-0.521-3.644-0.521c-1.745,0-3.496,0.187-5.252,0.575
		c-1.74,0.385-3.644,0.967-5.685,1.739v-6.744c1.777-0.77,3.657-1.365,5.647-1.777c2.004-0.424,4.081-0.635,6.27-0.658
		c2.576,0,4.842,0.311,6.768,0.943c1.928,0.636,3.557,1.505,4.852,2.612c1.306,1.107,2.291,2.412,2.937,3.922
		c0.636,1.502,0.958,3.145,0.958,4.911v13.312c0,2.338,0.026,4.343,0.073,6.021c0.053,1.666,0.101,3.158,0.15,4.476h-7.802
		L784.812,199.631z M725.794,150.615h8.658v31.786h0.188l13.448-14.317h10.673l-15.486,16.581l15.6,18.721h-10.465l-13.807-16.43
		h-0.15v16.43h-8.658V150.615z M711.066,162.411h-7.513l-7.652-12.692h6.742l4.59,7.714h0.15l4.59-7.714h6.744L711.066,162.411z
		 M718.006,202.617c-1.091,0.458-2.437,0.847-4.019,1.181c-1.578,0.324-3.232,0.485-4.988,0.485c-2.549,0-4.938-0.358-7.139-1.094
		c-2.215-0.72-4.155-1.827-5.811-3.309c-1.653-1.493-2.959-3.359-3.908-5.637c-0.954-2.276-1.429-4.925-1.429-7.963
		c0-3.396,0.549-6.317,1.643-8.743c1.094-2.428,2.526-4.404,4.267-5.921c1.742-1.518,3.693-2.639,5.871-3.358
		c2.178-0.712,4.318-1.07,6.433-1.07c1.579,0,3.098,0.137,4.554,0.421c1.468,0.274,2.786,0.66,3.98,1.145v7.019
		c-1.07-0.448-2.215-0.812-3.409-1.084c-1.207-0.273-2.499-0.411-3.881-0.411c-1.395,0-2.712,0.214-3.981,0.635
		c-1.258,0.423-2.378,1.096-3.348,2.016c-0.971,0.933-1.74,2.141-2.312,3.659c-0.572,1.516-0.856,3.345-0.856,5.473
		c0,1.557,0.222,3.021,0.659,4.393c0.432,1.366,1.07,2.536,1.914,3.507c0.833,0.97,1.904,1.753,3.198,2.338
		c1.305,0.599,2.834,0.897,4.616,0.897c1.576,0,3.011-0.151,4.303-0.448c1.281-0.312,2.499-0.686,3.644-1.121V202.617z
		 M669.031,173.906c-1.097,0-2.067,0.197-2.927,0.596c-0.844,0.41-1.576,0.944-2.199,1.642c-0.622,0.697-1.107,1.507-1.471,2.426
		c-0.369,0.921-0.607,1.903-0.733,2.95h13.884c0-1.047-0.137-2.029-0.422-2.95c-0.273-0.919-0.686-1.729-1.23-2.426
		c-0.549-0.697-1.232-1.231-2.041-1.642C671.071,174.103,670.122,173.906,669.031,173.906z M672.489,197.344
		c1.678,0,3.434-0.164,5.248-0.502c1.828-0.331,3.669-0.816,5.536-1.438v6.854c-1.108,0.485-2.824,0.944-5.136,1.379
		c-2.305,0.436-4.704,0.646-7.18,0.646c-2.502,0-4.877-0.321-7.129-0.971c-2.238-0.633-4.205-1.679-5.898-3.108
		c-1.676-1.431-3.008-3.298-4.004-5.576c-0.984-2.288-1.479-5.049-1.479-8.31c0-3.206,0.459-6.007,1.392-8.421
		c0.924-2.398,2.164-4.392,3.721-5.969c1.556-1.582,3.335-2.763,5.35-3.56c2.003-0.785,4.081-1.181,6.222-1.181
		c2.235,0,4.303,0.334,6.193,1.018c1.88,0.672,3.519,1.742,4.891,3.198c1.379,1.455,2.448,3.321,3.208,5.612
		c0.773,2.299,1.158,4.999,1.158,8.134c-0.027,1.207-0.063,2.238-0.114,3.085h-23.161c0.121,1.643,0.485,3.037,1.092,4.205
		c0.611,1.157,1.395,2.104,2.389,2.826c0.986,0.72,2.13,1.255,3.436,1.576C669.54,197.18,670.958,197.344,672.489,197.344z
		 M620.8,172.983h0.146c0.512-0.733,1.16-1.442,1.931-2.151c0.783-0.71,1.665-1.318,2.663-1.854
		c0.993-0.536,2.101-0.971,3.295-1.295c1.207-0.335,2.489-0.495,3.844-0.495c1.292,0,2.537,0.147,3.744,0.433
		c1.197,0.3,2.305,0.748,3.299,1.37c0.994,0.623,1.879,1.419,2.635,2.399c0.773,0.997,1.369,2.168,1.807,3.521
		c0.248,0.76,0.409,1.581,0.496,2.463c0.087,0.884,0.127,1.915,0.127,3.086v22.925h-8.661v-21.595c0-0.946-0.037-1.753-0.113-2.438
		c-0.073-0.684-0.198-1.282-0.396-1.791c-0.438-1.12-1.097-1.916-1.978-2.401c-0.896-0.485-1.966-0.733-3.224-0.733
		c-1.68,0-3.283,0.398-4.828,1.194c-1.539,0.783-2.896,1.94-4.092,3.446v24.317h-8.658v-35.302h7.166L620.8,172.983z
		 M594.574,188.334c-0.82-0.197-1.767-0.371-2.834-0.535c-1.07-0.16-2.154-0.236-3.238-0.236c-2.114,0-3.78,0.424-4.998,1.257
		c-1.233,0.847-1.842,2.128-1.842,3.857c0,0.796,0.136,1.492,0.422,2.088c0.275,0.599,0.647,1.097,1.119,1.481
		c0.475,0.386,1.033,0.686,1.655,0.883c0.633,0.188,1.309,0.288,2.004,0.288c0.871,0,1.703-0.113,2.473-0.348
		c0.773-0.228,1.496-0.522,2.142-0.872c0.659-0.35,1.244-0.748,1.767-1.183c0.521-0.447,0.97-0.873,1.331-1.28V188.334z
		 M595.283,199.631h-0.147c-0.485,0.51-1.061,1.031-1.742,1.567c-0.684,0.534-1.469,1.043-2.34,1.519
		c-0.869,0.472-1.84,0.843-2.91,1.131c-1.07,0.287-2.228,0.435-3.469,0.435c-1.683,0-3.25-0.261-4.705-0.782
		c-1.468-0.523-2.712-1.282-3.756-2.266c-1.047-0.98-1.867-2.165-2.464-3.569c-0.597-1.393-0.896-2.961-0.896-4.678
		c0-1.903,0.35-3.596,1.034-5.114c0.695-1.503,1.666-2.773,2.896-3.817c1.244-1.044,2.725-1.84,4.455-2.39
		c1.716-0.548,3.633-0.822,5.723-0.822c1.529,0,2.936,0.1,4.23,0.288c1.28,0.197,2.412,0.435,3.382,0.698v-1.419
		c0-0.822-0.137-1.618-0.425-2.377c-0.271-0.771-0.719-1.443-1.342-2.041c-0.622-0.597-1.432-1.058-2.426-1.419
		c-0.994-0.348-2.215-0.521-3.646-0.521c-1.741,0-3.497,0.187-5.248,0.575c-1.743,0.385-3.646,0.967-5.687,1.739v-6.744
		c1.78-0.77,3.657-1.365,5.648-1.777c2.001-0.424,4.078-0.635,6.27-0.658c2.575,0,4.84,0.311,6.768,0.943
		c1.93,0.636,3.559,1.505,4.851,2.612c1.308,1.107,2.289,2.412,2.937,3.922c0.633,1.502,0.958,3.145,0.958,4.911v13.312
		c0,2.338,0.026,4.343,0.077,6.021c0.047,1.666,0.1,3.158,0.146,4.476h-7.798L595.283,199.631z M555.14,154.649h8.955v36.014
		c0,1.603-0.11,2.984-0.348,4.129c-0.236,1.157-0.572,2.178-1.045,3.048c-0.609,1.17-1.369,2.151-2.302,2.961
		c-0.921,0.819-1.964,1.479-3.147,2.003c-1.168,0.522-2.413,0.91-3.756,1.132c-1.332,0.236-2.725,0.348-4.156,0.348
		c-1.479,0-2.924-0.124-4.316-0.358c-1.393-0.251-2.574-0.562-3.521-0.947v-7.613c1.07,0.436,2.215,0.771,3.435,1.021
		c1.207,0.237,2.413,0.361,3.607,0.361c2.302,0,3.981-0.536,5.026-1.606s1.568-2.649,1.568-4.727V154.649z"/>
	<path fill-rule="evenodd" fill="#009BDE" d="M40.066,68.199c-9.441,19.191-4.505,44.161,16.606,67.734
		c-21.111,23.571-26.047,48.54-16.606,67.73c12.238,24.884,46.144,30.874,71.8,14.931c26.258-16.318,46.489-59.67,71.358-82.15
		l0.458-0.459l-0.458-0.565c-24.87-22.48-45.101-65.833-71.358-82.15C86.21,37.326,52.305,43.319,40.066,68.199"/>
	<path fill-rule="evenodd" fill="#A1DAF8" d="M327.251,68.199c9.438,19.191,4.503,44.161-16.606,67.734
		c21.109,23.571,26.045,48.54,16.606,67.73c-12.237,24.884-46.144,30.874-71.801,14.931c-26.26-16.318-46.489-59.67-71.358-82.15
		l-0.458-0.459l0.458-0.565c24.869-22.48,45.099-65.833,71.358-82.15C281.108,37.326,315.014,43.319,327.251,68.199"/>
</g>
<g>
</g>
<g>
</g>
<g>
</g>
<g>
</g>
<g>
</g>
<g>
</g>
</svg>
