<svg width="604px" height="366px" viewBox="0 0 604 366" version="1.1" xmlns="http://www.w3.org/2000/svg" xmlns:xlink="http://www.w3.org/1999/xlink"><defs><linearGradient x1="53.58%" y1="21.03%" x2="18.81%" y2="92.55%" id="linearGradient-1"><stop stop-color="#83BFD2" offset="0%"></stop><stop stop-color="#C6A282" offset="100%"></stop></linearGradient><radialGradient cx="78.83%" cy="9.82%" fx="78.83%" fy="9.82%" r="53.16%" id="radialGradient-2"><stop stop-color="#212523" offset="0%"></stop><stop stop-color="#6C6565" stop-opacity="0" offset="100%"></stop></radialGradient><radialGradient cx="65.35%" cy="46.63%" fx="65.35%" fy="46.63%" r="19.54%" id="radialGradient-3"><stop stop-color="#54AB41" stop-opacity="0.5" offset="0%"></stop><stop stop-color="#56B54E" stop-opacity="0" offset="100%"></stop></radialGradient><path id="path-4" d="M0.57,69.85 L146.70,25.97 L285.95,0.57 L240.68,18.47 L311.16,1.73 L359.30,318.66 C291.00,322.97 191.85,333.56 191.85,333.56 L163.02,334.58 L167.01,328.20 L84.81,347.52 L10.31,76.77 L15.47,117.76 L0.57,69.85 Z"></path><filter x="-50%" y="-50%" width="200%" height="200%" filterUnits="objectBoundingBox" id="f-6"><feOffset dx="0" dy="0" in="c" result="b"></feOffset><feGaussianBlur stdDeviation="17.5" in="b" result="s"></feGaussianBlur><feColorMatrix values="0 0 0 0 0.21 0 0 0 0 0.18 0 0 0 0 0.18 0 0 0 0.08 0" in="s" type="matrix" result="a"></feColorMatrix><feMerge><feMergeNode in="a"></feMergeNode><feMergeNode in="SourceGraphic"></feMergeNode></feMerge></filter><filter x="-50%" y="-50%" width="200%" height="200%" filterUnits="objectBoundingBox" id="f-7"><feOffset dx="0" dy="0" in="c" result="b"></feOffset><feGaussianBlur stdDeviation="5" in="b" result="s"></feGaussianBlur><feColorMatrix values="0 0 0 0 1 0 0 0 0 1 0 0 0 0 1 0 0 0 0.35 0" in="s" type="matrix" result="a"></feColorMatrix><feMerge><feMergeNode in="a"></feMergeNode><feMergeNode in="SourceGraphic"></feMergeNode></feMerge></filter><filter x="-50%" y="-50%" width="200%" height="200%" filterUnits="objectBoundingBox" id="f-8"><feOffset dx="0" dy="0" in="c" result="b"></feOffset><feGaussianBlur stdDeviation="5" in="b" result="s"></feGaussianBlur><feColorMatrix values="0 0 0 0 1 0 0 0 0 1 0 0 0 0 1 0 0 0 0.35 0" in="s" type="matrix" result="a"></feColorMatrix><feMerge><feMergeNode in="a"></feMergeNode><feMergeNode in="SourceGraphic"></feMergeNode></feMerge></filter><filter x="-50%" y="-50%" width="200%" height="200%" filterUnits="objectBoundingBox" id="f-9"><feOffset dx="0" dy="0" in="c" result="b"></feOffset><feGaussianBlur stdDeviation="5" in="b" result="s"></feGaussianBlur><feColorMatrix values="0 0 0 0 1 0 0 0 0 1 0 0 0 0 1 0 0 0 0.35 0" in="s" type="matrix" result="a"></feColorMatrix><feMerge><feMergeNode in="a"></feMergeNode><feMergeNode in="SourceGraphic"></feMergeNode></feMerge></filter><filter x="-50%" y="-50%" width="200%" height="200%" filterUnits="objectBoundingBox" id="f-10"><feOffset dx="0" dy="0" in="c" result="b"></feOffset><feGaussianBlur stdDeviation="5" in="b" result="s"></feGaussianBlur><feColorMatrix values="0 0 0 0 1 0 0 0 0 1 0 0 0 0 1 0 0 0 0.35 0" in="s" type="matrix" result="a"></feColorMatrix><feMerge><feMergeNode in="a"></feMergeNode><feMergeNode in="SourceGraphic"></feMergeNode></feMerge></filter><filter x="-50%" y="-50%" width="200%" height="200%" filterUnits="objectBoundingBox" id="f-11"><feOffset dx="0" dy="0" in="c" result="b"></feOffset><feGaussianBlur stdDeviation="2.5" in="b" result="s"></feGaussianBlur><feColorMatrix values="0 0 0 0 1 0 0 0 0 1 0 0 0 0 1 0 0 0 0.35 0" in="s" type="matrix" result="a"></feColorMatrix><feMerge><feMergeNode in="a"></feMergeNode><feMergeNode in="SourceGraphic"></feMergeNode></feMerge></filter><filter x="-50%" y="-50%" width="200%" height="200%" filterUnits="objectBoundingBox" id="f-12"><feOffset dx="0" dy="0" in="c" result="b"></feOffset><feGaussianBlur stdDeviation="2.5" in="b" result="s"></feGaussianBlur><feColorMatrix values="0 0 0 0 1 0 0 0 0 1 0 0 0 0 1 0 0 0 0.35 0" in="s" type="matrix" result="a"></feColorMatrix><feMerge><feMergeNode in="a"></feMergeNode><feMergeNode in="SourceGraphic"></feMergeNode></feMerge></filter><filter x="-50%" y="-50%" width="200%" height="200%" filterUnits="objectBoundingBox" id="f-13"><feOffset dx="0" dy="0" in="c" result="b"></feOffset><feGaussianBlur stdDeviation="2.5" in="b" result="s"></feGaussianBlur><feColorMatrix values="0 0 0 0 1 0 0 0 0 1 0 0 0 0 1 0 0 0 0.35 0" in="s" type="matrix" result="a"></feColorMatrix><feMerge><feMergeNode in="a"></feMergeNode><feMergeNode in="SourceGraphic"></feMergeNode></feMerge></filter><filter x="-50%" y="-50%" width="200%" height="200%" filterUnits="objectBoundingBox" id="f-14"><feOffset dx="0" dy="0" in="c" result="b"></feOffset><feGaussianBlur stdDeviation="2.5" in="b" result="s"></feGaussianBlur><feColorMatrix values="0 0 0 0 1 0 0 0 0 1 0 0 0 0 1 0 0 0 0.35 0" in="s" type="matrix" result="a"></feColorMatrix><feMerge><feMergeNode in="a"></feMergeNode><feMergeNode in="SourceGraphic"></feMergeNode></feMerge></filter><filter x="-50%" y="-50%" width="200%" height="200%" filterUnits="objectBoundingBox" id="f-15"><feOffset dx="0" dy="0" in="c" result="b"></feOffset><feGaussianBlur stdDeviation="2.5" in="b" result="s"></feGaussianBlur><feColorMatrix values="0 0 0 0 1 0 0 0 0 1 0 0 0 0 1 0 0 0 0.35 0" in="s" type="matrix" result="a"></feColorMatrix><feMerge><feMergeNode in="a"></feMergeNode><feMergeNode in="SourceGraphic"></feMergeNode></feMerge></filter><filter x="-50%" y="-50%" width="200%" height="200%" filterUnits="objectBoundingBox" id="f-16"><feOffset dx="0" dy="0" in="c" result="b"></feOffset><feGaussianBlur stdDeviation="2.5" in="b" result="s"></feGaussianBlur><feColorMatrix values="0 0 0 0 1 0 0 0 0 1 0 0 0 0 1 0 0 0 0.35 0" in="s" type="matrix" result="a"></feColorMatrix><feMerge><feMergeNode in="a"></feMergeNode><feMergeNode in="SourceGraphic"></feMergeNode></feMerge></filter><filter x="-50%" y="-50%" width="200%" height="200%" filterUnits="objectBoundingBox" id="f-17"><feOffset dx="0" dy="0" in="c" result="b"></feOffset><feGaussianBlur stdDeviation="2.5" in="b" result="s"></feGaussianBlur><feColorMatrix values="0 0 0 0 1 0 0 0 0 1 0 0 0 0 1 0 0 0 0.35 0" in="s" type="matrix" result="a"></feColorMatrix><feMerge><feMergeNode in="a"></feMergeNode><feMergeNode in="SourceGraphic"></feMergeNode></feMerge></filter><filter x="-50%" y="-50%" width="200%" height="200%" filterUnits="objectBoundingBox" id="f-18"><feOffset dx="0" dy="0" in="c" result="b"></feOffset><feGaussianBlur stdDeviation="2.5" in="b" result="s"></feGaussianBlur><feColorMatrix values="0 0 0 0 1 0 0 0 0 1 0 0 0 0 1 0 0 0 0.35 0" in="s" type="matrix" result="a"></feColorMatrix><feMerge><feMergeNode in="a"></feMergeNode><feMergeNode in="SourceGraphic"></feMergeNode></feMerge></filter><filter x="-50%" y="-50%" width="200%" height="200%" filterUnits="objectBoundingBox" id="f-19"><feOffset dx="0" dy="0" in="c" result="b"></feOffset><feGaussianBlur stdDeviation="2.5" in="b" result="s"></feGaussianBlur><feColorMatrix values="0 0 0 0 1 0 0 0 0 1 0 0 0 0 1 0 0 0 0.35 0" in="s" type="matrix" result="a"></feColorMatrix><feMerge><feMergeNode in="a"></feMergeNode><feMergeNode in="SourceGraphic"></feMergeNode></feMerge></filter><filter x="-50%" y="-50%" width="200%" height="200%" filterUnits="objectBoundingBox" id="f-20"><feOffset dx="0" dy="0" in="c" result="b"></feOffset><feGaussianBlur stdDeviation="2.5" in="b" result="s"></feGaussianBlur><feColorMatrix values="0 0 0 0 1 0 0 0 0 1 0 0 0 0 1 0 0 0 0.35 0" in="s" type="matrix" result="a"></feColorMatrix><feMerge><feMergeNode in="a"></feMergeNode><feMergeNode in="SourceGraphic"></feMergeNode></feMerge></filter><filter x="-50%" y="-50%" width="200%" height="200%" filterUnits="objectBoundingBox" id="f-21"><feOffset dx="0" dy="0" in="c" result="b"></feOffset><feGaussianBlur stdDeviation="2.5" in="b" result="s"></feGaussianBlur><feColorMatrix values="0 0 0 0 1 0 0 0 0 1 0 0 0 0 1 0 0 0 0.35 0" in="s" type="matrix" result="a"></feColorMatrix><feMerge><feMergeNode in="a"></feMergeNode><feMergeNode in="SourceGraphic"></feMergeNode></feMerge></filter><linearGradient x1="1.38%" y1="50%" x2="100%" y2="50%" id="linearGradient-22"><stop stop-color="#594D4D" offset="0%"></stop><stop stop-color="#292424" offset="100%"></stop></linearGradient><path id="path-23" d="M7.44,1.15 L14.89,0.57 L13.75,32.32 C13.75,32.32 15.52,33.47 16.04,36.36 C16.14,36.93 16.04,40.32 16.04,40.98 C16.04,45.02 18.91,45.60 18.91,45.60 C18.91,45.60 19.37,47.99 19.48,49.06 C19.56,49.91 18.91,51.37 18.91,51.37 C18.91,51.37 19.48,51.37 18.33,51.37 C17.82,51.37 17.19,49.64 17.19,49.64 L15.47,46.76 L13.18,43.29 L10.88,48.49 L10.88,54.84 C10.88,54.84 13.05,57.18 13.18,58.30 C13.30,59.42 11.46,60.03 11.46,60.03 L8.59,58.30 L6.87,53.11 L7.44,47.91 L8.59,43.87 L6.87,46.18 L4.58,52.53 L5.73,55.41 L5.73,57.72 C5.73,58.88 3.43,58.88 3.43,58.88 L0.57,53.68 L2.86,46.76 L4.01,43.29 L4.58,40.98 L4.01,38.10 C4.01,38.10 7.44,32.90 8.59,32.90 C9.74,32.90 7.44,1.15 7.44,1.15 Z"></path><path id="path-25" d="M0.52,-0.00 L8.02,9.81 L10.31,31.17 C10.31,31.17 14.89,32.90 14.89,36.94 C14.89,40.98 17.76,44.45 17.76,44.45 C17.76,44.45 18.23,46.83 18.33,47.91 C18.42,48.76 17.76,50.22 17.76,50.22 C17.76,50.22 18.33,50.22 17.19,50.22 C16.67,50.22 16.04,48.49 16.04,48.49 L15.47,45.60 L12.03,40.98 L12.03,45.60 L13.18,49.06 L15.47,51.37 C15.47,51.37 16.61,53.11 13.75,53.11 L10.88,50.22 L9.16,46.18 L9.16,41.56 L8.02,45.60 L8.59,50.22 L10.31,52.53 C10.31,52.53 10.88,53.11 10.88,54.26 C10.88,55.41 8.02,53.68 8.02,53.68 L5.73,50.80 L5.15,46.18 L5.15,38.67 L5.15,42.14 L2.29,40.41 L1.71,36.94 C1.71,36.94 4.01,31.75 5.15,31.75 C6.30,31.75 1.14,12.70 1.14,12.70 L0.52,-0.00 Z"></path><path id="path-27" d="M160.45,60.03 C146.06,31.20 156.44,-3.80e-14 156.44,-3.80e-14 C156.44,-3.80e-14 133.52,-3.46 107.16,10.96 C80.80,25.40 33.81,39.83 10.31,54.84 C-13.18,69.85 10.88,76.77 14.89,71.00 C18.91,65.23 18.33,71.00 18.33,71.00 C18.33,71.00 32.09,89.47 32.09,77.35 L32.66,71.00 C32.66,71.00 40.68,85.43 45.84,85.43 C51.00,85.43 51.57,84.28 51.57,80.82 C51.57,77.35 51.57,76.77 51.57,76.77 C51.57,76.77 52.70,84.23 60.33,86.68 C62.64,87.42 68.13,83.20 68.13,83.20 C68.13,83.20 66.84,87.52 72.40,88.82 C74.68,89.35 81.52,85.90 81.52,85.90 C81.52,85.90 80.34,89.83 84.24,90.57 C86.31,90.97 91.78,87.24 91.78,87.24 C91.78,87.24 91.00,91.17 95.47,91.89 C97.45,92.21 101.27,89.43 101.27,89.43 C101.27,89.43 100.15,93.21 104.07,93.72 C106.44,94.03 110.50,91.20 110.50,91.20 C110.50,91.20 109.89,94.98 114.46,95.45 C116.84,95.69 120.61,92.65 120.61,92.65 C120.61,92.65 118.05,96.48 124.45,96.97 C126.76,97.14 127.86,93.89 127.86,93.89 C127.86,93.89 125.97,96.43 133.19,96.73 C135.76,96.83 137.41,94.56 137.41,94.56 C137.41,94.56 135.44,96.98 141.00,97.13 C143.39,97.19 144.82,95.95 144.82,95.95 C144.82,95.95 144.03,97.10 148.09,97.08 C150.16,97.06 153.00,95.82 153.00,95.82 C153.00,95.82 154.13,96.97 157.60,96.94 C159.57,96.93 162.27,96.59 162.27,96.59 C162.27,96.59 164.02,97.64 168.04,97.48 C169.51,97.43 170.61,94.74 170.61,94.74 C170.61,94.74 173.09,94.81 176.40,94.90 C179.32,94.98 178.30,92.31 181.39,91.88 C185.27,91.33 192.98,95.29 193.11,95.25 C170.77,69.85 170.56,80.29 160.45,60.03 Z"></path><linearGradient x1="41.92%" y1="16.99%" x2="50%" y2="67.90%" id="linearGradient-29"><stop stop-color="#AD9F97" offset="0%"></stop><stop stop-color="#84776F" offset="100%"></stop></linearGradient><path id="path-30" d="M-2.55e-13,35.21 C-2.55e-13,35.21 8.02,42.14 8.02,42.14 L29.79,38.67 L111.17,2.88 C111.17,2.88 215.46,-2.88 240.11,2.88 C264.75,8.65 322.62,6.92 322.62,6.92 C322.62,6.92 334.09,5.19 322.62,13.27 C311.16,21.35 278.50,17.31 278.50,17.31 C278.50,17.31 307.15,19.62 308.87,21.93 C310.59,24.24 294.55,29.44 290.53,29.44 C290.53,29.44 291.40,31.35 293.40,35.79 C296.26,42.14 267.61,35.79 267.61,35.79 C267.61,35.79 287.82,41.04 284.23,45.02 C278.50,51.37 260.74,46.18 260.74,46.18 C260.74,46.18 282.95,55.65 272.77,59.46 C266.32,61.87 248.13,60.61 248.13,60.61 C248.13,60.61 258.47,68.84 250.99,71.00 C247.15,72.11 236.65,67.88 236.65,67.88 C236.65,67.88 242.33,76.50 236.65,77.83 C233.70,78.53 226.84,75.59 226.84,75.59 C226.84,75.59 232.49,80.91 226.37,82.10 C223.42,82.67 216.77,79.46 216.77,79.46 C216.77,79.46 217.40,86.89 212.45,87.77 C209.41,88.31 201.00,81.54 201.00,81.54 C201.00,81.54 207.85,89.36 200.12,90.83 C196.84,91.46 187.36,87.09 187.36,87.09 C187.36,87.09 194.34,93.62 186.87,94.86 C183.93,95.35 176.53,91.81 176.53,91.81 C176.53,91.81 185.22,97.16 176.95,98.34 C173.78,98.79 166.94,94.00 166.94,94.00 C166.94,94.00 172.75,100.38 165.34,101.38 C162.59,101.75 154.63,99.05 154.63,99.05 C154.63,99.05 159.17,105.19 153.34,105.80 C150.50,106.10 142.11,100.44 142.11,100.44 C142.11,100.44 147.61,105.44 141.57,106.06 C138.64,106.36 133.26,103.51 133.26,103.51 C133.26,103.51 136.08,107.21 131.22,107.61 C128.97,107.79 124.33,104.70 124.33,104.70 C124.33,104.70 125.82,107.25 120.72,107.63 C119.03,107.76 114.96,105.70 114.96,105.70 C114.96,105.70 115.08,108.21 109.73,108.52 C107.91,108.63 103.57,105.35 103.57,105.35 C103.57,105.35 105.12,110.14 100.26,110.42 C98.25,110.53 93.24,107.21 93.24,107.21 C93.24,107.21 94.73,110.90 89.88,111.25 C87.98,111.39 83.32,108.14 83.32,108.14 C83.32,108.14 83.98,110.63 79.66,110.93 C77.35,111.09 73.68,109.03 73.68,109.03 C73.68,109.03 73.61,112.64 69.94,112.87 C68.04,112.99 64.35,110.77 64.35,110.77 C64.35,110.77 64.76,113.21 59.18,113.39 C54.18,113.55 52.34,112.95 52.34,112.95 C52.34,112.95 55.28,115.12 50.47,114.94 C46.93,114.80 44.54,114.64 44.54,114.64 C44.54,114.64 47.70,117.56 43.63,116.96 C41.62,116.67 39.84,114.85 39.84,114.85 C39.84,114.85 39.98,117.86 37.40,117.31 C35.81,116.97 35.13,113.85 35.13,113.85 C35.13,113.85 33.99,117.98 31.75,117.51 C29.60,117.05 26.36,111.99 26.36,111.99 C29.79,135.08 5.15,9.66 -2.55e-13,35.21 Z"></path><path id="path-32" d="M25.21,112.57 C25.21,112.57 24.95,93.82 37.67,71.97 C46.02,57.62 63.89,48.05 77.36,40.41 C92.23,31.97 118.87,15.26 118.87,15.26 L229.79,5.77 L278.90,9.23 L334.66,8.08 L228.64,-6.35 L93.40,-4.04 L21.77,32.32 L5.73,53.68 L25.21,112.57 Z"></path><linearGradient x1="53.95%" y1="91.15%" x2="32.26%" y2="71.96%" id="linearGradient-33"><stop stop-color="#EAD4C5" offset="0%"></stop><stop stop-color="#FFF" offset="100%"></stop></linearGradient><path id="path-34" d="M-2.55e-13,45.60 C4.79e-15,16.74 35.63,10.30 53.86,8.08 C72.77,5.77 115.75,-12.12 123.77,13.27 C131.80,38.67 138.10,52.38 132.94,77.93 C132.94,77.93 140.97,84.86 140.97,84.86 C140.97,84.86 153.00,100.44 155.87,127.58 C155.87,127.58 155.29,129.88 159.30,154.71 C163.03,177.76 160.45,210.70 160.45,210.70 C160.45,210.70 174.78,228.02 175.92,233.80 C177.07,239.57 169.62,243.61 169.62,243.61 C169.62,243.61 158.16,243.61 153.00,236.11 C153.00,236.11 125.49,244.19 105.44,240.15 C85.38,236.11 51.00,230.91 36.67,209.55 C22.34,188.19 10.31,157.02 10.31,143.16 C10.31,129.31 16.04,115.45 16.04,115.45 L14.32,112.57 C2.29,86.01 -5.14e-13,74.47 -2.55e-13,45.60 Z"></path><path id="path-36" d="M119.19,129.31 L103.14,148.02 L125.41,156.10 L129.51,173.76 L162.74,198.58 L151.85,113.72 L119.19,129.31 Z"></path><linearGradient x1="50%" y1="21.18%" x2="13.93%" y2="50%" id="linearGradient-37"><stop stop-color="#5B4C49" stop-opacity="0" offset="0%"></stop><stop stop-color="#8A4D35" stop-opacity="0.29" offset="100%"></stop></linearGradient><linearGradient x1="-51.29%" y1="68.64%" x2="49.18%" y2="63.19%" id="linearGradient-38"><stop stop-color="#422D2D" stop-opacity="0.62" offset="0%"></stop><stop stop-color="#392D2D" offset="100%"></stop></linearGradient><linearGradient x1="34.55%" y1="3.24%" x2="52.79%" y2="100%" id="linearGradient-39"><stop stop-color="#A5725B" stop-opacity="0" offset="0%"></stop><stop stop-color="#CD967D" stop-opacity="0.27" offset="100%"></stop></linearGradient><path id="path-40" d="M0.57,45.02 C0.57,25.97 32.66,6.92 61.88,2.30 C90.80,-2.26 126.07,-1.15 130.65,15.58 C135.24,32.32 140.97,53.68 143.26,82.55 C143.26,82.55 145.55,88.32 145.55,88.32 L191.97,73.86 L150.87,98.07 L149.26,102.54 L143.15,102.90 L148.56,107.00 L149.27,111.75 L145.55,116.03 L141.84,111.61 L143.23,115.79 L138.87,123.60 L134.71,124.22 L135.82,128.83 L126.38,132.37 L123.71,122.23 L122.06,132.77 L124.81,136.73 L112.43,142.12 L109.47,143.71 L103.66,139.22 L100.56,141.49 L103.86,141.51 L104.38,146.46 L98.36,149.71 L93.40,152.40 L91.85,161.70 L85.38,158.17 L81.90,159.12 L78.20,155.72 L74.98,160.44 L70.47,155.49 L67.71,153.62 L68.38,150.42 L65.35,147.74 L62.68,145.44 L62.10,147.76 L52.72,147.78 L53.25,140.65 L49.61,145.26 L43.97,142.63 L39.77,143.45 L32.92,132.79 L32.66,145.07 L28.32,145.86 L30.06,144.14 L27.35,142.82 L26.59,140.40 L24.44,146.56 L18.93,147.06 L14.85,151.48 C14.85,151.48 14.89,146.63 14.89,146.63 C12.03,130.46 20.62,118.92 20.62,118.92 L18.91,116.03 C6.87,89.47 0.57,73.89 0.57,45.02 Z"></path><linearGradient x1="65.36%" y1="62.94%" x2="0%" y2="37.50%" id="linearGradient-42"><stop stop-color="#000" stop-opacity="0.09" offset="0%"></stop><stop stop-color="#000" stop-opacity="0.49" offset="100%"></stop></linearGradient><path id="path-43" d="M16.04,59.46 C16.04,59.46 28.07,40.41 37.24,40.41 C39.07,40.41 42.94,34.14 42.94,34.14 L14.06,43.41 L17.79,26.20 L33.83,24.55 C33.83,24.55 45.64,5.77 48.70,5.77 C48.70,5.77 28.07,0 28.07,0 L5.15,6.92 L0,20.78 L2.86,47.33 L7.44,58.88 L16.04,59.46 Z"></path><path id="path-44" d="M38.96,0 L28.65,6.35 L21.77,15.58 L9.16,8.65 L0,6.92 C0,6.92 9.16,10.39 13.75,14.43 C18.33,18.47 18.91,19.62 21.77,19.62 C24.64,19.62 23.49,15.58 32.09,6.92 C32.47,6.53 38.96,0 38.96,0 Z"></path><linearGradient x1="64.16%" y1="100%" x2="54.72%" y2="27.64%" id="linearGradient-46"><stop stop-color="#503737" offset="0%"></stop><stop stop-color="#1C1616" offset="100%"></stop></linearGradient><path id="path-47" d="M8.59,8.08 C13.18,8.08 12.60,7.50 16.61,7.50 C20.62,7.50 30.94,4.61 35.52,4.61 C40.11,4.61 38.39,5.77 44.12,5.77 C49.85,5.77 52.14,-0.57 52.14,-0.57 C52.14,-0.57 53.86,6.92 44.69,10.39 C37.46,13.12 40.11,13.85 34.95,19.62 C32.98,21.83 32.09,24.82 30.37,24.82 C28.65,24.82 29.27,24.53 24.06,20.78 C20.05,17.89 17.26,14.43 12.03,14.43 C7.44,14.43 -0.57,8.08 -0.57,8.08 L8.59,8.08 Z"></path><linearGradient x1="50%" y1="0%" x2="50%" y2="50%" id="linearGradient-49"><stop stop-color="#423333" offset="0%"></stop><stop stop-color="#C48888" offset="52.41%"></stop><stop stop-color="#B46060" offset="100%"></stop></linearGradient><linearGradient x1="84.16%" y1="75.60%" x2="0%" y2="75.60%" id="linearGradient-50"><stop stop-color="#FFF" offset="0%"></stop><stop stop-color="#D58C14" offset="100%"></stop></linearGradient><path id="path-51" d="M17.76,5.77 L18.54,3.78 L25.49,0.17 L33.81,3.46 L36.61,3.76 L35.52,5.19 C35.52,5.19 29.22,9.81 29.22,9.81 C26.93,13.27 26.29,12.09 24.06,10.96 C22.92,10.39 21.77,7.50 21.77,7.50 L17.76,5.77 Z"></path><path id="path-53" d="M0.57,23.66 C0.57,23.66 38.96,11.54 52.14,20.20 C65.32,28.86 67.62,43.87 67.62,43.87 C67.62,43.87 70.48,50.80 65.90,53.68 C61.31,56.57 52.72,61.19 52.72,61.19 L61.88,64.07 L64.75,62.34 L67.81,61.95 L72.20,60.78 L72.77,58.88 L77.36,57.15 C77.36,57.15 76.21,56.14 76.13,54.40 C75.66,44.67 72.56,12.13 52.14,5.77 C46.41,1.73 50.42,0 50.42,0 L46.41,2.30 L12.60,10.96 L20.62,12.12 L0.57,23.66 Z"></path><path id="path-55" d="M8.27,68.91 L7.04,65.86 L3.43,66.96 L5.15,56.57 C5.15,56.57 -4.58,24.24 5.15,9.23 C9.74,3.46 9.74,6.70e-14 9.74,6.70e-14 L15.47,6.70e-14 C15.47,6.70e-14 35.52,1.73 51.00,-0.57 C51.00,-0.57 59.02,1.73 59.02,1.73 L53.86,3.46 L64.18,8.08 L32.09,9.81 C32.09,9.81 20.62,9.81 20.62,9.81 C20.62,9.81 9.74,17.31 9.74,28.28 C9.74,39.25 10.03,47.14 16.61,59.46 C20.62,66.96 26.93,64.07 26.93,64.07 L23.49,67.54 L19.48,68.11 L15.47,70.42 L12.03,68.69 L8.27,68.91 Z"></path><path id="path-57" d="M150.14,125.27 L160.94,123.20 L173.06,175.49 L186.81,193.96 L200.20,213.59 L163.23,193.96 C163.23,193.96 158.16,198.00 150.14,161.64 C145.90,142.43 150.14,125.27 150.14,125.27 Z"></path><linearGradient x1="0%" y1="100%" x2="74.75%" y2="33.94%" id="linearGradient-58"><stop stop-color="#634848" offset="0%"></stop><stop stop-color="#282424" offset="98.26%"></stop></linearGradient><path id="path-59" d="M12.03,38.67 L55.01,8.65 C55.01,8.65 63.60,-5.19 48.13,1.15 C32.66,7.50 -0.57,7.50 -0.57,7.50 L1.14,31.17 L12.03,38.67 Z"></path></defs><g stroke="none" stroke-width="1" fill="none" fill-rule="evenodd"><g transform="translate(-53.00, -187.00)"><g transform="translate(53.00, 187.00)"><g transform="translate(50.42, 0.00)"><mask id="mask-5" fill="white"><use xlink:href="#path-4"></use></mask><g ><use fill="url(#linearGradient-1)" xlink:href="#path-4"></use><use fill-opacity="0.60" fill="url(#radialGradient-2)" xlink:href="#path-4"></use><use fill-opacity="0.00" fill="none" xlink:href="#path-4"></use><use fill-opacity="0.5" fill="url(#radialGradient-3)" xlink:href="#path-4"></use></g><path d="M257.75,86.19 C256.51,99.37 245.49,109.68 232.08,109.68 C217.84,109.68 206.29,98.05 206.29,83.70 C206.29,69.35 217.84,57.72 232.08,57.72 C238.35,57.72 244.10,59.98 248.57,63.73 C246.50,62.84 244.22,62.34 241.82,62.34 C232.33,62.34 224.63,70.10 224.63,79.66 C224.63,89.23 232.33,96.98 241.82,96.98 C249.03,96.98 255.19,92.52 257.75,86.19 Z" fill="#FDF4DB" filter="url(#f-6)" mask="url(#mask-5)"></path><g mask="url(#mask-5)"><g transform="translate(173.06, 19.62)"><path d="M108.30,6.57 L108.48,2.30 L109.48,6.33 L113.49,6.52 L109.65,7.61 L109.47,11.34 L108.44,7.69 L104.46,7.52 L108.30,6.57 Z" id="Path-110" fill="#FDF4DB" filter="url(#f-7)"></path><path d="M6.51,30.01 L6.80,23.09 L8.42,29.64 L14.95,29.94 L8.70,31.72 L8.42,37.77 L6.73,31.83 L0.27,31.56 L6.51,30.01 Z" id="Path-111" fill-opacity="0.60" fill="#FDF4DB" filter="url(#f-8)"></path><path d="M60.31,3.19 L60.44,0 L61.19,3.02 L64.20,3.16 L61.32,3.98 L61.19,6.77 L60.41,4.03 L57.43,3.91 L60.31,3.19 Z" fill-opacity="0.5" fill="#FFF" filter="url(#f-9)"></path><path d="M146.48,63.59 L146.72,57.72 L148.10,63.27 L153.62,63.53 L148.33,65.03 L148.09,70.15 L146.67,65.12 L141.20,64.90 L146.48,63.59 Z" fill-opacity="0.90" fill="#FFF" filter="url(#f-10)"></path><path d="M88.05,27.18 L88.44,29.86 L91.68,29.54 C91.68,29.54 91.08,27.03 90.35,26.55 C89.62,26.07 88.05,27.18 88.05,27.18 Z" opacity="0.84" fill="#FFF" filter="url(#f-11)"></path><path d="M33.10,11.96 L33.36,13.74 L35.52,13.54 C35.52,13.54 35.12,11.86 34.63,11.54 C34.15,11.22 33.10,11.96 33.10,11.96 Z" opacity="0.84" fill="#FDF4DB" filter="url(#f-12)" transform="translate(34.38, 12.70) rotate(-324.00) translate(-34.38, -12.70) "></path><path d="M113.33,58.14 L113.59,59.93 L115.75,59.72 C115.75,59.72 115.35,58.04 114.86,57.72 C114.37,57.41 113.33,58.14 113.33,58.14 Z" opacity="0.84" fill="#FFF" filter="url(#f-13)" transform="translate(114.61, 58.88) rotate(-324.00) translate(-114.61, -58.88) "></path><path d="M91.62,49.85 L91.75,50.74 L92.83,50.64 C92.83,50.64 92.63,49.80 92.38,49.64 C92.14,49.48 91.62,49.85 91.62,49.85 Z" id="Path-94" opacity="0.84" fill="#FFF" filter="url(#f-14)" transform="translate(92.26, 50.22) rotate(-294.00) translate(-92.26, -50.22) "></path><path d="M105.37,26.76 L105.50,27.65 L106.58,27.55 C106.58,27.55 106.38,26.71 106.14,26.55 C105.89,26.39 105.37,26.76 105.37,26.76 Z" id="Path-95" opacity="0.84" fill="#FFF" filter="url(#f-15)" transform="translate(106.01, 27.13) rotate(-294.00) translate(-106.01, -27.13) "></path><path d="M48.07,19.83 L48.20,20.72 L49.28,20.62 C49.28,20.62 49.08,19.78 48.83,19.62 C48.59,19.46 48.07,19.83 48.07,19.83 Z" id="Path-96" opacity="0.84" fill="#FFF" filter="url(#f-16)" transform="translate(48.70, 20.20) rotate(-294.00) translate(-48.70, -20.20) "></path><path d="M69.84,64.86 L69.97,65.75 L71.05,65.65 C71.05,65.65 70.85,64.81 70.61,64.65 C70.36,64.49 69.84,64.86 69.84,64.86 Z" id="Path-97" opacity="0.84" fill="#FFF" filter="url(#f-17)" transform="translate(70.48, 65.23) rotate(-294.00) translate(-70.48, -65.23) "></path><path d="M56.09,99.50 L56.22,100.39 L57.30,100.29 C57.30,100.29 57.10,99.45 56.85,99.29 C56.61,99.13 56.09,99.50 56.09,99.50 Z" id="Path-98" opacity="0.84" fill="#FFF" filter="url(#f-18)" transform="translate(56.73, 99.87) rotate(-294.00) translate(-56.73, -99.87) "></path><path d="M90.47,111.04 L90.60,111.94 L91.68,111.83 C91.68,111.83 91.48,110.99 91.24,110.83 C90.99,110.68 90.47,111.04 90.47,111.04 Z" id="Path-99" opacity="0.84" fill="#FFF" filter="url(#f-19)" transform="translate(91.11, 111.41) rotate(-294.00) translate(-91.11, -111.41) "></path><path d="M124.86,98.34 L124.98,99.24 L126.07,99.13 C126.07,99.13 125.87,98.29 125.62,98.13 C125.38,97.98 124.86,98.34 124.86,98.34 Z" opacity="0.84" fill="#FFF" filter="url(#f-20)" transform="translate(125.49, 98.71) rotate(-294.00) translate(-125.49, -98.71) "></path><path d="M122.37,27.39 L122.88,30.96 L127.21,30.54 C127.21,30.54 126.41,27.18 125.43,26.55 C124.46,25.92 122.37,27.39 122.37,27.39 Z" id="Path-94" opacity="0.84" fill="#FDF4DB" filter="url(#f-21)" transform="translate(124.92, 28.86) rotate(-31.00) translate(-124.92, -28.86) "></path></g></g><path d="M97.99,330.78 L129.99,314.69 L114.61,301.34 L293.97,279.98 L257.71,279.15 L292.32,267.64 L275.63,27.13 L302.57,16.74 L306.01,28.86 L310.02,14.43 L350.70,313.46 L97.99,330.78 Z" fill-opacity="0.12" fill="#000" mask="url(#mask-5)"></path><path d="M199.42,61.19 C199.42,61.19 215.46,121.80 215.46,147.78 C215.46,173.76 221.77,147.78 221.77,147.78 C221.77,147.78 231.51,88.32 209.16,60.03 C209.16,60.03 233.80,87.74 211.45,169.72" id="Path-95" fill="#000" mask="url(#mask-5)"><g transform="translate(211.45, 114.88) rotate(-8.00) translate(-211.45, -114.88) "></g></path></g><g transform="translate(1.14, 56.57)" fill="#000"><path d="M200.49,5.38 L173.63,14.99 L203.43,1.15 L158.16,18.47 C158.16,18.47 135.81,30.59 129.51,40.98 C123.20,51.37 130.08,110.83 146.70,122.38 C146.70,122.38 135.81,210.13 181.08,238.41 C226.35,266.70 289.96,252.27 289.96,252.27 L302,256.89 L304.29,236.68 L280.22,211.86 L203.43,109.68 L200.49,5.38 Z" fill-opacity="0.60"></path><path d="M203.93,4.23 L177.07,13.83 L206.87,-1.25e-13 L161.60,17.31 C161.60,17.31 139.25,29.44 132.94,39.83 C126.64,50.22 133.52,109.68 150.14,121.23 C150.14,121.23 139.25,208.97 184.52,237.26 C229.79,265.55 293.40,251.11 293.40,251.11 L305.43,255.73 L307.73,235.53 L283.66,210.70 L206.87,108.52 L203.93,4.23 Z" id="shadow"></path><path d="M267.61,77.93 L272.20,102.75 L602.85,61.76 L474.99,52.41 L377.07,53.11 L331.98,72.07 L276.78,83.12 L267.61,77.93 Z" id="Path-110" fill-opacity="0.49"></path><path d="M269.90,80.24 L274.49,105.06 L383.94,62.34 L280.22,90.05 L269.90,80.24 Z" id="Path-111"></path><path d="M150.14,124.69 L120.34,129.88 L55.01,162.21 L23.49,174.91 L0.57,192.23 L99.71,159.90 L148.99,146.05 L150.14,124.69 Z" fill-opacity="0.5" transform="translate(75.64, 158.75) rotate(-2.00) translate(-75.64, -158.75) "></path><path d="M150.14,129.31 L120.34,134.50 L55.01,166.83 L23.49,179.53 L0.57,196.85 L99.71,164.52 L148.99,150.67 L150.14,129.31 Z"></path></g><path d="M294,227 L346.5,220" stroke="#000" stroke-width="2.5" stroke-linejoin="bevel" opacity="0.87"></path><path d="M297.93,231.25 L343.56,221.81" stroke="#000" stroke-width="2.5" stroke-linejoin="bevel" opacity="0.87"></path><path d="M297.93,229.25 L343.56,219.81" stroke="#000" stroke-width="2.5" stroke-linejoin="bevel" opacity="0.87"></path><g transform="translate(0.00, 63.50)"><g transform="translate(240.68, 229.76)"><g transform="translate(0.00, 12.70)"><mask id="mask-24" fill="white"><use xlink:href="#path-23"></use></mask><use fill="url(#linearGradient-22)" xlink:href="#path-23"></use><path d="M12.60,1.73 L12.60,34.05 L10.31,37.52 L10.88,42.14 L9.74,49.06 L9.16,53.68 L10.31,57.15 L13.18,60.03 L9.16,62.34 L0.57,57.72 L-2.29,39.83 L7.44,32.32 L6.87,-4.61 L12.60,1.73 Z" id="Path-99" fill-opacity="0.6" fill="#000" mask="url(#mask-24)"></path></g><g id="left-leg-+-Path-79" transform="translate(67.62, 0.00)"><mask id="mask-26" fill="white"><use xlink:href="#path-25"></use></mask><use fill="url(#linearGradient-22)" xlink:href="#path-25"></use><path d="M-2.29,11.54 L5.15,13.85 L9.16,31.17 C9.16,31.17 7.25,36.68 7.43,38.28 C8.01,43.22 5.73,45.02 5.73,45.02 C5.73,45.02 7.60,44.95 6.99,50.02 C6.75,52.03 10.63,55.15 9.88,55.40 C8.73,55.77 2.86,52.53 2.86,52.53 L-1.71,31.75 L-2.29,11.54 Z" id="shadow" fill-opacity="0.59" fill="#000" mask="url(#mask-26)"></path><path d="M10.31,36.94 L10.88,43.87 L10.88,49.06 L14.89,52.53 L14.89,55.41 L10.31,51.95 L8.59,43.29 L10.31,36.94 Z" fill-opacity="0.59" fill="#000" mask="url(#mask-26)"></path><path d="M13.75,34.63 L17.19,39.25 L18.33,43.29 L17.76,45.60 L14.89,42.14 L13.75,34.63 Z" fill-opacity="0.59" fill="#000" mask="url(#mask-26)"></path></g></g><g id="right-wing" transform="translate(0.00, 125.84)"><mask id="mask-28" fill="white"><use xlink:href="#path-27"></use></mask><g><use fill="#877368" xlink:href="#path-27"></use><use fill-opacity="0.04" fill="none" xlink:href="#path-27"></use></g><path d="M38.39,19.62 L51.69,56.79 L59.55,61.77 L57.85,73.56 L66.70,61.01 L75.40,71.80 L111.75,80.39 L154.72,102.17 L154.98,109.10 C154.98,109.10 165.34,104.06 154.98,103.72 C139.42,103.20 108.30,102.17 108.30,102.17 L-17.19,80.24 L-1.71,28.86 L38.39,19.62 Z" id="Path-32" fill-opacity="0.7" fill="#38302C" mask="url(#mask-28)"></path><path d="M187.38,108.52 L-3.43,76.77 L3.14,53.75 L30.94,32.90 L97.85,30.17 L120.27,33.02 L133.35,23.09 L133.35,36.20 L154.72,39.25 L187.38,108.52 Z" fill-opacity="0.3" fill="#443C3A" mask="url(#mask-28)"></path><path d="M158.73,-1.73 L148.99,-7.50 L134.66,20.20 L145.50,43.97 L109.45,49.64 L153.07,55.07 L156.30,67.63 L194.26,117.18 L187.38,57.72 L158.73,-1.73 Z" id="Path-34" fill-opacity="0.30" fill="#0D0D0D" mask="url(#mask-28)"></path><path d="M22.50,32.86 C24.79,31.84 97.33,14.72 105.23,13.42 C119.58,11.07 134.72,9.47 145.06,9.47 C150.89,9.47 157.60,13.24 157.60,13.24 L148.26,27.78 L120.75,23.01 C120.75,23.01 77.60,26.26 68.20,27.30 C49.86,29.33 20.21,33.88 22.50,32.86 Z" fill-opacity="0.4" fill="#FFF" mask="url(#mask-28)"><g transform="translate(90.05, 21.34) rotate(-12.00) translate(-90.05, -21.34) "></g></path><path d="M67.62,29.44 L129.53,6.37 L158.16,6.63 L158.73,-16.16 L103.14,-4.61 L67.62,29.44 Z" id="light" fill="#FFF" mask="url(#mask-28)"></path><path d="M175.92,75.04 L153.00,77.93 L139.25,75.04 L158.16,84.86 L115.18,95.82 L194.26,101.60 L175.92,75.04 Z" fill="#000" mask="url(#mask-28)"></path></g><g id="left-wing" transform="translate(270.48, 46.18)"><mask id="mask-31" fill="white"><use xlink:href="#path-30"></use></mask><g><use fill="url(#linearGradient-29)" xlink:href="#path-30"></use><use fill-opacity="0.02" fill="none" xlink:href="#path-30"></use></g><g id="light"><use fill="#F6EDE6" mask="url(#mask-31)" xlink:href="#path-32"></use><use fill-opacity="0.01" fill="none" xlink:href="#path-32"></use></g><path d="M29.22,114.30 L65.32,104.48 L69.91,77.35 L75.07,100.44 L128.36,92.94 L146.70,84.28 L149.56,93.52 L210.88,72.16 L263.60,40.98 L279.07,15.00 L281.37,12.70 L342.68,8.08 L330.65,69.27 L220.05,124.11 L79.65,127.58 L29.22,128.73 L29.22,114.30 Z" fill-opacity="0.33" fill="#332C23" mask="url(#mask-31)"></path><path d="M207.44,-7.50 L162.74,31.17 L102.00,54.26 L142.11,63.50 L127.21,111.99 L263.60,100.44 L355.29,10.96 L338.10,-19.05 L207.44,-7.50 Z" fill-opacity="0.04" fill="#000" mask="url(#mask-31)"></path></g><g id="body" transform="translate(137.53, 3.46)"><mask id="mask-35" fill="white"><use xlink:href="#path-34"></use></mask><g><use fill="none" xlink:href="#path-34"></use><use fill="url(#linearGradient-33)" fill-rule="evenodd" xlink:href="#path-34"></use><use fill-opacity="0.05" fill="none" fill-rule="evenodd" xlink:href="#path-34"></use></g><g ><use fill-opacity="0.63" fill="#FFF" mask="url(#mask-35)" xlink:href="#path-36"></use><use fill-opacity="0.01" fill="none" xlink:href="#path-36"></use></g><path d="M10.31,115.45 L73.92,137.97 L77.60,176.61 L105.80,214.28 L147.84,235.53 L140.39,263.82 L10.31,206.66 L10.31,115.45 Z" id="shadow" fill="url(#linearGradient-37)" mask="url(#mask-35)"></path><path d="M153.57,132.19 C153.57,132.19 161.02,189.92 147.84,213.01 L185.09,247.65 L181.08,213.01 L166.18,153.55 L153.57,132.19 Z" fill="url(#linearGradient-38)" mask="url(#mask-35)"></path><path d="M53.29,125.27 L45.27,135.08 L57.87,139.70 L55.58,152.98 L86.53,169.72 L93.98,135.08 L83.09,120.65 L62.46,116.03 L53.29,125.27 Z" id="Path-98" fill="#FFF" mask="url(#mask-35)"></path><g mask="url(#mask-35)" fill="#895548"><g transform="translate(50.42, 150.09)"><path d="M33.62,13.43 L29.95,13.62 L27.71,16.82 L27.28,20.32 L29.61,23.53 L34.41,23.09 L35.58,20.68 L35.30,16.85 L33.62,13.43 Z" id="spot"></path><path d="M40.19,1.62 L39.18,4.94 L43.38,8.69 L45.56,7.94 L45.82,4.36 L45.35,5.56e-14 L40.19,1.62 Z" id="spot"></path><path d="M31.23,29.75 L28.73,30.49 L26.10,34.17 L28.48,37.55 L30.65,38.02 L32.72,35.84 L33.89,32.32 L31.23,29.75 Z" id="spot"></path><path d="M16.56,30.44 L14.03,32.18 L13.75,34.63 L17.64,38.37 L24.06,41.56 L22.36,35.06 L20.05,30.59 L16.56,30.44 Z"></path><path d="M15.08,9.07 L12.60,12.70 L14.76,16.24 L19.48,18.47 L20.52,13.67 L18.91,8.65 L15.08,9.07 Z" id="Path-42"></path><path d="M44.98,23.61 L42.66,23.55 L41.47,24.92 L41.13,26.90 L42.92,28.69 L45.20,28.28 L45.87,27.07 L45.71,25.16 L44.98,23.61 Z" id="spot-2"></path><path d="M38.43,38.91 L37.83,40.30 L40.03,42.44 L41.25,40.43 L41.01,38.10 L38.43,38.91 Z" id="spot-2"></path><path d="M24.90,25.41 L23.13,25.67 L21.62,28.08 L22.99,29.70 L24.68,29.72 L26.07,26.72 L24.90,25.41 Z" id="spot-2"></path><path d="M22.54,10.94 L21.77,12.70 L27.50,16.16 L25.27,10.67 L22.54,10.94 Z" id="Path-42" transform="translate(24.64, 13.27) rotate(48.00) translate(-24.64, -13.27) "></path><path d="M47.55,45.01 L46.99,46.43 L48.18,48.52 L50.42,49.64 L50.94,46.93 L50.14,44.19 L47.55,45.01 Z" id="Path-43"></path><path d="M52.53,26.22 L50.42,27.70 L49.09,32.21 L50.48,36.19 L53.29,38.10 L55.01,32.32 L52.53,26.22 Z"></path><path d="M35.88,51.21 L35.43,48.01 L33.23,45.02 L29.99,46.62 L29.22,49.06 L30.52,52.04 L34.38,53.68 L35.88,51.21 Z" id="Path-49"></path><path d="M43.75,12.14 L42.33,12.48 L40.81,15.83 L42.66,17.65 L44.88,17.22 L45.56,15.67 L45.39,14.10 L43.75,12.14 Z" id="spot-2" transform="translate(43.23, 14.91) rotate(133.00) translate(-43.23, -14.91) "></path><path d="M62.88,52.92 L62.44,54.69 L64.48,56.45 L65.70,55.01 L65.46,52.10 L62.88,52.92 Z" id="spot-2" transform="translate(63.98, 54.41) rotate(133.00) translate(-63.98, -54.41) "></path><path d="M50.10,52.07 L48.58,54.40 L49.95,56.11 L51.27,56.35 L53.04,53.12 L50.10,52.07 Z" id="spot-2" transform="translate(51.03, 54.11) rotate(133.00) translate(-51.03, -54.11) "></path><path d="M56.04,45.38 L55.14,47.21 L57.46,49.17 L60.87,50.67 L60.18,48.15 L58.64,45.19 L56.04,45.38 Z" id="Path-42" transform="translate(58.01, 47.79) rotate(169.00) translate(-58.01, -47.79) "></path><path d="M40.79,47.83 L39.47,49.89 L40.68,51.99 L42.91,53.10 L43.40,49.94 L42.62,47.65 L40.79,47.83 Z" id="Path-43" transform="translate(41.19, 50.21) rotate(133.00) translate(-41.19, -50.21) "></path><path d="M36.48,26.89 L35.71,28.56 L36.50,29.42 L37.75,29.25 L38.01,27.70 L36.48,26.89 Z" id="spot-3" transform="translate(36.92, 27.81) rotate(133.00) translate(-36.92, -27.81) "></path><path d="M26.75,41.07 L27.81,42.84 L28.62,41.72 L28.47,40.66 L26.75,41.07 Z" id="spot-3" transform="translate(27.49, 41.82) rotate(133.00) translate(-27.49, -41.82) "></path><path d="M30.04,8.46 L29.97,10.47 L31.16,10.03 L31.52,8.98 L30.04,8.46 Z" id="spot-3" transform="translate(30.51, 9.48) rotate(133.00) translate(-30.51, -9.48) "></path><path d="M6.05,28.68 L5.51,29.77 L7.47,31.24 L8.95,31.85 L7.61,28.56 L6.05,28.68 Z" id="Path-43" transform="translate(7.23, 30.12) rotate(133.00) translate(-7.23, -30.12) "></path><path d="M1.15,10.16 L2.00,11.46 L3.44,12.09 L3.73,9.87 L3.25,8.81 L1.15,10.16 Z" id="Path-44" transform="translate(2.30, 10.35) rotate(133.00) translate(-2.30, -10.35) "></path><path d="M15.38,19.87 L13.79,20.46 L13.06,23.22 L15.50,25.65 L16.56,23.89 L16.54,22.77 L15.38,19.87 Z" id="Path-49" transform="translate(14.82, 22.77) rotate(133.00) translate(-14.82, -22.77) "></path><path d="M49.08,34.74 L47.83,32.61 L45.83,34.63 L46.58,36.21 L48.41,36.94 L49.08,34.74 Z" id="Path-50" transform="translate(47.26, 34.91) rotate(133.00) translate(-47.26, -34.91) "></path><path d="M23.62,48.34 C23.62,48.34 22.34,46.18 22.34,46.18 C22.34,46.18 21.08,48.43 21.08,48.43 L22.34,49.06 L23.62,48.34 Z" id="Path-50"></path><path d="M8.44,0.51 L5.73,2.88 L7.04,5.83 L10.31,6.92 L10.88,1.15 L8.44,0.51 Z" id="Path-51"></path><path d="M9.74,17.89 C9.74,17.89 5.07,17.38 5.07,17.38 L2.29,21.35 L7.44,22.51 C7.44,22.51 9.74,17.89 9.74,17.89 Z"></path></g></g><path d="M24.06,199.16 L21.20,187.61 L67.62,213.59 L91.48,212.47 L90.71,217.46 L98.83,220.46 L97.69,211.61 L123.77,213.01 L136.82,220.46 L167.33,226.23 L189.10,248.23 L153.57,240.15 L61.31,243.61 L24.06,199.16 Z" fill-opacity="0.42" fill="#6B5850" mask="url(#mask-35)"></path></g><g id="head" transform="translate(130.65, 0.00)"><g transform="translate(2.29, 0.00)"><mask id="mask-41" fill="white"><use xlink:href="#path-40"></use></mask><g id="head"><use fill="#875549" fill-rule="evenodd" xlink:href="#path-40"></use><use fill="url(#linearGradient-39)" fill-rule="evenodd" xlink:href="#path-40"></use><use fill-opacity="0.02" fill="none" fill-rule="evenodd" xlink:href="#path-40"></use><use fill="none" fill-rule="evenodd" xlink:href="#path-40"></use><use fill="none" xlink:href="#path-40"></use></g><path d="M35.37,65.98 L33.68,56.97 L27.81,73.88 L17.22,78.57 L27.86,79.58 L36.12,86.88 L43.31,70.96 L35.37,65.98 Z" fill-opacity="0.24" fill="#FCE2D2" mask="url(#mask-41)"><g transform="translate(30.40, 72.20) rotate(80.00) translate(-30.40, -72.20) "></g></path><path d="M8.02,44.45 L12.69,78.33 L33.23,91.78 L52.11,115.23 L91.68,113.72 L81.03,121.25 L105.40,118.20 L89.39,142.58 L36.67,135.66 L30.37,122.38 L16.18,137.97 L1.14,76.20 L8.02,44.45 Z" id="shadow" fill-opacity="0.20" fill="#1D120E" mask="url(#mask-41)"></path><path d="M16.61,7.50 C16.61,7.50 -1.31,26.97 -3.97,36.70 C-8.00,51.41 -1.14,86.59 -1.14,86.59 L26.93,29.44 L59.76,25.45 L47.54,15.56 L99.71,2.30 L140.97,-3.46 L127.21,-16.74 L16.61,7.50 Z" id="shadow" fill-opacity="0.39" fill="#080606" mask="url(#mask-41)"></path><path d="M35.52,2.88 L42.40,4.61 C42.40,4.61 78.91,-2.12 104.16,2.05 C126.64,5.77 120.36,10.93 125.49,16.16 C132.37,23.16 133.52,34.05 135.17,43.33 C136.81,52.61 160.45,50.80 160.45,50.80 L123.20,-11.54 L35.52,2.88 Z" id="light" fill-opacity="0.54" fill="#FFF" mask="url(#mask-41)"></path><path d="M11.46,61.76 L24.06,84.28 L40.11,84.86 L20.05,87.17 L9.16,68.11 L11.46,61.76 Z" fill="#FFF" mask="url(#mask-41)"></path><path d="M115.75,72.16 L128.22,63.24 L133.52,45.02 L133.89,55.57 L131.22,66.96 L115.75,72.16 Z" fill="#FFF" mask="url(#mask-41)"></path><path d="M130.17,51.74 L125.16,49.22 L115.59,53.08 L112.04,65.39 L120.53,66.40 L124.03,70.76 L132.69,59.79 L130.17,51.74 Z" id="light" fill-opacity="0.24" fill="#FCE2D2" mask="url(#mask-41)"><g transform="translate(122.74, 59.94) rotate(10.00) translate(-122.74, -59.94) "></g></path><path d="M138.10,46.18 L133.52,59.04 L138.10,88.90 L122.63,106.22 L158.16,92.94 L180.51,77.35 L147.27,76.77 L138.10,46.18 Z" fill-opacity="0.20" fill="#1D120E" mask="url(#mask-41)"></path></g><g transform="translate(83.66, 15.00)"><g ><use fill="none" xlink:href="#path-43"></use><use fill="url(#linearGradient-42)" fill-rule="evenodd" xlink:href="#path-43"></use></g><path d="M15.47,50.22 L17.13,44.57 L25.78,38.67 L44.12,36.94 L28.65,40.41 L15.47,50.22 Z" fill="#010100" transform="translate(29.79, 43.58) rotate(4.00) translate(-29.79, -43.58) "></path></g><g transform="translate(4.58, 27.70)"><path d="M0,15.00 L25.78,30.01 L47.84,25.98 L58.55,40.26 L37.82,42.71 C37.82,42.71 56.15,43.29 56.15,50.22 C56.15,57.15 67.62,47.33 67.62,47.33 L61.88,15.00 L32.66,-0.57 L0,15.00 Z" fill-opacity="0.60" fill="#080606"></path><path d="M56.15,41.56 L43.55,37.52 L27.50,45.02 L43.55,39.83 L56.15,41.56 Z" fill="#010100"></path></g><g id="mouth-+-beak" transform="translate(52.72, 72.73)"><path d="M5.15,8.65 L-1.27e-16,12.12 C-1.27e-16,12.12 17.76,18.76 23.49,28.28 C29.22,37.80 35.52,28.28 35.52,28.28 C35.52,28.28 44.12,13.85 48.70,8.08 C53.29,2.30 5.15,8.65 5.15,8.65 Z" id="shadow" fill-opacity="0.39" fill="#080606"></path><g transform="translate(9.16, 8.08)"><mask id="mask-45" fill="white"><use xlink:href="#path-44"></use></mask><use fill="#FDEED3" xlink:href="#path-44"></use><path d="M22.92,20.78 L20.05,15.00 L3.43,4.61 L-4.58,6.92 L15.47,20.78 L22.92,20.78 Z" fill="#B7893D" mask="url(#mask-45)"></path></g><g id="mouth-+-tongue" transform="translate(0.00, 1.15)"><mask id="mask-48" fill="white"><use xlink:href="#path-47"></use></mask><use fill="url(#linearGradient-46)" xlink:href="#path-47"></use><path d="M30.37,17.60 L36.10,15.00 L40.11,16.16 L34.38,25.97 C34.38,25.97 27.50,24.82 27.50,24.82 C27.50,24.82 30.37,17.60 30.37,17.60 Z" id="tongue" fill="url(#linearGradient-49)" mask="url(#mask-48)"></path></g><mask id="mask-52" fill="white"><use xlink:href="#path-51"></use></mask><use fill="url(#linearGradient-50)" xlink:href="#path-51"></use><path d="M24.64,-0.57 L24.69,5.94 L26.93,13.85 L42.40,2.88 L24.64,-0.57 Z" id="light" fill="#FFF" mask="url(#mask-52)"></path></g><g transform="translate(0.00, 20.78)"><mask id="mask-54" fill="white"><use xlink:href="#path-53"></use></mask><use fill="#FFF" xlink:href="#path-53"></use><path d="M62.46,68.11 L67.04,55.41 L73.35,65.81 L73.35,46.18 C73.35,46.18 61.88,13.27 53.29,13.27 C48.88,13.27 37.24,9.96 37.24,9.96 L47.56,1.15 L11.78,6.50 L-1.71,24.24 L33.81,50.22 L51.00,66.96 L62.46,68.11 Z" id="shadow" fill-opacity="0.09" fill="#484343" mask="url(#mask-54)"></path></g><g transform="translate(76.78, 11.54)"><path d="M1.14,47.91 L2.83,59.01 L0.40,69.00 L3.43,66.96 L5.73,66.38 L4.58,71.00 L17.19,69.27 L10.88,57.15 L1.14,47.91 Z" id="shadow" fill-opacity="0.23" fill="#484343"></path><mask id="mask-56" fill="white"><use xlink:href="#path-55"></use></mask><use fill="#FFF" xlink:href="#path-55"></use><path d="M13.75,73.31 L15.47,64.07 L7.44,43.87 L8.02,21.35 L17.76,7.50 L42.97,5.77 L61.31,6.92 L60.17,16.74 L22.34,17.89 L19.48,39.83 L26.93,58.88 L27.50,73.89 L13.75,73.31 Z" id="shadow" fill-opacity="0.2" fill="#8D8D8D" mask="url(#mask-56)"></path></g></g><g id="shadow"><use fill-opacity="0.10" fill="#000" xlink:href="#path-57"></use><use fill-opacity="0.03" fill="none" xlink:href="#path-57"></use></g></g><g transform="translate(33.23, 50.64)"><g id="head" transform="translate(128.51, 0.00)" stroke="#000"><g id="hair" transform="translate(27.36, 0.00)"><path d="M4.02,31.10 C4.02,31.10 4.02,8.85 26.29,3.40" transform="translate(14.91, 17.25) rotate(-21.00) translate(-14.91, -17.25) "></path><path d="M11.46,29.86 C11.46,29.86 14.32,13.12 23.49,13.12" transform="translate(17.76, 21.78) rotate(-21.00) translate(-17.76, -21.78) "></path></g><path d="M1.21,117.73 L26.27,132.07 L64.37,119.72" stroke-width="2.5" stroke-linejoin="bevel" opacity="0.87" transform="translate(32.73, 124.66) rotate(12.00) translate(-32.73, -124.66) "></path><path d="M52.81,100.73 L51.87,106.43" id="tongue" stroke-opacity="0.82" stroke-width="2.5" opacity="0.80"></path><path d="M72.63,76.93 L78.73,69.33 L84.66,64.23 L90.71,62.16 L97.84,60.76" id="Path-87" stroke-width="2.5" stroke-linejoin="bevel" opacity="0.87"></path><path d="M80.65,66.54 L86.38,64.81 L92.68,65.96" stroke-width="2.5" stroke-linejoin="bevel" opacity="0.87"></path><path d="M34.23,83.28 L17.09,80.88 L1.57,84.43" id="Path-96" stroke-width="2.5" stroke-linejoin="bevel" opacity="0.87"></path><path d="M6.15,85.01 L13.60,80.39" stroke-width="2.5" stroke-linejoin="bevel" opacity="0.87"></path></g><g id="body" transform="translate(116.90, 128.46)" stroke="#000" opacity="0.87"><path d="M145.67,0.99 C145.67,0.99 160.48,29.93 134.14,98.49" stroke-width="2.5" stroke-linejoin="bevel" transform="translate(142.15, 49.62) rotate(-8.00) translate(-142.15, -49.62) "></path><g id="hair" transform="translate(59.59, 20.62)"><path d="M0,3.78 L4.58,9.23"></path><path d="M5.44,0 L4.29,6.61"></path><path d="M0,9.53 L4.58,14.98"></path><path d="M8.73,6.30 L5.61,12.23"></path><path d="M23.17,66.29 L29.71,69.05"></path><path d="M19.82,52.25 L21.78,58.66" id="Path-87"></path></g><path d="M148.97,134.54 L133.18,119.41" stroke-width="2.5" stroke-linejoin="bevel"></path><path d="M65.21,119.03 L108.39,134.56" stroke-width="2.5" stroke-linejoin="bevel"></path><path d="M3.31,62.99 L22.55,96.50" stroke-width="2.5" stroke-linejoin="bevel"></path><path d="M0.44,57.57 L20.84,90.38" stroke-width="2.5" stroke-linejoin="bevel"></path><path d="M115.69,38.21 L116.86,64.80" stroke-width="2.5" stroke-linejoin="bevel"></path><path d="M12.52,41.52 L44.27,98.38" stroke-width="2.5" stroke-linejoin="bevel"></path></g><g id="left-wing" transform="translate(238.39, 61.34)" stroke="#000" stroke-width="2.5" opacity="0.87" stroke-linejoin="bevel"><path d="M0,44.45 L96.84,8.08" id="Path-105"></path><path d="M10.88,43.87 L105.44,0.57" id="Path-106"></path><path d="M27.50,112.57 L41.25,60.61" id="Path-105"></path><path d="M32.66,81.97 L46.41,55.41" id="Path-106"></path><path d="M40.68,62.92 L113.46,11.54"></path><path d="M72.77,101.02 C72.77,101.02 68.76,80.24 68.76,73.31" transform="translate(71.05, 87.17) rotate(-2.00) translate(-71.05, -87.17) "></path></g><g id="right-wing" transform="translate(0.00, 146.78)" stroke="#000" stroke-width="2.5" opacity="0.87" stroke-linejoin="bevel"><path d="M63.76,42.75 L119.00,45.53"></path><path d="M111.74,42.71 L124.92,54.26"></path><path d="M0,37.52 L85.38,-0.57"></path></g><g transform="translate(255.58, 191.81)"><mask id="mask-60" fill="white"><use xlink:href="#path-59"></use></mask><g><use fill="url(#linearGradient-58)" xlink:href="#path-59"></use><use fill-opacity="0.22" fill="none" xlink:href="#path-59"></use></g><path d="M11.46,5.19 L17.76,24.24 L58.45,5.77 L41.83,34.63 L16.04,41.56 L0.57,43.87 L-4.58,19.62 L1.71,-1.73 L11.46,5.19 Z" id="Path-97" fill="#000" mask="url(#mask-60)"></path></g></g></g></g></g></svg>