<?xml version="1.0" encoding="UTF-8" standalone="no"?>
<svg width="604px" height="366px" viewBox="0 0 604 366" version="1.1" xmlns="http://www.w3.org/2000/svg" xmlns:xlink="http://www.w3.org/1999/xlink" xmlns:sketch="http://www.bohemiancoding.com/sketch/ns">
    <!-- Generator: Sketch 3.1 (8751) - http://www.bohemiancoding.com/sketch -->
    <title>owl illustration 2</title>
    <desc>Created with Sketch.</desc>
    <defs>
        <linearGradient x1="53.5865346%" y1="21.0314576%" x2="18.8191654%" y2="92.5575138%" id="linearGradient-1">
            <stop stop-color="#83BFD2" offset="0%"></stop>
            <stop stop-color="#C6A282" offset="100%"></stop>
        </linearGradient>
        <radialGradient cx="78.8335756%" cy="9.82401023%" fx="78.8335756%" fy="9.82401023%" r="53.1684438%" id="radialGradient-2">
            <stop stop-color="#212523" offset="0%"></stop>
            <stop stop-color="#6C6565" stop-opacity="0" offset="100%"></stop>
        </radialGradient>
        <radialGradient cx="65.3500451%" cy="46.6323479%" fx="65.3500451%" fy="46.6323479%" r="19.5494971%" id="radialGradient-3">
            <stop stop-color="#54AB41" stop-opacity="0.5" offset="0%"></stop>
            <stop stop-color="#56B54E" stop-opacity="0" offset="100%"></stop>
        </radialGradient>
        <path id="path-4" d="M0.573055028,69.851735 L146.702087,25.977918 L285.954459,0.577287066 L240.683112,18.4731861 L311.16888,1.7318612 L359.305503,318.662461 C291.00599,322.971682 191.852138,333.566289 191.852138,333.566289 L163.023549,334.589745 L167.018805,328.205654 L84.8121442,347.526814 L10.3149905,76.7791798 L15.4724858,117.766562 L0.573055028,69.851735 Z"></path>
        <filter x="-50%" y="-50%" width="200%" height="200%" filterUnits="objectBoundingBox" id="filter-6">
            <feOffset dx="0" dy="0" in="SourceAlpha" result="shadowOffsetOuter1"></feOffset>
            <feGaussianBlur stdDeviation="17.5" in="shadowOffsetOuter1" result="shadowBlurOuter1"></feGaussianBlur>
            <feColorMatrix values="0 0 0 0 0.212558461   0 0 0 0 0.186835734   0 0 0 0 0.186835734  0 0 0 0.0820708786 0" in="shadowBlurOuter1" type="matrix" result="shadowMatrixOuter1"></feColorMatrix>
            <feMerge>
                <feMergeNode in="shadowMatrixOuter1"></feMergeNode>
                <feMergeNode in="SourceGraphic"></feMergeNode>
            </feMerge>
        </filter>
        <filter x="-50%" y="-50%" width="200%" height="200%" filterUnits="objectBoundingBox" id="filter-7">
            <feOffset dx="0" dy="0" in="SourceAlpha" result="shadowOffsetOuter1"></feOffset>
            <feGaussianBlur stdDeviation="5" in="shadowOffsetOuter1" result="shadowBlurOuter1"></feGaussianBlur>
            <feColorMatrix values="0 0 0 0 1   0 0 0 0 1   0 0 0 0 1  0 0 0 0.35 0" in="shadowBlurOuter1" type="matrix" result="shadowMatrixOuter1"></feColorMatrix>
            <feMerge>
                <feMergeNode in="shadowMatrixOuter1"></feMergeNode>
                <feMergeNode in="SourceGraphic"></feMergeNode>
            </feMerge>
        </filter>
        <filter x="-50%" y="-50%" width="200%" height="200%" filterUnits="objectBoundingBox" id="filter-8">
            <feOffset dx="0" dy="0" in="SourceAlpha" result="shadowOffsetOuter1"></feOffset>
            <feGaussianBlur stdDeviation="5" in="shadowOffsetOuter1" result="shadowBlurOuter1"></feGaussianBlur>
            <feColorMatrix values="0 0 0 0 1   0 0 0 0 1   0 0 0 0 1  0 0 0 0.35 0" in="shadowBlurOuter1" type="matrix" result="shadowMatrixOuter1"></feColorMatrix>
            <feMerge>
                <feMergeNode in="shadowMatrixOuter1"></feMergeNode>
                <feMergeNode in="SourceGraphic"></feMergeNode>
            </feMerge>
        </filter>
        <filter x="-50%" y="-50%" width="200%" height="200%" filterUnits="objectBoundingBox" id="filter-9">
            <feOffset dx="0" dy="0" in="SourceAlpha" result="shadowOffsetOuter1"></feOffset>
            <feGaussianBlur stdDeviation="5" in="shadowOffsetOuter1" result="shadowBlurOuter1"></feGaussianBlur>
            <feColorMatrix values="0 0 0 0 1   0 0 0 0 1   0 0 0 0 1  0 0 0 0.35 0" in="shadowBlurOuter1" type="matrix" result="shadowMatrixOuter1"></feColorMatrix>
            <feMerge>
                <feMergeNode in="shadowMatrixOuter1"></feMergeNode>
                <feMergeNode in="SourceGraphic"></feMergeNode>
            </feMerge>
        </filter>
        <filter x="-50%" y="-50%" width="200%" height="200%" filterUnits="objectBoundingBox" id="filter-10">
            <feOffset dx="0" dy="0" in="SourceAlpha" result="shadowOffsetOuter1"></feOffset>
            <feGaussianBlur stdDeviation="5" in="shadowOffsetOuter1" result="shadowBlurOuter1"></feGaussianBlur>
            <feColorMatrix values="0 0 0 0 1   0 0 0 0 1   0 0 0 0 1  0 0 0 0.35 0" in="shadowBlurOuter1" type="matrix" result="shadowMatrixOuter1"></feColorMatrix>
            <feMerge>
                <feMergeNode in="shadowMatrixOuter1"></feMergeNode>
                <feMergeNode in="SourceGraphic"></feMergeNode>
            </feMerge>
        </filter>
        <filter x="-50%" y="-50%" width="200%" height="200%" filterUnits="objectBoundingBox" id="filter-11">
            <feOffset dx="0" dy="0" in="SourceAlpha" result="shadowOffsetOuter1"></feOffset>
            <feGaussianBlur stdDeviation="2.5" in="shadowOffsetOuter1" result="shadowBlurOuter1"></feGaussianBlur>
            <feColorMatrix values="0 0 0 0 1   0 0 0 0 1   0 0 0 0 1  0 0 0 0.35 0" in="shadowBlurOuter1" type="matrix" result="shadowMatrixOuter1"></feColorMatrix>
            <feMerge>
                <feMergeNode in="shadowMatrixOuter1"></feMergeNode>
                <feMergeNode in="SourceGraphic"></feMergeNode>
            </feMerge>
        </filter>
        <filter x="-50%" y="-50%" width="200%" height="200%" filterUnits="objectBoundingBox" id="filter-12">
            <feOffset dx="0" dy="0" in="SourceAlpha" result="shadowOffsetOuter1"></feOffset>
            <feGaussianBlur stdDeviation="2.5" in="shadowOffsetOuter1" result="shadowBlurOuter1"></feGaussianBlur>
            <feColorMatrix values="0 0 0 0 1   0 0 0 0 1   0 0 0 0 1  0 0 0 0.35 0" in="shadowBlurOuter1" type="matrix" result="shadowMatrixOuter1"></feColorMatrix>
            <feMerge>
                <feMergeNode in="shadowMatrixOuter1"></feMergeNode>
                <feMergeNode in="SourceGraphic"></feMergeNode>
            </feMerge>
        </filter>
        <filter x="-50%" y="-50%" width="200%" height="200%" filterUnits="objectBoundingBox" id="filter-13">
            <feOffset dx="0" dy="0" in="SourceAlpha" result="shadowOffsetOuter1"></feOffset>
            <feGaussianBlur stdDeviation="2.5" in="shadowOffsetOuter1" result="shadowBlurOuter1"></feGaussianBlur>
            <feColorMatrix values="0 0 0 0 1   0 0 0 0 1   0 0 0 0 1  0 0 0 0.35 0" in="shadowBlurOuter1" type="matrix" result="shadowMatrixOuter1"></feColorMatrix>
            <feMerge>
                <feMergeNode in="shadowMatrixOuter1"></feMergeNode>
                <feMergeNode in="SourceGraphic"></feMergeNode>
            </feMerge>
        </filter>
        <filter x="-50%" y="-50%" width="200%" height="200%" filterUnits="objectBoundingBox" id="filter-14">
            <feOffset dx="0" dy="0" in="SourceAlpha" result="shadowOffsetOuter1"></feOffset>
            <feGaussianBlur stdDeviation="2.5" in="shadowOffsetOuter1" result="shadowBlurOuter1"></feGaussianBlur>
            <feColorMatrix values="0 0 0 0 1   0 0 0 0 1   0 0 0 0 1  0 0 0 0.35 0" in="shadowBlurOuter1" type="matrix" result="shadowMatrixOuter1"></feColorMatrix>
            <feMerge>
                <feMergeNode in="shadowMatrixOuter1"></feMergeNode>
                <feMergeNode in="SourceGraphic"></feMergeNode>
            </feMerge>
        </filter>
        <filter x="-50%" y="-50%" width="200%" height="200%" filterUnits="objectBoundingBox" id="filter-15">
            <feOffset dx="0" dy="0" in="SourceAlpha" result="shadowOffsetOuter1"></feOffset>
            <feGaussianBlur stdDeviation="2.5" in="shadowOffsetOuter1" result="shadowBlurOuter1"></feGaussianBlur>
            <feColorMatrix values="0 0 0 0 1   0 0 0 0 1   0 0 0 0 1  0 0 0 0.35 0" in="shadowBlurOuter1" type="matrix" result="shadowMatrixOuter1"></feColorMatrix>
            <feMerge>
                <feMergeNode in="shadowMatrixOuter1"></feMergeNode>
                <feMergeNode in="SourceGraphic"></feMergeNode>
            </feMerge>
        </filter>
        <filter x="-50%" y="-50%" width="200%" height="200%" filterUnits="objectBoundingBox" id="filter-16">
            <feOffset dx="0" dy="0" in="SourceAlpha" result="shadowOffsetOuter1"></feOffset>
            <feGaussianBlur stdDeviation="2.5" in="shadowOffsetOuter1" result="shadowBlurOuter1"></feGaussianBlur>
            <feColorMatrix values="0 0 0 0 1   0 0 0 0 1   0 0 0 0 1  0 0 0 0.35 0" in="shadowBlurOuter1" type="matrix" result="shadowMatrixOuter1"></feColorMatrix>
            <feMerge>
                <feMergeNode in="shadowMatrixOuter1"></feMergeNode>
                <feMergeNode in="SourceGraphic"></feMergeNode>
            </feMerge>
        </filter>
        <filter x="-50%" y="-50%" width="200%" height="200%" filterUnits="objectBoundingBox" id="filter-17">
            <feOffset dx="0" dy="0" in="SourceAlpha" result="shadowOffsetOuter1"></feOffset>
            <feGaussianBlur stdDeviation="2.5" in="shadowOffsetOuter1" result="shadowBlurOuter1"></feGaussianBlur>
            <feColorMatrix values="0 0 0 0 1   0 0 0 0 1   0 0 0 0 1  0 0 0 0.35 0" in="shadowBlurOuter1" type="matrix" result="shadowMatrixOuter1"></feColorMatrix>
            <feMerge>
                <feMergeNode in="shadowMatrixOuter1"></feMergeNode>
                <feMergeNode in="SourceGraphic"></feMergeNode>
            </feMerge>
        </filter>
        <filter x="-50%" y="-50%" width="200%" height="200%" filterUnits="objectBoundingBox" id="filter-18">
            <feOffset dx="0" dy="0" in="SourceAlpha" result="shadowOffsetOuter1"></feOffset>
            <feGaussianBlur stdDeviation="2.5" in="shadowOffsetOuter1" result="shadowBlurOuter1"></feGaussianBlur>
            <feColorMatrix values="0 0 0 0 1   0 0 0 0 1   0 0 0 0 1  0 0 0 0.35 0" in="shadowBlurOuter1" type="matrix" result="shadowMatrixOuter1"></feColorMatrix>
            <feMerge>
                <feMergeNode in="shadowMatrixOuter1"></feMergeNode>
                <feMergeNode in="SourceGraphic"></feMergeNode>
            </feMerge>
        </filter>
        <filter x="-50%" y="-50%" width="200%" height="200%" filterUnits="objectBoundingBox" id="filter-19">
            <feOffset dx="0" dy="0" in="SourceAlpha" result="shadowOffsetOuter1"></feOffset>
            <feGaussianBlur stdDeviation="2.5" in="shadowOffsetOuter1" result="shadowBlurOuter1"></feGaussianBlur>
            <feColorMatrix values="0 0 0 0 1   0 0 0 0 1   0 0 0 0 1  0 0 0 0.35 0" in="shadowBlurOuter1" type="matrix" result="shadowMatrixOuter1"></feColorMatrix>
            <feMerge>
                <feMergeNode in="shadowMatrixOuter1"></feMergeNode>
                <feMergeNode in="SourceGraphic"></feMergeNode>
            </feMerge>
        </filter>
        <filter x="-50%" y="-50%" width="200%" height="200%" filterUnits="objectBoundingBox" id="filter-20">
            <feOffset dx="0" dy="0" in="SourceAlpha" result="shadowOffsetOuter1"></feOffset>
            <feGaussianBlur stdDeviation="2.5" in="shadowOffsetOuter1" result="shadowBlurOuter1"></feGaussianBlur>
            <feColorMatrix values="0 0 0 0 1   0 0 0 0 1   0 0 0 0 1  0 0 0 0.35 0" in="shadowBlurOuter1" type="matrix" result="shadowMatrixOuter1"></feColorMatrix>
            <feMerge>
                <feMergeNode in="shadowMatrixOuter1"></feMergeNode>
                <feMergeNode in="SourceGraphic"></feMergeNode>
            </feMerge>
        </filter>
        <filter x="-50%" y="-50%" width="200%" height="200%" filterUnits="objectBoundingBox" id="filter-21">
            <feOffset dx="0" dy="0" in="SourceAlpha" result="shadowOffsetOuter1"></feOffset>
            <feGaussianBlur stdDeviation="2.5" in="shadowOffsetOuter1" result="shadowBlurOuter1"></feGaussianBlur>
            <feColorMatrix values="0 0 0 0 1   0 0 0 0 1   0 0 0 0 1  0 0 0 0.35 0" in="shadowBlurOuter1" type="matrix" result="shadowMatrixOuter1"></feColorMatrix>
            <feMerge>
                <feMergeNode in="shadowMatrixOuter1"></feMergeNode>
                <feMergeNode in="SourceGraphic"></feMergeNode>
            </feMerge>
        </filter>
        <linearGradient x1="1.38512436%" y1="50%" x2="100%" y2="50%" id="linearGradient-22">
            <stop stop-color="#594D4D" offset="0%"></stop>
            <stop stop-color="#292424" offset="100%"></stop>
        </linearGradient>
        <path id="path-23" d="M7.44971575,1.15457406 L14.8994311,0.577286996 L13.7533207,32.3280757 C13.7533207,32.3280757 15.5204925,33.4772833 16.0455408,36.3690851 C16.1483806,36.9354944 16.0455408,40.3255177 16.0455408,40.9873816 C16.0455408,45.0283911 18.9108159,45.6056782 18.9108159,45.6056782 C18.9108159,45.6056782 19.3770662,47.9934653 19.483871,49.0694006 C19.5680845,49.9177555 18.9108159,51.3785488 18.9108159,51.3785488 C18.9108159,51.3785488 19.483871,51.3785488 18.3377609,51.3785488 C17.8218239,51.3785488 17.1916509,49.6466876 17.1916509,49.6466876 L15.4724858,46.7602523 L13.1802657,43.2965299 L10.8880455,48.4921135 L10.8880455,54.8422712 C10.8880455,54.8422712 13.0568063,57.1866536 13.1802657,58.3059936 C13.303725,59.4253336 11.4611006,60.0378548 11.4611006,60.0378548 L8.59582543,58.3059936 L6.87666034,53.11041 L7.44971592,47.9148264 L8.59582543,43.873817 L6.87666034,46.1829652 L4.58444023,52.533123 L5.73055028,55.4195583 L5.73055028,57.7287066 C5.73055028,58.8832807 3.43833017,58.8832807 3.43833017,58.8832807 L0.573055028,53.6876971 L2.86527514,46.7602523 L4.0113852,43.2965299 L4.58444023,40.9873816 L4.0113852,38.1009462 C4.0113852,38.1009462 7.44971537,32.9053628 8.59582543,32.9053628 C9.74193548,32.9053628 7.44971575,1.15457406 7.44971575,1.15457406 Z"></path>
        <path id="path-25" d="M0.529649567,-0.00110611296 L8.0227704,9.81388013 L10.3149905,31.1735016 C10.3149905,31.1735016 14.8994307,32.9053628 14.8994307,36.9463722 C14.8994307,40.9873817 17.7647059,44.4511041 17.7647059,44.4511041 C17.7647059,44.4511041 18.2309561,46.8388913 18.3377609,47.9148265 C18.4219745,48.7631815 17.7647059,50.2239748 17.7647059,50.2239748 C17.7647059,50.2239748 18.3377609,50.2239748 17.1916509,50.2239748 C16.6757138,50.2239748 16.0455408,48.4921136 16.0455408,48.4921136 L15.4724858,45.6056782 L12.0341556,40.9873817 L12.0341556,45.6056782 L13.1802657,49.0694006 L15.4724858,51.3785489 C15.4724858,51.3785489 16.6185958,53.1104101 13.7533207,53.1104101 L10.8880455,50.2239748 L9.16888046,46.1829653 L9.16888046,41.5646688 L8.0227704,45.6056782 L8.59582543,50.2239748 L10.3149905,52.533123 C10.3149905,52.533123 10.8880455,53.1104101 10.8880455,54.2649842 C10.8880455,55.4195584 8.0227704,53.6876972 8.0227704,53.6876972 L5.73055028,50.8012618 L5.15749526,46.1829653 L5.15749526,38.6782334 L5.15749526,42.1419558 L2.29222011,40.4100946 L1.71916509,36.9463722 C1.71916509,36.9463722 4.0113852,31.7507886 5.15749526,31.7507886 C6.30360531,31.7507886 1.14611006,12.7003155 1.14611006,12.7003155 L0.529649567,-0.00110611296 Z"></path>
        <path id="path-27" d="M160.455401,60.0378529 C146.067633,31.2018028 156.444023,-3.80251386e-14 156.444023,-3.80251386e-14 C156.444023,-3.80251386e-14 133.521824,-3.46372243 107.16129,10.9684543 C80.800757,25.4006309 33.8102467,39.8328095 10.3149905,54.8422713 C-13.1802657,69.8517331 10.8880463,76.7791818 14.8994307,71.0063091 C18.9108152,65.2334365 18.3377609,71.0063091 18.3377609,71.0063091 C18.3377609,71.0063091 32.0910814,89.4794933 32.0910814,77.3564649 L32.6641366,71.0063091 C32.6641366,71.0063091 40.686905,85.4384878 45.8444023,85.4384858 C51.0018995,85.4384838 51.5749506,84.2839136 51.5749526,80.8201893 C51.5749546,77.3564649 51.5749526,76.7791798 51.5749526,76.7791798 C51.5749526,76.7791798 52.7060165,84.2361258 60.3396191,86.6883066 C62.6475382,87.4296912 68.1331993,83.2054579 68.1331993,83.2054579 C68.1331993,83.2054579 66.8402999,87.5209343 72.4048558,88.8214458 C74.6839931,89.3541108 81.5218194,85.9094161 81.5218194,85.9094161 C81.5218194,85.9094161 80.3472822,89.8369078 84.2481712,90.5790953 C86.319161,90.9731242 91.7851511,87.2493062 91.7851511,87.2493062 C91.7851511,87.2493062 91.0065552,91.1748823 95.4796251,91.8962362 C97.453506,92.2145559 101.271691,89.4312045 101.271691,89.4312045 C101.271691,89.4312045 100.159246,93.2184084 104.070245,93.7266188 C106.448615,94.0356734 110.50513,91.2051746 110.50513,91.2051746 C110.50513,91.2051746 109.890957,94.9822899 114.465282,95.4510317 C116.840226,95.6943978 120.619298,92.6504857 120.619298,92.6504857 C120.619298,92.6504857 118.050835,96.4825494 124.451316,96.9702871 C126.764072,97.1465267 127.866964,93.895617 127.866964,93.895617 C127.866964,93.895617 125.977596,96.4352309 133.199619,96.7301484 C135.766861,96.834984 137.419112,94.5617379 137.419112,94.5617379 C137.419112,94.5617379 135.442326,96.9829693 141.00267,97.1307001 C143.396301,97.1942955 144.822876,95.9541331 144.822876,95.9541331 C144.822876,95.9541331 144.03516,97.1003067 148.095037,97.0800123 C150.166934,97.0696554 153.005686,95.8296537 153.005686,95.8296537 C153.005686,95.8296537 154.137773,96.9712373 157.608605,96.9465384 C159.577627,96.9325266 162.275392,96.5953184 162.275392,96.5953184 C162.275392,96.5953184 164.025671,97.6422108 168.043628,97.4870019 C169.516677,97.4300997 170.618168,94.7406296 170.618168,94.7406296 C170.618168,94.7406296 173.095703,94.8121554 176.406746,94.9025788 C179.325181,94.9822801 178.306734,92.3138202 181.394481,91.8816636 C185.272769,91.3388637 192.981014,95.29944 193.119538,95.252364 C170.770392,69.8517331 170.564396,80.298359 160.455401,60.0378529 Z"></path>
        <linearGradient x1="41.9266281%" y1="16.9960172%" x2="50%" y2="67.9048978%" id="linearGradient-29">
            <stop stop-color="#AD9F97" offset="0%"></stop>
            <stop stop-color="#84776F" offset="100%"></stop>
        </linearGradient>
        <path id="path-30" d="M-2.55795385e-13,35.2145137 C-2.55795385e-13,35.2145164 8.0227704,42.1419558 8.0227704,42.1419558 L29.7988615,38.6782334 L111.172676,2.88643533 C111.172676,2.88643533 215.468691,-2.88643533 240.110057,2.88643359 C264.751423,8.65930252 322.629981,6.92744479 322.629981,6.92744479 C322.629981,6.92744479 334.091082,5.19558186 322.629981,13.2776008 C311.16888,21.3596197 278.504744,17.318612 278.504744,17.318612 C278.504744,17.318612 307.157495,19.6277576 308.87666,21.9369085 C310.595825,24.2460595 294.550285,29.4416492 290.538899,29.441643 C290.538899,29.4416519 291.400833,31.3519016 293.404175,35.7918008 C296.26945,42.141959 267.616698,35.7918012 267.616698,35.7918012 C267.616698,35.7918012 287.826415,41.0489889 284.235294,45.0283943 C278.504744,51.378552 260.740038,46.1829684 260.740038,46.1829684 C260.740038,46.1829684 282.952805,55.6543779 272.774194,59.460571 C266.323137,61.8728808 248.132827,60.6151451 248.132827,60.6151451 C248.132827,60.6151451 258.475722,68.8487971 250.998102,71.0063123 C247.159733,72.1137959 236.657086,67.8886267 236.657086,67.8886267 C236.657086,67.8886267 242.332773,76.5076101 236.657072,77.8384293 C233.701626,78.5314122 226.849199,75.5988805 226.849199,75.5988805 C226.849199,75.5988805 232.494678,80.9118196 226.37356,82.1027757 C223.423874,82.6766817 216.775894,79.4664214 216.775894,79.4664214 C216.775894,79.4664214 217.400079,86.898077 212.451914,87.7762376 C209.414587,88.315278 201.004704,81.5420743 201.004704,81.5420743 C201.004704,81.5420743 207.856449,89.3611567 200.128906,90.839286 C196.847166,91.4670193 187.365592,87.0931691 187.365592,87.0931691 C187.365592,87.0931691 194.345551,93.6200765 186.874226,94.8657194 C183.93521,95.3557213 176.536704,91.8172929 176.536704,91.8172929 C176.536704,91.8172929 185.227896,97.1635185 176.959054,98.342847 C173.781952,98.7959754 166.944101,94.007892 166.944101,94.007892 C166.944101,94.007892 172.750625,100.389026 165.346674,101.381834 C162.598491,101.750343 154.637328,99.0567338 154.637328,99.0567338 C154.637328,99.0567338 159.170557,105.197112 153.341729,105.808244 C150.503107,106.105864 142.117647,100.447953 142.117647,100.447953 C142.117647,100.447953 147.612004,105.446124 141.571666,106.068065 C138.642233,106.369692 133.260633,103.515775 133.260633,103.515775 C133.260633,103.515775 136.083243,107.216725 131.226292,107.611814 C128.979773,107.794558 124.337594,104.705636 124.337594,104.705636 C124.337594,104.705636 125.823218,107.250707 120.727561,107.637657 C119.037103,107.766026 114.967815,105.708006 114.967815,105.708006 C114.967815,105.708006 115.085703,108.21322 109.730183,108.528699 C107.91773,108.635466 103.577477,105.356927 103.577477,105.356927 C103.577477,105.356927 105.128101,110.14808 100.263045,110.4247 C98.2539329,110.538936 93.2472218,107.214629 93.2472218,107.214629 C93.2472218,107.214629 94.7374964,110.902466 89.8800634,111.25363 C87.9851984,111.390618 83.3210899,108.140981 83.3210899,108.140981 C83.3210899,108.140981 83.9873075,110.639738 79.6661166,110.934829 C77.3581021,111.092441 73.6800029,109.031659 73.6800029,109.031659 C73.6800029,109.031659 73.6100631,112.644561 69.9412502,112.875963 C68.0449118,112.995571 64.3583377,110.773027 64.3583377,110.773027 C64.3583377,110.773027 64.7660138,113.217331 59.1819895,113.397697 C54.1897125,113.558949 52.3496067,112.957846 52.3496067,112.957846 C52.3496067,112.957846 55.2843232,115.120178 50.4708549,114.941127 C46.9311876,114.809459 44.5463834,114.641131 44.5463834,114.641131 C44.5463834,114.641131 47.7072546,117.562939 43.6349023,116.969467 C41.6263849,116.676762 39.8413856,114.855733 39.8413856,114.855733 C39.8413856,114.855733 39.9847897,117.86289 37.4029709,117.314468 C35.8116175,116.976438 35.1358672,113.857736 35.1358672,113.857736 C35.1358672,113.857736 33.9943285,117.989882 31.7550808,117.514125 C29.6095697,117.058282 26.3623822,111.993685 26.3605313,111.993685 C29.7988615,135.085167 5.15749526,9.66079197 -2.55795385e-13,35.2145137 Z"></path>
        <path id="path-32" d="M25.2144213,112.570978 C25.2144213,112.570978 24.9553582,93.8215419 37.6754466,71.9724293 C46.0289703,57.6237019 63.8910357,48.0502767 77.3624288,40.4100946 C92.2352176,31.9751234 118.873535,15.2615271 118.873535,15.2615271 L229.795066,5.77287066 L278.902287,9.23903782 L334.664137,8.08201946 L228.648956,-6.35015773 L93.4079696,-4.04100946 L21.7760911,32.3280757 L5.73055028,53.6876972 L25.2144213,112.570978 Z"></path>
        <linearGradient x1="53.9528848%" y1="91.153606%" x2="32.2663484%" y2="71.96016%" id="linearGradient-33">
            <stop stop-color="#EAD4C5" offset="0%"></stop>
            <stop stop-color="#FFFFFF" offset="100%"></stop>
        </linearGradient>
        <path id="path-34" d="M-2.55795385e-13,45.6056774 C4.79987123e-15,16.741324 35.631153,10.3087699 53.8671727,8.08201915 C72.7779886,5.77287089 115.757116,-12.1230281 123.779886,13.2776025 C131.802657,38.6782331 138.106262,52.3800349 132.948767,77.9337566 C132.948767,77.9337593 140.971537,84.8611987 140.971537,84.8611987 C140.971537,84.8611987 153.005693,100.447953 155.870968,127.580445 C155.870968,127.580445 155.297913,129.889593 159.309298,154.712928 C163.033826,177.761125 160.455408,210.709773 160.455408,210.709773 C160.455408,210.709773 174.781784,228.028397 175.927894,233.801262 C177.074004,239.574126 169.624288,243.615148 169.624288,243.615142 C169.624288,243.615136 158.163188,243.615148 153.005693,236.11041 C153.005693,236.110404 125.499051,244.192435 105.442125,240.15142 C85.3851992,236.110404 51.0018975,230.914833 36.6755218,209.555205 C22.3491461,188.195577 10.3149905,157.022079 10.3149905,143.167192 C10.3149905,129.312306 16.0455408,115.457416 16.0455408,115.457416 L14.3263757,112.570981 C2.29222012,86.0157755 -5.14354741e-13,74.4700307 -2.55795385e-13,45.6056774 Z"></path>
        <path id="path-36" d="M119.195446,129.312303 L103.149905,148.027438 L125.413793,156.109457 L129.510436,173.763407 L162.747628,198.586751 L151.859583,113.725552 L119.195446,129.312303 Z"></path>
        <linearGradient x1="50%" y1="21.1891698%" x2="13.9304182%" y2="50%" id="linearGradient-37">
            <stop stop-color="#5B4C49" stop-opacity="0" offset="0%"></stop>
            <stop stop-color="#8A4D35" stop-opacity="0.29186481" offset="100%"></stop>
        </linearGradient>
        <linearGradient x1="-51.2902462%" y1="68.6445312%" x2="49.1812881%" y2="63.1987618%" id="linearGradient-38">
            <stop stop-color="#422D2D" stop-opacity="0.629047781" offset="0%"></stop>
            <stop stop-color="#392D2D" offset="100%"></stop>
        </linearGradient>
        <linearGradient x1="34.5508641%" y1="3.24870237%" x2="52.7977593%" y2="100%" id="linearGradient-39">
            <stop stop-color="#A5725B" stop-opacity="0" offset="0%"></stop>
            <stop stop-color="#CD967D" stop-opacity="0.278192935" offset="100%"></stop>
        </linearGradient>
        <path id="path-40" d="M0.573055028,45.0283912 C0.573055028,25.9779171 32.6641366,6.92744474 61.8899431,2.30914826 C90.8091384,-2.26069716 126.072106,-1.1545741 130.656546,15.5867508 C135.240987,32.3280757 140.971537,53.6876959 143.263757,82.5520492 C143.263757,82.5520519 145.555977,88.3249211 145.555977,88.3249211 L191.973435,73.8681445 L150.874191,98.0783496 L149.264087,102.543137 L143.15887,102.906932 L148.566629,107.000093 L149.274897,111.753347 L145.555977,116.034703 L141.842183,111.612568 L143.23691,115.791047 L138.871401,123.609789 L134.712846,124.226204 L135.825662,128.836539 L126.381739,132.372144 L123.713049,122.237461 L122.060721,132.776029 L124.817179,136.73442 L112.435094,142.121373 L109.475033,143.718474 L103.661352,139.227224 L100.566877,141.494872 L103.862571,141.518968 L104.38838,146.462979 L98.3626575,149.714158 L93.4079696,152.403789 L91.8533027,161.702862 L85.3851992,158.17665 L81.9026761,159.120848 L78.2089981,155.723619 L74.9888828,160.441828 L70.4747071,155.499608 L67.7100845,153.623384 L68.3809005,150.426388 L65.3552625,147.749262 L62.681255,145.447782 L62.1042285,147.765158 L52.7210626,147.785492 L53.2501395,140.654594 L49.6135147,145.264904 L43.977803,142.634178 L39.7750274,143.454208 L32.9283356,132.797119 L32.6641366,145.075847 L28.320041,145.86365 L30.0693899,144.149442 L27.3567154,142.821787 L26.5911287,140.404318 L24.4462042,146.566171 L18.930682,147.06101 L14.8537124,151.488892 C14.8537124,151.488892 14.8994307,146.630916 14.8994307,146.630915 C12.0341556,130.46688 20.629981,118.921138 20.629981,118.921138 L18.9108159,116.034703 C6.87666035,89.4794979 0.573055028,73.8927445 0.573055028,45.0283912 Z"></path>
        <linearGradient x1="65.3615552%" y1="62.9442402%" x2="0%" y2="37.5076592%" id="linearGradient-42">
            <stop stop-color="#000000" stop-opacity="0.0956465127" offset="0%"></stop>
            <stop stop-color="#000000" stop-opacity="0.496320199" offset="100%"></stop>
        </linearGradient>
        <path id="path-43" d="M16.0455408,59.4605678 C16.0455408,59.4605678 28.0796964,40.4100946 37.2485769,40.4100946 C39.0764313,40.4100946 42.9437958,34.1440558 42.9437958,34.1440558 L14.0674492,43.4180039 L17.7985261,26.2018539 L33.8312031,24.5513205 C33.8312031,24.5513205 45.6452382,5.77287066 48.7096774,5.77287066 C48.7096774,5.77287066 28.0796964,0 28.0796964,0 L5.15749526,6.92744479 L0,20.7823344 L2.86527514,47.3375394 L7.44971537,58.8832808 L16.0455408,59.4605678 Z"></path>
        <path id="path-44" d="M38.9677419,0 L28.6527514,6.35015773 L21.7760911,15.5867508 L9.16888046,8.65930599 L0,6.92744479 C0,6.92744479 9.16888046,10.3911672 13.7533207,14.4321767 C18.3377609,18.4731861 18.9108159,19.6277603 21.7760911,19.6277603 C24.6413662,19.6277603 23.4952562,15.5867508 32.0910816,6.92744479 C32.475806,6.53987918 38.9677419,0 38.9677419,0 Z"></path>
        <linearGradient x1="64.164357%" y1="100%" x2="54.7260914%" y2="27.6472221%" id="linearGradient-46">
            <stop stop-color="#503737" offset="0%"></stop>
            <stop stop-color="#1C1616" offset="100%"></stop>
        </linearGradient>
        <path id="path-47" d="M8.59582543,8.08201893 C13.1802657,8.08201893 12.6072106,7.50473186 16.6185958,7.50473186 C20.629981,7.50473186 30.9449715,4.61829653 35.5294118,4.61829653 C40.113852,4.61829653 38.3946869,5.77287066 44.1252372,5.77287066 C49.8557875,5.77287066 52.1480076,-0.577287066 52.1480076,-0.577287066 C52.1480076,-0.577287066 53.8671727,6.92744479 44.6982922,10.3911672 C37.4654171,13.123526 40.113852,13.8548896 34.9563567,19.6277603 C32.9822621,21.8373973 32.0910816,24.8233438 30.3719165,24.8233438 C28.6527514,24.8233438 29.2781096,24.5311008 24.0683112,20.7823344 C20.056926,17.8958991 17.2639212,14.4321779 12.0341556,14.4321767 C7.44971537,14.4321756 -0.573055028,8.08201893 -0.573055028,8.08201893 L8.59582543,8.08201893 Z"></path>
        <linearGradient x1="50%" y1="0%" x2="50%" y2="50%" id="linearGradient-49">
            <stop stop-color="#423333" offset="0%"></stop>
            <stop stop-color="#C48888" offset="52.4110241%"></stop>
            <stop stop-color="#B46060" offset="100%"></stop>
        </linearGradient>
        <linearGradient x1="84.1688247%" y1="75.6097555%" x2="0%" y2="75.6097542%" id="linearGradient-50">
            <stop stop-color="#FFFFFF" offset="0%"></stop>
            <stop stop-color="#D58C14" offset="100%"></stop>
        </linearGradient>
        <path id="path-51" d="M17.7647059,5.77287066 L18.5427591,3.7835504 L25.4962102,0.174164982 L33.8102467,3.4637224 L36.6198639,3.76066649 L35.5294118,5.19558357 C35.5294118,5.19558357 29.2258065,9.81388013 29.2258059,9.81388025 C26.9335858,13.2776032 26.2967874,12.0909211 24.0683112,10.9684543 C22.9222011,10.3911672 21.7760911,7.50473168 21.7760911,7.50473168 L17.7647059,5.77287066 Z"></path>
        <path id="path-53" d="M0.573055028,23.6687697 C0.573055028,23.6687697 38.9677419,11.5457413 52.1480076,20.2050473 C65.3282732,28.8643533 67.6204934,43.873817 67.6204934,43.873817 C67.6204934,43.873817 70.4857685,50.8012603 65.9013283,53.6876972 C61.316888,56.574134 52.7210626,61.192429 52.7210626,61.192429 L61.8899431,64.0788644 L64.7552182,62.3470032 L67.8193537,61.9581951 L72.2063943,60.788845 L72.7779886,58.8832808 L77.3624288,57.1514196 C77.3624288,57.1514196 76.2163188,56.1420489 76.1323315,54.4033182 C75.6625979,44.678748 72.5656852,12.1392997 52.1480076,5.77287066 C46.4174573,1.7318612 50.4288425,0 50.4288425,0 L46.4174573,2.30914826 L12.6072106,10.9684543 L20.629981,12.1230284 L0.573055028,23.6687697 Z"></path>
        <path id="path-55" d="M8.27511488,68.9187643 L7.04823202,65.8683385 L3.43833017,66.9652997 L5.15749526,56.5741325 C5.15749526,56.5741325 -4.58444,24.2460568 5.15749549,9.23659306 C9.74193553,3.4637226 9.74193548,6.70574707e-14 9.74193548,6.70574707e-14 L15.4724858,6.70574707e-14 C15.4724858,6.70574707e-14 35.5294107,1.7318613 51.0018975,-0.577287066 C51.0018987,-0.577287002 59.0246679,1.7318612 59.0246679,1.7318612 L53.8671727,3.4637224 L64.1821632,8.08201893 L32.0910816,9.81388013 C32.0910816,9.81388013 20.6299799,9.81387937 20.629981,9.81388013 C20.6299822,9.81388088 9.74193543,17.3186112 9.74193548,28.2870662 C9.74193553,39.2555213 10.0351489,47.1438694 16.6185958,59.4605678 C20.62998,66.9653004 26.9335863,64.0788644 26.9335863,64.0788644 L23.4952562,67.5425868 L19.483871,68.1198738 L15.4724858,70.4290221 L12.0341556,68.6971609 L8.27511488,68.9187643 Z"></path>
        <path id="path-57" d="M150.140418,125.271293 L160.945272,123.203529 L173.062619,175.495267 L186.815938,193.968453 L200.20065,213.596213 L163.237492,193.968453 C163.237492,193.968453 158.163188,198.009464 150.140418,161.640379 C145.902917,142.4308 150.140418,125.271293 150.140418,125.271293 Z"></path>
        <linearGradient x1="0%" y1="100%" x2="74.75%" y2="33.9409722%" id="linearGradient-58">
            <stop stop-color="#634848" offset="0%"></stop>
            <stop stop-color="#282424" offset="98.2661033%"></stop>
        </linearGradient>
        <path id="path-59" d="M12.0341556,38.6782334 L55.0132827,8.65930599 C55.0132827,8.65930599 63.6091082,-5.1955836 48.1366224,1.15457413 C32.6641366,7.50473186 -0.573055028,7.50473186 -0.573055028,7.50473186 L1.14611006,31.1735016 L12.0341556,38.6782334 Z"></path>
    </defs>
    <g id="Homepage" stroke="none" stroke-width="1" fill="none" fill-rule="evenodd" sketch:type="MSPage">
        <g sketch:type="MSArtboardGroup" transform="translate(-53.000000, -187.000000)" id="owl-illustration-2">
            <g sketch:type="MSLayerGroup" transform="translate(53.000000, 187.000000)">
                <g id="background" transform="translate(50.428843, 0.000000)">
                    <mask id="mask-5" sketch:name="Path 75" fill="white">
                        <use xlink:href="#path-4"></use>
                    </mask>
                    <g id="Path-75">
                        <use fill="url(#linearGradient-1)" sketch:type="MSShapeGroup" xlink:href="#path-4"></use>
                        <use fill-opacity="0.600000024" fill="url(#radialGradient-2)" xlink:href="#path-4"></use>
                        <use fill-opacity="0.00999999978" fill="none" xlink:href="#path-4"></use>
                        <use fill-opacity="0.5" fill="url(#radialGradient-3)" xlink:href="#path-4"></use>
                    </g>
                    <path d="M257.758245,86.1922864 C256.516166,99.3734671 245.497039,109.684543 232.087287,109.684543 C217.845257,109.684543 206.29981,98.0538325 206.29981,83.7066246 C206.29981,69.3594167 217.845257,57.7287066 232.087287,57.7287066 C238.357344,57.7287066 244.104748,59.982974 248.574432,63.7308641 C246.503406,62.8400548 244.223471,62.3470032 241.829222,62.3470032 C232.334535,62.3470032 224.637571,70.1008099 224.637571,79.6656151 C224.637571,89.2304204 232.334535,96.9842271 241.829222,96.9842271 C249.031876,96.9842271 255.199992,92.5221325 257.758245,86.1922864 Z" id="moon" fill="#FDF4DB" filter="url(#filter-6)" sketch:type="MSShapeGroup" mask="url(#mask-5)"></path>
                    <g id="stars" mask="url(#mask-5)" sketch:type="MSShapeGroup">
                        <g transform="translate(173.062619, 19.627760)">
                            <path d="M108.305476,6.57238051 L108.481808,2.30914826 L109.482059,6.33969973 L113.498016,6.52953383 L109.654522,7.61962468 L109.478426,11.3449458 L108.442027,7.69076097 L104.462218,7.52615127 L108.305476,6.57238051 Z" id="Path-110" fill="#FDF4DB" filter="url(#filter-7)"></path>
                            <path d="M6.5153738,30.019235 L6.80191403,23.0914826 L8.42732186,29.6411288 L14.9532512,29.9496092 L8.707573,31.7210068 L8.42141737,37.7746537 L6.73726906,31.8366033 L0.270080188,31.5691125 L6.5153738,30.019235 Z" id="Path-111" fill-opacity="0.600000024" fill="#FDF4DB" filter="url(#filter-8)"></path>
                            <path d="M60.3125984,3.19742418 L60.4448478,0 L61.195036,3.0229136 L64.2070034,3.16528917 L61.3243827,3.98285731 L61.1923109,6.77684817 L60.4150116,4.03620953 L57.4301552,3.91275225 L60.3125984,3.19742418 Z" id="Path-112" fill-opacity="0.5" fill="#FFFFFF" filter="url(#filter-9)"></path>
                            <path d="M146.484546,63.590651 L146.727003,57.7287066 L148.102348,63.2707149 L153.624288,63.5317368 L148.339483,65.0306117 L148.097352,70.1529283 L146.672303,65.1284241 L141.200066,64.9020858 L146.484546,63.590651 Z" id="Path-113" fill-opacity="0.900000036" fill="#FFFFFF" filter="url(#filter-10)"></path>
                            <path d="M88.059456,27.1849728 L88.4414927,29.8614855 L91.6888046,29.5466017 C91.6888046,29.5466017 91.0831421,27.0311724 90.3516762,26.555205 C89.6202102,26.0792377 88.059456,27.1849728 88.059456,27.1849728 Z" id="Path-91" opacity="0.845557369" fill="#FFFFFF" filter="url(#filter-11)"></path>
                            <path d="M33.1098461,11.9655865 L33.3645372,13.7499283 L35.5294118,13.5400057 C35.5294118,13.5400057 35.1256368,11.8630529 34.6379928,11.5457413 C34.1503488,11.2284298 33.1098461,11.9655865 33.1098461,11.9655865 Z" id="Path-92" opacity="0.845557369" fill="#FDF4DB" filter="url(#filter-12)" transform="translate(34.383302, 12.700315) rotate(-324.000000) translate(-34.383302, -12.700315) "></path>
                            <path d="M113.33755,58.1485518 L113.592241,59.9328936 L115.757116,59.722971 C115.757116,59.722971 115.353341,58.0460182 114.865697,57.7287066 C114.378053,57.4113951 113.33755,58.1485518 113.33755,58.1485518 Z" id="Path-93" opacity="0.845557369" fill="#FFFFFF" filter="url(#filter-13)" transform="translate(114.611006, 58.883281) rotate(-324.000000) translate(-114.611006, -58.883281) "></path>
                            <path d="M91.6251318,49.8566103 L91.7524773,50.7487812 L92.8349146,50.6438199 C92.8349146,50.6438199 92.6330271,49.8053435 92.3892051,49.6466877 C92.1453831,49.4880319 91.6251318,49.8566103 91.6251318,49.8566103 Z" id="Path-94" opacity="0.845557369" fill="#FFFFFF" filter="url(#filter-14)" transform="translate(92.261860, 50.223975) rotate(-294.000000) translate(-92.261860, -50.223975) "></path>
                            <path d="M105.378452,26.7651276 L105.505798,27.6572985 L106.588235,27.5523373 C106.588235,27.5523373 106.386348,26.7138608 106.142526,26.555205 C105.898704,26.3965493 105.378452,26.7651276 105.378452,26.7651276 Z" id="Path-95" opacity="0.845557369" fill="#FFFFFF" filter="url(#filter-15)" transform="translate(106.015180, 27.132492) rotate(-294.000000) translate(-106.015180, -27.132492) "></path>
                            <path d="M48.0729496,19.8376828 L48.2002952,20.7298537 L49.2827324,20.6248925 C49.2827324,20.6248925 49.080845,19.786416 48.837023,19.6277603 C48.593201,19.4691045 48.0729496,19.8376828 48.0729496,19.8376828 Z" id="Path-96" opacity="0.845557369" fill="#FFFFFF" filter="url(#filter-16)" transform="translate(48.709677, 20.205047) rotate(-294.000000) translate(-48.709677, -20.205047) "></path>
                            <path d="M69.8490407,64.866074 L69.9763863,65.7582449 L71.0588235,65.6532836 C71.0588235,65.6532836 70.8569361,64.8148072 70.6131141,64.6561514 C70.3692921,64.4974957 69.8490407,64.866074 69.8490407,64.866074 Z" id="Path-97" opacity="0.845557369" fill="#FFFFFF" filter="url(#filter-17)" transform="translate(70.485769, 65.233438) rotate(-294.000000) translate(-70.485769, -65.233438) "></path>
                            <path d="M56.09572,99.503298 L56.2230656,100.395469 L57.3055028,100.290508 C57.3055028,100.290508 57.1036154,99.4520312 56.8597934,99.2933754 C56.6159714,99.1347196 56.09572,99.503298 56.09572,99.503298 Z" id="Path-98" opacity="0.845557369" fill="#FFFFFF" filter="url(#filter-18)" transform="translate(56.732448, 99.870662) rotate(-294.000000) translate(-56.732448, -99.870662) "></path>
                            <path d="M90.4790217,111.049039 L90.6063673,111.94121 L91.6888046,111.836249 C91.6888046,111.836249 91.4869171,110.997772 91.2430951,110.839117 C90.9992731,110.680461 90.4790217,111.049039 90.4790217,111.049039 Z" id="Path-99" opacity="0.845557369" fill="#FFFFFF" filter="url(#filter-19)" transform="translate(91.115750, 111.416404) rotate(-294.000000) translate(-91.115750, -111.416404) "></path>
                            <path d="M124.862323,98.3487238 L124.989669,99.2408948 L126.072106,99.1359335 C126.072106,99.1359335 125.870219,98.297457 125.626397,98.1388013 C125.382575,97.9801455 124.862323,98.3487238 124.862323,98.3487238 Z" id="Path-100" opacity="0.845557369" fill="#FFFFFF" filter="url(#filter-20)" transform="translate(125.499051, 98.716088) rotate(-294.000000) translate(-125.499051, -98.716088) "></path>
                            <path d="M122.379085,27.3948953 L122.888467,30.963579 L127.218216,30.5437339 C127.218216,30.5437339 126.410666,27.1898281 125.435378,26.555205 C124.46009,25.920582 122.379085,27.3948953 122.379085,27.3948953 Z" id="Path-94" opacity="0.845557369" fill="#FDF4DB" filter="url(#filter-21)" transform="translate(124.925996, 28.864353) rotate(-31.000000) translate(-124.925996, -28.864353) "></path>
                        </g>
                    </g>
                    <path d="M97.9924099,330.785489 L129.998304,314.692745 L114.611006,301.343849 L293.97723,279.984227 L257.717885,279.156079 L292.328448,267.641039 L275.639469,27.1324921 L302.573055,16.7413249 L306.011385,28.8643533 L310.02277,14.4321767 L350.709677,313.466877 L97.9924099,330.785489 Z" id="Path-76" fill-opacity="0.121942935" fill="#000000" sketch:type="MSShapeGroup" mask="url(#mask-5)"></path>
                    <path d="M199.42315,61.192429 C199.42315,61.192429 215.468691,121.807571 215.468691,147.785489 C215.468691,173.763407 221.772296,147.785489 221.772296,147.785489 C221.772296,147.785489 231.514231,88.3249211 209.165085,60.0378549 C209.165085,60.0378549 233.806452,87.7476341 211.457306,169.722397" id="Path-95" fill="#000000" sketch:type="MSShapeGroup" mask="url(#mask-5)">
                        <g transform="translate(211.457306, 114.880126) rotate(-8.000000) translate(-211.457306, -114.880126) "></g>
                    </path>
                </g>
                <g id="owl-shadows" transform="translate(1.146110, 56.574132)" fill="#000000" sketch:type="MSShapeGroup">
                    <path d="M200.49552,5.38901117 L173.635676,14.9914235 L203.434538,1.15457413 L158.163188,18.4731861 C158.163188,18.4731861 135.814042,30.5962145 129.510436,40.9873817 C123.206831,51.3785489 130.083491,110.839117 146.702087,122.384858 C146.702088,122.384858 135.814037,210.132492 181.085387,238.419558 C226.356737,266.706625 289.965844,252.274448 289.965844,252.274448 L302,256.892744 L304.29222,236.687697 L280.223909,211.864353 L203.434535,109.684543 L200.49552,5.38901117 Z" id="shadow-2" fill-opacity="0.600000024"></path>
                    <path d="M203.93385,4.23443703 L177.074006,13.8368493 L206.872868,-1.25846757e-13 L161.601518,17.318612 C161.601518,17.318612 139.252372,29.4416404 132.948767,39.8328076 C126.645161,50.2239748 133.521822,109.684543 150.140417,121.230284 C150.140418,121.230284 139.252368,208.977918 184.523717,237.264984 C229.795067,265.55205 293.404175,251.119874 293.404175,251.119874 L305.43833,255.73817 L307.73055,235.533123 L283.662239,210.709779 L206.872865,108.529968 L203.93385,4.23443703 Z" id="shadow"></path>
                    <path d="M267.616698,77.9337539 L272.201139,102.757098 L602.85389,61.7697161 L474.999839,52.4150073 L377.070209,53.1104101 L331.980143,72.0713648 L276.785579,83.1293375 L267.616698,77.9337539 Z" id="Path-110" fill-opacity="0.49000001"></path>
                    <path d="M269.908918,80.2429022 L274.493359,105.066246 L383.946869,62.3470032 L280.223909,90.0567823 L269.908918,80.2429022 Z" id="Path-111"></path>
                    <path d="M150.140417,124.694006 L120.341556,129.88959 L55.0132827,162.217666 L23.4952562,174.917981 L0.573055028,192.236593 L99.711575,159.908517 L148.994307,146.053628 L150.140417,124.694006 Z" id="Path-138" fill-opacity="0.5" transform="translate(75.643264, 158.753943) rotate(-2.000000) translate(-75.643264, -158.753943) "></path>
                    <path d="M150.140417,129.312303 L120.341556,134.507886 L55.0132827,166.835962 L23.4952562,179.536278 L0.573055028,196.85489 L99.711575,164.526814 L148.994307,150.671924 L150.140417,129.312303 Z" id="Path-139"></path>
                </g>
                <path d="M294,227 L346.5,220" id="Path-316" stroke="#000000" stroke-width="2.5" stroke-linejoin="bevel" opacity="0.876515858" sketch:type="MSShapeGroup"></path>
                <path d="M297.93746,231.25597 L343.567406,221.813617" id="Path-317" stroke="#000000" stroke-width="2.5" stroke-linejoin="bevel" opacity="0.876515858" sketch:type="MSShapeGroup"></path>
                <path d="M297.93746,229.25597 L343.567406,219.813617" id="Path-318" stroke="#000000" stroke-width="2.5" stroke-linejoin="bevel" opacity="0.876515858" sketch:type="MSShapeGroup"></path>
                <g id="basics" transform="translate(0.000000, 63.501577)">
                    <g id="legs" transform="translate(240.683112, 229.760252)">
                        <g id="right-leg" transform="translate(0.000000, 12.700315)">
                            <mask id="mask-24" sketch:name="right leg" fill="white">
                                <use xlink:href="#path-23"></use>
                            </mask>
                            <use fill="url(#linearGradient-22)" sketch:type="MSShapeGroup" xlink:href="#path-23"></use>
                            <path d="M12.6072106,1.7318612 L12.6072106,34.0599369 L10.3149905,37.5236593 L10.8880455,42.1419558 L9.74193548,49.0694006 L9.16888046,53.6876972 L10.3149905,57.1514196 L13.1802657,60.0378549 L9.16888046,62.3470032 L0.573055028,57.7287066 L-2.29222011,39.8328076 L7.44971537,32.3280757 L6.87666034,-4.61829653 L12.6072106,1.7318612 Z" id="Path-99" fill-opacity="0.6" fill="#000000" sketch:type="MSShapeGroup" mask="url(#mask-24)"></path>
                        </g>
                        <g id="left-leg-+-Path-79" transform="translate(67.620493, 0.000000)">
                            <mask id="mask-26" sketch:name="left leg" fill="white">
                                <use xlink:href="#path-25"></use>
                            </mask>
                            <use id="left-leg" fill="url(#linearGradient-22)" sketch:type="MSShapeGroup" xlink:href="#path-25"></use>
                            <path d="M-2.29222011,11.5457413 L5.15749526,13.8548896 L9.16888046,31.1735016 C9.16888046,31.1735016 7.25081688,36.6864673 7.43789516,38.2883761 C8.01489026,43.2290541 5.73055028,45.0283912 5.73055028,45.0283912 C5.73055028,45.0283912 7.60954964,44.9561253 6.99653605,50.0254536 C6.75351942,52.0350845 10.6383673,55.154606 9.88239086,55.4007376 C8.73140386,55.7754771 2.86527514,52.533123 2.86527514,52.533123 L-1.71916509,31.7507886 L-2.29222011,11.5457413 Z" id="shadow" fill-opacity="0.599999964" fill="#000000" sketch:type="MSShapeGroup" mask="url(#mask-26)"></path>
                            <path d="M10.3149905,36.9463722 L10.8880455,43.873817 L10.8880455,49.0694006 L14.8994307,52.533123 L14.8994307,55.4195584 L10.3149905,51.955836 L8.59582543,43.29653 L10.3149905,36.9463722 Z" id="Path-79" fill-opacity="0.599999964" fill="#000000" sketch:type="MSShapeGroup" mask="url(#mask-26)"></path>
                            <path d="M13.7533207,34.637224 L17.1916509,39.2555205 L18.3377609,43.29653 L17.7647059,45.6056782 L14.8994307,42.1419558 L13.7533207,34.637224 Z" id="Path-80" fill-opacity="0.599999964" fill="#000000" sketch:type="MSShapeGroup" mask="url(#mask-26)"></path>
                        </g>
                    </g>
                    <g id="right-wing" transform="translate(0.000000, 125.848580)">
                        <mask id="mask-28" sketch:name="right wing" fill="white">
                            <use xlink:href="#path-27"></use>
                        </mask>
                        <g>
                            <use fill="#877368" sketch:type="MSShapeGroup" xlink:href="#path-27"></use>
                            <use fill-opacity="0.049999997" fill="none" xlink:href="#path-27"></use>
                        </g>
                        <path d="M38.3946869,19.6277603 L51.6956137,56.7985129 L59.5578455,61.7767359 L57.8531966,73.5624569 L66.7085574,61.0166333 L75.4002571,71.8078644 L111.750929,80.3944772 L154.724858,102.179811 L154.982127,109.107256 C154.982127,109.107256 165.343668,104.067776 154.982119,103.724797 C139.42388,103.209801 108.3074,102.179811 108.3074,102.179811 L-17.1916509,80.2429022 L-1.71916509,28.8643533 L38.3946869,19.6277603 Z" id="Path-32" fill-opacity="0.7" fill="#38302C" sketch:type="MSShapeGroup" mask="url(#mask-28)"></path>
                        <path d="M187.388994,108.529969 L-3.43833017,76.7791802 L3.14288943,53.7567995 L30.9449715,32.9053627 L97.8570771,30.1774278 L120.275004,33.0242778 L133.352186,23.0914825 L133.352188,36.2096112 L154.724858,39.2555201 L187.388994,108.529969 Z" id="Path-33" fill-opacity="0.3" fill="#443C3A" sketch:type="MSShapeGroup" mask="url(#mask-28)"></path>
                        <path d="M158.736243,-1.73186123 L148.994307,-7.5047319 L134.667932,20.2050473 L145.508677,43.9742177 L109.45351,49.6466877 L153.076921,55.0704344 L156.30109,67.6374175 L194.265655,117.189274 L187.388994,57.7287066 L158.736243,-1.73186123 Z" id="Path-34" fill-opacity="0.300000012" fill="#0D0D0D" sketch:type="MSShapeGroup" mask="url(#mask-28)"></path>
                        <path d="M22.5063712,32.8640631 C24.7985914,31.8480377 97.3344497,14.7209563 105.23484,13.4255771 C119.584583,11.0727365 134.72059,9.4727894 145.068815,9.4727894 C150.892769,9.4727894 157.600885,13.2410135 157.600885,13.2410135 L148.263209,27.7806776 L120.759266,23.0119383 C120.759266,23.0119383 77.6040331,26.2628986 68.2045987,27.304472 C49.8668378,29.3365224 20.2141511,33.8800884 22.5063712,32.8640631 Z" id="Path-35" fill-opacity="0.4" fill="#FFFFFF" sketch:type="MSShapeGroup" mask="url(#mask-28)">
                            <g transform="translate(90.055532, 21.341811) rotate(-12.000000) translate(-90.055532, -21.341811) "></g>
                        </path>
                        <path d="M67.6204934,29.4416404 L129.531477,6.37486699 L158.163188,6.63880126 L158.736243,-16.1640379 L103.149905,-4.61829653 L67.6204934,29.4416404 Z" id="light" fill="#FFFFFF" sketch:type="MSShapeGroup" mask="url(#mask-28)"></path>
                        <path d="M175.927894,75.0473186 L153.005693,77.9337539 L139.252372,75.0473186 L158.163188,84.8611987 L115.184061,95.829653 L194.265655,101.602524 L175.927894,75.0473186 Z" id="Path-143" fill="#000000" sketch:type="MSShapeGroup" mask="url(#mask-28)"></path>
                    </g>
                    <g id="left-wing" transform="translate(270.481973, 46.182965)">
                        <mask id="mask-31" sketch:name="left wing" fill="white">
                            <use xlink:href="#path-30"></use>
                        </mask>
                        <g>
                            <use fill="url(#linearGradient-29)" sketch:type="MSShapeGroup" xlink:href="#path-30"></use>
                            <use fill-opacity="0.0299999993" fill="none" xlink:href="#path-30"></use>
                        </g>
                        <g id="light">
                            <use fill="#F6EDE6" sketch:type="MSShapeGroup" mask="url(#mask-31)" xlink:href="#path-32"></use>
                            <use fill-opacity="0.0199999996" fill="none" xlink:href="#path-32"></use>
                        </g>
                        <path d="M29.2258065,114.302839 L65.3282732,104.488959 L69.9127135,77.3564669 L75.0702087,100.44795 L128.364326,92.9432177 L146.702087,84.2839117 L149.567362,93.5205047 L210.88425,72.1608833 L263.605313,40.9873817 L279.077799,15.0094637 L281.370019,12.7003155 L342.686907,8.08201893 L330.652751,69.2744479 L220.053131,124.116719 L79.654649,127.580442 L29.2258065,128.735016 L29.2258065,114.302839 Z" id="Path-101" fill-opacity="0.334182518" fill="#332C23" sketch:type="MSShapeGroup" mask="url(#mask-31)"></path>
                        <path d="M207.44592,-7.50473186 L162.747628,31.1735016 L102.003795,54.2649842 L142.117647,63.5015773 L127.218216,111.993691 L263.605313,100.44795 L355.294118,10.9684543 L338.102467,-19.0504732 L207.44592,-7.50473186 Z" id="Path-109" fill-opacity="0.049999997" fill="#000000" sketch:type="MSShapeGroup" mask="url(#mask-31)"></path>
                    </g>
                    <g id="body" transform="translate(137.533207, 3.463722)">
                        <mask id="mask-35" sketch:name="body" fill="white">
                            <use xlink:href="#path-34"></use>
                        </mask>
                        <g>
                            <use fill="none" sketch:type="MSShapeGroup" xlink:href="#path-34"></use>
                            <use fill="url(#linearGradient-33)" fill-rule="evenodd" xlink:href="#path-34"></use>
                            <use fill-opacity="0.0500000007" fill="none" fill-rule="evenodd" xlink:href="#path-34"></use>
                        </g>
                        <g id="Path-89">
                            <use fill-opacity="0.639999986" fill="#FFFFFF" sketch:type="MSShapeGroup" mask="url(#mask-35)" xlink:href="#path-36"></use>
                            <use fill-opacity="0.0199999996" fill="none" xlink:href="#path-36"></use>
                        </g>
                        <path d="M10.3149905,115.457413 L73.9240987,137.971609 L77.6079452,176.616244 L105.804844,214.281937 L147.848198,235.533123 L140.398482,263.820189 L10.3149905,206.66877 L10.3149905,115.457413 Z" id="shadow" fill="url(#linearGradient-37)" sketch:type="MSShapeGroup" mask="url(#mask-35)"></path>
                        <path d="M153.578748,132.198738 C153.578748,132.198738 161.028463,189.927445 147.848197,213.018927 L185.096774,247.656151 L181.085389,213.018927 L166.185958,153.55836 L153.578748,132.198738 Z" id="Path-67" fill="url(#linearGradient-38)" sketch:type="MSShapeGroup" mask="url(#mask-35)"></path>
                        <path d="M53.2941176,125.271293 L45.2713472,135.085174 L57.8785579,139.70347 L55.5863378,152.981073 L86.5313093,169.722397 L93.9810247,135.085174 L83.0929791,120.652997 L62.4629981,116.0347 L53.2941176,125.271293 Z" id="Path-98" fill="#FFFFFF" sketch:type="MSShapeGroup" mask="url(#mask-35)"></path>
                        <g id="spots" mask="url(#mask-35)" fill="#895548" sketch:type="MSShapeGroup">
                            <g transform="translate(50.428843, 150.094637)">
                                <path d="M33.6268277,13.4367959 L29.9580434,13.6239748 L27.7181568,16.8240186 L27.2837866,20.3205047 L29.6147148,23.5385281 L34.4151381,23.0914826 L35.5888683,20.6831878 L35.306557,16.8567823 L33.6268277,13.4367959 Z" id="spot"></path>
                                <path d="M40.195717,1.62998701 L39.1864193,4.94169782 L43.3884522,8.69326406 L45.5682205,7.94036433 L45.8210521,4.36134938 L45.3532123,5.56499291e-14 L40.195717,1.62998701 Z" id="spot"></path>
                                <path d="M31.2393529,29.7508498 L28.7346164,30.4943403 L26.1004559,34.1789096 L28.4890214,37.5576174 L30.6536053,38.0292034 L32.7227222,35.8473332 L33.8921117,32.3280757 L31.2393529,29.7508498 Z" id="spot"></path>
                                <path d="M16.5637087,30.4437627 L14.0384373,32.1802163 L13.7533207,34.637224 L17.6423906,38.3794884 L24.0683112,41.5646688 L22.362103,35.0646434 L20.056926,30.5962145 L16.5637087,30.4437627 Z" id="Path-41"></path>
                                <path d="M15.0846593,9.07641816 L12.6072106,12.7003155 L14.7672268,16.2415683 L19.483871,18.4731861 L20.5238345,13.6704326 L18.9108159,8.65930599 L15.0846593,9.07641816 Z" id="Path-42"></path>
                                <path d="M44.9813414,23.6147553 L42.6607632,23.5533123 L41.4736591,24.9282369 L41.1326165,26.9015773 L42.921946,28.6995806 L45.2076745,28.2870662 L45.879201,27.0774462 L45.7170567,25.1697161 L44.9813414,23.6147553 Z" id="spot-2"></path>
                                <path d="M38.4356194,38.9159399 L37.8368484,40.3094759 L40.031987,42.4475784 L41.2540233,40.4311509 L41.014367,38.1009464 L38.4356194,38.9159399 Z" id="spot-2"></path>
                                <path d="M24.9083687,25.4125627 L23.1327111,25.6722954 L21.6295007,28.0818743 L22.9923711,29.7084537 L24.6800926,29.7228808 L26.0798513,26.7201442 L24.9083687,25.4125627 Z" id="spot-2"></path>
                                <path d="M22.545859,10.9427654 L21.7760911,12.7003155 L27.5066414,16.1640379 L25.278094,10.6798107 L22.545859,10.9427654 Z" id="Path-42" transform="translate(24.641366, 13.277603) rotate(48.000000) translate(-24.641366, -13.277603) "></path>
                                <path d="M47.5587339,45.0193936 L46.9905123,46.4395373 L48.1834751,48.5245026 L50.4288425,49.6466877 L50.9474212,46.9383452 L50.142315,44.1945321 L47.5587339,45.0193936 Z" id="Path-43"></path>
                                <path d="M52.5335814,26.2217548 L50.4288425,27.7097792 L49.0970208,32.217364 L50.4846874,36.198305 L53.2941176,38.1009464 L55.0132827,32.3280757 L52.5335814,26.2217548 Z" id="Path-48"></path>
                                <path d="M35.8802457,51.2137698 L35.4391055,48.0179563 L33.2371917,45.0283912 L29.9981477,46.6210993 L29.2258065,49.0694006 L30.5227675,52.0408318 L34.3833017,53.6876972 L35.8802457,51.2137698 Z" id="Path-49"></path>
                                <path d="M43.7570705,12.1448865 L42.3398777,12.4868166 L40.811731,15.8350816 L42.6647518,17.653622 L44.8867889,17.2205706 L45.5672815,15.6799923 L45.3961712,14.1032204 L43.7570705,12.1448865 Z" id="spot-2" transform="translate(43.231297, 14.911422) rotate(133.000000) translate(-43.231297, -14.911422) "></path>
                                <path d="M62.8844542,52.9207434 L62.4414596,54.6901702 L64.4808218,56.4523819 L65.705981,55.0146637 L65.4632018,52.1057499 L62.8844542,52.9207434 Z" id="spot-2" transform="translate(63.989632, 54.414898) rotate(133.000000) translate(-63.989632, -54.414898) "></path>
                                <path d="M50.1001897,52.0762088 L48.5883998,54.4035857 L49.9598497,56.1123672 L51.2710799,56.3550425 L53.0473298,53.1240576 L50.1001897,52.0762088 Z" id="spot-2" transform="translate(51.035790, 54.113693) rotate(133.000000) translate(-51.035790, -54.113693) "></path>
                                <path d="M56.0447152,45.3844871 L55.1477943,47.2138747 L57.464472,49.1714748 L60.8783446,50.6775971 L60.1815957,48.1588602 L58.6497973,45.19337 L56.0447152,45.3844871 Z" id="Path-42" transform="translate(58.013069, 47.791162) rotate(169.000000) translate(-58.013069, -47.791162) "></path>
                                <path d="M40.7945662,47.8339234 L39.4767453,49.8982483 L40.6852192,51.9989172 L42.9150754,53.1053987 L43.4065055,49.9476479 L42.6285479,47.6532431 L40.7945662,47.8339234 Z" id="Path-43" transform="translate(41.195910, 50.218963) rotate(133.000000) translate(-41.195910, -50.218963) "></path>
                                <path d="M36.4820076,26.8920936 L35.7179343,28.5662261 L36.5011985,29.4238555 L37.7554633,29.2589706 L38.0101544,27.7002955 L36.4820076,26.8920936 Z" id="spot-3" transform="translate(36.927717, 27.815753) rotate(133.000000) translate(-36.927717, -27.815753) "></path>
                                <path d="M26.755553,41.0772604 L27.8197981,42.8430797 L28.6286532,41.7276875 L28.4747181,40.6697637 L26.755553,41.0772604 Z" id="spot-3" transform="translate(27.492338, 41.824338) rotate(133.000000) translate(-27.492338, -41.824338) "></path>
                                <path d="M30.0464635,8.46173359 L29.9762935,10.4798127 L31.1637542,10.0341478 L31.5200336,8.98565799 L30.0464635,8.46173359 Z" id="spot-3" transform="translate(30.514264, 9.480475) rotate(133.000000) translate(-30.514264, -9.480475) "></path>
                                <path d="M6.0522782,28.6806267 L5.51345529,29.7786165 L7.47187867,31.2423135 L8.95178546,31.8568499 L7.61465706,28.5663136 L6.0522782,28.6806267 Z" id="Path-43" transform="translate(7.232620, 30.124989) rotate(133.000000) translate(-7.232620, -30.124989) "></path>
                                <path d="M1.15456676,10.1659733 L2.00441208,11.4659503 L3.44678687,12.0902636 L3.73266534,9.87191934 L3.25576853,8.81897019 L1.15456676,10.1659733 Z" id="Path-44" transform="translate(2.300677, 10.358402) rotate(133.000000) translate(-2.300677, -10.358402) "></path>
                                <path d="M15.3822282,19.8759492 L13.7900723,20.4622736 L13.0605588,23.2292133 L15.5092374,25.6578572 L16.568694,23.8921696 L16.5407364,22.7714219 L15.3822282,19.8759492 Z" id="Path-49" transform="translate(14.821571, 22.771422) rotate(133.000000) translate(-14.821571, -22.771422) "></path>
                                <path d="M49.0885328,34.7482298 L47.8395541,32.6106729 L45.8338615,34.6311776 L46.5821298,36.2151145 L48.4126091,36.9403259 L49.0885328,34.7482298 Z" id="Path-50" transform="translate(47.266499, 34.919821) rotate(133.000000) translate(-47.266499, -34.919821) "></path>
                                <path d="M23.622237,48.3465637 C23.622237,48.3465637 22.3492053,46.1829662 22.3491461,46.1829653 C22.3490848,46.1829644 21.0837325,48.4343822 21.0837325,48.4343822 L22.3491461,49.0694006 L23.622237,48.3465637 Z" id="Path-50"></path>
                                <path d="M8.44235456,0.514330647 L5.73055028,2.88643533 L7.04015494,5.8323014 L10.3149905,6.92744479 L10.8880455,1.15457413 L8.44235456,0.514330647 Z" id="Path-51"></path>
                                <path d="M9.74193548,17.8958991 C9.74191891,17.8959198 5.07493571,17.3892219 5.07493571,17.3892219 L2.29222011,21.3596215 L7.44971537,22.5141956 C7.44971537,22.5141956 9.74196381,17.8958636 9.74193548,17.8958991 Z" id="Path-52"></path>
                            </g>
                        </g>
                        <path d="M24.0683112,199.164038 L21.2030361,187.618296 L67.6204934,213.596214 L91.4878539,212.476323 L90.7125408,217.460889 L98.8364628,220.461708 L97.6903538,211.619519 L123.779886,213.018927 L136.828387,220.461707 L167.332068,226.234578 L189.108159,248.233438 L153.578748,240.15142 L61.316888,243.615142 L24.0683112,199.164038 Z" id="Path-81" fill-opacity="0.423431839" fill="#6B5850" sketch:type="MSShapeGroup" mask="url(#mask-35)"></path>
                    </g>
                    <g id="head" transform="translate(130.656546, 0.000000)">
                        <g id="pure-head" transform="translate(2.292220, 0.000000)">
                            <mask id="mask-41" sketch:name="head" fill="white">
                                <use xlink:href="#path-40"></use>
                            </mask>
                            <g id="head">
                                <use fill="#875549" fill-rule="evenodd" sketch:type="MSShapeGroup" xlink:href="#path-40"></use>
                                <use fill="url(#linearGradient-39)" fill-rule="evenodd" xlink:href="#path-40"></use>
                                <use fill-opacity="0.0299999993" fill="none" fill-rule="evenodd" xlink:href="#path-40"></use>
                                <use fill="none" fill-rule="evenodd" xlink:href="#path-40"></use>
                                <use fill="none" xlink:href="#path-40"></use>
                            </g>
                            <path d="M35.3752231,65.9867394 L33.6881347,56.9707984 L27.816577,73.8868928 L17.2243616,78.577907 L27.8636366,79.5807453 L36.1204467,86.8834615 L43.3186285,70.9658937 L35.3752231,65.9867394 Z" id="light-2" fill-opacity="0.248103487" fill="#FCE2D2" sketch:type="MSShapeGroup" mask="url(#mask-41)">
                                <g transform="translate(30.404627, 72.208506) rotate(80.000000) translate(-30.404627, -72.208506) "></g>
                            </path>
                            <path d="M8.0227704,44.4511037 L12.6912067,78.3300518 L33.2371917,91.7886435 L52.1179752,115.237074 L91.6888046,113.725551 L81.0360572,121.256841 L105.407323,118.205394 L89.3965844,142.589904 L36.6755218,135.662459 L30.3719165,122.384858 L16.1822935,137.971608 L1.14611006,76.2018927 L8.0227704,44.4511037 Z" id="shadow" fill-opacity="0.200000018" fill="#1D120E" sketch:type="MSShapeGroup" mask="url(#mask-41)"></path>
                            <path d="M16.6185937,7.50473186 C16.6185937,7.50473186 -1.31507538,26.9749033 -3.97830462,36.709989 C-8.00071655,51.4133891 -1.14610967,86.5930599 -1.14610967,86.5930599 L26.933587,29.4416404 L59.7633114,25.4570824 L47.5448642,15.5664501 L99.7115743,2.30914826 L140.971537,-3.4637224 L127.218217,-16.7413249 L16.6185937,7.50473186 Z" id="shadow" fill-opacity="0.399999976" fill="#080606" sketch:type="MSShapeGroup" mask="url(#mask-41)"></path>
                            <path d="M35.5294118,2.88643533 L42.4060721,4.61829653 C42.4060721,4.61829653 78.9110666,-2.12245465 104.16343,2.05434239 C126.645161,5.77287066 120.363705,10.9372174 125.499051,16.1640379 C132.375712,23.1631899 133.521822,34.0599369 135.170407,43.337763 C136.818992,52.6155892 160.455408,50.8012618 160.455408,50.8012618 L123.206831,-11.5457413 L35.5294118,2.88643533 Z" id="light" fill-opacity="0.549999952" fill="#FFFFFF" sketch:type="MSShapeGroup" mask="url(#mask-41)"></path>
                            <path d="M11.4611006,61.7697161 L24.0683112,84.2839117 L40.113852,84.8611987 L20.056926,87.170347 L9.16888046,68.1198738 L11.4611006,61.7697161 Z" id="Path-11" fill="#FFFFFF" sketch:type="MSShapeGroup" mask="url(#mask-41)"></path>
                            <path d="M115.757116,72.1608833 L128.223003,63.2435879 L133.521822,45.0283912 L133.89368,55.573355 L131.229602,66.9652997 L115.757116,72.1608833 Z" id="Path-12" fill="#FFFFFF" sketch:type="MSShapeGroup" mask="url(#mask-41)"></path>
                            <path d="M130.170483,51.748904 L125.169799,49.2287191 L115.599204,53.0816034 L112.046374,65.3967777 L120.536643,66.4004479 L124.036672,70.7608914 L132.69617,59.7924371 L130.170483,51.748904 Z" id="light" fill-opacity="0.248103487" fill="#FCE2D2" sketch:type="MSShapeGroup" mask="url(#mask-41)">
                                <g transform="translate(122.741992, 59.946380) rotate(10.000000) translate(-122.741992, -59.946380) "></g>
                            </path>
                            <path d="M138.106262,46.1829653 L133.521822,59.0456427 L138.106262,88.9022082 L122.633776,106.22082 L158.163188,92.9432177 L180.512334,77.3564669 L147.275142,76.7791798 L138.106262,46.1829653 Z" id="Path-125" fill-opacity="0.200000018" fill="#1D120E" sketch:type="MSShapeGroup" mask="url(#mask-41)"></path>
                        </g>
                        <g id="left-eye" transform="translate(83.666034, 15.009464)">
                            <g id="Path-14">
                                <use fill="none" sketch:type="MSShapeGroup" xlink:href="#path-43"></use>
                                <use fill="url(#linearGradient-42)" fill-rule="evenodd" xlink:href="#path-43"></use>
                            </g>
                            <path d="M15.4724858,50.2239748 L17.1357745,44.5797472 L25.7874763,38.6782334 L44.1252372,36.9463722 L28.6527514,40.4100946 L15.4724858,50.2239748 Z" id="Path-432" fill="#010100" sketch:type="MSShapeGroup" transform="translate(29.798861, 43.585174) rotate(4.000000) translate(-29.798861, -43.585174) "></path>
                        </g>
                        <g id="right-eye" transform="translate(4.584440, 27.709779)" sketch:type="MSShapeGroup">
                            <path d="M0,15.0094637 L25.7874763,30.0189274 L47.8423034,25.9871952 L58.5587514,40.267689 L37.8216319,42.7192429 C37.8216319,42.7192429 56.1593928,43.29653 56.1593928,50.2239748 C56.1593928,57.1514196 67.6204934,47.3375394 67.6204934,47.3375394 L61.8899431,15.0094637 L32.6641366,-0.577287066 L0,15.0094637 Z" id="Path-20" fill-opacity="0.600000024" fill="#080606"></path>
                            <path d="M56.1593928,41.5646688 L43.5521822,37.5236593 L27.5066414,45.0283912 L43.5521822,39.8328076 L56.1593928,41.5646688 Z" id="Path-431" fill="#010100"></path>
                        </g>
                        <g id="mouth-+-beak" transform="translate(52.721063, 72.738170)">
                            <path d="M5.15749526,8.65930599 L-1.27243777e-16,12.1230284 C-1.27243777e-16,12.1230284 17.7647059,18.7684692 23.4952562,28.2870662 C29.2258065,37.8056633 35.5294118,28.2870662 35.5294118,28.2870662 C35.5294118,28.2870662 44.1252372,13.8548896 48.7096774,8.08201893 C53.2941176,2.30914826 5.15749526,8.65930599 5.15749526,8.65930599 Z" id="shadow" fill-opacity="0.399999976" fill="#080606" sketch:type="MSShapeGroup"></path>
                            <g id="beak-bottom" transform="translate(9.168880, 8.082019)">
                                <mask id="mask-45" sketch:name="beak bottom" fill="white">
                                    <use xlink:href="#path-44"></use>
                                </mask>
                                <use fill="#FDEED3" sketch:type="MSShapeGroup" xlink:href="#path-44"></use>
                                <path d="M22.9222011,20.7823344 L20.056926,15.0094637 L3.43833017,4.61829653 L-4.58444023,6.92744479 L15.4724858,20.7823344 L22.9222011,20.7823344 Z" id="Path-137" fill="#B7893D" sketch:type="MSShapeGroup" mask="url(#mask-45)"></path>
                            </g>
                            <g id="mouth-+-tongue" transform="translate(0.000000, 1.154574)">
                                <mask id="mask-48" sketch:name="mouth" fill="white">
                                    <use xlink:href="#path-47"></use>
                                </mask>
                                <use id="mouth" fill="url(#linearGradient-46)" sketch:type="MSShapeGroup" xlink:href="#path-47"></use>
                                <path d="M30.3719165,17.6072554 L36.1024668,15.0094638 L40.113852,16.1640378 L34.3833017,25.977918 C34.3833017,25.977918 27.5066414,24.8233439 27.5066414,24.8233438 C27.5066414,24.8233438 30.3719165,17.6072554 30.3719165,17.6072554 Z" id="tongue" fill="url(#linearGradient-49)" sketch:type="MSShapeGroup" mask="url(#mask-48)"></path>
                            </g>
                            <mask id="mask-52" sketch:name="beak" fill="white">
                                <use xlink:href="#path-51"></use>
                            </mask>
                            <use id="beak" fill="url(#linearGradient-50)" sketch:type="MSShapeGroup" xlink:href="#path-51"></use>
                            <path d="M24.6413662,-0.577287066 L24.6905732,5.94836808 L26.9335863,13.8548896 L42.4060721,2.88643533 L24.6413662,-0.577287066 Z" id="light" fill="#FFFFFF" sketch:type="MSShapeGroup" mask="url(#mask-52)"></path>
                        </g>
                        <g id="right-eyebrow" transform="translate(0.000000, 20.782334)">
                            <mask id="mask-54" sketch:name="right eyebrow" fill="white">
                                <use xlink:href="#path-53"></use>
                            </mask>
                            <use fill="#FFFFFF" sketch:type="MSShapeGroup" xlink:href="#path-53"></use>
                            <path d="M62.4629981,68.1198738 L67.0474383,55.4195584 L73.3510436,65.8107256 L73.3510436,46.1829653 C73.3510436,46.1829653 61.8899431,13.2776025 53.2941176,13.2776025 C48.8831692,13.2776025 37.2485769,9.96450892 37.2485769,9.96450892 L47.5635674,1.15457413 L11.7871155,6.50078626 L-1.71916509,24.2460568 L33.8102467,50.2239748 L51.0018975,66.9652997 L62.4629981,68.1198738 Z" id="shadow" fill-opacity="0.0956182065" fill="#484343" sketch:type="MSShapeGroup" mask="url(#mask-54)"></path>
                        </g>
                        <g id="left-eyebrow" transform="translate(76.789374, 11.545741)">
                            <path d="M1.14611006,47.9148265 L2.83467886,59.01323 L0.409945501,69.0025152 L3.43833017,66.9652997 L5.73055028,66.3880126 L4.58444023,71.0063091 L17.1916509,69.2744479 L10.8880455,57.1514196 L1.14611006,47.9148265 Z" id="shadow" fill-opacity="0.230000004" fill="#484343" sketch:type="MSShapeGroup"></path>
                            <mask id="mask-56" sketch:name="left eyebrow" fill="white">
                                <use xlink:href="#path-55"></use>
                            </mask>
                            <use fill="#FFFFFF" sketch:type="MSShapeGroup" xlink:href="#path-55"></use>
                            <path d="M13.7533207,73.3154574 L15.4724858,64.0788644 L7.44971537,43.873817 L8.0227704,21.3596215 L17.7647059,7.50473186 L42.9791271,5.77287066 L61.316888,6.92744479 L60.170778,16.7413249 L22.3491461,17.8958991 L19.483871,39.8328076 L26.9335863,58.8832808 L27.5066414,73.8927445 L13.7533207,73.3154574 Z" id="shadow" fill-opacity="0.2" fill="#8D8D8D" sketch:type="MSShapeGroup" mask="url(#mask-56)"></path>
                        </g>
                    </g>
                    <g id="shadow">
                        <use fill-opacity="0.100000001" fill="#000000" sketch:type="MSShapeGroup" xlink:href="#path-57"></use>
                        <use fill-opacity="0.03" fill="none" xlink:href="#path-57"></use>
                    </g>
                </g>
                <g id="lines" transform="translate(33.237192, 50.646688)">
                    <g id="head" transform="translate(128.510436, 0.000000)" stroke="#000000" sketch:type="MSShapeGroup">
                        <g id="hair" transform="translate(27.360531, 0.000000)">
                            <path d="M4.02397817,31.1087267 C4.02397817,31.1087267 4.02397817,8.85124284 26.2998004,3.40297559" id="Path-71" transform="translate(14.912024, 17.253837) rotate(-21.000000) translate(-14.912024, -17.253837) "></path>
                            <path d="M11.4611006,29.8643533 C11.4611006,29.8643533 14.3263757,13.1230284 23.4952562,13.1230284" id="Path-72" transform="translate(17.764706, 21.782334) rotate(-21.000000) translate(-17.764706, -21.782334) "></path>
                        </g>
                        <path d="M1.21643191,117.738187 L26.2772701,132.075045 L64.3794907,119.72583" id="Path-73" stroke-width="2.5" stroke-linejoin="bevel" opacity="0.876515858" transform="translate(32.734458, 124.665631) rotate(12.000000) translate(-32.734458, -124.665631) "></path>
                        <path d="M52.8164141,100.734312 L51.8750669,106.437786" id="tongue" stroke-opacity="0.829455389" stroke-width="2.5" opacity="0.800000012"></path>
                        <path d="M72.6318786,76.9337539 L78.7341521,69.3391103 L84.6660342,64.2334385 L90.7130654,62.1630776 L97.8462998,60.7697161" id="Path-87" stroke-width="2.5" stroke-linejoin="bevel" opacity="0.876515858"></path>
                        <path d="M80.654649,66.5425868 L86.3851992,64.8107256 L92.6888046,65.9652997" id="Path-88" stroke-width="2.5" stroke-linejoin="bevel" opacity="0.876515858"></path>
                        <path d="M34.2371917,83.2839117 L17.0975491,80.8824436 L1.57305503,84.4384857" id="Path-96" stroke-width="2.5" stroke-linejoin="bevel" opacity="0.876515858"></path>
                        <path d="M6.15749526,85.0157729 L13.6072106,80.3974763" id="Path-168" stroke-width="2.5" stroke-linejoin="bevel" opacity="0.876515858"></path>
                    </g>
                    <g id="body" transform="translate(116.903226, 128.466877)" stroke="#000000" sketch:type="MSShapeGroup" opacity="0.876515858">
                        <path d="M145.676893,0.995755684 C145.676893,0.995755684 160.489156,29.9345713 134.142814,98.4915795" id="Path-74" stroke-width="2.5" stroke-linejoin="bevel" transform="translate(142.151103, 49.626954) rotate(-8.000000) translate(-142.151103, -49.626954) "></path>
                        <g id="hair" transform="translate(59.597723, 20.627760)">
                            <path d="M0,3.78443743 L4.58444023,9.23659306" id="Path-82"></path>
                            <path d="M5.44402277,0 L4.29791271,6.61256094" id="Path-85"></path>
                            <path d="M0,9.53143771 L4.58444023,14.9835933" id="Path-83"></path>
                            <path d="M8.73180295,6.30339537 L5.61337373,12.2355315" id="Path-86"></path>
                            <path d="M23.1763043,66.2964521 L29.7181517,69.0576956" id="Path-84"></path>
                            <path d="M19.82724,52.2538828 L21.7860806,58.6698834" id="Path-87"></path>
                        </g>
                        <path d="M148.972475,134.542885 L133.188223,119.419223" id="leg" stroke-width="2.5" stroke-linejoin="bevel"></path>
                        <path d="M65.218129,119.034562 L108.395219,134.565208" id="Path-129" stroke-width="2.5" stroke-linejoin="bevel"></path>
                        <path d="M3.3104556,62.9955143 L22.559611,96.5064398" id="Path-130" stroke-width="2.5" stroke-linejoin="bevel"></path>
                        <path d="M0.443628105,57.5712241 L20.8419982,90.3849887" id="Path-131" stroke-width="2.5" stroke-linejoin="bevel"></path>
                        <path d="M115.697645,38.2153814 L116.863187,64.8010849" id="Path-135" stroke-width="2.5" stroke-linejoin="bevel"></path>
                        <path d="M12.5266509,41.5251591 L44.2799062,98.3803991" id="Path-136" stroke-width="2.5" stroke-linejoin="bevel"></path>
                    </g>
                    <g id="left-wing" transform="translate(238.390892, 61.347003)" stroke="#000000" stroke-width="2.5" sketch:type="MSShapeGroup" opacity="0.876515858" stroke-linejoin="bevel">
                        <path d="M0,44.4511041 L96.8462998,8.08201893" id="Path-105"></path>
                        <path d="M10.8880455,43.873817 L105.442125,0.577287066" id="Path-106"></path>
                        <path d="M27.5066414,112.570978 L41.259962,60.615142" id="Path-105"></path>
                        <path d="M32.6641366,81.9747634 L46.4174573,55.4195584" id="Path-106"></path>
                        <path d="M40.686907,62.9242902 L113.464896,11.5457413" id="Path-107"></path>
                        <path d="M72.7779886,101.025237 C72.7779886,101.025237 68.7666034,80.2429022 68.7666034,73.3154574" id="Path-102" transform="translate(71.058824, 87.170347) rotate(-2.000000) translate(-71.058824, -87.170347) "></path>
                    </g>
                    <g id="right-wing" transform="translate(0.000000, 146.785489)" stroke="#000000" stroke-width="2.5" sketch:type="MSShapeGroup" opacity="0.876515858" stroke-linejoin="bevel">
                        <path d="M63.7694806,42.7597207 L119.005867,45.5341964" id="Path-140"></path>
                        <path d="M111.745731,42.7192429 L124.925996,54.2649842" id="Path-141"></path>
                        <path d="M0,37.5236593 L85.3851992,-0.577287066" id="Path-142"></path>
                    </g>
                    <g id="tale" transform="translate(255.582543, 191.813880)">
                        <mask id="mask-60" sketch:name="tale" fill="white">
                            <use xlink:href="#path-59"></use>
                        </mask>
                        <g>
                            <use fill="url(#linearGradient-58)" sketch:type="MSShapeGroup" xlink:href="#path-59"></use>
                            <use fill-opacity="0.229999989" fill="none" xlink:href="#path-59"></use>
                        </g>
                        <path d="M11.4611006,5.1955836 L17.7647059,24.2460568 L58.4516129,5.77287066 L41.8330171,34.637224 L16.0455408,41.5646688 L0.573055028,43.873817 L-4.58444023,19.6277603 L1.71916509,-1.7318612 L11.4611006,5.1955836 Z" id="Path-97" fill="#000000" sketch:type="MSShapeGroup" mask="url(#mask-60)"></path>
                    </g>
                </g>
            </g>
        </g>
    </g>
</svg>