<?xml version="1.0" encoding="UTF-8" standalone="no"?>
<svg width="435px" height="307px" viewBox="0 0 435 307" version="1.1" xmlns="http://www.w3.org/2000/svg" xmlns:xlink="http://www.w3.org/1999/xlink" xmlns:sketch="http://www.bohemiancoding.com/sketch/ns">
    <!-- Generator: Sketch 3.1 (8751) - http://www.bohemiancoding.com/sketch -->
    <title>images</title>
    <desc>Created with Sketch.</desc>
    <defs></defs>
    <g id="Logout" stroke="none" stroke-width="1" fill="none" fill-rule="evenodd" sketch:type="MSPage">
        <g id="logout" sketch:type="MSArtboardGroup" transform="translate(-418.000000, -174.000000)">
            <g id="images" sketch:type="MSLayerGroup" transform="translate(418.000000, 63.000000)">
                <path d="M73.2825,336.566176 L97.0325,336.566176 L97.0325,367.448529 L73.2825,367.448529 L73.2825,336.566176 Z M70.7825,369.919118 L99.5325,369.919118 L99.5325,334.095588 L70.7825,334.095588 L70.7825,369.919118 Z M80,331.470588 L102.0325,331.470588 L102.0325,350.192706 L104.5325,350.192706 L104.5325,329 L80,329 L80,331.470588 Z M83.9075,347.459 L78.2825,347.459 L78.2825,341.900176 L83.9075,341.900176 L83.9075,347.459 Z M86.4075,339.429588 L75.7825,339.429588 L75.7825,349.929588 L86.4075,349.929588 L86.4075,339.429588 Z M88.7525,341.900176 L94.685,341.900176 L94.685,339.429588 L88.7525,339.429588 L88.7525,341.900176 Z M88.7525,345.917353 L94.685,345.917353 L94.685,343.446765 L88.7525,343.446765 L88.7525,345.917353 Z M88.7525,350.235941 L94.685,350.235941 L94.685,347.765353 L88.7525,347.765353 L88.7525,350.235941 Z M75.625,355.404412 L94.6875,355.404412 L94.6875,352.933824 L75.625,352.933824 L75.625,355.404412 Z M75.625,359.947824 L94.6875,359.947824 L94.6875,357.477235 L75.625,357.477235 L75.625,359.947824 Z M75.625,364.204647 L94.6875,364.204647 L94.6875,361.734059 L75.625,361.734059 L75.625,364.204647 Z" id="history" fill="#D04613" sketch:type="MSShapeGroup"></path>
                <path d="M175.775385,378.1 C177.985231,378.1 179.781538,379.8514 179.781538,382.006 L179.781538,390.1981 L171.769231,390.1981 L171.769231,382.006 C171.769231,379.8514 173.565538,378.1 175.775385,378.1 M175.775385,398.9362 C173.565538,398.9362 171.769231,397.1827 171.769231,395.0302 L171.769231,392.2981 L179.781538,392.2981 L179.781538,395.0302 C179.781538,397.1827 177.985231,398.9362 175.775385,398.9362 M175.775385,401.0362 C179.172,401.0362 181.935385,398.3419 181.935385,395.0302 L181.935385,382.006 C181.935385,378.6943 179.172,376 175.775385,376 C172.378769,376 169.615385,378.6943 169.615385,382.006 L169.615385,395.0302 C169.615385,398.3419 172.378769,401.0362 175.775385,401.0362 M175.777538,415.16899 C168.439385,415.16899 164.067077,413.75359 163.683692,413.11099 C164.067077,412.31929 168.439385,410.90389 175.777538,410.90389 C183.115692,410.90389 187.488,412.31929 187.871385,412.96189 C187.488,413.75359 183.115692,415.16899 175.777538,415.16899 M176.746769,408.81439 L176.746769,404.21119 C181.474462,403.74079 185.189846,399.87889 185.189846,395.14759 L185.189846,392.06059 L186.740615,392.06059 L186.740615,389.96059 L183.036,389.96059 L183.036,395.14759 C183.036,399.03889 179.790154,402.20359 175.799077,402.20359 C173.862769,402.20359 172.047077,401.47069 170.681538,400.13929 C169.316,398.80579 168.562154,397.03339 168.562154,395.14759 L168.562154,390.35959 L164.814462,390.35959 L164.814462,392.45959 L166.408308,392.45959 L166.408308,395.14759 C166.408308,397.59409 167.386154,399.89569 169.158769,401.62399 C170.640615,403.07089 172.542462,403.93399 174.592923,404.18809 L174.592923,408.81859 C169.257846,408.94459 161.542769,409.93159 161.542769,413.03539 C161.542769,416.37859 170.489846,417.26899 175.777538,417.26899 C181.065231,417.26899 190.012308,416.37859 190.012308,413.03539 C190.012308,409.89169 182.088308,408.91729 176.746769,408.81439" id="ZSV" fill="#97205E" sketch:type="MSShapeGroup"></path>
                <path d="M317.0414,404.75284 C314.299702,406.288548 311.357297,407.30541 308.272643,407.782597 L308.272643,389.022723 L312.657021,389.022723 L312.657021,387.129125 L308.272643,387.129125 L308.272643,385.267719 L310.994855,385.267719 L310.994855,383.374121 L308.272643,383.374121 L308.272643,381.527863 L310.951985,381.527863 L310.951985,379.634265 L308.272643,379.634265 L308.272643,377.799369 L312.657021,377.799369 L312.657021,375.905771 L308.272643,375.905771 L308.272643,374.246979 L310.891578,374.246979 L310.891578,372.353381 L308.272643,372.353381 L308.272643,369.893598 L317.0414,369.893598 L317.0414,404.75284 Z M300.478192,407.846979 C299.75136,407.742831 299.030373,407.597024 298.315232,407.432281 L298.315232,387.63661 L300.478192,387.63661 L300.478192,407.846979 Z M287.948613,387.63661 L289.846561,387.63661 L289.846561,403.804148 C289.193776,403.370514 288.55658,402.914157 287.948613,402.419928 L287.948613,387.63661 Z M294.225094,377.060866 L295.914541,379.738413 C294.854496,380.071686 293.654151,380.07358 292.539544,379.727051 L294.225094,377.060866 Z M288.731955,385.743012 L291.475602,381.406673 C292.344683,381.745627 293.281966,381.923625 294.225094,381.923625 C295.189657,381.923625 296.124991,381.74752 296.972638,381.41046 L299.706542,385.743012 L288.731955,385.743012 Z M291.795174,387.63661 L296.366619,387.63661 L296.366619,406.888819 C294.772654,406.390803 293.239096,405.746979 291.795174,404.961136 L291.795174,387.63661 Z M318.015706,368 L307.298336,368 C306.760519,368 306.32403,368.424166 306.32403,368.946799 L306.32403,408.013616 C305.022357,408.121551 303.718735,408.134806 302.426805,408.051488 L302.426805,386.689811 C302.426805,386.511812 302.362501,386.35275 302.272864,386.21073 L302.284556,386.203156 L295.055203,374.758251 C294.877879,374.477998 294.564153,374.305681 294.225094,374.305681 C293.886035,374.305681 293.572309,374.477998 293.394985,374.758251 L286.151992,386.203156 L286.155889,386.206943 C286.066253,386.350857 286,386.509919 286,386.689811 L286,402.861136 C286,403.162218 286.148095,403.434896 286.381928,403.609107 C287.607605,404.643012 288.936559,405.567087 290.327869,406.349143 C293.652202,408.254103 297.467586,409.469793 301.364811,409.865555 C302.274813,409.954554 303.19261,410 304.110406,410 C305.21527,410 306.320133,409.933724 307.421099,409.806853 C311.333913,409.365645 315.051866,408.131019 318.465836,406.133273 C318.641211,406.046168 318.789305,405.906041 318.886736,405.728043 C318.984167,405.548151 319.019242,405.34743 318.990013,405.154283 L318.990013,368.946799 C318.990013,368.424166 318.553523,368 318.015706,368 L318.015706,368 Z" id="umění" fill="#5E4EC5" sketch:type="MSShapeGroup"></path>
                <path d="M9.50422613,197.139354 C5.48704448,197.139354 2.21698767,193.799284 2.21698767,189.701137 C2.21698767,185.5962 5.48704448,182.26292 9.50422613,182.26292 C13.5214078,182.26292 16.7914646,185.5962 16.7914646,189.701137 C16.7914646,193.799284 13.5214078,197.139354 9.50422613,197.139354 M9.50422613,180 C4.26326729,180 0,184.351595 0,189.701137 C0,195.048416 4.26326729,199.402273 9.50422613,199.402273 C14.745185,199.402273 19.0084523,195.048416 19.0084523,189.701137 C19.0084523,184.351595 14.745185,180 9.50422613,180 M30.4953305,197.139354 C26.4781488,197.139354 23.208092,193.799284 23.208092,189.701137 C23.208092,185.598463 26.4781488,182.265183 30.4953305,182.265183 C34.5125121,182.265183 37.7825689,185.598463 37.7825689,189.701137 C37.7825689,193.799284 34.5125121,197.139354 30.4953305,197.139354 M30.4953305,180.002263 C25.2543716,180.002263 20.9911043,184.353857 20.9911043,189.701137 C20.9911043,195.048416 25.2543716,199.402273 30.4953305,199.402273 C35.7362893,199.402273 39.9995566,195.048416 39.9995566,189.701137 C39.9995566,184.353857 35.7362893,180.002263 30.4953305,180.002263 M9.50422613,220.736401 C5.48704448,220.736401 2.21698767,217.396332 2.21698767,213.298184 C2.21698767,209.193248 5.48704448,205.859967 9.50422613,205.859967 C13.5214078,205.859967 16.7914646,209.193248 16.7914646,213.298184 C16.7914646,217.396332 13.5214078,220.736401 9.50422613,220.736401 M9.50422613,203.597048 C4.26326729,203.597048 0,207.948642 0,213.298184 C0,218.645464 4.26326729,222.999321 9.50422613,222.999321 C14.745185,222.999321 19.0084523,218.645464 19.0084523,213.298184 C19.0084523,207.948642 14.745185,203.597048 9.50422613,203.597048 M30.4953305,220.687749 C26.4781488,220.687749 23.208092,217.347679 23.208092,213.249532 C23.208092,209.146858 26.4781488,205.813578 30.4953305,205.813578 C34.5125121,205.813578 37.7825689,209.146858 37.7825689,213.249532 C37.7825689,217.347679 34.5125121,220.687749 30.4953305,220.687749 M30.4953305,203.550658 C25.2543716,203.550658 20.9911043,207.902252 20.9911043,213.249532 C20.9911043,218.596811 25.2543716,222.950668 30.4953305,222.950668 C35.7362893,222.950668 39.9995566,218.596811 39.9995566,213.249532 C39.9995566,207.902252 35.7362893,203.550658 30.4953305,203.550658 Z M12.2018567,188.746185 L10.6854372,188.746185 L10.6854372,187.198348 C10.6854372,186.530786 10.1577941,185.992211 9.50378274,185.992211 C8.85198836,185.992211 8.32212831,186.530786 8.32212831,187.198348 L8.32212831,188.746185 L6.80570874,188.746185 C6.15169738,188.746185 5.62405432,189.284759 5.62405432,189.952321 C5.62405432,190.619882 6.15169738,191.158457 6.80570874,191.158457 L8.32212831,191.158457 L8.32212831,192.706294 C8.32212831,193.376118 8.85198836,193.91243 9.50378274,193.91243 C10.1577941,193.91243 10.6854372,193.376118 10.6854372,192.706294 L10.6854372,191.158457 L12.2018567,191.158457 C12.8558681,191.158457 13.3835112,190.619882 13.3835112,189.952321 C13.3835112,189.284759 12.8558681,188.746185 12.2018567,188.746185 Z M33.1929611,188.746185 L27.7968131,188.746185 C27.1428017,188.746185 26.6151587,189.284759 26.6151587,189.952321 C26.6151587,190.619882 27.1428017,191.158457 27.7968131,191.158457 L33.1929611,191.158457 C33.8469724,191.158457 34.3746155,190.619882 34.3746155,189.952321 C34.3746155,189.284759 33.8469724,188.746185 33.1929611,188.746185 Z M10.575918,211.008562 L6.76048219,214.90531 C6.29713177,215.375997 6.29713177,216.138601 6.76048219,216.611551 C7.22383262,217.082239 7.97095746,217.082239 8.4320909,216.611551 L12.2475267,212.717067 C12.7086601,212.244116 12.7086601,211.47925 12.2475267,211.008562 C11.7841763,210.535612 11.0370514,210.535612 10.575918,211.008562 Z M7.67809339,212.696927 C8.37644451,212.696927 8.94399335,212.119882 8.94399335,211.409325 C8.94399335,210.694243 8.37644451,210.114935 7.67809339,210.114935 C6.97974228,210.114935 6.41441042,210.694243 6.41441042,211.409325 C6.41441042,212.119882 6.97974228,212.696927 7.67809339,212.696927 Z M11.3283636,214.769761 C10.6300125,214.769761 10.0646806,215.349069 10.0646806,216.057362 C10.0646806,216.774708 10.6300125,217.351752 11.3283636,217.351752 C12.0267147,217.351752 12.5942635,216.774708 12.5942635,216.057362 C12.5942635,215.349069 12.0267147,214.769761 11.3283636,214.769761 Z M33.2395178,209.959782 C32.7783844,209.486832 32.0312595,209.486832 31.5679091,209.959782 L30.4948871,211.055035 L29.424082,209.959782 C28.9629486,209.486832 28.2158237,209.486832 27.7524733,209.959782 C27.2913399,210.430469 27.2913399,211.195336 27.7524733,211.668286 L28.8232784,212.761276 L27.7524733,213.856529 C27.2891229,214.327217 27.2891229,215.089821 27.7524733,215.562771 C28.2158237,216.033458 28.9629486,216.033458 29.424082,215.562771 L30.4948871,214.467518 L31.5679091,215.562771 C32.0312595,216.033458 32.7783844,216.033458 33.2395178,215.562771 C33.7006512,215.089821 33.7006512,214.327217 33.2395178,213.856529 L32.1664958,212.761276 L33.2395178,211.668286 C33.7006512,211.195336 33.7006512,210.430469 33.2395178,209.959782 Z" id="math" fill="#0A82CC" sketch:type="MSShapeGroup"></path>
                <path d="M49.4016495,277.888 C48.7247672,279.351368 46.5657084,280.189158 43.4751201,280.189158 C42.7851789,280.189158 42.0255907,280.098526 41.2747084,280.018947 C41.5097672,278.955684 41.7100025,277.846 41.8623554,276.685474 C43.9604731,275.051895 45.7538848,273.338737 47.1860025,271.627789 C49.2623554,274.119053 50.0850613,276.409158 49.4016495,277.888 M32.9061789,289.223579 C31.6568848,289.223579 30.3575319,288.184632 29.2105319,286.334421 L29.201826,285.410421 L29.201826,286.318947 C28.7774142,285.635895 28.3769436,284.840105 28.0091201,283.942632 C30.3096495,283.270632 32.7342378,282.280316 35.1457672,281.011474 C36.2971201,281.356316 37.4332378,281.648105 38.5367084,281.866947 C37.1263554,286.449368 34.9477084,289.223579 32.9061789,289.223579 M21.8671201,282.744526 C19.5970613,282.744526 17.9777672,282.123368 17.3052378,280.993789 C16.3127672,279.322632 17.3204731,276.283158 20.0475907,272.936421 C21.1837084,273.909053 22.4504142,274.857368 23.8455319,275.765895 C24.1088848,278.175368 24.5463554,280.416842 25.1448848,282.397474 C23.9804731,282.625158 22.8770025,282.744526 21.8671201,282.744526 M16.4107084,262.164526 C17.0854142,260.701158 19.2466495,259.861158 22.3372378,259.861158 C23.1316495,259.861158 23.9957084,259.951789 24.8684731,260.057895 C24.3635319,261.961158 23.984826,264.058947 23.7715319,266.313684 C22.3241789,267.454316 21.0226495,268.630316 19.8887084,269.819579 C16.8830025,266.802211 15.6010613,263.915263 16.4107084,262.164526 M32.9061789,252.210526 C34.8280025,252.210526 36.8738848,254.662 38.2842378,258.771368 C36.9239436,259.144947 35.5135907,259.637895 34.0836495,260.234737 C31.9245907,259.377053 29.7655319,258.711684 27.7087672,258.276211 C29.1104142,254.471895 31.0648848,252.210526 32.9061789,252.210526 M42.0974142,267.034316 C43.4707672,268.015789 44.6721789,269.017158 45.6885907,270.011895 C44.7200613,271.190105 43.5317084,272.403684 42.1496495,273.608421 C42.2062378,272.662316 42.2454142,271.702947 42.2454142,270.717053 C42.2454142,269.454842 42.188826,268.228 42.0974142,267.034316 M36.9631201,261.483684 C37.6204142,261.253789 38.2711789,261.052632 38.9067084,260.878 C39.0568848,261.463789 39.1961789,262.071684 39.3202378,262.703895 C38.5584731,262.283895 37.7771201,261.872737 36.9631201,261.483684 M26.1787084,264.540842 C26.3920025,263.059789 26.6792966,261.684842 27.0231789,260.429263 C28.3856495,260.705579 29.7872966,261.079158 31.2281201,261.563263 C30.1725319,262.100421 29.1191201,262.670737 28.0787672,263.307368 C27.425826,263.707474 26.7924731,264.120842 26.1787084,264.540842 M23.6191789,272.949684 C22.8595907,272.405895 22.1609436,271.853263 21.5123554,271.298421 C22.1457084,270.637474 22.837826,269.972105 23.5974142,269.311158 C23.5821789,269.777579 23.5647672,270.241789 23.5647672,270.717053 C23.5647672,271.473053 23.5843554,272.218 23.6191789,272.949684 M32.2097084,280.007895 C30.5251201,280.786 28.8622966,281.413789 27.2734731,281.869158 C26.8447084,280.472105 26.4877672,278.907053 26.2265907,277.198316 C27.0993554,277.686842 27.9960613,278.164316 28.9384731,278.615263 C30.0201789,279.130316 31.1171201,279.590105 32.2097084,280.007895 M39.3681201,278.498105 C39.2897672,278.904842 39.2092378,279.304947 39.1221789,279.689579 C38.7195319,279.614421 38.3190613,279.537053 37.9077084,279.439789 C38.4039436,279.130316 38.8914731,278.818632 39.3681201,278.498105 M36.6083554,277.658105 C36.0642378,277.991895 35.5157672,278.303579 34.9651201,278.608632 C33.2740025,278.060421 31.5632966,277.423789 29.8612966,276.612526 C28.4378848,275.933895 27.1211201,275.206632 25.8979436,274.455053 C25.797826,273.261368 25.7412378,272.014632 25.7412378,270.717053 C25.7412378,269.594105 25.7912966,268.515368 25.8674731,267.467579 C26.8991201,266.693895 28.0091201,265.933474 29.2040025,265.201789 C30.8145907,264.213684 32.4512966,263.367053 34.0705907,262.644211 C34.6974142,262.909474 35.3264142,263.141579 35.9488848,263.437789 C37.3135319,264.089895 38.5780613,264.781789 39.7577084,265.500211 C39.9535907,267.133789 40.0689436,268.873474 40.0689436,270.717053 C40.0689436,272.399263 39.9710025,273.990842 39.8055907,275.500632 C38.8152966,276.236737 37.748826,276.961789 36.6083554,277.658105 M43.9474142,260.115368 C46.2152966,260.115368 47.8345907,260.738737 48.5049436,261.866105 C49.3276495,263.249895 48.7661201,265.577579 47.0031789,268.234632 C45.5405907,266.830947 43.7841789,265.456 41.781826,264.169474 C41.5881201,262.847579 41.337826,261.589789 41.0374731,260.407158 C42.0647672,260.223684 43.0463554,260.115368 43.9474142,260.115368 M50.3701789,260.725474 C49.2732378,258.879684 47.0510613,257.904842 43.9474142,257.904842 C42.8504731,257.904842 41.6599436,258.030842 40.4084731,258.269579 C38.7195319,253.227368 36.0163554,250 32.9061789,250 C29.8721789,250 27.2277672,253.063789 25.5322966,257.889368 C24.4179436,257.734632 23.3449436,257.650632 22.3372378,257.650632 C18.3085907,257.650632 15.5052966,258.919474 14.4410025,261.225053 C13.1394731,264.039053 14.7914142,267.816842 18.4391789,271.455368 C15.1331201,275.489579 13.8511789,279.455263 15.4421789,282.134421 C16.5391201,283.980211 18.7591201,284.955053 21.8671201,284.955053 C23.0990025,284.955053 24.4571201,284.782632 25.8827084,284.482 C27.5825319,288.759368 30.0745907,291.434105 32.9061789,291.434105 C36.2100613,291.434105 39.0634142,287.804421 40.7175319,282.209579 C41.6730025,282.326737 42.6023554,282.399684 43.4751201,282.399684 C47.5015907,282.399684 50.3070613,281.130842 51.3713554,278.827474 C52.5227084,276.336211 51.3604731,273.091158 48.5506495,269.852737 C50.9621789,266.371158 51.7565907,263.059789 50.3701789,260.725474 M32.9675554,272.7556 C31.8662613,272.7556 30.9717319,271.847074 30.9717319,270.728547 C30.9717319,269.612232 31.8662613,268.703705 32.9675554,268.703705 C34.0666731,268.703705 34.9633789,269.612232 34.9633789,270.728547 C34.9633789,271.847074 34.0666731,272.7556 32.9675554,272.7556 M32.9675554,266.493179 C30.667026,266.493179 28.7952613,268.392021 28.7952613,270.728547 C28.7952613,273.065074 30.667026,274.966126 32.9675554,274.966126 C35.2680848,274.966126 37.1398495,273.065074 37.1398495,270.728547 C37.1398495,268.392021 35.2680848,266.493179 32.9675554,266.493179" id="physics" fill="#3DBCB2" sketch:type="MSShapeGroup"></path>
                <path d="M38.5795331,150.6522 C38.5398058,150.711 38.4059876,150.7698 38.190624,150.7698 L21.4968058,150.7698 C21.2835331,150.7698 21.1518058,150.7131 21.1141694,150.6585 C21.0765331,150.6039 21.0744421,150.459 21.1538967,150.2616 L24.160624,142.7394 L35.6208967,142.7394 L38.5460785,150.2469 C38.6234421,150.4464 38.6192603,150.5955 38.5795331,150.6522 L38.5795331,150.6522 Z M25.7748058,127.8 L34.4039876,127.8 C35.0354421,127.8 35.5665331,128.2473 35.5665331,128.7765 C35.5665331,129.3015 35.0521694,129.7278 34.3057149,129.7341 L33.2017149,129.7341 L33.2017149,134.2302 C33.2017149,135.5175 33.5697149,137.4663 34.0359876,138.6675 L34.8033512,140.6394 L24.9990785,140.6394 L25.8772603,138.447 C26.3560785,137.2479 26.7303512,135.297 26.7303512,134.0055 L26.7303512,129.7341 L25.7643512,129.7341 C25.1308058,129.7278 24.6164421,129.3015 24.6164421,128.7765 C24.6164421,128.2473 25.1475331,127.8 25.7748058,127.8 L25.7748058,127.8 Z M35.982624,137.9031 C35.6083512,136.9413 35.292624,135.2592 35.292624,134.2302 L35.292624,131.706 C36.6538058,131.3385 37.6574421,130.173 37.6574421,128.7765 C37.6574421,127.0797 36.1979876,125.7 34.4039876,125.7 L25.7748058,125.7 C23.9828967,125.7 22.5255331,127.0797 22.5255331,128.7765 C22.5255331,130.0869 23.4078967,131.1978 24.6394421,131.6325 L24.6394421,134.0055 C24.6394421,135.0345 24.3174421,136.7103 23.9368967,137.6637 L19.2135331,149.4783 C18.8789876,150.3183 18.939624,151.1772 19.3808058,151.8345 C19.8240785,152.4918 20.595624,152.8698 21.4968058,152.8698 L38.190624,152.8698 C39.0897149,152.8698 39.8612603,152.4918 40.306624,151.8366 C40.7540785,151.1814 40.8209876,150.3225 40.4948058,149.4804 L35.982624,137.9031 Z M22.7699603,116.2647 C23.0334149,116.2647 23.2487785,116.481 23.2487785,116.7456 C23.2508694,117.2748 22.2932331,117.2769 22.2911421,116.7456 C22.2911421,116.481 22.5065058,116.2647 22.7699603,116.2647 M22.7699603,119.3265 C24.1875967,119.3265 25.3396876,118.1673 25.3396876,116.7456 C25.3396876,115.3218 24.1875967,114.1647 22.7699603,114.1647 C21.3544149,114.1647 20.2002331,115.3218 20.2002331,116.7456 C20.2002331,118.1673 21.3544149,119.3265 22.7699603,119.3265 M30.3536876,123.04875 C31.5538694,123.04875 32.530324,122.06595 32.530324,120.85845 C32.530324,119.65305 31.5538694,118.67235 30.3536876,118.67235 C29.1514149,118.67235 28.1728694,119.65305 28.1728694,120.85845 C28.1728694,122.06595 29.1514149,123.04875 30.3536876,123.04875 M37.7023967,117.36804 C36.5273058,117.36804 35.5675785,116.40624 35.5675785,115.22394 C35.5675785,114.04374 36.5273058,113.08194 37.7023967,113.08194 C38.8774876,113.08194 39.8372149,114.04374 39.8372149,115.22394 C39.8372149,116.40624 38.8774876,117.36804 37.7023967,117.36804 M37.7023967,110.98194 C35.373124,110.98194 33.4766694,112.88454 33.4766694,115.22394 C33.4766694,117.56544 35.373124,119.46804 37.7023967,119.46804 C40.0316694,119.46804 41.928124,117.56544 41.928124,115.22394 C41.928124,112.88454 40.0316694,110.98194 37.7023967,110.98194" id="chemistry" fill="#EC9405" sketch:type="MSShapeGroup"></path>
                <path d="M420.185625,282.0473 L420.185625,282.0473 C418.88725,282.0473 418.1095,281.9423 417.6505,281.8352 C417.56975,281.7491 417.482625,281.6651 417.39125,281.5853 C417.3955,281.5811 417.397625,281.579 417.39975,281.5748 C418.400625,280.5185 419.49925,281.1443 420.4215,282.0473 L420.185625,282.0473 M414.75625,286.85 C414.75625,287.7383 411.706875,289.4603 406.116,289.4729 C406.20525,289.0529 406.19675,288.5888 406.045875,288.0722 C406.0395,288.0554 406.03525,288.0386 406.028875,288.0218 C406.15,286.9718 406.390125,285.548 406.687625,284.2502 C411.90025,284.3783 414.75625,285.9953 414.75625,286.85 M406.062875,306.947 C400.580375,306.947 397.520375,305.3069 397.358875,304.3094 L397.358875,289.7711 C399.435,290.9618 402.756375,291.575 406.058625,291.575 C409.35875,291.575 412.680125,290.9618 414.75625,289.7711 L414.754125,304.322 C414.754125,305.2145 411.68775,306.947 406.062875,306.947 M401.30075,284.7227 C402.38875,285.9407 403.447,287.2847 403.878375,288.3053 C403.85075,288.719 403.84225,289.0781 403.855,289.3742 C399.641125,289.0004 397.358875,287.6165 397.358875,286.85 C397.358875,286.2578 398.740125,285.3044 401.30075,284.7227 M404.490375,284.2838 C404.433,284.54 404.379875,284.7983 404.328875,285.0545 C404.144,284.813 403.95275,284.5757 403.759375,284.3384 C403.99525,284.3174 404.24175,284.3006 404.490375,284.2838 M407.932875,272.5721 C409.244,274.6931 410.491375,277.4231 409.95375,278.45 C409.80075,278.7419 409.369375,278.891 408.672375,278.891 L408.67025,278.891 C408.50025,278.891 408.319625,278.8805 408.124125,278.8616 C406.9915,278.7545 406.300875,278.4227 406.06925,277.8767 C405.578375,276.7217 406.694,274.3907 407.932875,272.5721 M393.827125,278.2253 C394.213875,278.2127 394.638875,278.2043 395.07875,278.2043 C399.02275,278.2043 399.700625,278.8847 399.730375,278.849 C399.721875,278.8889 399.662375,279.1052 399.254375,279.5315 C398.655125,280.1636 398.0495,280.4681 397.4035,280.4681 C396.126375,280.4681 394.783375,279.3131 393.827125,278.2253 M418.51325,278.891 C417.529375,278.891 416.63475,279.311 415.8485,280.1384 C415.731625,280.2623 415.67425,280.3715 415.585,280.4891 C414.431125,279.9935 413.08175,279.6596 411.825875,279.4349 C411.830125,279.4286 411.8365,279.4223 411.84075,279.4139 C413.313375,276.5999 409.607375,271.1861 408.84875,270.1277 L408.039125,269 L407.15725,270.0731 C406.704625,270.6254 402.777625,275.5436 404.11,278.6873 C404.42875,279.4433 405.017375,279.9935 405.81,280.382 C405.53375,280.8797 405.280875,281.5097 405.051375,282.2153 C404.0505,282.251 403.06025,282.3413 402.11675,282.4841 C401.57275,281.9108 401.0755,281.4152 400.70575,281.0582 C400.737625,281.0267 400.771625,281.0036 400.8035,280.9721 C401.783125,279.941 402.084875,278.9687 401.696,278.0825 C401.098875,276.7133 399.05675,276.1043 395.07875,276.1043 C393.2725,276.1043 391.76375,276.2408 391.702125,276.245 L390,276.4025 L390.8925,277.841 C391.192125,278.324 393.924875,282.5681 397.4035,282.5681 C397.92625,282.5681 398.425625,282.4526 398.910125,282.2657 C399.13325,282.4757 399.38825,282.7235 399.679375,283.0112 C397.07625,283.7672 395.233875,285.044 395.233875,286.85 L395.225375,304.322 C395.225375,307.4237 400.678125,309.047 406.062875,309.047 C411.371125,309.047 416.741,307.4657 416.877,304.3262 L416.88125,287.5535 L416.772875,287.5535 C416.836625,287.3267 416.88125,287.0957 416.88125,286.85 C416.88125,283.9772 412.24025,282.4379 407.257125,282.2258 C407.44625,281.6966 407.643875,281.2913 407.839375,281.0897 L407.924375,281.096 C410.189625,281.2136 413.491875,281.7575 415.2025,282.6269 C415.731625,283.6748 417.270125,284.1473 420.185625,284.1473 C421.518,284.1473 422.64425,284.0444 422.64425,284.0444 L424.34,283.8869 L423.453875,282.4505 C423.228625,282.0872 421.180125,278.891 418.51325,278.891" id="přírodovědu" fill="#7EC22F" sketch:type="MSShapeGroup"></path>
                <path d="M432.0764,146.743781 L394.1,146.743781 L394.1,128.887406 L417.1517,128.887406 L419.825,128.887406 L432.0764,128.887406 L432.0764,146.743781 Z M419.825,126.762406 L418.8674,126.762406 C418.6784,125.330156 418.6154,122.952281 419.6591,121.902531 C420.2597,121.296906 421.2677,121.154531 422.66,121.488156 C427.4417,122.627156 430.4237,121.022781 431.5262,116.715406 C431.5556,116.602781 431.5766,116.513531 431.5913,116.468906 C431.8118,115.927031 431.5577,115.306531 431.0222,115.081281 C430.4846,114.856031 429.8693,115.115281 429.6509,115.657156 C429.6047,115.765531 429.5543,115.946156 429.4934,116.182031 C429.1238,117.635531 428.3552,120.665781 423.1388,119.418406 C421.001,118.906281 419.3315,119.235656 418.1786,120.395906 C416.486,122.095906 416.5448,125.045406 416.7527,126.762406 L392,126.762406 L392,148.868781 L434.1764,148.868781 L434.1764,126.762406 L419.825,126.762406 Z M398.4995,131.078281 L396.2231,131.078281 L396.2231,133.203281 L398.4995,133.203281 L398.4995,131.078281 Z M401.9141,131.078281 L399.6377,131.078281 L399.6377,133.203281 L401.9141,133.203281 L401.9141,131.078281 Z M405.3287,131.078281 L403.0523,131.078281 L403.0523,133.203281 L405.3287,133.203281 L405.3287,131.078281 Z M409.1003,131.078281 L406.8239,131.078281 L406.8239,133.203281 L409.1003,133.203281 L409.1003,131.078281 Z M412.5128,131.078281 L410.2364,131.078281 L410.2364,133.203281 L412.5128,133.203281 L412.5128,131.078281 Z M415.9295,131.078281 L413.6531,131.078281 L413.6531,133.203281 L415.9295,133.203281 L415.9295,131.078281 Z M419.3441,131.078281 L417.0677,131.078281 L417.0677,133.203281 L419.3441,133.203281 L419.3441,131.078281 Z M422.8994,131.078281 L420.623,131.078281 L420.623,133.203281 L422.8994,133.203281 L422.8994,131.078281 Z M426.2447,131.078281 L423.9683,131.078281 L423.9683,133.203281 L426.2447,133.203281 L426.2447,131.078281 Z M429.8,131.078281 L427.5236,131.078281 L427.5236,133.203281 L429.8,133.203281 L429.8,131.078281 Z M396.3008,137.187656 L398.5772,137.187656 L398.5772,135.062656 L396.3008,135.062656 L396.3008,137.187656 Z M399.7154,137.187656 L401.9918,137.187656 L401.9918,135.062656 L399.7154,135.062656 L399.7154,137.187656 Z M403.13,137.187656 L405.4064,137.187656 L405.4064,135.062656 L403.13,135.062656 L403.13,137.187656 Z M406.9016,137.187656 L409.178,137.187656 L409.178,135.062656 L406.9016,135.062656 L406.9016,137.187656 Z M412.5926,135.062656 L410.3162,135.062656 L410.3162,137.187656 L412.5926,137.187656 L412.5926,135.062656 Z M416.0072,135.062656 L413.7308,135.062656 L413.7308,137.187656 L416.0072,137.187656 L416.0072,135.062656 Z M419.4218,135.062656 L417.1454,135.062656 L417.1454,137.187656 L419.4218,137.187656 L419.4218,135.062656 Z M420.7007,137.187656 L422.9771,137.187656 L422.9771,135.062656 L420.7007,135.062656 L420.7007,137.187656 Z M401.98928,140.906194 L401.98928,138.781194 L400.77548,138.781194 L399.71288,138.781194 L396.29828,138.781194 L396.29828,140.906194 L399.71288,140.906194 L400.77548,140.906194 L401.98928,140.906194 Z M405.4043,138.781406 L403.1279,138.781406 L403.1279,140.906406 L405.4043,140.906406 L405.4043,138.781406 Z M409.1759,138.781406 L406.8995,138.781406 L406.8995,140.906406 L409.1759,140.906406 L409.1759,138.781406 Z M410.3141,140.906406 L412.5905,140.906406 L412.5905,138.781406 L410.3141,138.781406 L410.3141,140.906406 Z M413.7287,140.906406 L416.0051,140.906406 L416.0051,138.781406 L413.7287,138.781406 L413.7287,140.906406 Z M417.1433,140.906406 L419.4197,140.906406 L419.4197,138.781406 L417.1433,138.781406 L417.1433,140.906406 Z M422.975,138.781406 L420.6986,138.781406 L420.6986,140.906406 L422.975,140.906406 L422.975,138.781406 Z M396.3659,144.691031 L398.6423,144.691031 L398.6423,142.566031 L396.3659,142.566031 L396.3659,144.691031 Z M399.7805,144.691031 L402.0569,144.691031 L402.0569,142.566031 L399.7805,142.566031 L399.7805,144.691031 Z M403.1951,144.691031 L405.4715,144.691031 L405.4715,142.566031 L403.1951,142.566031 L403.1951,144.691031 Z M413.79569,142.566456 L412.65749,142.566456 L410.38109,142.566456 L409.24289,142.566456 L407.96189,142.566456 L406.96649,142.566456 L406.96649,144.691456 L407.96189,144.691456 L409.24289,144.691456 L410.38109,144.691456 L412.65749,144.691456 L413.79569,144.691456 L416.07209,144.691456 L419.48669,144.691456 L419.48669,142.566456 L416.07209,142.566456 L413.79569,142.566456 Z M420.7658,144.691031 L423.0422,144.691031 L423.0422,142.566031 L420.7658,142.566031 L420.7658,144.691031 Z M425.2493,142.566456 L424.1111,142.566456 L424.1111,144.691456 L425.2493,144.691456 L426.3875,144.691456 L429.9428,144.691456 L429.9428,142.566456 L426.3875,142.566456 L425.2493,142.566456 Z M424.0565,140.906406 L429.8315,140.906406 L429.8315,135.062656 L424.0565,135.062656 L424.0565,140.906406 Z" id="informatiku" fill="#C268C8" sketch:type="MSShapeGroup"></path>
            </g>
        </g>
    </g>
</svg>