<?xml version="1.0" encoding="UTF-8" standalone="no"?>
<svg width="18px" height="18px" viewBox="0 0 18 18" version="1.1" xmlns="http://www.w3.org/2000/svg" xmlns:xlink="http://www.w3.org/1999/xlink" xmlns:sketch="http://www.bohemiancoding.com/sketch/ns">
    <!-- Generator: Sketch 3.1 (8751) - http://www.bohemiancoding.com/sketch -->
    <title>time</title>
    <desc>Created with Sketch.</desc>
    <defs></defs>
    <g id="Schéma" stroke="none" stroke-width="1" fill="none" fill-rule="evenodd" sketch:type="MSPage">
        <g id="Simple-scheme---Desktop-HD" sketch:type="MSArtboardGroup" transform="translate(-776.000000, -217.000000)" fill="#4781A5">
            <g id="matematika-ZS-a-SS" sketch:type="MSLayerGroup" transform="translate(0.000000, 125.000000)">
                <g id="time" transform="translate(776.000000, 89.000000)" sketch:type="MSShapeGroup">
                    <path d="M9.26062632,20.3167526 C9.26867895,20.2764895 9.28478421,20.2389105 9.28478421,20.1950684 L9.28478421,19.7199632 C9.28478421,19.3817526 9.01099474,19.1070684 8.67278421,19.1070684 C8.33367895,19.1070684 8.05988947,19.3817526 8.05988947,19.7199632 L8.05988947,20.1950684 C8.05988947,20.2389105 8.07599474,20.2764895 8.08404737,20.3167526 C4.04252105,20.0223842 0.826836842,16.7413842 0.632678947,12.6730158 C0.667573684,12.6792789 0.699784211,12.6935947 0.737363158,12.6935947 L1.21246842,12.6935947 C1.55067895,12.6935947 1.82446842,12.4198053 1.82446842,12.0807 C1.82446842,11.7433842 1.55067895,11.4687 1.21246842,11.4687 L0.737363158,11.4687 C0.706942105,11.4687 0.682784211,11.4812263 0.654152632,11.4848053 C1.03799474,7.61417368 4.17494211,4.54701579 8.07331053,4.25801579 C8.07062632,4.28127895 8.05988947,4.30096316 8.05988947,4.32422632 L8.05988947,4.80022632 C8.05988947,5.13843684 8.33367895,5.41222632 8.67278421,5.41222632 C9.01099474,5.41222632 9.28478421,5.13843684 9.28478421,4.80022632 L9.28478421,4.32422632 C9.28478421,4.30096316 9.27494211,4.28127895 9.27136316,4.25801579 C13.1706263,4.54701579 16.3066789,7.61417368 16.6914158,11.4848053 C16.6627842,11.4812263 16.6377316,11.4687 16.6073105,11.4687 L16.1331,11.4687 C15.7939947,11.4687 15.5202053,11.7433842 15.5202053,12.0807 C15.5202053,12.4198053 15.7939947,12.6935947 16.1331,12.6935947 L16.6073105,12.6935947 C16.6448895,12.6935947 16.6771,12.6792789 16.7128895,12.6730158 C16.5187316,16.7413842 13.3021526,20.0223842 9.26062632,20.3167526 M8.67278421,3.6147 C3.89131053,3.6147 0.0001,7.50591053 0.0001,12.2873842 C0.0001,17.0688579 3.89131053,20.9591737 8.67278421,20.9591737 C13.4542579,20.9591737 17.3445737,17.0688579 17.3445737,12.2873842 C17.3445737,7.50591053 13.4542579,3.6147 8.67278421,3.6147 Z M9.28505263,12.8448053 L9.28505263,8.61359474 C9.28505263,8.27627895 9.01036842,8.00159474 8.67215789,8.00159474 C8.33394737,8.00159474 8.05926316,8.27627895 8.05926316,8.61359474 L8.05926316,12.9799105 C8.05926316,13.0004895 8.07,13.0174895 8.07178947,13.0380684 C8.05389474,13.2152263 8.104,13.3959632 8.23910526,13.5319632 L9.73778947,15.0297526 C9.97668421,15.2695421 10.365,15.2695421 10.6038947,15.0297526 C10.8427895,14.7908579 10.8427895,14.4025421 10.6038947,14.1645421 L9.28505263,12.8448053 Z"></path>
                </g>
            </g>
        </g>
    </g>
</svg>